<svg width="24" height="24" viewBox="0 0 24 24" fill="none" xmlns="http://www.w3.org/2000/svg">
<path fill-rule="evenodd" clip-rule="evenodd" d="M0 12C0 21.882 2.118 24 12 24C21.882 24 24 21.882 24 12C24 7.10448 23.4802 4.11439 21.7542 2.34329C21.9073 2.51898 22 2.74866 22 3C22 3.55228 21.5523 4 21 4C20.4477 4 20 3.55228 20 3C20 2.44772 20.4477 2 21 2C21.2513 2 21.481 2.09273 21.6567 2.24584C19.8856 0.519798 16.8955 0 12 0C2.118 0 0 2.118 0 12ZM2 12C2 14.4249 2.13254 16.2369 2.43771 17.6101C2.73783 18.9605 3.17768 19.7608 3.70846 20.2915C4.23924 20.8223 5.03949 21.2622 6.38993 21.5623C7.76307 21.8675 9.57515 22 12 22C14.4249 22 16.2369 21.8675 17.6101 21.5623C18.9605 21.2622 19.7608 20.8223 20.2915 20.2915C20.8223 19.7608 21.2622 18.9605 21.5623 17.6101C21.8675 16.2369 22 14.4249 22 12C22 9.57515 21.8675 7.76307 21.5623 6.38993C21.2622 5.03949 20.8223 4.23924 20.2915 3.70846C19.7608 3.17768 18.9605 2.73783 17.6101 2.43771C16.2369 2.13254 14.4249 2 12 2C9.57515 2 7.76307 2.13254 6.38993 2.43771C5.03949 2.73783 4.23924 3.17768 3.70846 3.70846C3.17768 4.23924 2.73783 5.03949 2.43771 6.38993C2.13254 7.76307 2 9.57515 2 12Z" fill="#ABAFD1"/>
<path fill-rule="evenodd" clip-rule="evenodd" d="M18 3C18 4.65685 19.3432 6 21 6C22.6569 6 24 4.65685 24 3C24 1.34315 22.6569 0 21 0C19.3432 0 18 1.34315 18 3ZM21 4C20.4477 4 20 3.55228 20 3C20 2.44772 20.4477 2 21 2C21.5523 2 22 2.44772 22 3C22 3.55228 21.5523 4 21 4Z" fill="#767BFA"/>
<path d="M6.9295 14.3689C6.72597 14.8818 6.14537 15.1329 5.63215 14.9299C5.1186 14.7267 4.86698 14.1457 5.07015 13.6321L6.00002 14C6.9299 14.3679 6.92959 14.3686 6.9295 14.3689Z" fill="#767BFA"/>
<path d="M6.00002 14L6.9299 14.3679L6.93405 14.3576C6.93802 14.3479 6.94455 14.332 6.95356 14.3106C6.9716 14.2678 6.9995 14.2029 7.03669 14.1206C7.11128 13.9554 7.22211 13.7224 7.36444 13.4571C7.65568 12.9141 8.05098 12.2886 8.50473 11.8229C8.97729 11.3379 9.35603 11.1827 9.63406 11.201C9.8874 11.2176 10.4259 11.4064 11.1601 12.5427C12.0413 13.9064 13.0605 14.7176 14.235 14.7947C15.3849 14.8702 16.3042 14.2129 16.9278 13.5729C17.5702 12.9136 18.0691 12.1016 18.3981 11.4883C18.5659 11.1755 18.6966 10.9007 18.7861 10.7026C18.8309 10.6033 18.8657 10.5227 18.8898 10.4654C18.9018 10.4368 18.9113 10.4139 18.918 10.3975L18.926 10.3777L18.9285 10.3715L18.9293 10.3694C18.9294 10.369 18.9299 10.3679 18 10L18.9299 10.3679C19.1331 9.85431 18.8814 9.27329 18.3679 9.07012C17.8546 8.86708 17.274 9.11827 17.0705 9.6312L17.0701 9.63214L17.066 9.64236C17.062 9.6521 17.0555 9.66796 17.0465 9.68937C17.0284 9.73221 17.0005 9.79708 16.9634 9.87943C16.8888 10.0446 16.7779 10.2776 16.6356 10.5429C16.3444 11.0859 15.9491 11.7114 15.4953 12.1771C15.0228 12.6621 14.6441 12.8173 14.366 12.799C14.1127 12.7824 13.5742 12.5936 12.84 11.4573C11.9588 10.0936 10.9396 9.28239 9.76509 9.20527C8.61524 9.12978 7.69589 9.78712 7.07228 10.4271C6.42987 11.0864 5.93093 11.8984 5.60197 12.5117C5.4342 12.8245 5.30343 13.0993 5.21396 13.2974C5.16912 13.3967 5.13437 13.4773 5.11027 13.5346C5.09821 13.5632 5.08879 13.5861 5.08209 13.6025L5.07406 13.6223L5.07159 13.6285L5.07074 13.6306C5.0706 13.631 5.07015 13.6321 6.00002 14Z" fill="#767BFA"/>
</svg>
