<svg width="24" height="24" viewBox="0 0 24 24" fill="none" xmlns="http://www.w3.org/2000/svg">
<path fill-rule="evenodd" clip-rule="evenodd" d="M5.5 11C0.97075 11 0 10.0293 0 5.5C0 0.97075 0.97075 0 5.5 0C10.0293 0 11 0.97075 11 5.5C11 10.0293 10.0293 11 5.5 11ZM2.17482 7.83626C2.06084 7.32339 2 6.58666 2 5.5C2 4.41334 2.06084 3.67661 2.17482 3.16374C2.28375 2.6736 2.41292 2.51857 2.46574 2.46574C2.51857 2.41292 2.6736 2.28375 3.16375 2.17482C3.67661 2.06084 4.41334 2 5.5 2C6.58666 2 7.32339 2.06084 7.83626 2.17482C8.3264 2.28375 8.48143 2.41292 8.53426 2.46574C8.58708 2.51857 8.71625 2.6736 8.82518 3.16374C8.93916 3.67661 9 4.41334 9 5.5C9 6.58666 8.93916 7.32339 8.82518 7.83626C8.71625 8.3264 8.58708 8.48143 8.53426 8.53426C8.48143 8.58708 8.3264 8.71625 7.83626 8.82518C7.32339 8.93916 6.58666 9 5.5 9C4.41334 9 3.67661 8.93916 3.16375 8.82518C2.6736 8.71625 2.51857 8.58708 2.46574 8.53426C2.41292 8.48143 2.28375 8.3264 2.17482 7.83626Z" fill="#ABAFD1"/>
<path fill-rule="evenodd" clip-rule="evenodd" d="M5.5 24C0.97075 24 0 23.0292 0 18.5C0 13.9707 0.97075 13 5.5 13C10.0293 13 11 13.9707 11 18.5C11 23.0292 10.0293 24 5.5 24ZM2.17482 20.8363C2.06084 20.3234 2 19.5867 2 18.5C2 17.4133 2.06084 16.6766 2.17482 16.1637C2.28375 15.6736 2.41292 15.5186 2.46574 15.4657C2.51857 15.4129 2.6736 15.2837 3.16375 15.1748C3.67661 15.0608 4.41334 15 5.5 15C6.58666 15 7.32339 15.0608 7.83626 15.1748C8.3264 15.2837 8.48143 15.4129 8.53426 15.4657C8.58708 15.5186 8.71625 15.6736 8.82518 16.1637C8.93916 16.6766 9 17.4133 9 18.5C9 19.5867 8.93916 20.3234 8.82518 20.8363C8.71625 21.3264 8.58708 21.4814 8.53426 21.5343C8.48143 21.5871 8.3264 21.7163 7.83626 21.8252C7.32339 21.9392 6.58666 22 5.5 22C4.41334 22 3.67661 21.9392 3.16375 21.8252C2.6736 21.7163 2.51857 21.5871 2.46574 21.5343C2.41292 21.4814 2.28375 21.3264 2.17482 20.8363Z" fill="#ABAFD1"/>
<path fill-rule="evenodd" clip-rule="evenodd" d="M13 18.5C13 23.0292 13.9707 24 18.5 24C23.0293 24 24 23.0292 24 18.5C24 13.9707 23.0293 13 18.5 13C13.9707 13 13 13.9707 13 18.5ZM15 18.5C15 19.5867 15.0608 20.3234 15.1748 20.8363C15.2837 21.3264 15.4129 21.4814 15.4657 21.5343C15.5186 21.5871 15.6736 21.7163 16.1637 21.8252C16.6766 21.9392 17.4133 22 18.5 22C19.5867 22 20.3234 21.9392 20.8363 21.8252C21.3264 21.7163 21.4814 21.5871 21.5343 21.5343C21.5871 21.4814 21.7163 21.3264 21.8252 20.8363C21.9392 20.3234 22 19.5867 22 18.5C22 17.4133 21.9392 16.6766 21.8252 16.1637C21.7163 15.6736 21.5871 15.5186 21.5343 15.4657C21.4814 15.4129 21.3264 15.2837 20.8363 15.1748C20.3234 15.0608 19.5867 15 18.5 15C17.4133 15 16.6766 15.0608 16.1637 15.1748C15.6736 15.2837 15.5186 15.4129 15.4657 15.4657C15.4129 15.5186 15.2837 15.6736 15.1748 16.1637C15.0608 16.6766 15 17.4133 15 18.5Z" fill="#ABAFD1"/>
<path d="M19.5 2C19.5 1.44772 19.0523 1 18.5 1C17.9477 1 17.5 1.44772 17.5 2V4.5H15C14.4477 4.5 14 4.94772 14 5.5C14 6.05228 14.4477 6.5 15 6.5H17.5V9C17.5 9.55228 17.9477 10 18.5 10C19.0523 10 19.5 9.55228 19.5 9V6.5H22C22.5523 6.5 23 6.05228 23 5.5C23 4.94772 22.5523 4.5 22 4.5H19.5V2Z" fill="#767BFA"/>
</svg>
