<svg width="24" height="24" viewBox="0 0 24 24" fill="none" xmlns="http://www.w3.org/2000/svg">
<path fill-rule="evenodd" clip-rule="evenodd" d="M0 12C0 21.882 2.118 24 12 24C21.882 24 24 21.882 24 12C24 2.118 21.882 0 12 0C2.118 0 0 2.118 0 12ZM2 12C2 14.4249 2.13254 16.2369 2.43771 17.6101C2.73783 18.9605 3.17768 19.7608 3.70846 20.2915C4.23924 20.8223 5.03949 21.2622 6.38993 21.5623C7.76307 21.8675 9.57515 22 12 22C14.4249 22 16.2369 21.8675 17.6101 21.5623C18.9605 21.2622 19.7608 20.8223 20.2915 20.2915C20.8223 19.7608 21.2622 18.9605 21.5623 17.6101C21.8675 16.2369 22 14.4249 22 12C22 9.57515 21.8675 7.76307 21.5623 6.38993C21.2622 5.03949 20.8223 4.23924 20.2915 3.70846C19.7608 3.17768 18.9605 2.73783 17.6101 2.43771C16.2369 2.13254 14.4249 2 12 2C9.57515 2 7.76307 2.13254 6.38993 2.43771C5.03949 2.73783 4.23924 3.17768 3.70846 3.70846C3.17768 4.23924 2.73783 5.03949 2.43771 6.38993C2.13254 7.76307 2 9.57515 2 12Z" fill="#ABAFD1"/>
<path fill-rule="evenodd" clip-rule="evenodd" d="M5.53285 9.32119C5.00303 10.6003 4.86441 12.0077 5.13451 13.3656C5.4046 14.7235 6.07129 15.9708 7.05026 16.9497C8.02922 17.9287 9.2765 18.5954 10.6344 18.8655C11.9922 19.1356 13.3997 18.9969 14.6788 18.4671C15.9579 17.9373 17.0511 17.0401 17.8203 15.889C18.5462 14.8026 18.9527 13.5361 18.9961 12.2333C19.0194 11.536 18.4537 11 17.8 11H13V6.19998C13 5.54627 12.464 4.98062 11.7667 5.00387C10.4639 5.0473 9.19741 5.45379 8.11101 6.17969C6.95987 6.94886 6.06266 8.04211 5.53285 9.32119ZM7.09608 12.9754C6.90315 12.0055 7.00217 11.0002 7.38061 10.0866C7.75904 9.17293 8.39991 8.39204 9.22215 7.84263C9.76374 7.48075 10.368 7.23001 11 7.101L11 11.8C11 12.4627 11.5373 13 12.2 13H16.899C16.77 13.632 16.5192 14.2362 16.1574 14.7778C15.6079 15.6001 14.8271 16.2409 13.9134 16.6194C12.9998 16.9978 11.9945 17.0968 11.0246 16.9039C10.0546 16.711 9.16373 16.2348 8.46447 15.5355C7.76521 14.8362 7.289 13.9453 7.09608 12.9754Z" fill="#767BFA"/>
</svg>
