<svg width="16" height="26" viewBox="0 0 16 26" fill="none" xmlns="http://www.w3.org/2000/svg">
<path d="M5.12132 2.29289C5.30886 2.10536 5.56321 2 5.82843 2H7V4C7 4.55228 7.44772 5 8 5C8.55228 5 9 4.55228 9 4V2H11C11.5523 2 12 1.55228 12 1C12 0.447715 11.5523 0 11 0H5.82843C5.03278 0 4.26972 0.31607 3.70711 0.878679L3.29289 1.29289C2.90237 1.68342 2.90237 2.31658 3.29289 2.70711C3.68342 3.09763 4.31658 3.09763 4.70711 2.70711L5.12132 2.29289Z" fill="#767BFA"/>
<path fill-rule="evenodd" clip-rule="evenodd" d="M6.71442 6.00004C6.65809 6.44861 6.50889 7.23596 5.95783 7.91362C5.19686 8.84942 4.08426 9.14288 2.99984 9.14288C2.7927 9.14288 2.76417 9.18279 2.75046 9.20199C2.7489 9.20416 2.74754 9.20607 2.74613 9.20762C2.65883 9.30375 2.4801 9.58965 2.32645 10.2744C2.01145 11.6781 2 13.7348 2 16.4209C2 18.38 2.08857 19.8319 2.2902 20.9219C2.49089 22.0069 2.77704 22.5807 3.0592 22.9157C3.58021 23.5342 4.65977 24 8 24C11.3196 24 12.4087 23.5174 12.9355 22.8867C13.2229 22.5426 13.5095 21.9612 13.71 20.881C13.9115 19.7954 14 18.3562 14 16.4218C14 13.7894 13.9888 11.7288 13.6728 10.3098C13.5182 9.61534 13.3368 9.31519 13.2424 9.20944C13.2403 9.20703 13.2383 9.20439 13.2362 9.20157C13.2183 9.178 13.1917 9.14288 13 9.14288C11.9156 9.14288 10.803 8.84943 10.042 7.91359C9.49099 7.23595 9.3418 6.44865 9.28549 6.00005L6.71442 6.00004ZM10 4.00006C11.0935 4.00005 11.1621 4.69024 11.235 5.42375C11.3177 6.25548 11.4059 7.14288 13 7.14288C16 7.14288 16 11.3357 16 16.4218C16 24.3094 14.588 26 8 26C1.412 26 -6.97793e-07 24.4036 0 16.4218C4.53535e-07 11.2339 7.15256e-07 7.14288 2.99984 7.14288C4.59396 7.14288 4.68222 6.25547 4.76494 5.42373C4.83789 4.69022 4.90654 4.00001 6 4.00003L10 4.00006Z" fill="#ABAFD1"/>
</svg>
