<svg width="19" height="25" viewBox="0 0 19 25" fill="none" xmlns="http://www.w3.org/2000/svg">
<path d="M8.6871 9.05047C8.14219 8.9061 7.58023 9.22969 7.43977 9.76993C5.56374 16.9855 6.09813 18.8207 9.98999 19.8519C14.0526 20.9282 15.3899 19.437 17.567 11.4031C19.7441 3.36925 19.34 1.41667 15.2775 0.340334C12.8681 -0.298004 11.4173 -0.0332665 10.1813 1.96376C9.85106 2.49737 10.1758 3.17116 10.7869 3.33308L10.82 3.34185C11.2887 3.46602 11.7684 3.23838 12.039 2.84016C12.1343 2.69984 12.2248 2.58404 12.3104 2.48857C12.5797 2.18831 12.7795 2.10696 13.0042 2.07192C13.3179 2.02298 13.8372 2.05 14.7487 2.29149C15.6602 2.53297 16.1236 2.76632 16.3706 2.96382C16.5475 3.10525 16.6793 3.27446 16.7607 3.66762C16.8583 4.13938 16.8698 4.8965 16.6794 6.13251C16.4918 7.35029 16.1322 8.89314 15.5937 10.8803C15.0552 12.8675 14.5865 14.3814 14.1331 15.5288C13.6729 16.6933 13.2801 17.3433 12.957 17.7036C12.6877 18.0039 12.488 18.0852 12.2633 18.1203C11.9496 18.1692 11.4302 18.1422 10.5187 17.9007C9.60726 17.6592 9.14384 17.4259 8.89687 17.2284C8.72 17.0869 8.58816 16.9177 8.50679 16.5246C8.40915 16.0528 8.39768 15.2957 8.58806 14.0597C8.74368 13.0493 9.01775 11.8151 9.41417 10.289C9.55451 9.74878 9.23202 9.19484 8.6871 9.05047Z" fill="#ABAFD1"/>
<path d="M4.98572 22.7086C5.8972 22.95 6.41653 22.9771 6.73029 22.9281C6.95498 22.8931 7.15472 22.8117 7.42401 22.5115C7.50962 22.416 7.60012 22.3002 7.69548 22.1599C7.96608 21.7617 8.44578 21.534 8.91446 21.6582L8.94753 21.667C9.55868 21.8289 9.88339 22.5027 9.55313 23.0363C8.31718 25.0333 6.86635 25.298 4.45697 24.6597C0.394409 23.5834 -0.00969493 21.6308 2.16743 13.5969C4.34455 5.56306 5.68189 4.07186 9.74445 5.1482C13.6363 6.17931 14.1707 8.01457 12.2947 15.2301C12.1542 15.7704 11.5923 16.0939 11.0473 15.9496C10.5024 15.8052 10.1799 15.2513 10.3203 14.711C10.7167 13.1849 10.9908 11.9508 11.1464 10.9404C11.3368 9.70436 11.3253 8.94724 11.2277 8.47548C11.1463 8.08232 11.0144 7.91311 10.8376 7.77168C10.5906 7.57418 10.1272 7.34084 9.21571 7.09935C8.30422 6.85786 7.7849 6.83084 7.47114 6.87978C7.24645 6.91482 7.0467 6.99617 6.77742 7.29643C6.45431 7.65672 6.06151 8.30674 5.60136 9.47127C5.14799 10.6186 4.67925 12.1326 4.14074 14.1197C3.60223 16.1069 3.2426 17.6498 3.05504 18.8675C2.86466 20.1035 2.87613 20.8607 2.97377 21.3324C3.05514 21.7256 3.18699 21.8948 3.36385 22.0362C3.61082 22.2337 4.07424 22.4671 4.98572 22.7086Z" fill="#767BFA"/>
</svg>
