<svg width="20" height="28" viewBox="0 0 20 28" fill="none" xmlns="http://www.w3.org/2000/svg">
<path fill-rule="evenodd" clip-rule="evenodd" d="M16.7957 3.57526C17.3281 3.42873 17.8786 3.74161 18.0251 4.2741L17.061 4.53942C18.0251 4.2741 18.0253 4.27469 18.0255 4.27528L18.0258 4.27653L18.0265 4.27923L18.0282 4.28541L18.0322 4.30094C18.0352 4.31271 18.0388 4.32731 18.0429 4.34478C18.0511 4.37972 18.0613 4.42612 18.0726 4.48426C18.0953 4.60056 18.1226 4.76372 18.1479 4.97602C18.1985 5.40071 18.2409 6.0213 18.2224 6.85604C18.1854 8.52541 17.9048 11.0496 16.9598 14.5762C15.6981 19.2851 14.3709 22.338 12.7399 24.0668C11.8992 24.9579 10.9631 25.5142 9.91638 25.7477C8.88386 25.9781 7.82561 25.8762 6.76149 25.591C5.69737 25.3059 4.72994 24.865 3.95094 24.1493C3.16123 23.4237 2.62866 22.4739 2.34614 21.2818C1.79802 18.9691 2.17511 15.6617 3.43688 10.9527C4.72788 6.13463 6.77507 3.66416 8.98504 2.87425C11.2072 2.07999 13.3027 3.11047 14.1547 4.62613C14.5601 5.34741 14.8272 6.51999 14.7564 8.1754C14.685 9.84854 14.2665 12.0808 13.2243 14.9822C12.8432 16.0641 12.3114 17.4279 11.6038 18.4702C10.9365 19.4531 9.80058 20.5789 8.2181 20.1549C6.8156 19.7791 6.27057 18.588 6.12903 17.4606C5.99014 16.3543 6.18633 15.0649 6.46238 13.9102C6.74351 12.7342 7.13236 11.5995 7.44706 10.766C7.60514 10.3473 7.74616 10.0003 7.84819 9.75676C7.89924 9.63489 7.94062 9.53871 7.96962 9.47215C7.98412 9.43887 7.99553 9.41298 8.00351 9.39498L8.01287 9.37394L8.01555 9.36797L8.01637 9.36614C8.01647 9.36591 8.01684 9.36509 8.9286 9.77582L8.01684 9.36509C8.24369 8.86154 8.83578 8.63723 9.33933 8.86407C9.8428 9.09087 10.0671 9.68281 9.84047 10.1863L9.83879 10.19L9.8319 10.2055L9.80315 10.271C9.77765 10.3295 9.74 10.417 9.69286 10.5295C9.59852 10.7547 9.46654 11.0794 9.31815 11.4725C9.01992 12.2624 8.66196 13.3111 8.40757 14.3752C8.14811 15.4605 8.02008 16.4678 8.11345 17.2114C8.20416 17.9339 8.44786 18.1459 8.73574 18.223C8.9703 18.2859 9.35762 18.218 9.94904 17.3469C10.4994 16.5361 10.9613 15.3871 11.3389 14.3148L11.341 14.3088C12.3339 11.5454 12.6974 9.51457 12.7583 8.09004C12.8199 6.64723 12.5694 5.88747 12.4113 5.60615C12.0239 4.91703 10.9373 4.30035 9.6582 4.75756C8.36691 5.21911 6.59369 6.89871 5.36873 11.4703C4.11453 16.1511 3.86853 19.0328 4.29224 20.8206C4.49564 21.6788 4.8477 22.2572 5.30411 22.6765C5.77123 23.1057 6.41141 23.4267 7.27913 23.6592C8.14685 23.8917 8.86172 23.9338 9.48086 23.7957C10.0858 23.6607 10.6799 23.3359 11.2851 22.6944C12.546 21.3579 13.7738 18.7393 15.028 14.0585C15.9369 10.6663 16.1898 8.3016 16.2229 6.81169C16.2394 6.06679 16.201 5.54016 16.162 5.21253C16.1424 5.04868 16.1228 4.93441 16.1097 4.86732C16.1031 4.83377 16.0982 4.81198 16.0958 4.80166C16.0952 4.7989 16.0947 4.79696 16.0944 4.79583C15.9538 4.26612 16.2661 3.72098 16.7957 3.57526Z" fill="#ABAFD1"/>
</svg>
