<svg width="24" height="24" viewBox="0 0 24 24" fill="none" xmlns="http://www.w3.org/2000/svg">
<path d="M5.26879 4.27466C1.07538 4.77467 0 6.06609 0 9.00004C0 12.0108 1.1324 13.2919 5.60447 13.7631C5.37545 13.1797 5.22826 12.5525 5.17763 11.8925C5.17261 11.827 5.16765 11.7613 5.16278 11.6955C4.19587 11.5627 3.52723 11.3912 3.06348 11.1979C2.51426 10.9691 2.34242 10.7504 2.25002 10.5771C2.12217 10.3374 2 9.89395 2 9.00004C2 8.10612 2.12217 7.66265 2.25002 7.42296C2.34242 7.24971 2.51426 7.03097 3.06348 6.80213C3.50646 6.61755 4.13638 6.45273 5.03465 6.32263C5.07382 5.55898 5.14833 4.86202 5.26879 4.27466Z" fill="#767BFA"/>
<path d="M18.8372 11.6955C19.8041 11.5627 20.4728 11.3912 20.9365 11.1979C21.4857 10.9691 21.6576 10.7504 21.75 10.5771C21.8778 10.3374 22 9.89395 22 9.00004C22 8.10612 21.8778 7.66265 21.75 7.42296C21.6576 7.24971 21.4857 7.03097 20.9365 6.80213C20.4935 6.61755 19.8636 6.45273 18.9653 6.32263C18.9262 5.55898 18.8517 4.86202 18.7312 4.27466C22.9246 4.77467 24 6.06609 24 9.00004C24 12.0108 22.8676 13.2919 18.3955 13.7631C18.6246 13.1797 18.7717 12.5525 18.8224 11.8925C18.8274 11.827 18.8324 11.7613 18.8372 11.6955Z" fill="#767BFA"/>
<path fill-rule="evenodd" clip-rule="evenodd" d="M4.9756 1.993C7.17069 -0.664204 16.8293 -0.664466 19.0244 1.993C20.1715 3.38176 20.1197 7.96358 19.8088 12.0219C19.5259 15.7136 16.597 18.4991 13 18.9392V22H15C15.5523 22 16 22.4477 16 23C16 23.5523 15.5523 24 15 24H9C8.44771 24 8 23.5523 8 23C8 22.4477 8.44771 22 9 22H11V18.9392C7.40298 18.4991 4.47407 15.7135 4.19123 12.0219C3.88029 7.9635 3.82846 3.38163 4.9756 1.993ZM6.51752 3.26677C6.66281 3.09088 7.17879 2.72998 8.30232 2.43105C9.34893 2.15259 10.6527 2.00001 12 2C13.3474 1.99998 14.6511 2.15253 15.6977 2.43098C16.8212 2.72989 17.3371 3.0908 17.4824 3.26669C17.4796 3.26328 17.4803 3.26448 17.4838 3.27111C17.5035 3.30746 17.6117 3.50716 17.7214 4.00542C17.8401 4.5443 17.9231 5.25301 17.9659 6.10651C18.0513 7.80965 17.9675 9.87339 17.8146 11.8691C17.5926 14.7663 15.0869 17 12 17C8.91306 17 6.40736 14.7662 6.18539 11.8691C6.03248 9.87334 5.94874 7.80958 6.03413 6.10643C6.07692 5.25293 6.15985 4.54422 6.27855 4.00536C6.38826 3.50726 6.4964 3.30757 6.5161 3.27119C6.5197 3.26454 6.52035 3.26334 6.51752 3.26677Z" fill="#ABAFD1"/>
</svg>
