<svg width="24" height="24" viewBox="0 0 24 24" fill="none" xmlns="http://www.w3.org/2000/svg">
<path d="M8 6C8 6.55228 7.55228 7 7 7C6.44772 7 6 6.55228 6 6C6 4.06198 6.7367 2.53498 7.89814 1.50259C9.04117 0.486564 10.5369 0 12 0C13.4631 0 14.9588 0.486564 16.1019 1.50259C17.2633 2.53498 18 4.06198 18 6C18 6.55228 17.5523 7 17 7C16.4477 7 16 6.55228 16 6C16 4.60469 15.4867 3.63169 14.7731 2.99741C14.0412 2.34677 13.0369 2 12 2C10.9631 2 9.95883 2.34677 9.22686 2.99741C8.5133 3.63169 8 4.60469 8 6Z" fill="#767BFA"/>
<path d="M7 9C6.44772 9 6 9.44771 6 10C6 10.5523 6.44772 11 7 11H17C17.5523 11 18 10.5523 18 10C18 9.44771 17.5523 9 17 9H7Z" fill="#767BFA"/>
<path fill-rule="evenodd" clip-rule="evenodd" d="M12 24C21.4928 24 25.4487 23 23.5274 14.5C23.4508 14.2007 23.377 13.9102 23.3054 13.6282C21.5822 6.84356 21.114 5 12 5C2.88602 5 2.41779 6.84353 0.694654 13.628C0.623019 13.9101 0.549216 14.2007 0.472531 14.5C-1.44868 23 2.50713 24 12 24ZM2.63868 14.099C2.56811 14.3766 2.49455 14.666 2.41719 14.9681C1.96831 16.9642 1.91972 18.2994 2.09195 19.191C2.24662 19.9916 2.5749 20.4407 3.07851 20.7822C3.671 21.184 4.63703 21.5188 6.19181 21.729C7.72683 21.9365 9.64142 22 12 22C14.3586 22 16.2732 21.9365 17.8082 21.729C19.363 21.5188 20.329 21.184 20.9215 20.7822C21.4251 20.4407 21.7534 19.9916 21.9081 19.191C22.0803 18.2994 22.0317 16.9642 21.5828 14.9681C21.5054 14.6661 21.4319 14.3767 21.3614 14.0992C20.9832 12.6114 20.6911 11.4621 20.3603 10.5046C19.9745 9.38767 19.6092 8.76698 19.1975 8.36029C18.3937 7.5662 16.8159 7 12 7C7.1841 7 5.60631 7.5662 4.8025 8.36029C4.39083 8.76698 4.02554 9.38767 3.63968 10.5046C3.30893 11.462 3.01681 12.6113 2.63868 14.099Z" fill="#ABAFD1"/>
</svg>
