<svg width="24" height="24" viewBox="0 0 24 24" fill="none" xmlns="http://www.w3.org/2000/svg">
<path d="M20 17H4V19H20V17Z" fill="#767BFA"/>
<path fill-rule="evenodd" clip-rule="evenodd" d="M12 0C9.24193 0 6.80833 1.48974 5.67247 3.7156C2.53697 4.08926 0 6.56424 0 9.70835C0 11.8791 1.22288 13.7441 3.00308 14.8024C3.00092 15.083 3 15.3747 3 15.678L3 15.741C2.99998 17.4642 2.99997 18.8555 3.12048 19.9304C3.24195 21.0137 3.50313 21.9837 4.19659 22.6979C4.93351 23.4569 5.97428 23.738 7.1671 23.8692C8.35735 24 9.93103 24 11.9338 24H12.0661C14.0689 24 15.6426 24 16.8329 23.8692C18.0257 23.738 19.0665 23.4569 19.8034 22.6979C20.4969 21.9837 20.7581 21.0137 20.8795 19.9304C21 18.8555 21 17.4642 21 15.741V15.678C21 15.3747 20.9991 15.083 20.9969 14.8024C22.7771 13.7441 24 11.8791 24 9.70835C24 6.56424 21.463 4.08926 18.3275 3.7156C17.1917 1.48974 14.7581 0 12 0ZM7.2738 5.02812C7.93762 3.30427 9.77013 2 12 2C14.2299 2 16.0624 3.30427 16.7262 5.02812C16.8714 5.40524 17.2293 5.65789 17.6333 5.66842C20.1372 5.73374 22 7.59341 22 9.70835C22 11.2332 21.0485 12.6081 19.5674 13.2986C19.2099 13.4653 18.9838 13.8265 18.9901 14.2209C18.9972 14.669 19 15.1535 19 15.678C19 17.4786 18.9985 18.7574 18.892 19.7075C18.7849 20.6623 18.5891 21.0775 18.3685 21.3047C18.1357 21.5444 17.6926 21.7626 16.6143 21.8812C15.5466 21.9985 14.0837 22 12 22C9.91631 22 8.45339 21.9985 7.38566 21.8812C6.30744 21.7626 5.86425 21.5444 5.63152 21.3047C5.41093 21.0775 5.21508 20.6623 5.10803 19.7075C5.0015 18.7574 5 17.4786 5 15.678C5 15.1535 5.00279 14.669 5.00993 14.2209C5.01621 13.8265 4.79009 13.4653 4.43261 13.2986C2.95148 12.6081 2 11.2332 2 9.70835C2 7.59341 3.86275 5.73374 6.36668 5.66842C6.77066 5.65789 7.12858 5.40524 7.2738 5.02812Z" fill="#ABAFD1"/>
</svg>
