<svg width="24" height="24" viewBox="0 0 24 24" fill="none" xmlns="http://www.w3.org/2000/svg">
<path d="M12.7704 9.69067C13.1958 9.2652 13.1958 8.57538 12.7704 8.14991C12.3449 7.72444 11.6551 7.72444 11.2296 8.14991C10.8042 8.57538 10.8042 9.2652 11.2296 9.69067C11.6551 10.1161 12.3449 10.1161 12.7704 9.69067Z" fill="#767BFA"/>
<path d="M9.68865 12.7719C10.1141 12.3464 10.1141 11.6566 9.68865 11.2311C9.26319 10.8057 8.57337 10.8057 8.1479 11.2311C7.72243 11.6566 7.72243 12.3464 8.1479 12.7719C8.57337 13.1974 9.26319 13.1974 9.68865 12.7719Z" fill="#767BFA"/>
<path d="M12.7704 15.8531C13.1958 15.4276 13.1958 14.7378 12.7704 14.3124C12.3449 13.8869 11.6551 13.8869 11.2296 14.3124C10.8042 14.7378 10.8042 15.4276 11.2296 15.8531C11.6551 16.2786 12.3449 16.2786 12.7704 15.8531Z" fill="#767BFA"/>
<path d="M15.8515 11.2311C16.277 11.6566 16.277 12.3464 15.8515 12.7719C15.4261 13.1974 14.7362 13.1974 14.3108 12.7719C13.8853 12.3464 13.8853 11.6566 14.3108 11.2311C14.7362 10.8057 15.4261 10.8057 15.8515 11.2311Z" fill="#767BFA"/>
<path fill-rule="evenodd" clip-rule="evenodd" d="M6.60735 17.3926C14.2202 25.0055 16.8037 25.6854 21.2445 21.2445C25.6854 16.8037 25.0055 14.2202 17.3926 6.60735C9.77977 -1.00552 7.19631 -1.68538 2.75547 2.75547C-1.68538 7.19631 -1.00552 9.77977 6.60735 17.3926ZM12.1403 19.564L19.564 12.1403C18.6342 11.0164 17.4113 9.71155 15.8499 8.15013C14.289 6.58925 12.9845 5.36662 11.8609 4.43692L4.43692 11.8609C5.36662 12.9845 6.58925 14.289 8.15013 15.8499C9.71155 17.4113 11.0164 18.6342 12.1403 19.564ZM3.12105 10.0952L10.0952 3.12105C9.36398 2.6498 8.79072 2.39267 8.32929 2.27124C7.74618 2.11779 7.27939 2.1615 6.73787 2.40423C6.11275 2.68443 5.3418 3.25468 4.29824 4.29824C3.25468 5.3418 2.68443 6.11275 2.40423 6.73787C2.1615 7.27939 2.11779 7.74618 2.27124 8.32929C2.39267 8.79072 2.6498 9.36399 3.12105 10.0952ZM20.8798 13.906C21.3505 14.6367 21.6074 15.2096 21.7288 15.6707C21.8822 16.2538 21.8385 16.7206 21.5958 17.2621C21.3156 17.8872 20.7453 18.6582 19.7018 19.7018C18.6582 20.7453 17.8872 21.3156 17.2621 21.5958C16.7206 21.8385 16.2538 21.8822 15.6707 21.7288C15.2096 21.6074 14.6367 21.3505 13.906 20.8798L20.8798 13.906Z" fill="#ABAFD1"/>
</svg>
