<svg width="24" height="24" viewBox="0 0 24 24" fill="none" xmlns="http://www.w3.org/2000/svg">
<path fill-rule="evenodd" clip-rule="evenodd" d="M0 12C0 21 3 24 12 24C21 24 24 21 24 12C24 3 21 0 12 0C3 0 0 3 0 12ZM3.19521 18.8216C3.98324 17.9835 4.62192 17.0145 5.0817 15.9565C5.62641 14.7031 5.90848 13.3513 5.91048 11.9846C5.9125 10.6179 5.63441 9.26534 5.09339 8.01031C4.63688 6.95134 4.00135 5.98078 3.21617 5.14056C2.43972 6.53003 2 8.65551 2 12C2 15.3143 2.43181 17.4315 3.19521 18.8216ZM4.52411 3.61737C5.53611 4.66128 6.35107 5.88158 6.92783 7.21952C7.5769 8.7252 7.91052 10.3479 7.90811 11.9876C7.9057 13.6272 7.56731 15.2489 6.91381 16.7527C6.3314 18.0929 5.50973 19.314 4.49052 20.357C5.83942 21.3972 8.08419 22 12 22C15.9251 22 18.1713 21.3943 19.5191 20.3495C18.5033 19.3082 17.6841 18.0897 17.1031 16.7527C16.4496 15.2489 16.1112 13.6272 16.1088 11.9876C16.1064 10.3479 16.44 8.7252 17.0891 7.21952C17.6645 5.88474 18.4769 4.66704 19.4856 3.62476C18.1342 2.59572 15.8928 2 12 2C8.11652 2 5.8766 2.59287 4.52411 3.61737ZM20.7901 5.1519C20.0098 5.9895 19.378 6.95609 18.9235 8.01031C18.3825 9.26534 18.1044 10.6179 18.1064 11.9846C18.1084 13.3513 18.3905 14.7031 18.9352 15.9565C19.3929 17.0097 20.0279 17.9747 20.811 18.8102C21.5705 17.4199 22 15.3053 22 12C22 8.6646 21.5627 6.54158 20.7901 5.1519Z" fill="#ABAFD1"/>
<rect width="6" height="2" rx="1" transform="matrix(-1 0 0 1 9.94678 11)" fill="#767BFA"/>
<rect width="6" height="2" rx="1" transform="matrix(-1 0 0 1 19.9468 11)" fill="#767BFA"/>
<rect width="5" height="2" rx="1" transform="matrix(-0.965926 0.258819 0.258819 0.965926 8.3623 5.85205)" fill="#767BFA"/>
<rect x="15.468" y="5.87158" width="5" height="2" rx="1" transform="rotate(15 15.468 5.87158)" fill="#767BFA"/>
<rect width="4.9996" height="2" rx="1" transform="matrix(-0.965926 0.258819 0.258819 0.965926 19.7758 14.8706)" fill="#767BFA"/>
<rect x="4.03052" y="14.8838" width="5" height="2" rx="1" transform="rotate(15 4.03052 14.8838)" fill="#767BFA"/>
</svg>
