<svg width="24" height="24" viewBox="0 0 24 24" fill="none" xmlns="http://www.w3.org/2000/svg">
<path d="M12 1C12.5523 1 13 1.44772 13 2V22C13 22.5523 12.5523 23 12 23C11.4477 23 11 22.5523 11 22V2C11 1.44772 11.4477 1 12 1Z" fill="#767BFA"/>
<path d="M4.10852 20.7308C5.30557 19.6103 6.26031 18.2565 6.91381 16.7527C7.56731 15.2489 7.9057 13.6272 7.90811 11.9876C7.91052 10.3479 7.5769 8.7252 6.92783 7.21952C6.27875 5.71383 5.32801 4.35714 4.13425 3.23315L2.76486 4.68755C3.75989 5.62443 4.55237 6.75528 5.09339 8.01031C5.63441 9.26534 5.9125 10.6179 5.91048 11.9846C5.90848 13.3513 5.62641 14.7031 5.0817 15.9565C4.53699 17.2099 3.74119 18.3384 2.74341 19.2724L4.10852 20.7308Z" fill="#767BFA"/>
<path d="M19.9084 20.7308C18.7113 19.6103 17.7566 18.2565 17.1031 16.7527C16.4496 15.2489 16.1112 13.6272 16.1088 11.9876C16.1064 10.3479 16.44 8.7252 17.0891 7.21952C17.7381 5.71383 18.6889 4.35714 19.8826 3.23315L21.252 4.68755C20.257 5.62443 19.4645 6.75528 18.9235 8.01031C18.3825 9.26534 18.1044 10.6179 18.1064 11.9846C18.1084 13.3513 18.3905 14.7031 18.9352 15.9565C19.4799 17.2099 20.2757 18.3384 21.2735 19.2724L19.9084 20.7308Z" fill="#767BFA"/>
<path fill-rule="evenodd" clip-rule="evenodd" d="M0 12C0 21 3 24 12 24C21 24 24 21 24 12C24 3 21 0 12 0C3 0 0 3 0 12ZM2.01402 13C2.12274 16.7442 2.85845 18.78 4.03921 19.9608C5.32109 21.2427 7.6108 22 12 22C16.3892 22 18.6789 21.2427 19.9608 19.9608C21.1416 18.78 21.8773 16.7442 21.986 13H2.01402ZM2.01402 11H21.986C21.8773 7.25585 21.1416 5.21998 19.9608 4.03921C18.6789 2.75734 16.3892 2 12 2C7.6108 2 5.32109 2.75734 4.03921 4.03921C2.85845 5.21998 2.12274 7.25585 2.01402 11Z" fill="#ABAFD1"/>
</svg>
