<svg width="24" height="24" viewBox="0 0 24 24" fill="none" xmlns="http://www.w3.org/2000/svg">
<path fill-rule="evenodd" clip-rule="evenodd" d="M0 12C0 21.882 2.118 24 12 24C21.882 24 24 21.882 24 12C24 2.118 21.882 0 12 0C2.118 0 0 2.118 0 12ZM2 12C2 14.4249 2.13254 16.2369 2.43771 17.6101C2.73783 18.9605 3.17768 19.7608 3.70846 20.2915C4.23924 20.8223 5.03949 21.2622 6.38993 21.5623C7.76307 21.8675 9.57515 22 12 22C14.4249 22 16.2369 21.8675 17.6101 21.5623C18.9605 21.2622 19.7608 20.8223 20.2915 20.2915C20.8223 19.7608 21.2622 18.9605 21.5623 17.6101C21.8675 16.2369 22 14.4249 22 12C22 9.57515 21.8675 7.76307 21.5623 6.38993C21.2622 5.03949 20.8223 4.23924 20.2915 3.70846C19.7608 3.17768 18.9605 2.73783 17.6101 2.43771C16.2369 2.13254 14.4249 2 12 2C9.57515 2 7.76307 2.13254 6.38993 2.43771C5.03949 2.73783 4.23924 3.17768 3.70846 3.70846C3.17768 4.23924 2.73783 5.03949 2.43771 6.38993C2.13254 7.76307 2 9.57515 2 12Z" fill="#ABAFD1"/>
<path fill-rule="evenodd" clip-rule="evenodd" d="M15.2706 11.7771C15.8118 12.0514 16.2353 12.4286 16.5412 12.9086C16.8471 13.3886 17 13.9429 17 14.5714C17 15.5543 16.6412 16.3714 15.9235 17.0229C15.2059 17.6743 14.3294 18 13.2941 18H9C8.44772 18 8 17.5523 8 17V7C8 6.44772 8.44772 6 9 6H12.9059C13.9176 6 14.7706 6.32 15.4647 6.96C16.1706 7.58857 16.5235 8.37714 16.5235 9.32571C16.5235 10.3657 16.1059 11.1829 15.2706 11.7771ZM12.9059 7.85143H10.0294V11.0057H12.9059C13.3529 11.0057 13.7294 10.8571 14.0353 10.56C14.3412 10.2514 14.4941 9.87429 14.4941 9.42857C14.4941 8.98286 14.3412 8.61143 14.0353 8.31429C13.7294 8.00571 13.3529 7.85143 12.9059 7.85143ZM13.2941 16.1486C13.7647 16.1486 14.1588 15.9886 14.4765 15.6686C14.8059 15.3371 14.9706 14.9371 14.9706 14.4686C14.9706 14 14.8059 13.6057 14.4765 13.2857C14.1588 12.9543 13.7647 12.7886 13.2941 12.7886H10.0294V16.1486H13.2941Z" fill="#767BFA"/>
</svg>
