<svg width="20" height="25" viewBox="0 0 20 25" fill="none" xmlns="http://www.w3.org/2000/svg">
<path fill-rule="evenodd" clip-rule="evenodd" d="M9.92578e-07 11.9001C-2.80945e-05 16.4748 0.177361 19.6287 0.311757 21.3616C0.485477 23.6016 2.9986 24.7387 4.79665 23.4769C5.86269 22.7477 6.84434 21.9661 7.58629 21.3754C7.93535 21.0975 8.23146 20.8618 8.45823 20.6937C9.29727 20.0718 9.65633 20 10 20C10.3437 20 10.7027 20.0718 11.5418 20.6937C11.7685 20.8618 12.0646 21.0975 12.4137 21.3754C13.1556 21.9662 14.1373 22.7477 15.2034 23.4769C17.0014 24.7386 19.5145 23.6016 19.6882 21.3616C19.8226 19.6287 20 16.4748 20 11.9001V11.8189C20 10.0277 20.0001 8.3966 19.8655 7.02005C19.7294 5.62717 19.4375 4.2414 18.6807 3.06803C17.0451 0.532031 13.966 -0.0160136 9.99174 0.000351665C6.02601 0.016682 2.95464 0.570571 1.32186 3.08873C0.563252 4.25871 0.27086 5.63959 0.134554 7.0286C-5.95599e-05 8.40036 -3.11939e-05 10.0276 9.92578e-07 11.818V11.9001ZM2.30577 21.2069C2.35831 21.8844 3.10687 22.2264 3.65521 21.8345C4.6831 21.1323 5.50103 20.4789 6.20517 19.9164C7.67423 18.7428 8.64802 17.9649 10 17.9649C11.352 17.9649 12.3258 18.7428 13.7948 19.9164C14.4989 20.4789 15.3169 21.1323 16.3447 21.8345C16.8931 22.2264 17.6416 21.8844 17.6942 21.2069C17.8246 19.5253 18 16.423 18 11.9001C18 4.47129 18 1.96739 9.99997 2.00033C2 2.03328 2 4.47139 2 11.9C1.99997 16.4229 2.17535 19.5253 2.30577 21.2069Z" fill="#ABAFD1"/>
<path d="M12 6.00009C12.5409 6.00009 12.7693 6.0063 12.9588 6.05731C13.0909 6.0929 13.2567 6.16599 13.5438 6.45237C13.546 6.45489 13.5696 6.48175 13.6051 6.55191C13.643 6.62686 13.6842 6.73102 13.7249 6.86805C13.807 7.14488 13.8689 7.49475 13.9124 7.88614C13.9992 8.66826 14 9.49211 14 9.99619C14 10.5485 14.4477 10.9962 15 10.9962C15.5523 10.9962 16 10.5485 16 9.99619V9.98435C16 9.48561 16 8.56508 15.9001 7.66546C15.8498 7.21239 15.7711 6.73355 15.6423 6.29928C15.5202 5.88782 15.3203 5.39954 14.9562 5.03633C14.4933 4.57466 14.0341 4.27562 13.4787 4.12609C13.0074 3.99917 12.5149 3.99963 12.0743 4.00005L12 4.00009C11.4477 4.00009 11 4.44781 11 5.00009C11 5.55238 11.4477 6.00009 12 6.00009Z" fill="#767BFA"/>
</svg>
