<svg width="24" height="24" viewBox="0 0 24 24" fill="none" xmlns="http://www.w3.org/2000/svg">
<path d="M8 1C7.44772 1 7 1.44772 7 2V9C7 9.55228 7.44772 10 8 10C8.55228 10 9 9.55228 9 9V2C9 1.44772 8.55228 1 8 1Z" fill="#767BFA"/>
<path d="M11 2C11 1.44772 11.4477 1 12 1C12.5523 1 13 1.44772 13 2V5C13 5.55228 12.5523 6 12 6C11.4477 6 11 5.55228 11 5V2Z" fill="#767BFA"/>
<path d="M15 2C15 1.44772 15.4477 1 16 1C16.5523 1 17 1.44772 17 2V7C17 7.55228 16.5523 8 16 8C15.4477 8 15 7.55228 15 7V2Z" fill="#767BFA"/>
<path fill-rule="evenodd" clip-rule="evenodd" d="M0 9C0 10.2881 0.0429699 11.4826 0.231934 12.5275C0.424266 13.591 0.790271 14.6347 1.5345 15.5184C3.02013 17.2824 5.43993 17.7395 8.24974 17.9097C8.28592 17.9119 8.31174 17.9267 8.32665 17.942C8.33012 17.9456 8.3322 17.9484 8.33334 17.9501V20.3333C8.33334 22.3584 9.97496 24 12 24C14.0251 24 15.6667 22.3584 15.6667 20.3333V17.9501C15.6678 17.9484 15.6699 17.9456 15.6734 17.942C15.6883 17.9267 15.7141 17.9119 15.7503 17.9097C18.5601 17.7395 20.9799 17.2824 22.4655 15.5184C23.2097 14.6347 23.5757 13.591 23.7681 12.5275C23.957 11.4826 24 10.2881 24 9C24 7.49035 23.9426 6.08667 23.6434 4.88993C23.3249 3.6159 22.707 2.47304 21.5513 1.63253C20.4721 0.847649 19.1196 0.47385 17.6326 0.268758C16.1292 0.0613923 14.2639 0 12 0C9.73614 0 7.87075 0.0613923 6.36735 0.268758C4.88043 0.47385 3.52786 0.847649 2.44866 1.63253C1.29295 2.47304 0.675097 3.6159 0.35659 4.88993C0.0574036 6.08667 0 7.49035 0 9ZM10.3333 17.9493C10.3333 16.8592 9.45876 15.9792 8.37064 15.9133C5.34424 15.73 3.73261 15.2156 2.8882 14H21.1118C20.2674 15.2156 18.6558 15.73 15.6294 15.9133C14.5413 15.9792 13.6667 16.8592 13.6667 17.9493V20.3333C13.6667 21.2538 12.9205 22 12 22C11.0795 22 10.3333 21.2538 10.3333 20.3333V17.9493ZM21.8292 12C21.961 11.1744 22 10.1847 22 9C22 3 21 2 12 2C3 2 2 3 2 9C2 10.1847 2.03898 11.1744 2.17083 12H21.8292Z" fill="#ABAFD1"/>
</svg>
