<svg width="24" height="20" viewBox="0 0 24 20" fill="none" xmlns="http://www.w3.org/2000/svg">
<path d="M13 5C13 5.55228 12.5523 6 12 6C11.4477 6 11 5.55228 11 5C11 4.44772 11.4477 4 12 4C12.5523 4 13 4.44772 13 5Z" fill="#767BFA"/>
<path d="M9 7C9 7.55228 8.55228 8 8 8C7.44772 8 7 7.55228 7 7C7 6.44772 7.44772 6 8 6C8.55228 6 9 6.44772 9 7Z" fill="#767BFA"/>
<path d="M16 8C16.5523 8 17 7.55228 17 7C17 6.44772 16.5523 6 16 6C15.4477 6 15 6.44772 15 7C15 7.55228 15.4477 8 16 8Z" fill="#767BFA"/>
<path d="M21.9988 10.0498C21.9996 10.0333 22 10.0167 22 10C22 7.19435 21.5206 4.64249 19.9195 2.79886C18.2923 0.925143 15.7031 0 12 0C8.29692 0 5.70767 0.925143 4.08049 2.79886C2.47944 4.64249 2 7.19435 2 10C2 10.0167 2.00041 10.0333 2.00122 10.0498C0.859489 10.2809 0 11.2901 0 12.5C0 13.7535 0.922552 14.7915 2.12572 14.9722L2.14018 15.0999L2.15024 15.1888C2.18862 15.5273 2.23167 15.8933 2.30416 16.2474C2.45418 16.9803 2.74614 17.7452 3.46888 18.3776C4.16117 18.9833 5.14333 19.3739 6.47402 19.6235C7.8122 19.8745 9.60098 20 12 20C14.3991 20 16.1878 19.8745 17.526 19.6235C18.8567 19.3739 19.8389 18.9833 20.5311 18.3776C21.2539 17.7452 21.5459 16.9803 21.6959 16.2474C21.7684 15.8933 21.8114 15.5273 21.8498 15.1888L21.8598 15.0999L21.8743 14.9722C23.0775 14.7915 24 13.7535 24 12.5C24 11.2901 23.1405 10.2809 21.9988 10.0498ZM20 10C20 7.3511 19.5321 5.40296 18.4094 4.11023C17.3129 2.84758 15.4022 2 12 2C8.59782 2 6.68707 2.84758 5.59056 4.11023C4.46793 5.40296 4 7.3511 4 10H20ZM20.9767 13H11V15H19.8584C19.8209 15.3286 19.7869 15.6002 19.7365 15.8463C19.637 16.3322 19.4914 16.6298 19.2142 16.8724C18.9064 17.1417 18.3261 17.4386 17.1573 17.6578C15.9961 17.8755 14.3486 18 12 18C9.65145 18 8.00391 17.8755 6.84268 17.6578C5.67397 17.4386 5.09361 17.1417 4.78587 16.8724C4.50858 16.6298 4.363 16.3322 4.26354 15.8463C4.21315 15.6002 4.17911 15.3286 4.14165 15H7V13H3.02337C3.01166 12.9998 2.99991 12.9998 2.98813 13H2.5C2.22386 13 2 12.7761 2 12.5C2 12.2239 2.22386 12 2.5 12H21.5C21.7761 12 22 12.2239 22 12.5C22 12.7761 21.7761 13 21.5 13H21.0118C21.0001 12.9998 20.9884 12.9998 20.9767 13Z" fill="#ABAFD1"/>
<path d="M21.9988 10.0498C21.9996 10.0333 22 10.0167 22 10C22 7.19435 21.5206 4.64249 19.9195 2.79886C18.2923 0.925143 15.7031 0 12 0C8.29692 0 5.70767 0.925143 4.08049 2.79886C2.47944 4.64249 2 7.19435 2 10C2 10.0167 2.00041 10.0333 2.00122 10.0498C0.859489 10.2809 0 11.2901 0 12.5C0 13.7535 0.922552 14.7915 2.12572 14.9722L2.14018 15.0999L2.15024 15.1888C2.18862 15.5273 2.23167 15.8933 2.30416 16.2474C2.45418 16.9803 2.74614 17.7452 3.46888 18.3776C4.16117 18.9833 5.14333 19.3739 6.47402 19.6235C7.8122 19.8745 9.60098 20 12 20C14.3991 20 16.1878 19.8745 17.526 19.6235C18.8567 19.3739 19.8389 18.9833 20.5311 18.3776C21.2539 17.7452 21.5459 16.9803 21.6959 16.2474C21.7684 15.8933 21.8114 15.5273 21.8498 15.1888L21.8598 15.0999L21.8743 14.9722C23.0775 14.7915 24 13.7535 24 12.5C24 11.2901 23.1405 10.2809 21.9988 10.0498ZM20 10C20 7.3511 19.5321 5.40296 18.4094 4.11023C17.3129 2.84758 15.4022 2 12 2C8.59782 2 6.68707 2.84758 5.59056 4.11023C4.46793 5.40296 4 7.3511 4 10H20ZM20.9767 13H11V15H19.8584C19.8209 15.3286 19.7869 15.6002 19.7365 15.8463C19.637 16.3322 19.4914 16.6298 19.2142 16.8724C18.9064 17.1417 18.3261 17.4386 17.1573 17.6578C15.9961 17.8755 14.3486 18 12 18C9.65145 18 8.00391 17.8755 6.84268 17.6578C5.67397 17.4386 5.09361 17.1417 4.78587 16.8724C4.50858 16.6298 4.363 16.3322 4.26354 15.8463C4.21315 15.6002 4.17911 15.3286 4.14165 15H7V13H3.02337C3.01166 12.9998 2.99991 12.9998 2.98813 13H2.5C2.22386 13 2 12.7761 2 12.5C2 12.2239 2.22386 12 2.5 12H21.5C21.7761 12 22 12.2239 22 12.5C22 12.7761 21.7761 13 21.5 13H21.0118C21.0001 12.9998 20.9884 12.9998 20.9767 13Z" stroke="#ABAFD1"/>
<path d="M13 11.3914V11.4379C13.0003 11.4224 13.0003 11.4068 13 11.3914Z" fill="#767BFA"/>
<path fill-rule="evenodd" clip-rule="evenodd" d="M12.866 12C12.8501 12.033 12.8328 12.0658 12.8139 12.0984L10.3936 16.2752C10.0961 16.7886 9.56814 16.9932 9.12948 16.9998C8.69059 17.0065 8.15988 16.8181 7.84569 16.3196L5.21299 12.1428C5.18339 12.0959 5.15707 12.0482 5.13391 12H12.866ZM9.08782 14.5396L7.48712 12L10.5594 12L9.08782 14.5396Z" fill="#767BFA"/>
<path d="M4.99999 11.4327V11.3973C4.99984 11.4091 4.99984 11.4209 4.99999 11.4327Z" fill="#767BFA"/>
</svg>
