<svg width="24" height="26" viewBox="0 0 24 26" fill="none" xmlns="http://www.w3.org/2000/svg">
<path fill-rule="evenodd" clip-rule="evenodd" d="M0 14C0 23.882 2.11798 26 12 26C21.882 26 24 23.882 24 14C24 4.118 21.882 2 12 2C2.11798 2 0 4.118 0 14ZM2 14C2 16.4249 2.13257 18.2369 2.43768 19.6101C2.73785 20.9605 3.17767 21.7608 3.70844 22.2915C4.23926 22.8223 5.03949 23.2622 6.38995 23.5623C7.76306 23.8675 9.57513 24 12 24C14.4249 24 16.2369 23.8675 17.61 23.5623C18.9605 23.2622 19.7607 22.8223 20.2916 22.2915C20.8223 21.7608 21.2621 20.9605 21.5623 19.6101C21.8674 18.2369 22 16.4249 22 14C22 13.281 21.9883 12.6158 21.964 12H2.03601C2.01166 12.6158 2 13.281 2 14ZM2.17908 10H21.8209C21.7547 9.4046 21.6691 8.87039 21.5623 8.38992C21.2621 7.03949 20.8223 6.23924 20.2916 5.70847C19.7607 5.17769 18.9605 4.73784 17.61 4.43771C16.2369 4.13254 14.4249 4 12 4C9.57513 4 7.76306 4.13254 6.38995 4.43771C5.03949 4.73784 4.23926 5.17769 3.70844 5.70847C3.17767 6.23924 2.73785 7.03949 2.43768 8.38992C2.33093 8.87039 2.2453 9.4046 2.17908 10Z" fill="#ABAFD1"/>
<path d="M5 16C5 15.4477 5.44772 15 6 15H9C9.55228 15 10 15.4477 10 16C10 16.5523 9.55228 17 9 17H6C5.44772 17 5 16.5523 5 16Z" fill="#767BFA"/>
<path d="M5 20C5 19.4477 5.44772 19 6 19H9C9.55228 19 10 19.4477 10 20C10 20.5523 9.55228 21 9 21H6C5.44772 21 5 20.5523 5 20Z" fill="#767BFA"/>
<path d="M17.883 15.2972C18.2735 14.9066 18.9067 14.9066 19.2972 15.2972C19.6877 15.6877 19.6877 16.3209 19.2972 16.7114L15.2609 20.7476C15.0551 20.9535 14.7818 21.0508 14.5122 21.0397C14.2657 21.0328 14.0212 20.9353 13.8331 20.7472L12.4189 19.333C12.0283 18.9424 12.0283 18.3093 12.4189 17.9187C12.8094 17.5282 13.4426 17.5282 13.8331 17.9187L14.5472 18.6329L17.883 15.2972Z" fill="#767BFA"/>
<path d="M8 0C7.44772 0 7 0.447715 7 1V5C7 5.55228 7.44772 6 8 6C8.55228 6 9 5.55228 9 5V1C9 0.447715 8.55228 0 8 0Z" fill="#767BFA"/>
<path d="M16 0C15.4477 0 15 0.447715 15 1V5C15 5.55228 15.4477 6 16 6C16.5523 6 17 5.55228 17 5V1C17 0.447715 16.5523 0 16 0Z" fill="#767BFA"/>
</svg>
