<svg width="24" height="26" viewBox="0 0 24 26" fill="none" xmlns="http://www.w3.org/2000/svg">
<path d="M6 15C5.44772 15 5 15.4477 5 16C5 16.5523 5.44772 17 6 17H9C9.55228 17 10 16.5523 10 16C10 15.4477 9.55228 15 9 15H6Z" fill="#767BFA"/>
<path d="M6 19C5.44772 19 5 19.4477 5 20C5 20.5523 5.44772 21 6 21H9C9.55228 21 10 20.5523 10 20C10 19.4477 9.55228 19 9 19H6Z" fill="#767BFA"/>
<path fill-rule="evenodd" clip-rule="evenodd" d="M12 26C2.118 26 0 23.882 0 14C0 4.118 2.118 2 12 2C21.882 2 24 4.118 24 14C24 23.882 21.882 26 12 26ZM2.43771 19.6101C2.13254 18.2369 2 16.4249 2 14C2 13.281 2.01165 12.6158 2.03601 12H21.964C21.9883 12.6158 22 13.281 22 14C22 15.1262 21.9714 16.1201 21.9102 16.9994C21.7431 16.9972 21.5637 16.9893 21.3562 16.9802C21.2167 16.9741 21.0644 16.9675 20.8947 16.9616C20.4556 16.9464 19.9501 16.9397 19.4294 16.9825C18.4029 17.0669 17.1843 17.354 16.25 18.2912C15.3186 19.2255 15.0391 20.4085 14.9639 21.4248C14.9261 21.9359 14.9378 22.4343 14.9564 22.8711C14.9624 23.0126 14.9688 23.1436 14.9748 23.2664C14.9866 23.5066 14.9968 23.7153 14.9994 23.9102C14.1202 23.9714 13.1262 24 12 24C9.57515 24 7.76307 23.8675 6.38993 23.5623C5.03949 23.2622 4.23924 22.8223 3.70846 22.2915C3.17768 21.7608 2.73783 20.9605 2.43771 19.6101ZM16.9945 23.6826C17.209 23.6459 17.414 23.6059 17.6101 23.5623C18.9605 23.2622 19.7608 22.8223 20.2915 22.2915C20.8223 21.7608 21.2622 20.9605 21.5623 19.6101C21.6059 19.414 21.6459 19.2089 21.6826 18.9944C21.5292 18.9898 21.3673 18.9828 21.2072 18.9758C21.0771 18.9702 20.948 18.9646 20.8255 18.9604C20.4136 18.9461 19.9986 18.9424 19.5933 18.9758C18.7679 19.0437 18.113 19.2552 17.6664 19.7032C17.2168 20.1542 17.0171 20.78 16.9585 21.5724C16.9294 21.9657 16.937 22.3717 16.9546 22.7863C16.9591 22.8924 16.9645 23.0028 16.97 23.1149C16.9792 23.3037 16.9887 23.4972 16.9945 23.6826ZM21.5623 8.38993C21.6691 8.8704 21.7547 9.40461 21.8209 10H2.17906C2.24529 9.40461 2.33093 8.8704 2.43771 8.38993C2.73783 7.03949 3.17768 6.23924 3.70846 5.70846C4.23924 5.17768 5.03949 4.73783 6.38993 4.43771C7.76307 4.13254 9.57515 4 12 4C14.4249 4 16.2369 4.13254 17.6101 4.43771C18.9605 4.73783 19.7608 5.17768 20.2915 5.70846C20.8223 6.23924 21.2622 7.03949 21.5623 8.38993Z" fill="#ABAFD1"/>
<path d="M8 0C7.44772 0 7 0.447715 7 1V5C7 5.55228 7.44772 6 8 6C8.55228 6 9 5.55228 9 5V1C9 0.447715 8.55228 0 8 0Z" fill="#767BFA"/>
<path d="M16 0C15.4477 0 15 0.447715 15 1V5C15 5.55228 15.4477 6 16 6C16.5523 6 17 5.55228 17 5V1C17 0.447715 16.5523 0 16 0Z" fill="#767BFA"/>
</svg>
