<svg width="24" height="26" viewBox="0 0 24 26" fill="none" xmlns="http://www.w3.org/2000/svg">
<path fill-rule="evenodd" clip-rule="evenodd" d="M0 14C0 23.882 2.118 26 12 26C21.882 26 24 23.882 24 14C24 4.118 21.882 2 12 2C2.118 2 0 4.118 0 14ZM2 14C2 16.4249 2.13254 18.2369 2.43771 19.6101C2.73783 20.9605 3.17768 21.7608 3.70846 22.2915C4.23924 22.8223 5.03949 23.2622 6.38993 23.5623C7.76307 23.8675 9.57515 24 12 24C14.4249 24 16.2369 23.8675 17.6101 23.5623C18.9605 23.2622 19.7608 22.8223 20.2915 22.2915C20.8223 21.7608 21.2622 20.9605 21.5623 19.6101C21.8675 18.2369 22 16.4249 22 14C22 13.281 21.9883 12.6158 21.964 12H2.03601C2.01165 12.6158 2 13.281 2 14ZM2.17906 10H21.8209C21.7547 9.40461 21.6691 8.8704 21.5623 8.38993C21.2622 7.03949 20.8223 6.23924 20.2915 5.70846C19.7608 5.17768 18.9605 4.73783 17.6101 4.43771C16.2369 4.13254 14.4249 4 12 4C9.57515 4 7.76307 4.13254 6.38993 4.43771C5.03949 4.73783 4.23924 5.17768 3.70846 5.70846C3.17768 6.23924 2.73783 7.03949 2.43771 8.38993C2.33093 8.8704 2.24529 9.40461 2.17906 10Z" fill="#ABAFD1"/>
<path d="M6 15C5.44772 15 5 15.4477 5 16C5 16.5523 5.44772 17 6 17H9C9.55228 17 10 16.5523 10 16C10 15.4477 9.55228 15 9 15H6Z" fill="#767BFA"/>
<path d="M6 19C5.44772 19 5 19.4477 5 20C5 20.5523 5.44772 21 6 21H9C9.55228 21 10 20.5523 10 20C10 19.4477 9.55228 19 9 19H6Z" fill="#767BFA"/>
<path d="M14 16C14 15.4477 14.4477 15 15 15H18C18.5523 15 19 15.4477 19 16C19 16.5523 18.5523 17 18 17H15C14.4477 17 14 16.5523 14 16Z" fill="#767BFA"/>
<path d="M15 19C14.4477 19 14 19.4477 14 20C14 20.5523 14.4477 21 15 21H18C18.5523 21 19 20.5523 19 20C19 19.4477 18.5523 19 18 19H15Z" fill="#767BFA"/>
<path d="M8 0C7.44772 0 7 0.447715 7 1V5C7 5.55228 7.44772 6 8 6C8.55228 6 9 5.55228 9 5V1C9 0.447715 8.55228 0 8 0Z" fill="#767BFA"/>
<path d="M16 0C15.4477 0 15 0.447715 15 1V5C15 5.55228 15.4477 6 16 6C16.5523 6 17 5.55228 17 5V1C17 0.447715 16.5523 0 16 0Z" fill="#767BFA"/>
</svg>
