<svg width="24" height="24" viewBox="0 0 24 24" fill="none" xmlns="http://www.w3.org/2000/svg">
<path fill-rule="evenodd" clip-rule="evenodd" d="M16.8525 1.55315C16.7431 0.752961 16.6402 1.7249e-05 15 3.24458e-05L9 4.51564e-10C7.35981 -2.12822e-05 7.25684 0.75293 7.1474 1.55313C7.02332 2.46047 6.89093 3.42857 4.49975 3.42857C0 3.42857 0 7.89061 0 13.5501C0 22.2575 2.118 24 12 24C21.882 24 24 22.1557 24 13.551C24 8.00253 24 3.42857 19.5 3.42857C17.1088 3.42857 16.9765 2.46049 16.8525 1.55315ZM9.18091 1.50302C9.18088 1.50297 9.18038 1.5046 9.17948 1.50806L9.18091 1.50302ZM9.10392 2.00302L9.10436 2L14.8955 2.00003L14.8959 2.0029C14.9632 2.46432 15.1228 3.54772 16.0573 4.38358C16.9635 5.19407 18.1952 5.42857 19.5 5.42857C20.2722 5.42857 20.6376 5.61699 20.8384 5.78056C21.0632 5.96368 21.3149 6.30798 21.5251 6.99467C21.9798 8.47946 22 10.6579 22 13.551C22 17.8926 21.4073 19.6102 20.3924 20.4939C19.8697 20.949 19.0539 21.3448 17.664 21.6138C16.2651 21.8845 14.4313 22 12 22C9.56463 22 7.72836 21.8906 6.32644 21.6264C4.93274 21.3637 4.11999 20.9748 3.60135 20.527C2.5959 19.6588 2 17.9528 2 13.551C2 10.5986 2.02072 8.42436 2.47357 6.95669C2.68175 6.28199 2.92939 5.95078 3.14851 5.7753C3.34738 5.61604 3.71631 5.42857 4.49975 5.42857C5.80457 5.42857 7.03626 5.19406 7.94245 4.38361C8.87698 3.54779 9.0366 2.46445 9.10392 2.00302ZM14.819 1.50293L14.8204 1.50791C14.8195 1.50448 14.819 1.50287 14.819 1.50293Z" fill="#ABAFD1"/>
<path d="M18 9C17.4477 9 17 8.55228 17 8C17 7.44772 17.4477 7 18 7C18.5523 7 19 7.44772 19 8C19 8.55228 18.5523 9 18 9Z" fill="#767BFA"/>
<path fill-rule="evenodd" clip-rule="evenodd" d="M12 8C9.23858 8 7 10.2386 7 13C7 15.7614 9.23858 18 12 18C14.7614 18 17 15.7614 17 13C17 10.2386 14.7614 8 12 8ZM12 10C10.3431 10 9 11.3431 9 13C9 14.6569 10.3431 16 12 16C13.6569 16 15 14.6569 15 13C15 11.3431 13.6569 10 12 10Z" fill="#767BFA"/>
</svg>
