<svg width="21" height="22" viewBox="0 0 21 22" fill="none" xmlns="http://www.w3.org/2000/svg">
<path d="M1.60066 0.109822C1.05439 -0.146584 0.390135 0.0612903 0.11697 0.574102C-0.156132 1.08688 0.0652861 1.71047 0.611553 1.96688L1.72127 2.48775C2.06382 2.64853 2.29338 2.96424 2.32807 3.32228C2.35513 3.60154 2.38136 3.87825 2.40727 4.15224L2.41034 4.18485C3.0317 10.7546 3.50076 15.7143 11.5566 15.7143C19.9614 15.7143 20.5175 10.1148 21 5.2381L19.5554 5.54048C19.1367 5.62814 18.8207 5.9726 18.7691 6.39731C18.3239 10.0545 17.7371 13.619 11.5566 13.619C6.47771 13.619 5.38616 11.1131 4.92301 7.37917C4.85044 6.79416 5.315 6.28572 5.9045 6.28572H19.99C20.503 6.28572 20.9329 5.89744 20.9848 5.38703L21 5.2381C21 4.65952 20.5297 4.19048 19.9494 4.19048H5.54448C5.02508 4.19048 4.59326 3.79273 4.54425 3.27565C4.5398 3.22863 4.53528 3.18152 4.53071 3.13432C4.42664 2.0602 3.73802 1.11307 2.71038 0.630722L1.60066 0.109822Z" fill="#ABAFD1"/>
<path d="M7.35419 22C8.51463 22 9.45538 21.062 9.45538 19.9048C9.45538 18.7476 8.51463 17.8096 7.35419 17.8096C6.19375 17.8096 5.25299 18.7476 5.25299 19.9048C5.25299 21.062 6.19375 22 7.35419 22Z" fill="#767BFA"/>
<path d="M17.8602 19.9048C17.8602 21.062 16.9194 22 15.759 22C14.5985 22 13.6578 21.062 13.6578 19.9048C13.6578 18.7476 14.5985 17.8096 15.759 17.8096C16.9194 17.8096 17.8602 18.7476 17.8602 19.9048Z" fill="#767BFA"/>
</svg>
