<svg width="24" height="24" viewBox="0 0 24 24" fill="none" xmlns="http://www.w3.org/2000/svg">
<path d="M16 6C16 5.44772 16.4477 5 17 5C17.5523 5 18 5.44772 18 6C18 7.93802 17.2633 9.46502 16.1019 10.4974C14.9588 11.5134 13.4631 12 12 12C10.5369 12 9.04117 11.5134 7.89814 10.4974C6.7367 9.46502 6 7.93802 6 6C6 5.44771 6.44771 5 7 5C7.55229 5 8 5.44771 8 6C8 7.39531 8.5133 8.36831 9.22686 9.00259C9.95883 9.65323 10.9631 10 12 10C13.0369 10 14.0412 9.65323 14.7731 9.00259C15.4867 8.36831 16 7.39531 16 6Z" fill="#767BFA"/>
<path fill-rule="evenodd" clip-rule="evenodd" d="M12 24C21.4928 24 25.4487 22.7368 23.5274 12C23.4508 11.6219 23.377 11.255 23.3054 10.8987C21.5822 2.32871 21.114 0 12 0C2.88602 0 2.41779 2.32867 0.694655 10.8985C0.62302 11.2548 0.549216 11.6219 0.472531 12C-1.44868 22.7368 2.50713 24 12 24ZM2.65908 11.275C2.58812 11.6277 2.51444 11.994 2.43727 12.3746C1.48773 17.6982 2.23038 19.6279 3.2571 20.5074C3.83676 21.004 4.75776 21.4068 6.26053 21.6634C7.76026 21.9195 9.64576 22 12 22C14.3542 22 16.2397 21.9195 17.7395 21.6634C19.2422 21.4068 20.1632 21.0039 20.7429 20.5074C21.7696 19.6279 22.5123 17.6982 21.5627 12.3747C21.4858 11.9955 21.4124 11.6306 21.3417 11.2792L21.3409 11.2752C20.9631 9.39705 20.6624 7.90237 20.3215 6.65589C19.9165 5.17485 19.5134 4.28576 19.0424 3.69806C18.2298 2.68411 16.7478 2 12 2C7.2522 2 5.77015 2.68411 4.95762 3.69805C4.48665 4.28576 4.08351 5.17485 3.67845 6.6559C3.33757 7.90232 3.0369 9.39692 2.65908 11.275Z" fill="#ABAFD1"/>
</svg>
