<svg width="24" height="20" viewBox="0 0 24 20" fill="none" xmlns="http://www.w3.org/2000/svg">
<path d="M10.7071 1.70711C11.0976 1.31658 11.0976 0.683417 10.7071 0.292893C10.3166 -0.0976311 9.68342 -0.0976311 9.29289 0.292893L3.29289 6.29289C2.90237 6.68342 2.90237 7.31658 3.29289 7.70711C3.68342 8.09763 4.31658 8.09763 4.70711 7.70711L10.7071 1.70711Z" fill="#767BFA"/>
<path d="M14.7071 0.292893C14.3166 -0.0976311 13.6834 -0.0976311 13.2929 0.292893C12.9024 0.683417 12.9024 1.31658 13.2929 1.70711L19.2929 7.70711C19.6834 8.09763 20.3166 8.09763 20.7071 7.70711C21.0976 7.31658 21.0976 6.68342 20.7071 6.29289L14.7071 0.292893Z" fill="#767BFA"/>
<path d="M2.60836 7.943L2.55744 7.5001H2.11163H1C0.723858 7.5001 0.5 7.27624 0.5 7.0001C0.5 6.72396 0.723858 6.5001 1 6.5001H2.98697V6.50015L2.9941 6.50005L3.0084 6.50005L3.0084 6.5001H3.01553H20.9845V6.50015L20.9916 6.50005L21.0059 6.50005V6.5001H21.013H23C23.2761 6.5001 23.5 6.72396 23.5 7.0001C23.5 7.27624 23.2761 7.5001 23 7.5001H21.8884H21.4426L21.3916 7.943C21.2817 8.89964 21.1919 9.77636 21.1108 10.5805L21.1108 10.5806L21.079 10.8957L21.079 10.8958C20.9869 11.8117 20.9041 12.6343 20.8132 13.3664C20.6126 14.9807 20.3643 16.2453 19.827 17.1857C19.2647 18.1697 18.4152 18.7543 17.1488 19.0854C15.9146 19.4081 14.2488 19.5001 12 19.5001C9.75121 19.5001 8.08539 19.4081 6.85118 19.0854C5.58483 18.7543 4.73534 18.1697 4.17302 17.1857C3.63568 16.2453 3.38738 14.9807 3.18685 13.3664C3.0959 12.6343 3.0131 11.8115 2.92095 10.8955L2.92095 10.8954L2.88925 10.5806L2.88924 10.5805C2.80815 9.77636 2.71834 8.89964 2.60836 7.943ZM4.1246 7.5001H3.56481L3.62777 8.05634C3.72693 8.93236 3.80942 9.73871 3.88419 10.4801C3.88419 10.4802 3.88419 10.4802 3.8842 10.4802L3.91565 10.7926L3.91565 10.7926L3.9161 10.7971C4.00834 11.7138 4.08976 12.523 4.17922 13.2432C4.38031 14.8619 4.61405 15.9419 5.04126 16.6895C5.23277 17.0247 5.47751 17.3183 5.82389 17.5628C6.16526 17.8038 6.58393 17.9819 7.10417 18.1179C8.2005 18.4046 9.74923 18.5001 12 18.5001C14.2508 18.5001 15.7995 18.4046 16.8958 18.1179C17.4161 17.9819 17.8347 17.8038 18.1761 17.5628C18.5225 17.3183 18.7672 17.0247 18.9587 16.6895C19.386 15.9419 19.6197 14.8619 19.8208 13.2432C19.9103 12.5228 19.9917 11.7134 20.084 10.7965L20.0844 10.7923L20.0844 10.7923L20.1158 10.4802C20.1158 10.4802 20.1158 10.4802 20.1158 10.4801C20.1906 9.73871 20.2731 8.93236 20.3722 8.05634L20.4352 7.5001H19.8754H4.1246Z" fill="#ABAFD1" stroke="#ABAFD1"/>
<path d="M10 10C9.44772 10 9 10.4477 9 11V15C9 15.5523 9.44772 16 10 16C10.5523 16 11 15.5523 11 15V11C11 10.4477 10.5523 10 10 10Z" fill="#767BFA"/>
<path d="M14 10C13.4477 10 13 10.4477 13 11V15C13 15.5523 13.4477 16 14 16C14.5523 16 15 15.5523 15 15V11C15 10.4477 14.5523 10 14 10Z" fill="#767BFA"/>
</svg>
