<svg width="24" height="24" viewBox="0 0 24 24" fill="none" xmlns="http://www.w3.org/2000/svg">
<path fill-rule="evenodd" clip-rule="evenodd" d="M0 12C0 21.882 2.118 24 12 24C21.882 24 24 21.882 24 12C24 2.118 21.882 0 12 0C2.118 0 0 2.118 0 12ZM2 12C2 14.4249 2.13254 16.2369 2.43771 17.6101C2.73783 18.9605 3.17768 19.7608 3.70846 20.2915C4.23924 20.8223 5.03949 21.2622 6.38993 21.5623C7.76307 21.8675 9.57515 22 12 22C14.4249 22 16.2369 21.8675 17.6101 21.5623C18.9605 21.2622 19.7608 20.8223 20.2915 20.2915C20.8223 19.7608 21.2622 18.9605 21.5623 17.6101C21.8675 16.2369 22 14.4249 22 12C22 9.57515 21.8675 7.76307 21.5623 6.38993C21.2622 5.03949 20.8223 4.23924 20.2915 3.70846C19.7608 3.17768 18.9605 2.73783 17.6101 2.43771C16.2369 2.13254 14.4249 2 12 2C9.57515 2 7.76307 2.13254 6.38993 2.43771C5.03949 2.73783 4.23924 3.17768 3.70846 3.70846C3.17768 4.23924 2.73783 5.03949 2.43771 6.38993C2.13254 7.76307 2 9.57515 2 12Z" fill="#ABAFD1"/>
<path fill-rule="evenodd" clip-rule="evenodd" d="M6 5C6 4.44772 6.44772 4 7 4H17C17.5523 4 18 4.44772 18 5L17.9999 5.01505C18.0018 5.14128 18.0276 5.26606 18.0759 5.38277C18.1262 5.50412 18.1999 5.61439 18.2927 5.70727C18.3856 5.80015 18.4959 5.87382 18.6172 5.92409C18.7339 5.97244 18.8587 5.99822 18.9849 6.00012L19 6C19.5523 6 20 6.44772 20 7V17C20 17.5523 19.5523 18 19 18L18.9849 17.9999C18.8587 18.0018 18.7339 18.0276 18.6172 18.0759C18.4959 18.1262 18.3856 18.1999 18.2927 18.2927C18.1999 18.3856 18.1262 18.4959 18.0759 18.6172C18.0276 18.7339 18.0018 18.8587 17.9999 18.9849L18 19C18 19.5523 17.5523 20 17 20H7C6.44772 20 6 19.5523 6 19L6.00012 18.9849C5.99822 18.8587 5.97244 18.7339 5.92409 18.6172C5.87382 18.4959 5.80015 18.3856 5.70727 18.2927C5.61439 18.1999 5.50412 18.1262 5.38277 18.0759C5.26606 18.0276 5.14128 18.0018 5.01506 17.9999C5.01005 18 5.00503 18 5 18C4.44772 18 4 17.5523 4 17V7C4 6.44772 4.44772 6 5 6C5.00508 6 5.01015 6.00004 5.01521 6.00011C5.14138 5.99819 5.2661 5.97242 5.38277 5.92409C5.50412 5.87382 5.61439 5.80015 5.70727 5.70727C5.80015 5.61439 5.87382 5.50412 5.92409 5.38277C5.97242 5.2661 5.99819 5.14138 6.00011 5.01521L6 5ZM6 7.82843V16.1716C6.04979 16.1892 6.09915 16.2081 6.14805 16.2284C6.51203 16.3791 6.84274 16.6001 7.12132 16.8787C7.3999 17.1573 7.62087 17.488 7.77164 17.8519C7.79189 17.9008 7.81083 17.9502 7.82843 18H16.1716C16.1892 17.9502 16.2081 17.9008 16.2284 17.8519C16.3791 17.488 16.6001 17.1573 16.8787 16.8787C17.1573 16.6001 17.488 16.3791 17.8519 16.2284C17.9008 16.2081 17.9502 16.1892 18 16.1716V7.82843C17.9502 7.81083 17.9008 7.79189 17.8519 7.77164C17.488 7.62087 17.1573 7.3999 16.8787 7.12132C16.6001 6.84274 16.3791 6.51203 16.2284 6.14805C16.2081 6.09915 16.1892 6.04979 16.1716 6H7.82843C7.81083 6.04979 7.79189 6.09915 7.77164 6.14805C7.62087 6.51203 7.3999 6.84274 7.12132 7.12132C6.84274 7.3999 6.51203 7.62087 6.14805 7.77164C6.09915 7.79189 6.04979 7.81083 6 7.82843Z" fill="#767BFA"/>
<path fill-rule="evenodd" clip-rule="evenodd" d="M8 12C8 14.2091 9.79086 16 12 16C14.2091 16 16 14.2091 16 12C16 9.79086 14.2091 8 12 8C9.79086 8 8 9.79086 8 12ZM10 12C10 13.1046 10.8954 14 12 14C13.1046 14 14 13.1046 14 12C14 10.8954 13.1046 10 12 10C10.8954 10 10 10.8954 10 12Z" fill="#ABAFD1"/>
</svg>
