<svg width="22" height="22" viewBox="0 0 22 22" fill="none" xmlns="http://www.w3.org/2000/svg">
<path fill-rule="evenodd" clip-rule="evenodd" d="M8 11C8 13.4705 8.5295 14 11 14C13.4705 14 14 13.4705 14 11C14 8.5295 13.4705 8 11 8C8.5295 8 8 8.5295 8 11ZM10 11C10 11.4572 10.0212 11.7554 10.0504 11.9496C10.2446 11.9788 10.5428 12 11 12C11.4572 12 11.7554 11.9788 11.9496 11.9496C11.9788 11.7554 12 11.4572 12 11C12 10.5428 11.9788 10.2446 11.9496 10.0504C11.7554 10.0212 11.4572 10 11 10C10.5428 10 10.2446 10.0212 10.0504 10.0504C10.0212 10.2446 10 10.5428 10 11Z" fill="#767BFA"/>
<path d="M9 5C9.55228 5 10 4.55228 10 4V1C10 0.447715 9.55229 0 9 0C8.44772 0 8 0.447715 8 1L8 4C8 4.55228 8.44771 5 9 5Z" fill="#767BFA"/>
<path d="M9 22C9.55228 22 10 21.5523 10 21V18C10 17.4477 9.55229 17 9 17C8.44772 17 8 17.4477 8 18V21C8 21.5523 8.44771 22 9 22Z" fill="#767BFA"/>
<path d="M18 10C17.4477 10 17 9.55228 17 9C17 8.44771 17.4477 8 18 8L21 8C21.5523 8 22 8.44772 22 9C22 9.55229 21.5523 10 21 10L18 10Z" fill="#767BFA"/>
<path d="M0 9C0 9.55228 0.447715 10 1 10H4C4.55228 10 5 9.55229 5 9C5 8.44772 4.55228 8 4 8L1 8C0.447716 8 0 8.44771 0 9Z" fill="#767BFA"/>
<path d="M14 4C14 4.55228 13.5523 5 13 5C12.4477 5 12 4.55228 12 4V1C12 0.447715 12.4477 0 13 0C13.5523 0 14 0.447715 14 1V4Z" fill="#767BFA"/>
<path d="M13 22C13.5523 22 14 21.5523 14 21V18C14 17.4477 13.5523 17 13 17C12.4477 17 12 17.4477 12 18V21C12 21.5523 12.4477 22 13 22Z" fill="#767BFA"/>
<path d="M18 14C17.4477 14 17 13.5523 17 13C17 12.4477 17.4477 12 18 12H21C21.5523 12 22 12.4477 22 13C22 13.5523 21.5523 14 21 14L18 14Z" fill="#767BFA"/>
<path d="M0 13C0 13.5523 0.447715 14 1 14H4C4.55228 14 5 13.5523 5 13C5 12.4477 4.55228 12 4 12H1C0.447716 12 0 12.4477 0 13Z" fill="#767BFA"/>
<path fill-rule="evenodd" clip-rule="evenodd" d="M3 11C3 17.588 4.412 19 11 19C17.588 19 19 17.588 19 11C19 4.412 17.588 3 11 3C4.412 3 3 4.412 3 11ZM5 11C5 12.6014 5.08841 13.7517 5.27593 14.5954C5.4584 15.4164 5.70706 15.8196 5.94371 16.0563C6.18037 16.2929 6.58356 16.5416 7.40459 16.7241C8.24832 16.9116 9.39865 17 11 17C12.6014 17 13.7517 16.9116 14.5954 16.7241C15.4164 16.5416 15.8196 16.2929 16.0563 16.0563C16.2929 15.8196 16.5416 15.4164 16.7241 14.5954C16.9116 13.7517 17 12.6014 17 11C17 9.39865 16.9116 8.24832 16.7241 7.40458C16.5416 6.58356 16.2929 6.18037 16.0563 5.94371C15.8196 5.70706 15.4164 5.4584 14.5954 5.27593C13.7517 5.08841 12.6014 5 11 5C9.39865 5 8.24832 5.08841 7.40459 5.27593C6.58356 5.4584 6.18037 5.70706 5.94371 5.94371C5.70706 6.18037 5.4584 6.58356 5.27593 7.40458C5.08841 8.24832 5 9.39865 5 11Z" fill="#ABAFD1"/>
</svg>
