<svg width="24" height="24" viewBox="0 0 24 24" fill="none" xmlns="http://www.w3.org/2000/svg">
<path fill-rule="evenodd" clip-rule="evenodd" d="M1.66423 7.31111C1.27371 6.92059 1.27371 6.28742 1.66423 5.8969C2.05476 5.50637 2.68792 5.50637 3.07844 5.8969L8.13758 10.956C8.59672 9.25316 10.152 8 12 8H23V10H15.4648C15.8052 10.5883 16 11.2714 16 12C16 13.1749 15.4935 14.2314 14.6869 14.9632L7.30547 22.3447C6.91494 22.7352 6.28178 22.7352 5.89125 22.3447C5.50073 21.9541 5.50073 21.321 5.89125 20.9304L10.9586 15.8631C10.1934 15.6573 9.51889 15.2303 9.00789 14.6548L1.66423 7.31111ZM10.71 13.5284C11.0582 13.8226 11.5084 14 12 14C12.5026 14 12.9619 13.8146 13.3132 13.5085L13.5085 13.3132C13.8146 12.9619 14 12.5026 14 12C14 10.8954 13.1045 10 12 10C10.8954 10 9.99997 10.8954 9.99997 12C9.99997 12.4916 10.1773 12.9418 10.4716 13.29L10.71 13.5284Z" fill="#767BFA"/>
<path fill-rule="evenodd" clip-rule="evenodd" d="M0 12C0 20.5 3.5 24 12 24C20.5 24 24 20.5 24 12C24 3.5 20.5 0 12 0C3.5 0 0 3.5 0 12ZM2 12C2 16.0386 2.84172 18.3883 4.22671 19.7733C5.61171 21.1583 7.96141 22 12 22C16.0386 22 18.3883 21.1583 19.7733 19.7733C21.1583 18.3883 22 16.0386 22 12C22 7.96141 21.1583 5.61171 19.7733 4.22671C18.3883 2.84172 16.0386 2 12 2C7.96141 2 5.61171 2.84172 4.22671 4.22671C2.84172 5.61171 2 7.96141 2 12Z" fill="#ABAFD1"/>
</svg>
