<svg width="27" height="20" viewBox="0 0 27 20" fill="none" xmlns="http://www.w3.org/2000/svg">
<path fill-rule="evenodd" clip-rule="evenodd" d="M17 0C12.649 0 9.08944 2.83011 7.75651 6.73465C7.42776 6.68608 7.09162 6.66094 6.75 6.66094C3.02208 6.66094 0 9.80967 0 13.4884C0 17.1672 3.27208 19.9828 7 19.9828C8.14702 19.9828 9.26682 19.9872 10.3777 19.9915C12.573 20.0001 14.7334 20.0085 17 19.9828C22.4806 20.0464 27 15.4354 27 9.99142C27 4.50111 22.4902 0 17 0ZM9.98004 7.17227C11.073 4.21835 13.7716 1.99828 17 1.99828C21.192 1.99828 25 5.67176 25 9.99142C25 14.2721 21.2279 17.9303 17 17.9845C14.7362 18.0134 12.572 18.0039 10.375 17.9943C9.26406 17.9894 8.14478 17.9845 7 17.9845C4.51472 17.9845 2 15.9409 2 13.4884C2 11.0359 4.26472 8.88126 6.75 8.88126C7.04087 8.88126 7.32456 8.90835 7.59889 8.95995C7.59879 8.97089 7.59875 8.98181 7.59876 8.9927C7.59964 9.9206 7.71971 10.5189 8.07691 11.3755C8.28947 11.8852 8.87501 12.1261 9.38475 11.9136C9.89449 11.701 10.1354 11.1155 9.92285 10.6057C9.66707 9.99235 9.59939 9.655 9.59876 8.9908C9.5985 8.72177 9.67163 8.32122 9.76773 7.93441C9.81295 7.75244 9.85839 7.59232 9.89242 7.4781C9.90937 7.42123 9.9233 7.37638 9.93271 7.3466L9.94319 7.3138L9.94549 7.30671L9.94582 7.30572C9.96044 7.26145 9.97181 7.21685 9.98004 7.17227Z" fill="#ABAFD1"/>
</svg>
