<svg width="24" height="24" viewBox="0 0 24 24" fill="none" xmlns="http://www.w3.org/2000/svg">
<path fill-rule="evenodd" clip-rule="evenodd" d="M0 12C0 21.882 2.118 24 12 24C21.882 24 24 21.882 24 12C24 2.118 21.882 0 12 0C2.118 0 0 2.118 0 12ZM2 12C2 14.4249 2.13254 16.2369 2.43771 17.6101C2.73783 18.9605 3.17768 19.7608 3.70846 20.2915C4.23924 20.8223 5.03949 21.2622 6.38993 21.5623C7.76307 21.8675 9.57515 22 12 22C14.4249 22 16.2369 21.8675 17.6101 21.5623C18.9605 21.2622 19.7608 20.8223 20.2915 20.2915C20.8223 19.7608 21.2622 18.9605 21.5623 17.6101C21.8675 16.2369 22 14.4249 22 12C22 9.57515 21.8675 7.76307 21.5623 6.38993C21.2622 5.03949 20.8223 4.23924 20.2915 3.70846C19.7608 3.17768 18.9605 2.73783 17.6101 2.43771C16.2369 2.13254 14.4249 2 12 2C9.57515 2 7.76307 2.13254 6.38993 2.43771C5.03949 2.73783 4.23924 3.17768 3.70846 3.70846C3.17768 4.23924 2.73783 5.03949 2.43771 6.38993C2.13254 7.76307 2 9.57515 2 12Z" fill="#ABAFD1"/>
<path d="M10.0184 17.0576C9.91299 17.5998 10.2671 18.1247 10.8092 18.2301C11.3513 18.3354 11.8762 17.9814 11.9816 17.4392L13.9737 7.19075C14.0791 6.64861 13.7251 6.1237 13.1829 6.01832C12.6408 5.91293 12.1159 6.267 12.0105 6.80913L10.0184 17.0576Z" fill="#767BFA"/>
<path d="M8.70711 9.29285C9.09763 9.68338 9.09763 10.3165 8.70711 10.7071L7.41421 12L8.70711 13.2929C9.09763 13.6834 9.09763 14.3165 8.70711 14.7071C8.31658 15.0976 7.68342 15.0976 7.29289 14.7071L5.29289 12.7071C4.90237 12.3165 4.90237 11.6834 5.29289 11.2929L7.29289 9.29285C7.68342 8.90233 8.31658 8.90233 8.70711 9.29285Z" fill="#767BFA"/>
<path d="M15.2929 9.29285C14.9024 9.68338 14.9024 10.3165 15.2929 10.7071L16.5858 12L15.2929 13.2929C14.9024 13.6834 14.9024 14.3165 15.2929 14.7071C15.6834 15.0976 16.3166 15.0976 16.7071 14.7071L18.7071 12.7071C19.0976 12.3165 19.0976 11.6834 18.7071 11.2929L16.7071 9.29285C16.3166 8.90233 15.6834 8.90233 15.2929 9.29285Z" fill="#767BFA"/>
</svg>
