<svg width="24" height="22" viewBox="0 0 24 22" fill="none" xmlns="http://www.w3.org/2000/svg">
<path d="M6.5 16.5C6.5 17.0523 6.05228 17.5 5.5 17.5C4.94772 17.5 4.5 17.0523 4.5 16.5C4.5 15.9477 4.94772 15.5 5.5 15.5C6.05228 15.5 6.5 15.9477 6.5 16.5Z" fill="#767BFA"/>
<path d="M12.5971 22C10.3247 22 8.48434 21.9417 7 21.7877C7.72782 21.3498 8.51907 20.779 9.39481 20.0675C10.334 20.1048 11.3957 20.1214 12.5971 20.1214C14.9239 20.1214 16.727 20.0591 18.1304 19.905C19.5511 19.7489 20.425 19.5116 20.97 19.2423C21.4474 19.0063 21.6603 18.7552 21.8021 18.4398C21.9781 18.0486 22.0995 17.4254 22.0995 16.3643C22.0995 15.3032 21.9781 14.68 21.8021 14.2888C21.6603 13.9734 21.4474 13.7223 20.97 13.4863C20.425 13.217 19.5511 12.9796 18.1304 12.8236C17.812 12.7886 17.361 12.7584 17 12.7325C17.5834 12.1208 18.0185 11.5447 18.5 11C22.7211 11.5346 24 12.9799 24 16.3643C24 21.0053 21.9874 22 12.5971 22Z" fill="#767BFA"/>
<path fill-rule="evenodd" clip-rule="evenodd" d="M0 11C0 20.0585 0.956609 22 5.41988 22C7.88732 22 9.28304 21.4066 10.0379 19.3455C11.4308 18.4267 13.1168 16.8843 15.3288 14.6396C21.6408 8.23431 22.3173 6.17504 19.1613 2.97237C16.5204 0.292486 14.6685 0.335662 10.4361 4.17397C9.82732 0.872024 8.41111 0 5.41988 0C0.956609 0 0 1.9415 0 11ZM1.80663 11C1.80663 13.2446 1.86654 14.984 2.01478 16.3378C2.16485 17.7083 2.39308 18.5513 2.65211 19.077C2.87905 19.5376 3.12051 19.743 3.42388 19.8798C3.80012 20.0495 4.39942 20.1667 5.41988 20.1667C6.44034 20.1667 7.03965 20.0495 7.41589 19.8798C7.71926 19.743 7.96072 19.5376 8.18765 19.077C8.44668 18.5513 8.67492 17.7083 8.82498 16.3378C8.97323 14.984 9.03314 13.2446 9.03314 11C9.03314 8.75538 8.97323 7.01598 8.82498 5.66217C8.67492 4.29173 8.44668 3.44867 8.18765 2.92295C7.96072 2.46237 7.71926 2.25703 7.41589 2.1202C7.03965 1.95049 6.44034 1.83333 5.41988 1.83333C4.39942 1.83333 3.80012 1.95049 3.42388 2.1202C3.12051 2.25703 2.87905 2.46237 2.65211 2.92295C2.39308 3.44867 2.16485 4.29173 2.01478 5.66217C1.86654 7.01598 1.80663 8.75538 1.80663 11ZM10.7071 6.41166C10.8022 7.68832 10.8398 9.20433 10.8398 11C10.8398 13.302 10.778 15.1444 10.6126 16.6121C11.5708 15.7958 12.6946 14.7201 14.0513 13.3433C15.6154 11.7561 16.7851 10.4832 17.6236 9.41949C18.4724 8.34277 18.8985 7.58285 19.0816 7.02525C19.2421 6.53673 19.2144 6.21827 19.0953 5.90383C18.9475 5.51386 18.6053 5.00097 17.8838 4.26873C17.1622 3.53649 16.6568 3.1893 16.2725 3.03933C15.9626 2.9184 15.6488 2.89033 15.1674 3.05317C14.6179 3.23904 13.8691 3.67141 12.808 4.53277C12.1872 5.03675 11.4941 5.6586 10.7071 6.41166Z" fill="#ABAFD1"/>
</svg>
