<svg width="17" height="24" viewBox="0 0 17 24" fill="none" xmlns="http://www.w3.org/2000/svg">
<path fill-rule="evenodd" clip-rule="evenodd" d="M12.9282 10.7942L6.00004 6.79419L2.02818 13.6736C1.6093 14.3991 1.2948 15.18 1.09368 15.9935L0.187364 19.6593C-0.462883 22.2894 2.74036 24.1388 4.69299 22.2606L7.41454 19.6428C8.01849 19.0619 8.53747 18.3991 8.95636 17.6736L12.9282 10.7942ZM7.22431 16.6736C6.89941 17.2363 6.49678 17.7505 6.02807 18.2014L3.30652 20.8192C2.79918 21.3072 1.95995 20.8227 2.12891 20.1393L3.03522 16.4735C3.19131 15.8421 3.43533 15.2363 3.76023 14.6736L6.73209 9.52624L10.1962 11.5262L7.22431 16.6736Z" fill="#ABAFD1"/>
<path fill-rule="evenodd" clip-rule="evenodd" d="M13.9641 0.999945C12.0509 -0.104624 9.60456 0.550876 8.49999 2.46405L8.24999 2.89706C7.83577 3.6145 6.91839 3.86031 6.20095 3.4461C5.00522 2.75574 3.47624 3.16543 2.78588 4.36116C2.09553 5.55689 2.50522 7.08587 3.70095 7.77622L13.2272 13.2762C14.423 13.9666 15.9519 13.5569 16.6423 12.3612C17.3326 11.1654 16.923 9.63645 15.7272 8.9461C15.0098 8.53188 14.764 7.6145 15.1782 6.89706L15.4282 6.46405C16.5328 4.55088 15.8773 2.10451 13.9641 0.999945ZM13.6961 5.46405C14.2484 4.50746 13.9207 3.28428 12.9641 2.732C12.0075 2.17971 10.7843 2.50746 10.232 3.46405L9.98204 3.89706C9.01554 5.57108 6.87497 6.14465 5.20095 5.17815C4.9618 5.04008 4.65601 5.12201 4.51794 5.36116C4.37986 5.60031 4.4618 5.9061 4.70095 6.04417L14.2272 11.5442C14.4664 11.6822 14.7722 11.6003 14.9102 11.3612C15.0483 11.122 14.9664 10.8162 14.7272 10.6781C13.0532 9.71165 12.4796 7.57108 13.4461 5.89706L13.6961 5.46405Z" fill="#767BFA"/>
</svg>
