<svg width="24" height="22" viewBox="0 0 24 22" fill="none" xmlns="http://www.w3.org/2000/svg">
<mask id="path-1-inside-1" fill="white">
<path d="M4 11C4 10.4477 4.44772 10 5 10H19C19.5523 10 20 10.4477 20 11C20 11.5523 19.5523 12 19 12H5C4.44772 12 4 11.5523 4 11Z"/>
<path d="M9 15C9 14.4477 8.55228 14 8 14C7.44772 14 7 14.4477 7 15C7 15.4978 6.98518 16.2559 6.83856 16.9045C6.76485 17.2305 6.60258 17.6155 6.43699 17.9479C6.35745 18.1075 6.28339 18.2427 6.22978 18.337C6.20309 18.3839 6.18177 18.4202 6.16775 18.4438L6.15253 18.4691L6.14989 18.4734L6.95722 18.9735C6.14989 18.4734 6.14995 18.4733 6.14989 18.4734L6.14934 18.4743C5.85924 18.9437 6.00419 19.5595 6.47339 19.8501C6.94289 20.1409 7.55927 19.9961 7.85011 19.5266L7 19C7.85011 19.5266 7.85004 19.5267 7.85011 19.5266L7.8516 19.5242L7.85399 19.5203L7.86136 19.5082L7.88581 19.4676C7.90616 19.4334 7.93438 19.3854 7.96839 19.3256C8.03618 19.2063 8.12814 19.0384 8.22712 18.8398C8.41855 18.4555 8.66325 17.9031 8.78932 17.3455C8.98982 16.4587 9 15.5022 9 15Z"/>
<path d="M15 15C15 14.4477 15.4477 14 16 14C16.5523 14 17 14.4477 17 15C17 15.4978 17.0148 16.2559 17.1614 16.9045C17.2352 17.2305 17.3974 17.6155 17.563 17.9479C17.6425 18.1075 17.7166 18.2427 17.7702 18.337C17.7969 18.3839 17.8182 18.4202 17.8323 18.4438L17.8475 18.4691L17.8501 18.4734L17 19C17.8501 18.4734 17.85 18.4733 17.8501 18.4734L17.8507 18.4743C18.1408 18.9437 17.9958 19.5595 17.5266 19.8501C17.0571 20.1409 16.4407 19.9961 16.1499 19.5266L16.9601 19.0247C16.1499 19.5266 16.15 19.5267 16.1499 19.5266L16.1484 19.5242L16.146 19.5203L16.1386 19.5082L16.1142 19.4676C16.0938 19.4334 16.0656 19.3854 16.0316 19.3256C15.9638 19.2063 15.8719 19.0384 15.7729 18.8398C15.5815 18.4555 15.3367 17.9031 15.2107 17.3455C15.0102 16.4587 15 15.5022 15 15Z"/>
<path d="M12 14C11.4477 14 11 14.4477 11 15V21C11 21.5523 11.4477 22 12 22C12.5523 22 13 21.5523 13 21V15C13 14.4477 12.5523 14 12 14Z"/>
</mask>
<path d="M4 11C4 10.4477 4.44772 10 5 10H19C19.5523 10 20 10.4477 20 11C20 11.5523 19.5523 12 19 12H5C4.44772 12 4 11.5523 4 11Z" fill="#767BFA"/>
<path d="M9 15C9 14.4477 8.55228 14 8 14C7.44772 14 7 14.4477 7 15C7 15.4978 6.98518 16.2559 6.83856 16.9045C6.76485 17.2305 6.60258 17.6155 6.43699 17.9479C6.35745 18.1075 6.28339 18.2427 6.22978 18.337C6.20309 18.3839 6.18177 18.4202 6.16775 18.4438L6.15253 18.4691L6.14989 18.4734L6.95722 18.9735C6.14989 18.4734 6.14995 18.4733 6.14989 18.4734L6.14934 18.4743C5.85924 18.9437 6.00419 19.5595 6.47339 19.8501C6.94289 20.1409 7.55927 19.9961 7.85011 19.5266L7 19C7.85011 19.5266 7.85004 19.5267 7.85011 19.5266L7.8516 19.5242L7.85399 19.5203L7.86136 19.5082L7.88581 19.4676C7.90616 19.4334 7.93438 19.3854 7.96839 19.3256C8.03618 19.2063 8.12814 19.0384 8.22712 18.8398C8.41855 18.4555 8.66325 17.9031 8.78932 17.3455C8.98982 16.4587 9 15.5022 9 15Z" fill="#767BFA"/>
<path d="M15 15C15 14.4477 15.4477 14 16 14C16.5523 14 17 14.4477 17 15C17 15.4978 17.0148 16.2559 17.1614 16.9045C17.2352 17.2305 17.3974 17.6155 17.563 17.9479C17.6425 18.1075 17.7166 18.2427 17.7702 18.337C17.7969 18.3839 17.8182 18.4202 17.8323 18.4438L17.8475 18.4691L17.8501 18.4734L17 19C17.8501 18.4734 17.85 18.4733 17.8501 18.4734L17.8507 18.4743C18.1408 18.9437 17.9958 19.5595 17.5266 19.8501C17.0571 20.1409 16.4407 19.9961 16.1499 19.5266L16.9601 19.0247C16.1499 19.5266 16.15 19.5267 16.1499 19.5266L16.1484 19.5242L16.146 19.5203L16.1386 19.5082L16.1142 19.4676C16.0938 19.4334 16.0656 19.3854 16.0316 19.3256C15.9638 19.2063 15.8719 19.0384 15.7729 18.8398C15.5815 18.4555 15.3367 17.9031 15.2107 17.3455C15.0102 16.4587 15 15.5022 15 15Z" fill="#767BFA"/>
<path d="M12 14C11.4477 14 11 14.4477 11 15V21C11 21.5523 11.4477 22 12 22C12.5523 22 13 21.5523 13 21V15C13 14.4477 12.5523 14 12 14Z" fill="#767BFA"/>
<path d="M6.83856 16.9045L7.81394 17.125L6.83856 16.9045ZM6.43699 17.9479L5.54192 17.502L5.54192 17.502L6.43699 17.9479ZM6.22978 18.337L5.36048 17.8427L5.36048 17.8427L6.22978 18.337ZM6.16775 18.4438L7.02476 18.9591L7.02678 18.9557L6.16775 18.4438ZM6.15253 18.4691L7.00659 18.9893L7.00953 18.9844L6.15253 18.4691ZM6.14934 18.4743L5.29887 17.9483L5.29868 17.9486L6.14934 18.4743ZM6.47339 19.8501L5.94678 20.7002H5.94678L6.47339 19.8501ZM7.8516 19.5242L8.70226 20.0499L8.70335 20.0481L7.8516 19.5242ZM7.85399 19.5203L8.70574 20.0443L8.70739 20.0416L7.85399 19.5203ZM7.86136 19.5082L8.71478 20.0295L8.71826 20.0237L7.86136 19.5082ZM7.88581 19.4676L8.74272 19.9831L8.74485 19.9795L7.88581 19.4676ZM7.96839 19.3256L7.09909 18.8313L7.09908 18.8313L7.96839 19.3256ZM8.22712 18.8398L9.12219 19.2857L8.22712 18.8398ZM8.78932 17.3455L7.81394 17.125L7.81394 17.125L8.78932 17.3455ZM17.1614 16.9045L18.1368 16.6839V16.6839L17.1614 16.9045ZM17.563 17.9479L16.6679 18.3938V18.3938L17.563 17.9479ZM17.7702 18.337L18.6395 17.8427L18.6395 17.8427L17.7702 18.337ZM17.8323 18.4438L16.9732 18.9557L16.9752 18.9591L17.8323 18.4438ZM17.8475 18.4691L16.9905 18.9844L16.9934 18.9892L17.8475 18.4691ZM17.8507 18.4743L18.7013 17.9486L18.701 17.9481L17.8507 18.4743ZM17.5266 19.8501L18.0532 20.7002L18.0532 20.7002L17.5266 19.8501ZM16.1484 19.5242L15.2967 20.0482L15.2976 20.0497L16.1484 19.5242ZM16.146 19.5203L15.2926 20.0415L15.2943 20.0443L16.146 19.5203ZM16.1386 19.5082L15.2817 20.0237L15.2852 20.0295L16.1386 19.5082ZM16.1142 19.4676L15.2551 19.9795L15.2573 19.9831L16.1142 19.4676ZM16.0316 19.3256L16.9009 18.8313L16.9009 18.8313L16.0316 19.3256ZM15.7729 18.8398L14.8778 19.2857L15.7729 18.8398ZM15.2107 17.3455L16.1861 17.125V17.125L15.2107 17.3455ZM5 9C3.89543 9 3 9.89543 3 11H5V9ZM19 9H5V11H19V9ZM21 11C21 9.89543 20.1046 9 19 9V11H21ZM19 13C20.1046 13 21 12.1046 21 11H19V13ZM5 13H19V11H5V13ZM3 11C3 12.1046 3.89543 13 5 13V11H3ZM8 15H10C10 13.8954 9.10457 13 8 13V15ZM8 15V13C6.89543 13 6 13.8954 6 15H8ZM7.81394 17.125C7.98757 16.357 8 15.4993 8 15H6C6 15.4962 5.9828 16.1548 5.86318 16.6839L7.81394 17.125ZM7.33205 18.3938C7.51039 18.0359 7.714 17.567 7.81394 17.125L5.86318 16.6839C5.81569 16.894 5.69478 17.1952 5.54192 17.502L7.33205 18.3938ZM7.09908 18.8313C7.15978 18.7245 7.2428 18.573 7.33205 18.3938L5.54192 17.502C5.47211 17.6421 5.407 17.7609 5.36048 17.8427L7.09908 18.8313ZM7.02678 18.9557C7.04396 18.9268 7.06873 18.8847 7.09908 18.8313L5.36048 17.8427C5.33744 17.8832 5.31957 17.9136 5.30871 17.9318L7.02678 18.9557ZM7.00953 18.9844L7.02475 18.9591L5.31074 17.9284L5.29553 17.9537L7.00953 18.9844ZM7.00394 18.9936L7.00658 18.9893L5.29848 17.9489L5.29585 17.9532L7.00394 18.9936ZM7.48384 18.1234L6.67651 17.6233L5.62328 19.3235L6.43061 19.8236L7.48384 18.1234ZM6.99885 19.0019C6.99884 19.0019 6.99014 19.0156 6.98122 19.0292C6.97203 19.0427 6.94322 19.0822 6.92298 19.1077C6.86589 19.1773 6.77786 19.2653 6.651 19.3388C6.38783 19.4912 6.13778 19.4802 6.02144 19.4651C5.90843 19.4505 5.82441 19.4194 5.79577 19.4086C5.75843 19.3944 5.72983 19.381 5.71588 19.3743C5.68784 19.3608 5.66662 19.3489 5.66117 19.3458C5.65271 19.3411 5.64613 19.3372 5.64312 19.3354C5.63696 19.3318 5.63226 19.329 5.63136 19.3284C5.62973 19.3274 5.62858 19.3267 5.62835 19.3266C5.62801 19.3264 5.62944 19.3273 5.6362 19.3314C5.64857 19.3391 5.6735 19.3545 5.72411 19.3859C5.82505 19.4485 6.02691 19.5735 6.43061 19.8236L7.48383 18.1234C7.08021 17.8734 6.87843 17.7483 6.77755 17.6858C6.72725 17.6547 6.70173 17.6388 6.68886 17.6309C6.68301 17.6273 6.67813 17.6242 6.67463 17.6221C6.6736 17.6215 6.67186 17.6204 6.66979 17.6191C6.66844 17.6183 6.66344 17.6153 6.65709 17.6115C6.65397 17.6097 6.64732 17.6058 6.6388 17.601C6.6333 17.598 6.61204 17.586 6.58396 17.5725C6.57001 17.5658 6.5414 17.5523 6.50405 17.5382C6.4754 17.5273 6.39137 17.4963 6.27836 17.4817C6.16202 17.4666 5.91196 17.4556 5.6488 17.608C5.52193 17.6815 5.4339 17.7695 5.37681 17.8391C5.35657 17.8646 5.32776 17.9041 5.31856 17.9176C5.30964 17.9312 5.30094 17.9449 5.30094 17.9449L6.99885 19.0019ZM6.9998 19.0003L7.00036 18.9994L5.29943 17.9474L5.29887 17.9483L6.9998 19.0003ZM7 19L6.99999 19L5.29868 17.9486C4.71848 18.8874 5.00837 20.1189 5.94678 20.7002L7 19ZM7 19L7 19L5.94678 20.7002C6.88578 21.2819 8.11853 20.9922 8.70021 20.0532L7 19ZM6.47339 19.8501L7.32349 20.3767L8.37672 18.6765L7.52661 18.1499L6.47339 19.8501ZM6.99851 19.0024C6.98321 19.0273 7.08853 18.8291 7.30464 18.6885C7.54952 18.5291 7.79331 18.5188 7.93073 18.5299C8.055 18.5399 8.14802 18.5714 8.18139 18.5831C8.22363 18.5979 8.25593 18.6125 8.27179 18.6199C8.3036 18.6347 8.32759 18.648 8.33379 18.6514C8.34337 18.6567 8.35082 18.661 8.35424 18.663C8.36121 18.6671 8.36655 18.6703 8.36758 18.6709C8.36944 18.6721 8.37077 18.6729 8.37107 18.6731C8.37159 18.6734 8.37022 18.6725 8.36307 18.6681C8.35007 18.6601 8.32384 18.6438 8.27054 18.6108C8.16426 18.5449 7.95171 18.4132 7.52661 18.1499L6.47339 19.8501C6.8984 20.1134 7.11087 20.245 7.21709 20.3109C7.27004 20.3437 7.29694 20.3603 7.31052 20.3687C7.31666 20.3725 7.32193 20.3758 7.32578 20.3782C7.32691 20.3789 7.32887 20.3801 7.3312 20.3815C7.3327 20.3824 7.33835 20.3858 7.34554 20.39C7.34906 20.3921 7.35659 20.3964 7.36623 20.4018C7.37248 20.4052 7.39652 20.4185 7.42836 20.4333C7.44423 20.4407 7.47655 20.4553 7.51879 20.4701C7.55217 20.4819 7.64519 20.5133 7.76947 20.5234C7.90689 20.5345 8.15069 20.5241 8.39557 20.3647C8.50905 20.2909 8.58649 20.2078 8.63541 20.1457C8.65302 20.1227 8.67818 20.0872 8.68623 20.0752C8.69405 20.063 8.7017 20.0508 8.7017 20.0508L6.99851 19.0024ZM7.00225 18.9963L6.99986 19.0002L8.70335 20.0481L8.70574 20.0443L7.00225 18.9963ZM7.00797 18.987L7.00059 18.999L8.70739 20.0416L8.71476 20.0295L7.00797 18.987ZM7.02891 18.9521L7.00446 18.9928L8.71826 20.0237L8.74271 19.9831L7.02891 18.9521ZM7.09908 18.8313C7.06874 18.8847 7.04396 18.9268 7.02678 18.9557L8.74485 19.9795C8.76836 19.9401 8.80003 19.8861 8.83769 19.8198L7.09908 18.8313ZM7.33205 18.3938C7.2428 18.573 7.15978 18.7245 7.09909 18.8313L8.83769 19.8198C8.91257 19.6881 9.01349 19.5039 9.12219 19.2857L7.33205 18.3938ZM7.81394 17.125C7.71402 17.5669 7.51044 18.0358 7.33205 18.3938L9.12219 19.2857C9.32666 18.8753 9.61249 18.2392 9.7647 17.5661L7.81394 17.125ZM8 15C8 15.4994 7.98756 16.3571 7.81394 17.125L9.7647 17.5661C9.99208 16.5604 10 15.5051 10 15H8ZM16 13C14.8954 13 14 13.8954 14 15H16V13ZM18 15C18 13.8954 17.1046 13 16 13V15H18ZM18.1368 16.6839C18.0172 16.1548 18 15.4962 18 15H16C16 15.4993 16.0124 16.357 16.1861 17.125L18.1368 16.6839ZM18.4581 17.502C18.3052 17.1952 18.1843 16.894 18.1368 16.6839L16.1861 17.125C16.286 17.567 16.4896 18.0359 16.6679 18.3938L18.4581 17.502ZM18.6395 17.8427C18.593 17.7609 18.5279 17.6421 18.4581 17.502L16.6679 18.3938C16.7572 18.573 16.8402 18.7245 16.9009 18.8313L18.6395 17.8427ZM18.6913 17.9318C18.6804 17.9136 18.6626 17.8832 18.6395 17.8427L16.9009 18.8313C16.9313 18.8847 16.956 18.9268 16.9732 18.9557L18.6913 17.9318ZM18.7045 17.9538L18.6893 17.9284L16.9752 18.9591L16.9905 18.9844L18.7045 17.9538ZM18.7042 17.9532L18.7015 17.9489L16.9934 18.9892L16.996 18.9935L18.7042 17.9532ZM17.5266 19.8501L18.3767 19.3235L17.3235 17.6233L16.4734 18.1499L17.5266 19.8501ZM18.6972 17.9419C18.6972 17.9419 18.6882 17.9278 18.6789 17.9139C18.6694 17.9 18.6395 17.8595 18.6185 17.8334C18.5591 17.7621 18.4683 17.6734 18.3383 17.6007C18.0718 17.4516 17.8216 17.4675 17.7106 17.4832C17.6005 17.4987 17.5187 17.5294 17.491 17.5401C17.4548 17.554 17.427 17.5672 17.4135 17.5737C17.3862 17.587 17.3656 17.5986 17.3602 17.6016C17.3519 17.6062 17.3455 17.61 17.3424 17.6118C17.3362 17.6155 17.3314 17.6184 17.33 17.6192C17.328 17.6205 17.3263 17.6215 17.3252 17.6222C17.3217 17.6244 17.3167 17.6274 17.3105 17.6313C17.2969 17.6397 17.2701 17.6563 17.2171 17.6891C17.1109 17.755 16.8984 17.8866 16.4734 18.1499L17.5266 19.8501C17.9517 19.5868 18.1642 19.4551 18.2705 19.3892C18.3238 19.3562 18.3501 19.3399 18.3631 19.3319C18.3702 19.3275 18.3718 19.3265 18.3716 19.3266C18.3714 19.3267 18.3703 19.3274 18.3687 19.3284C18.3679 19.3289 18.3633 19.3317 18.3573 19.3352C18.3544 19.3369 18.348 19.3407 18.3398 19.3453C18.3345 19.3483 18.3139 19.3598 18.2867 19.3731C18.2731 19.3796 18.2454 19.3928 18.2091 19.4067C18.1815 19.4173 18.0997 19.4481 17.9896 19.4636C17.8786 19.4792 17.6284 19.4952 17.3619 19.3461C17.108 19.2041 16.9881 18.9811 17.003 19.0049L18.6972 17.9419ZM18.701 17.9481L18.7005 17.9472L16.9997 18.9996L17.0003 19.0005L18.701 17.9481ZM18.0532 20.7002C18.9916 20.1189 19.2815 18.8874 18.7013 17.9486L17 19L17 19L18.0532 20.7002ZM15.2998 20.0532C15.8815 20.9922 17.1142 21.2819 18.0532 20.7002L17 19H17L15.2998 20.0532ZM16.4335 18.1746L15.6233 18.6765L16.6765 20.3767L17.4867 19.8748L16.4335 18.1746ZM15.2982 20.0507C15.2982 20.0507 15.3057 20.0626 15.3132 20.0743C15.321 20.0861 15.3454 20.1205 15.3624 20.1429C15.4095 20.2031 15.4845 20.2847 15.5946 20.3583C15.8343 20.5183 16.0758 20.534 16.2182 20.5243C16.3453 20.5156 16.4406 20.4841 16.4753 20.4722C16.5188 20.4572 16.5521 20.4423 16.5685 20.4348C16.6013 20.4197 16.6261 20.406 16.6325 20.4024C16.6425 20.397 16.6502 20.3925 16.6539 20.3904C16.6612 20.386 16.667 20.3825 16.6686 20.3816C16.6709 20.3802 16.6729 20.379 16.6741 20.3783C16.6779 20.3759 16.6831 20.3727 16.6889 20.3691C16.7018 20.3611 16.7275 20.3452 16.7779 20.3139C16.8792 20.2512 17.0816 20.1257 17.4867 19.8748L16.4335 18.1746C16.0283 18.4256 15.8258 18.5511 15.7245 18.6139C15.6736 18.6454 15.6487 18.6609 15.6363 18.6685C15.6294 18.6727 15.6283 18.6735 15.6289 18.6731C15.6293 18.6729 15.6307 18.672 15.6326 18.6708C15.6337 18.6702 15.6392 18.6669 15.6463 18.6627C15.6499 18.6606 15.6575 18.6562 15.6674 18.6507C15.6738 18.6472 15.6985 18.6335 15.7313 18.6184C15.7477 18.6109 15.781 18.596 15.8245 18.581C15.8592 18.5691 15.9545 18.5377 16.0816 18.529C16.224 18.5192 16.4655 18.5349 16.7052 18.695C16.8153 18.7685 16.8903 18.8501 16.9374 18.9103C16.9544 18.9327 16.9788 18.9672 16.9866 18.9789C16.9941 18.9907 17.0016 19.0025 17.0016 19.0025L15.2982 20.0507ZM15.2943 20.0443L15.2967 20.0482L17.0001 19.0002L16.9977 18.9963L15.2943 20.0443ZM15.2852 20.0295L15.2926 20.0415L16.9994 18.9991L16.9921 18.987L15.2852 20.0295ZM15.2573 19.9831L15.2817 20.0237L16.9955 18.9927L16.9711 18.9521L15.2573 19.9831ZM15.1623 19.8198C15.2 19.8861 15.2316 19.9401 15.2551 19.9795L16.9732 18.9557C16.956 18.9268 16.9313 18.8847 16.9009 18.8313L15.1623 19.8198ZM14.8778 19.2857C14.9865 19.5039 15.0874 19.6881 15.1623 19.8198L16.9009 18.8313C16.8402 18.7245 16.7572 18.573 16.6679 18.3938L14.8778 19.2857ZM14.2353 17.5661C14.3875 18.2392 14.6733 18.8753 14.8778 19.2857L16.6679 18.3938C16.4896 18.0358 16.286 17.5669 16.1861 17.125L14.2353 17.5661ZM14 15C14 15.5051 14.0079 16.5604 14.2353 17.5661L16.1861 17.125C16.0124 16.3571 16 15.4994 16 15H14ZM12 15V13C10.8954 13 10 13.8954 10 15H12ZM12 21V15H10V21H12ZM12 21H10C10 22.1046 10.8954 23 12 23V21ZM12 21V23C13.1046 23 14 22.1046 14 21H12ZM12 15V21H14V15H12ZM12 15H14C14 13.8954 13.1046 13 12 13V15ZM7.00094 18.9985L6.99945 19.0009L8.70077 20.0523L8.70226 20.0499L7.00094 18.9985ZM15.2976 20.0497L15.2991 20.0521L17.0007 19.0011L16.9992 18.9987L15.2976 20.0497Z" fill="#767BFA" mask="url(#path-1-inside-1)"/>
<path d="M2 10C2 14.1423 2.58927 15.7306 3.57462 16.5517C3.82275 16.7585 4 17.049 4 17.372V17.4704C4 18.2372 3.21909 18.7664 2.59528 18.3205C0.589057 16.8864 0 14.3429 0 10C0 1.765 2.118 0 12 0C21.882 0 24 1.765 24 10C24 14.3429 23.4109 16.8864 21.4047 18.3205C20.7809 18.7664 20 18.2372 20 17.4704V17.372C20 17.049 20.1772 16.7585 20.4254 16.5517C21.4107 15.7306 22 14.1423 22 10C22 5.85772 21.4107 4.26945 20.4254 3.44832C19.9032 3.01317 19.0811 2.63054 17.6798 2.37101C16.2733 2.11053 14.4331 2 12 2C9.56687 2 7.7267 2.11053 6.32024 2.37101C4.91889 2.63054 4.0968 3.01317 3.57462 3.44832C2.58927 4.26945 2 5.85772 2 10Z" fill="#ABAFD1"/>
</svg>
