<svg width="24" height="24" viewBox="0 0 24 24" fill="none" xmlns="http://www.w3.org/2000/svg">
<path fill-rule="evenodd" clip-rule="evenodd" d="M0 14C0 22.235 1.765 24 10 24C18.235 24 20 22.235 20 14C20 5.765 18.235 4 10 4C1.765 4 0 5.765 0 14ZM2 14C2 16.0131 2.11048 17.4943 2.35682 18.6027C2.59811 19.6885 2.94237 20.2902 3.32609 20.6739C3.70981 21.0576 4.31152 21.4019 5.39726 21.6432C6.5057 21.8895 7.9869 22 10 22C12.0131 22 13.4943 21.8895 14.6027 21.6432C15.6885 21.4019 16.2902 21.0576 16.6739 20.6739C17.0576 20.2902 17.4019 19.6885 17.6432 18.6027C17.8895 17.4943 18 16.0131 18 14C18 11.9869 17.8895 10.5057 17.6432 9.39726C17.4019 8.31153 17.0576 7.70981 16.6739 7.32609C16.2902 6.94237 15.6885 6.59811 14.6027 6.35682C13.4943 6.11048 12.0131 6 10 6C7.9869 6 6.5057 6.11048 5.39726 6.35682C4.31152 6.59811 3.70981 6.94237 3.32609 7.32609C2.94237 7.70981 2.59811 8.31153 2.35682 9.39726C2.11048 10.5057 2 11.9869 2 14Z" fill="#ABAFD1"/>
<path d="M19.9645 15.8341C19.9307 16.6273 19.8713 17.3474 19.78 18.0005C23.1443 17.1118 23.9999 14.7396 23.9999 9.23079C23.9999 1.84616 22.1538 0 14.7691 0C9.26026 0 6.88802 0.855664 5.99939 4.22001C6.65247 4.12875 7.37255 4.06931 8.1658 4.03552C8.33272 3.64175 8.52152 3.37487 8.71737 3.17902C9.04452 2.85187 9.56989 2.54438 10.5538 2.32571C11.5604 2.10199 12.9144 2 14.7691 2C18.4757 2 19.9909 2.51177 20.7395 3.26037C21.4881 4.00897 21.9999 5.52418 21.9999 9.23079C21.9999 11.0855 21.8979 12.4395 21.6742 13.4461C21.4555 14.43 21.1481 14.9554 20.8209 15.2825C20.6251 15.4784 20.3582 15.6672 19.9645 15.8341Z" fill="#767BFA"/>
</svg>
