<svg width="24" height="24" viewBox="0 0 24 24" fill="none" xmlns="http://www.w3.org/2000/svg">
<path fill-rule="evenodd" clip-rule="evenodd" d="M0 12C0 21.882 2.118 24 12 24C21.882 24 24 21.882 24 12C24 2.118 21.882 0 12 0C2.118 0 0 2.118 0 12ZM2 12C2 14.4249 2.13254 16.2369 2.43771 17.6101C2.73783 18.9605 3.17768 19.7608 3.70846 20.2915C4.23924 20.8223 5.03949 21.2622 6.38993 21.5623C7.76307 21.8675 9.57515 22 12 22C14.4249 22 16.2369 21.8675 17.6101 21.5623C18.9605 21.2622 19.7608 20.8223 20.2915 20.2915C20.8223 19.7608 21.2622 18.9605 21.5623 17.6101C21.8675 16.2369 22 14.4249 22 12C22 11.281 21.9883 10.6158 21.964 10H2.03601C2.01165 10.6158 2 11.281 2 12ZM2.53216 6H21.4678C21.173 4.88171 20.7691 4.18602 20.2915 3.70846C19.7608 3.17768 18.9605 2.73783 17.6101 2.43771C16.2369 2.13254 14.4249 2 12 2C9.57515 2 7.76307 2.13254 6.38993 2.43771C5.03949 2.73783 4.23924 3.17768 3.70846 3.70846C3.23091 4.18602 2.82696 4.88171 2.53216 6Z" fill="#ABAFD1"/>
<rect x="19" y="19" width="6" height="2" rx="1" transform="rotate(-180 19 19)" fill="#767BFA"/>
</svg>
