<svg width="24" height="24" viewBox="0 0 24 24" fill="none" xmlns="http://www.w3.org/2000/svg">
<path fill-rule="evenodd" clip-rule="evenodd" d="M11.9233 16.0001C11.492 16.0002 11.0174 16.0004 10.6229 15.9566C10.2196 15.9117 9.45645 15.7849 8.83579 15.1643C8.21514 14.5436 8.0883 13.7805 8.04349 13.3772C7.99966 12.9826 7.99983 12.5081 7.99999 12.0768V11.9233C7.99983 11.492 7.99966 11.0174 8.04349 10.6229C8.0883 10.2196 8.21514 9.45648 8.83579 8.83582C9.45645 8.21517 10.2196 8.08833 10.6229 8.04352C11.0174 7.99969 11.492 7.99986 11.9233 8.00002L12.0767 8.00002C12.5081 7.99986 12.9826 7.99969 13.3771 8.04352C13.7804 8.08833 14.5436 8.21517 15.1642 8.83582C15.7849 9.45648 15.9117 10.2196 15.9565 10.6229C16.0004 11.0174 16.0002 11.492 16 11.9233V12.0768C16.0002 12.5081 16.0004 12.9826 15.9565 13.3772C15.9117 13.7805 15.7849 14.5436 15.1642 15.1643C14.5436 15.7849 13.7804 15.9117 13.3771 15.9566C12.9826 16.0004 12.5081 16.0002 12.0767 16.0001H11.9233ZM10 12C10 13 10 13.5 10.25 13.75C10.5 14 11 14 12 14C13 14 13.5 14 13.75 13.75C14 13.5 14 13 14 12C14 11 14 10.5 13.75 10.25C13.5 10 13 10 12 10C11 10 10.5 10 10.25 10.25C10 10.5 10 11 10 12Z" fill="#767BFA"/>
<path fill-rule="evenodd" clip-rule="evenodd" d="M21 19V11.9269C21 10.1034 21 8.63363 20.8446 7.47766C20.6833 6.27752 20.3381 5.26702 19.5355 4.46447C18.733 3.66191 17.7225 3.31672 16.5223 3.15536C15.3664 2.99995 13.8966 2.99997 12.0732 3L5 3V1C5 0.447716 4.55228 0 4 0C3.44772 0 3 0.447716 3 1V3H1C0.447715 3 0 3.44772 0 4C0 4.55228 0.447715 5 1 5H3V12.0731C2.99997 13.8966 2.99995 15.3664 3.15536 16.5223C3.31672 17.7225 3.66191 18.733 4.46447 19.5355C5.26702 20.3381 6.27752 20.6833 7.47766 20.8446C8.63362 21 10.1034 21 11.9268 21H19V23C19 23.5523 19.4477 24 20 24C20.5523 24 21 23.5523 21 23V21H23C23.5523 21 24 20.5523 24 20C24 19.4477 23.5523 19 23 19H21ZM12 19C10.0861 19 8.75129 18.9979 7.74416 18.8625C6.76579 18.7309 6.2477 18.4903 5.87868 18.1213C5.50966 17.7523 5.26907 17.2342 5.13753 16.2558C5.00212 15.2487 5 13.9139 5 12V5H12C13.9139 5 15.2487 5.00212 16.2558 5.13753C17.2342 5.26907 17.7523 5.50966 18.1213 5.87868C18.4903 6.2477 18.7309 6.76579 18.8625 7.74416C18.9979 8.7513 19 10.0861 19 12V19H12Z" fill="#ABAFD1"/>
</svg>
