<svg width="20" height="24" viewBox="0 0 20 24" fill="none" xmlns="http://www.w3.org/2000/svg">
<path d="M9 0C8.44772 0 8 0.447715 8 1V3H12V1C12 0.447715 11.5523 0 11 0H9Z" fill="#767BFA"/>
<path d="M7 12C7 11.4477 6.55228 11 6 11C5.44772 11 5 11.4477 5 12V18C5 18.5523 5.44772 19 6 19C6.55228 19 7 18.5523 7 18V12Z" fill="#767BFA"/>
<path d="M11 12C11 11.4477 10.5523 11 10 11C9.44772 11 9 11.4477 9 12V18C9 18.5523 9.44772 19 10 19C10.5523 19 11 18.5523 11 18V12Z" fill="#767BFA"/>
<path d="M14 11C14.5523 11 15 11.4477 15 12V18C15 18.5523 14.5523 19 14 19C13.4477 19 13 18.5523 13 18V12C13 11.4477 13.4477 11 14 11Z" fill="#767BFA"/>
<path d="M1.54023 5.84152C2.72862 5.0786 5.52976 4 10 4C14.4555 4 17.1808 5.07224 18.4843 5.85679C18.9575 6.14158 19.572 5.98886 19.8568 5.51566C20.1416 5.04247 19.9889 4.428 19.5157 4.14321C17.8654 3.14998 14.7753 2 10 2C5.23947 2 2.04061 3.14362 0.459768 4.15848C-0.00498846 4.45685 -0.139878 5.07548 0.158485 5.54023C0.456847 6.00499 1.07548 6.13988 1.54023 5.84152Z" fill="#ABAFD1"/>
<path fill-rule="evenodd" clip-rule="evenodd" d="M0.393787 15C0.452823 15.2655 0.509811 15.5236 0.565217 15.7746C2.01239 22.3303 2.38099 24 10 24C17.619 24 17.9876 22.3303 19.4348 15.7747C19.4902 15.5237 19.5472 15.2655 19.6062 15C21.2073 7.8 17.9107 6 10 6C2.08928 6 -1.20723 7.8 0.393787 15ZM2.52107 15.3561C2.84326 16.8145 3.09124 17.937 3.37195 18.8643C3.69786 19.9408 4.00207 20.5111 4.31866 20.8635C4.87457 21.4824 5.98829 22 10 22C14.0117 22 15.1254 21.4824 15.6813 20.8635C15.9979 20.5111 16.3021 19.9408 16.628 18.8643C16.9087 17.937 17.1567 16.8145 17.4789 15.3562C17.5348 15.1031 17.593 14.8399 17.6539 14.5659C18.409 11.1699 17.8063 9.93633 17.0863 9.33365C16.63 8.95173 15.884 8.59918 14.6686 8.35438C13.4586 8.1107 11.9189 8 10 8C8.08107 8 6.54138 8.1107 5.33142 8.35438C4.11596 8.59918 3.36999 8.95173 2.91371 9.33365C2.19368 9.93633 1.59097 11.1699 2.3461 14.5659C2.40702 14.8398 2.46518 15.1031 2.52107 15.3561Z" fill="#ABAFD1"/>
</svg>
