<svg width="24" height="20" viewBox="0 0 24 20" fill="none" xmlns="http://www.w3.org/2000/svg">
<path d="M4 16C4 16.5523 3.55228 17 3 17C2.44772 17 2 16.5523 2 16C2 12.6158 2.47155 9.60058 4.02035 7.42079C5.62437 5.16327 8.23099 4 12 4C15.769 4 18.3756 5.16327 19.9797 7.42079C21.5284 9.60058 22 12.6158 22 16C22 16.5523 21.5523 17 21 17C20.4477 17 20 16.5523 20 16C20 12.7176 19.5242 10.2328 18.3493 8.57921C17.2296 7.00339 15.3363 6 12 6C8.66375 6 6.77036 7.00339 5.65071 8.57921C4.47582 10.2328 4 12.7176 4 16Z" fill="#ABAFD1"/>
<path fill-rule="evenodd" clip-rule="evenodd" d="M15 3C15 4.65685 13.6569 6 12 6C10.3431 6 9 4.65685 9 3C9 1.34315 10.3431 0 12 0C13.6569 0 15 1.34315 15 3ZM13 3C13 3.55228 12.5523 4 12 4C11.4477 4 11 3.55228 11 3C11 2.44772 11.4477 2 12 2C12.5523 2 13 2.44772 13 3Z" fill="#767BFA"/>
<path fill-rule="evenodd" clip-rule="evenodd" d="M21.5 20C22.8807 20 24 18.8807 24 17.5C24 16.1193 22.8807 15 21.5 15L2.5 15C1.11929 15 0 16.1193 0 17.5C0 18.8807 1.11929 20 2.5 20H21.5ZM22 17.5C22 17.2239 21.7761 17 21.5 17H2.5C2.22386 17 2 17.2239 2 17.5C2 17.7761 2.22386 18 2.5 18H21.5C21.7761 18 22 17.7761 22 17.5Z" fill="#767BFA"/>
</svg>
