<svg width="24" height="24" viewBox="0 0 24 24" fill="none" xmlns="http://www.w3.org/2000/svg">
<path fill-rule="evenodd" clip-rule="evenodd" d="M0 12C0 21.882 2.118 24 12 24C21.882 24 24 21.882 24 12C24 2.118 21.882 0 12 0C2.118 0 0 2.118 0 12ZM2 12C2 14.4249 2.13254 16.2369 2.43771 17.6101C2.73783 18.9605 3.17768 19.7608 3.70846 20.2915C4.23924 20.8223 5.03949 21.2622 6.38993 21.5623C7.76307 21.8675 9.57515 22 12 22C13.1519 22 14.1655 21.9701 15.0595 21.906C15.056 21.7266 15.0465 21.5345 15.0358 21.3164C15.0298 21.1937 15.0234 21.0626 15.0174 20.9212C14.9989 20.4844 14.9871 19.986 15.0249 19.4749C15.1001 18.4585 15.3796 17.2755 16.311 16.3412C17.2453 15.4041 18.4639 15.117 19.4904 15.0325C20.0111 14.9897 20.5166 14.9964 20.9557 15.0116C21.1254 15.0175 21.2776 15.0242 21.4171 15.0303C21.5982 15.0382 21.758 15.0452 21.9068 15.0483C21.8537 15.7921 21.7771 16.4532 21.6743 17.0423C21.5419 17.0377 21.4044 17.0318 21.2682 17.0259C21.1381 17.0203 21.009 17.0147 20.8865 17.0104C20.4746 16.9962 20.0596 16.9925 19.6543 17.0258C18.8289 17.0937 18.174 17.3052 17.7274 17.7533C17.2778 18.2043 17.0781 18.83 17.0195 19.6225C16.9904 20.0158 16.998 20.4217 17.0156 20.8364C17.0201 20.9424 17.0255 21.0529 17.031 21.165C17.0392 21.3332 17.0477 21.5057 17.0535 21.6724C17.2467 21.6385 17.432 21.6019 17.6101 21.5623C18.9605 21.2622 19.7608 20.8223 20.2915 20.2915C20.8223 19.7608 21.2622 18.9605 21.5623 17.6101C21.8675 16.2369 22 14.4249 22 12C22 9.57515 21.8675 7.76307 21.5623 6.38993C21.2622 5.03949 20.8223 4.23924 20.2915 3.70846C19.7608 3.17768 18.9605 2.73783 17.6101 2.43771C16.2369 2.13254 14.4249 2 12 2C9.57515 2 7.76307 2.13254 6.38993 2.43771C5.03949 2.73783 4.23924 3.17768 3.70846 3.70846C3.17768 4.23924 2.73783 5.03949 2.43771 6.38993C2.13254 7.76307 2 9.57515 2 12Z" fill="#ABAFD1"/>
<path d="M7 6C6.44772 6 6 6.44772 6 7C6 7.55228 6.44772 8 7 8H10C10.5523 8 11 7.55228 11 7C11 6.44772 10.5523 6 10 6H7Z" fill="#767BFA"/>
<path d="M7 11C6.44772 11 6 11.4477 6 12C6 12.5523 6.44772 13 7 13H17C17.5523 13 18 12.5523 18 12C18 11.4477 17.5523 11 17 11H7Z" fill="#767BFA"/>
</svg>
