<svg width="24" height="25" viewBox="0 0 24 25" fill="none" xmlns="http://www.w3.org/2000/svg">
<path d="M9 7.01562C9 6.46333 9.44772 6.01562 10 6.01562H14C14.5523 6.01562 15 6.46333 15 7.01562C15 7.56792 14.5523 8.01562 14 8.01562H10C9.44772 8.01562 9 7.56792 9 7.01562Z" fill="#767BFA"/>
<path d="M6 12.0156C6 11.4633 6.44772 11.0156 7 11.0156H17C17.5523 11.0156 18 11.4633 18 12.0156C18 12.5679 17.5523 13.0156 17 13.0156H7C6.44772 13.0156 6 12.5679 6 12.0156Z" fill="#767BFA"/>
<path d="M10 16.0156C9.44772 16.0156 9 16.4633 9 17.0156C9 17.5679 9.44772 18.0156 10 18.0156H14C14.5523 18.0156 15 17.5679 15 17.0156C15 16.4633 14.5523 16.0156 14 16.0156H10Z" fill="#767BFA"/>
<path fill-rule="evenodd" clip-rule="evenodd" d="M0 12.0156C0 21.8976 2.118 24.0156 12 24.0156C21.882 24.0156 24 21.8976 24 12.0156C24 2.13363 21.882 0.015625 12 0.015625C2.118 0.015625 0 2.13363 0 12.0156ZM12 22.0156C9.57515 22.0156 7.76307 21.8831 6.38993 21.5779C5.03949 21.2778 4.23924 20.8379 3.70846 20.3072C3.17768 19.7764 2.73783 18.9761 2.43771 17.6257C2.13254 16.2526 2 14.4405 2 12.0156C2 9.59077 2.13254 7.7787 2.43771 6.40555C2.73783 5.05512 3.17768 4.25487 3.70846 3.72409C4.23924 3.19331 5.03949 2.75346 6.38993 2.45333C7.76307 2.14816 9.57515 2.01562 12 2.01562C14.4249 2.01562 16.2369 2.14816 17.6101 2.45333C18.9605 2.75346 19.7608 3.19331 20.2915 3.72409C20.8223 4.25487 21.2622 5.05512 21.5623 6.40555C21.8675 7.7787 22 9.59077 22 12.0156C22 14.4405 21.8675 16.2526 21.5623 17.6257C21.2622 18.9761 20.8223 19.7764 20.2915 20.3072C19.7608 20.8379 18.9605 21.2778 17.6101 21.5779C16.2369 21.8831 14.4249 22.0156 12 22.0156Z" fill="#ABAFD1"/>
</svg>
