<svg width="24" height="24" viewBox="0 0 24 24" fill="none" xmlns="http://www.w3.org/2000/svg">
<path fill-rule="evenodd" clip-rule="evenodd" d="M0 11.9159C0 21.7287 2.118 23.8319 12 23.8319C21.882 23.8319 24 21.7287 24 11.9159C24 2.10316 21.882 0 12 0C2.118 0 0 2.10316 0 11.9159ZM12 21.8459C9.57515 21.8459 7.76307 21.7143 6.38993 21.4112C5.03949 21.1132 4.23924 20.6765 3.70846 20.1494C3.17768 19.6223 2.73783 18.8277 2.43771 17.4867C2.13254 16.1232 2 14.3238 2 11.9159C2 9.50807 2.13254 7.70869 2.43771 6.34517C2.73783 5.00419 3.17768 4.20955 3.70846 3.68249C4.23924 3.15542 5.03949 2.71865 6.38993 2.42063C7.76307 2.1176 9.57515 1.98599 12 1.98599C14.4249 1.98599 16.2369 2.1176 17.6101 2.42063C18.9605 2.71865 19.7608 3.15542 20.2915 3.68249C20.8223 4.20955 21.2622 5.00419 21.5623 6.34517C21.8675 7.70869 22 9.50807 22 11.9159C22 14.3238 21.8675 16.1232 21.5623 17.4867C21.2622 18.8277 20.8223 19.6223 20.2915 20.1494C19.7608 20.6765 18.9605 21.1132 17.6101 21.4112C16.2369 21.7143 14.4249 21.8459 12 21.8459Z" fill="#ABAFD1"/>
<path d="M13 8.01562C13 7.46333 13.4477 7.01562 14 7.01562H17C17.5523 7.01562 18 7.46333 18 8.01562C18 8.56792 17.5523 9.01562 17 9.01562H14C13.4477 9.01562 13 8.56792 13 8.01562Z" fill="#767BFA"/>
<path d="M6 13.0156C6 12.4633 6.44771 12.0156 7 12.0156H17C17.5523 12.0156 18 12.4633 18 13.0156C18 13.5679 17.5523 14.0156 17 14.0156H7C6.44771 14.0156 6 13.5679 6 13.0156Z" fill="#767BFA"/>
<path d="M7 17.0156C6.44771 17.0156 6 17.4633 6 18.0156C6 18.5679 6.44771 19.0156 7 19.0156H10C10.5523 19.0156 11 18.5679 11 18.0156C11 17.4633 10.5523 17.0156 10 17.0156H7Z" fill="#767BFA"/>
</svg>
