<svg width="27" height="26" viewBox="0 0 27 26" fill="none" xmlns="http://www.w3.org/2000/svg">
<path d="M7.75651 6.73465C9.08944 2.83011 12.649 0 17 0C22.4902 0 27 4.50111 27 9.99142C27 15.4354 22.4806 20.0635 17 20C16.4477 20 16 19.5523 16 19C16 18.4477 16.4477 18 17 18C21.2279 17.9458 25 14.2721 25 9.99142C25 5.67176 21.192 1.99828 17 1.99828C13.7736 1.99828 11.0764 4.21556 9.9821 7.16668C9.97377 7.21506 9.96176 7.26342 9.94591 7.31144L9.94557 7.31248L9.94326 7.31958L9.93278 7.35242C9.92337 7.38223 9.90944 7.42713 9.89249 7.48405C9.85845 7.59839 9.813 7.75867 9.76778 7.94083C9.67168 8.32799 9.5985 8.72905 9.59876 8.99852C9.59939 9.66353 9.66712 10.0014 9.92297 10.6155C10.1354 11.1253 9.89428 11.7107 9.38447 11.9231C8.87466 12.1355 8.28919 11.8945 8.07679 11.3846C7.71967 10.5275 7.59964 9.92889 7.59876 9.00042C7.59874 8.98698 7.59882 8.97349 7.59897 8.95996C7.32461 8.90835 7.0409 8.88126 6.75 8.88126C4.26472 8.88126 2 11.0359 2 13.4884C2 15.9409 4.51472 18 7 18H9C9.55229 18 10 18.4477 10 19C10 19.5523 9.55229 20 9 20H7C3.27208 20 0 17.1671 0 13.4884C0 9.80967 3.02208 6.66094 6.75 6.66094C7.09162 6.66094 7.42776 6.68608 7.75651 6.73465Z" fill="#ABAFD1"/>
<path d="M11.6464 22.9393L12.5 23.7929V22.5858V17C12.5 16.7239 12.7239 16.5 13 16.5C13.2761 16.5 13.5 16.7239 13.5 17V22.5858V23.7929L14.3536 22.9393L15.6464 21.6464C15.8417 21.4512 16.1583 21.4512 16.3536 21.6464C16.5488 21.8417 16.5488 22.1583 16.3536 22.3536L13.3536 25.3536C13.1583 25.5488 12.8417 25.5488 12.6464 25.3536L9.64645 22.3536L9.29785 22.7022L9.64645 22.3536C9.45118 22.1583 9.45118 21.8417 9.64645 21.6464C9.84171 21.4512 10.1583 21.4512 10.3536 21.6464L11.6464 22.9393Z" fill="#767BFA" stroke="#767BFA"/>
</svg>
