<svg width="24" height="22" viewBox="0 0 24 22" fill="none" xmlns="http://www.w3.org/2000/svg">
<path d="M10.6464 12.9393L11.5 13.7929V12.5858V1C11.5 0.723858 11.7239 0.5 12 0.5C12.2761 0.5 12.5 0.723858 12.5 1V12.5858V13.7929L13.3536 12.9393L16.6464 9.64645C16.8417 9.45119 17.1583 9.45119 17.3536 9.64645C17.5488 9.84171 17.5488 10.1583 17.3536 10.3536L12.3536 15.3536C12.1583 15.5488 11.8417 15.5488 11.6464 15.3536L6.64645 10.3536C6.45118 10.1583 6.45118 9.84171 6.64645 9.64645C6.84171 9.45119 7.15829 9.45119 7.35355 9.64645L10.6464 12.9393Z" fill="#767BFA" stroke="#767BFA"/>
<path d="M5 5.296C5 4.62866 4.36871 4.13099 3.74865 4.37771C0.806956 5.54824 0 7.98146 0 12.7057C0 20.3595 2.118 21.9999 12 21.9999C21.882 21.9999 24 20.3595 24 12.7057C24 7.98146 23.193 5.54824 20.2514 4.37771C19.6313 4.13099 19 4.62866 19 5.296C19 5.74846 19.3009 6.13662 19.714 6.32119C20.0273 6.46119 20.2776 6.61212 20.4811 6.7697C21.4189 7.49607 22 8.88206 22 12.7057C22 16.5294 21.4189 17.9154 20.4811 18.6418C19.9576 19.0472 19.1238 19.4087 17.7047 19.653C16.2861 19.8972 14.436 19.9999 12 19.9999C9.56404 19.9999 7.71385 19.8972 6.2953 19.653C4.87622 19.4087 4.04241 19.0472 3.51891 18.6418C2.58107 17.9154 2 16.5294 2 12.7057C2 8.88206 2.58107 7.49607 3.51891 6.7697C3.72237 6.61212 3.97269 6.46119 4.28602 6.32119C4.69912 6.13662 5 5.74846 5 5.296Z" fill="#ABAFD1"/>
</svg>
