<svg width="12" height="25" viewBox="0 0 12 25" fill="none" xmlns="http://www.w3.org/2000/svg">
<path d="M10.9802 1.84049C10.8687 2.38129 10.3394 2.73058 9.79808 2.62063L8.27412 2.31112L6.96633 7.16248C6.82259 7.69573 6.27342 8.01279 5.73974 7.87065C5.20606 7.72851 4.88996 7.181 5.03371 6.64775L6.58662 0.887062C6.72431 0.376274 7.23633 0.0599 7.75486 0.165211L10.2019 0.662203C10.7433 0.772145 11.0917 1.29968 10.9802 1.84049Z" fill="#767BFA"/>
<path d="M6 16C6 16.5523 5.55228 17 5 17C4.44772 17 4 16.5523 4 16C4 15.4478 4.44772 15 5 15C5.55228 15 6 15.4478 6 16Z" fill="#767BFA"/>
<path d="M7 21C7.55228 21 8 20.5523 8 20C8 19.4478 7.55228 19 7 19C6.44772 19 6 19.4478 6 20C6 20.5523 6.44772 21 7 21Z" fill="#767BFA"/>
<path fill-rule="evenodd" clip-rule="evenodd" d="M0.700454 14.9412C1.01312 16.9475 1.11893 18.5863 1.20466 19.9141C1.45324 23.7642 1.53303 25 5.99676 25C10.4633 25 10.5438 23.7626 10.7946 19.9069C10.8809 18.5803 10.9873 16.9438 11.2994 14.9412C11.3336 14.7221 11.3671 14.5083 11.3997 14.2997C12.5341 7.05594 12.6995 6 5.99994 6C-0.699333 6 -0.534016 7.05585 0.600033 14.2988C0.632747 14.5077 0.666268 14.7218 0.700454 14.9412ZM2.6766 14.6332C2.99615 16.6837 3.10876 18.3661 3.19399 19.6844C3.28465 21.0867 3.33986 21.8519 3.48344 22.3757C3.56964 22.6901 3.62442 22.709 3.66589 22.7233C3.6716 22.7253 3.67706 22.7271 3.68231 22.7297C3.92773 22.849 4.53667 23 5.99676 23C7.45665 23 8.06642 22.849 8.31277 22.7294C8.31601 22.7278 8.31932 22.7265 8.3227 22.7252C8.32494 22.7244 8.32721 22.7236 8.32951 22.7228C8.37203 22.7079 8.42711 22.6885 8.51369 22.3738C8.6577 21.8504 8.7136 21.0852 8.80488 19.6835C8.8907 18.3656 9.00375 16.6833 9.32331 14.6332L9.42201 14.0016C9.52839 13.3217 9.62381 12.712 9.70508 12.1613C9.54704 12.1268 9.37411 12.0944 9.19017 12.0678C8.31282 11.9409 7.30097 11.9622 6.45167 12.3922C5.07876 13.0872 3.59061 13.0659 2.52352 12.9116C2.48376 12.9058 2.44442 12.8999 2.40552 12.8937C2.45889 13.2408 2.51651 13.6091 2.57776 14.0006L2.6766 14.6332ZM2.11055 10.7962C2.31471 10.846 2.55141 10.8948 2.80981 10.9322C3.68717 11.0591 4.69902 11.0378 5.54833 10.6078C6.92125 9.91277 8.4094 9.93408 9.47649 10.0884C9.64374 10.1126 9.80349 10.1405 9.95416 10.1704C9.95681 10.14 9.95936 10.11 9.96181 10.0801C10.0573 8.91558 9.94691 8.52135 9.8955 8.41638L9.89503 8.41459C9.89503 8.41459 9.89198 8.41279 9.88877 8.41056C9.85352 8.38616 9.72933 8.31335 9.42573 8.23804C8.77302 8.07613 7.72573 8 5.99994 8C4.27414 8 3.22688 8.07613 2.57419 8.23804C2.27061 8.31335 2.14644 8.38615 2.11121 8.41054C2.10802 8.41275 2.10498 8.41455 2.10498 8.41455L2.10449 8.41634C2.05309 8.52132 1.9427 8.91557 2.03819 10.0801C2.05661 10.3048 2.08092 10.5428 2.11055 10.7962Z" fill="#ABAFD1"/>
</svg>
