<svg width="24" height="24" viewBox="0 0 24 24" fill="none" xmlns="http://www.w3.org/2000/svg">
<path fill-rule="evenodd" clip-rule="evenodd" d="M6.24275 0.468715C7.80615 0.121262 9.71255 0 12 0C14.2874 0 16.1938 0.121262 17.7573 0.468715C19.332 0.818693 20.6194 1.41132 21.604 2.39596C22.5887 3.3806 23.1813 4.66799 23.5313 6.24275C23.8787 7.80615 24 9.71255 24 12C24 14.2874 23.8787 16.1938 23.5313 17.7573C23.1813 19.332 22.5887 20.6194 21.604 21.604C20.6194 22.5887 19.332 23.1813 17.7573 23.5313C16.1938 23.8787 14.2874 24 12 24C9.71255 24 7.80615 23.8787 6.24275 23.5313C4.66799 23.1813 3.3806 22.5887 2.39596 21.604C1.41132 20.6194 0.818693 19.332 0.468715 17.7573C0.121262 16.1938 0 14.2874 0 12C0 9.71255 0.121262 7.80615 0.468715 6.24275C0.818693 4.66799 1.41132 3.3806 2.39596 2.39596C3.3806 1.41132 4.66799 0.818693 6.24275 0.468715ZM2.42108 6.67664C2.12143 8.02497 2 9.7582 2 12C2 14.2418 2.12143 15.975 2.42108 17.3234C2.71821 18.6603 3.17712 19.5568 3.81017 20.1898C4.44322 20.8229 5.33967 21.2818 6.67664 21.5789C8.02497 21.8786 9.7582 22 12 22C14.2418 22 15.975 21.8786 17.3234 21.5789C18.6603 21.2818 19.5568 20.8229 20.1898 20.1898C20.8229 19.5568 21.2818 18.6603 21.5789 17.3234C21.8786 15.975 22 14.2418 22 12C22 9.7582 21.8786 8.02497 21.5789 6.67664C21.2818 5.33967 20.8229 4.44322 20.1898 3.81017C19.5568 3.17712 18.6603 2.71821 17.3234 2.42108C15.975 2.12143 14.2418 2 12 2C9.7582 2 8.02497 2.12143 6.67664 2.42108C5.33967 2.71821 4.44322 3.17712 3.81017 3.81017C3.17712 4.44322 2.71821 5.33967 2.42108 6.67664Z" fill="#ABAFD1"/>
<path fill-rule="evenodd" clip-rule="evenodd" d="M12.1101 6.5689C12.7997 5.84568 13.9481 5.80773 14.6854 6.4796L17.4093 8.96197C18.1586 9.64477 18.2017 10.8029 17.5007 11.538L11.89 17.4216C11.543 17.7854 11.0624 17.9886 10.5635 17.9905L8.00877 18C7.0596 18.0035 6.23933 17.2811 6.17334 16.3092L6.00413 13.8173C5.96974 13.3109 6.15157 12.8172 6.49933 12.4525L12.1101 6.5689ZM13.4431 7.84616L12.6112 8.71852L15.3099 11.1602L16.1332 10.2968L13.4441 7.84616L13.4431 7.84616ZM14.0354 12.4967L11.3366 10.055L7.8475 13.7139L8.01319 16.1538L10.5566 16.1444L14.0354 12.4967Z" fill="#767BFA"/>
</svg>
