<svg width="25" height="20" viewBox="0 0 25 20" fill="none" xmlns="http://www.w3.org/2000/svg">
<path d="M6.53697 10.1566C6.47353 10.1285 6.40947 10.1001 6.34478 10.0714C5.71463 9.79166 5.15302 9.54237 4.65996 9.31689C4.17082 10.2044 4 11.6522 4 13.9999C4 18.9999 5.49418 19.9999 12.4656 19.9999C19 19.9999 21 18.9999 21 13.9999C21 11.658 20.8223 10.2115 20.3257 9.32345C19.8361 9.5472 19.2793 9.79437 18.6552 10.0714C18.5844 10.1028 18.5143 10.1339 18.4449 10.1646C18.4474 10.1657 18.4498 10.1669 18.4522 10.1681L18.4563 10.1695C18.481 10.1768 18.5904 10.2091 18.722 10.6645C18.8954 11.2646 19 12.2713 19 13.9999C19 16.3212 18.523 16.9123 18.0763 17.2092C17.7532 17.4239 17.2074 17.6404 16.2488 17.7893C15.2949 17.9375 14.0655 17.9999 12.4656 17.9999C10.7509 17.9999 9.47215 17.937 8.50505 17.7887C7.53095 17.6393 7.03417 17.4253 6.76855 17.2387C6.41412 16.9896 6 16.465 6 13.9999C6 12.2679 6.1004 11.2568 6.27089 10.6517C6.34924 10.3735 6.42261 10.2579 6.45038 10.2206C6.46705 10.1982 6.47815 10.1858 6.52323 10.1632C6.52766 10.161 6.53223 10.1588 6.53697 10.1566Z" fill="#767BFA"/>
<path fill-rule="evenodd" clip-rule="evenodd" d="M5.46012 11.6508C8.25219 13.0279 10.317 14 12.5 14C14.683 14 16.7479 13.0279 19.5399 11.6508L19.6389 11.602C21.0029 10.9294 22.1581 10.3597 22.9634 9.86317C23.374 9.61002 23.8173 9.30287 24.1755 8.92752C24.5325 8.55331 25 7.90384 25 7C25 6.09615 24.5325 5.44668 24.1755 5.07247C23.8173 4.69712 23.374 4.38997 22.9634 4.13682C22.1581 3.64034 21.0029 3.07062 19.6389 2.39797L19.5399 2.34915C16.7479 0.972096 14.683 0 12.5 0C10.317 0 8.25219 0.97209 5.46011 2.34915L5.36113 2.39797C3.99717 3.07062 2.84193 3.64034 2.03662 4.13682C1.626 4.38997 1.18269 4.69713 0.824553 5.07248C0.467996 5.44617 0.00127553 6.09439 6.64604e-06 6.99632C2.21669e-06 6.99754 0 6.99877 0 7V15C0 15.5523 0.447715 16 1 16C1.55228 16 2 15.5523 2 15L2 9.84051C2.01223 9.84812 2.02444 9.85567 2.03662 9.86318C2.84192 10.3597 3.99714 10.9294 5.36108 11.602L5.46012 11.6508ZM6.34478 9.85714C12.1378 12.7143 12.8622 12.7143 18.6552 9.85714C24.4482 7 24.4482 6.99999 18.6552 4.14286C12.8622 1.28572 12.1378 1.28571 6.34478 4.14286C3.44827 5.57143 2 6.28572 2 7C2 7.71429 3.44826 8.42857 6.34478 9.85714Z" fill="#ABAFD1"/>
</svg>
