<svg width="24" height="24" viewBox="0 0 24 24" fill="none" xmlns="http://www.w3.org/2000/svg">
<path d="M16 19C15.4477 19 15 18.5523 15 18V10H17V18C17 18.5523 16.5523 19 16 19Z" fill="#ABAFD1"/>
<path d="M7 6C7 5.44772 7.44772 5 8 5C8.55229 5 9 5.44772 9 6V14H7L7 6Z" fill="#ABAFD1"/>
<path fill-rule="evenodd" clip-rule="evenodd" d="M12 24C2.118 24 0 21.882 0 12C0 2.118 2.118 0 12 0C21.882 0 24 2.118 24 12C24 21.882 21.882 24 12 24ZM2.43771 17.6101C2.13254 16.2369 2 14.4249 2 12C2 9.57515 2.13254 7.76307 2.43771 6.38993C2.73783 5.03949 3.17768 4.23924 3.70846 3.70846C4.23924 3.17768 5.03949 2.73783 6.38993 2.43771C7.76307 2.13254 9.57515 2 12 2C14.4249 2 16.2369 2.13254 17.6101 2.43771C18.9605 2.73783 19.7608 3.17768 20.2915 3.70846C20.8223 4.23924 21.2622 5.03949 21.5623 6.38993C21.8675 7.76307 22 9.57515 22 12C22 14.4249 21.8675 16.2369 21.5623 17.6101C21.2622 18.9605 20.8223 19.7608 20.2915 20.2915C19.7608 20.8223 18.9605 21.2622 17.6101 21.5623C16.2369 21.8675 14.4249 22 12 22C9.57515 22 7.76307 21.8675 6.38993 21.5623C5.03949 21.2622 4.23924 20.8223 3.70846 20.2915C3.17768 19.7608 2.73783 18.9605 2.43771 17.6101Z" fill="#ABAFD1"/>
<path fill-rule="evenodd" clip-rule="evenodd" d="M16 5C14.3431 5 13 6.34315 13 8C13 9.65685 14.3431 11 16 11C17.6569 11 19 9.65685 19 8C19 6.34315 17.6569 5 16 5ZM16 7C15.4477 7 15 7.44772 15 8C15 8.55228 15.4477 9 16 9C16.5523 9 17 8.55228 17 8C17 7.44772 16.5523 7 16 7Z" fill="#767BFA"/>
<path fill-rule="evenodd" clip-rule="evenodd" d="M8 19C6.34315 19 5 17.6569 5 16C5 14.3431 6.34315 13 8 13C9.65685 13 11 14.3431 11 16C11 17.6569 9.65685 19 8 19ZM8 17C7.44772 17 7 16.5523 7 16C7 15.4477 7.44772 15 8 15C8.55228 15 9 15.4477 9 16C9 16.5523 8.55228 17 8 17Z" fill="#767BFA"/>
</svg>
