<svg width="22" height="24" viewBox="0 0 22 24" fill="none" xmlns="http://www.w3.org/2000/svg">
<path d="M16.1028 2.5293C16.3518 3.07959 16.5478 3.71642 16.701 4.43656C17.5162 4.46479 18.1092 4.53669 18.5532 4.66651C19.0905 4.82365 19.3569 5.04828 19.5455 5.39188C19.7713 5.80324 19.9268 6.46295 20.0072 7.58528C20.0864 8.69192 20.087 10.1167 20.087 11.9933C20.087 13.8698 20.0864 15.2955 20.0072 16.4034C19.9268 17.5269 19.7713 18.1888 19.545 18.6023C19.3556 18.9482 19.0885 19.1738 18.5517 19.3317C18.1083 19.4621 17.5157 19.5346 16.7011 19.5631C16.5478 20.2833 16.3519 20.9202 16.1028 21.4706C17.2837 21.4601 18.2846 21.3864 19.0964 21.1477C20.0393 20.8704 20.7585 20.3605 21.2268 19.5051C21.6581 18.7172 21.8314 17.7121 21.9154 16.5373C22 15.3546 22 13.8624 22 12.0291V11.9573C22 10.1241 22 8.63274 21.9154 7.45128C21.8314 6.27779 21.6581 5.27375 21.2263 4.48714C20.7573 3.63278 20.0372 3.12523 19.095 2.84968C18.2837 2.61243 17.2832 2.53963 16.1028 2.5293Z" fill="#767BFA"/>
<path fill-rule="evenodd" clip-rule="evenodd" d="M0 12C0 20.7505 0.835966 21.0042 7.19697 22.9349C7.64006 23.0694 8.1104 23.2122 8.60869 23.3664C16.2609 25.7344 17.2174 21.3602 17.2174 12C17.2174 2.63977 16.2609 -1.73434 8.60869 0.633606C8.11035 0.787815 7.64041 0.930448 7.19728 1.06494C0.836103 2.99563 0 3.2494 0 12ZM1.91304 12C1.91304 14.3401 1.97523 15.9398 2.1589 17.0979C2.3386 18.231 2.60772 18.7508 2.88469 19.0694C3.17679 19.4055 3.66474 19.7356 4.72386 20.1402C5.51781 20.4435 6.4654 20.7311 7.69317 21.1039C8.14794 21.2419 8.64123 21.3917 9.17931 21.5582C10.9639 22.1105 12.1036 22.1828 12.8187 22.0457C13.4192 21.9307 13.8075 21.6573 14.1435 21.1045C14.5354 20.4594 14.8521 19.4214 15.0495 17.8272C15.2439 16.2577 15.3043 14.3245 15.3043 12C15.3043 9.67551 15.2439 7.7423 15.0495 6.17277C14.8521 4.57856 14.5354 3.54055 14.1435 2.89549C13.8075 2.34269 13.4192 2.06929 12.8187 1.95425C12.1036 1.81725 10.9639 1.88952 9.17929 2.44177C8.64125 2.60827 8.14807 2.75798 7.69333 2.89603C6.46548 3.26876 5.51784 3.55644 4.72386 3.85974C3.66474 4.26433 3.17679 4.59447 2.8847 4.93052C2.60772 5.24918 2.3386 5.76892 2.1589 6.90204C1.97523 8.0602 1.91304 9.65989 1.91304 12Z" fill="#ABAFD1"/>
<path d="M12.4348 12.9471C11.9065 12.9471 11.4783 12.5231 11.4783 11.9999C11.4783 11.4768 11.9065 11.0527 12.4348 11.0527C12.9631 11.0527 13.3913 11.4768 13.3913 11.9999C13.3913 12.5231 12.9631 12.9471 12.4348 12.9471Z" fill="#767BFA"/>
</svg>
