<svg width="24" height="24" viewBox="0 0 24 24" fill="none" xmlns="http://www.w3.org/2000/svg">
<path d="M2.00129 15.0114C1.96476 14.4752 1.52548 14.0504 0.988034 14.0504C0.420441 14.0504 -0.0354561 14.5258 0.0021736 15.0921C0.427057 21.4868 2.51371 23.5735 8.90838 23.9984C9.47472 24.036 9.9501 23.5801 9.9501 23.0125C9.9501 22.475 9.52533 22.0358 8.98913 21.9992C7.95281 21.9286 7.07422 21.8134 6.32548 21.647C4.96932 21.3456 4.16478 20.9037 3.63082 20.3697C3.09686 19.8357 2.65495 19.0312 2.35355 17.6751C2.18715 16.9263 2.07189 16.0477 2.00129 15.0114Z" fill="#ABAFD1"/>
<path d="M21.9133 15.0114C21.9499 14.4752 22.3891 14.0504 22.9266 14.0504C23.4942 14.0504 23.9501 14.5258 23.9125 15.0921C23.4876 21.4868 21.4009 23.5735 15.0062 23.9984C14.4399 24.036 13.9645 23.5801 13.9645 23.0125C13.9645 22.475 14.3893 22.0358 14.9255 21.9992C15.9618 21.9286 16.8404 21.8134 17.5892 21.647C18.9453 21.3456 19.7498 20.9037 20.2838 20.3697C20.8178 19.8357 21.2597 19.0312 21.5611 17.6751C21.7275 16.9263 21.8427 16.0477 21.9133 15.0114Z" fill="#ABAFD1"/>
<path d="M24.0005 12.0892C24.0005 12.0739 24.0005 12.0585 24.0005 12.0432C24.0005 12.0279 24.0005 12.0126 24.0005 11.9973V12.0892Z" fill="#ABAFD1"/>
<path d="M23.9125 8.9943C23.9501 9.56064 23.4942 10.036 22.9266 10.036C22.3891 10.036 21.9499 9.61125 21.9133 9.07505C21.8427 8.03872 21.7275 7.16012 21.5611 6.41138C21.2597 5.05522 20.8178 4.25068 20.2838 3.71672C19.7498 3.18276 18.9453 2.74085 17.5892 2.43945C16.8404 2.27305 15.9618 2.15778 14.9255 2.08719C14.3893 2.05066 13.9645 1.61138 13.9645 1.07393C13.9645 0.50634 14.4399 0.0504437 15.0062 0.0880731C21.4009 0.512954 23.4876 2.59961 23.9125 8.9943Z" fill="#ABAFD1"/>
<path d="M2.00129 9.07505C1.96476 9.61125 1.52548 10.036 0.988034 10.036C0.420441 10.036 -0.0354562 9.56064 0.00217349 8.9943C0.427057 2.59962 2.51371 0.512961 8.90838 0.0880753C9.47472 0.0504453 9.9501 0.506343 9.9501 1.07394C9.9501 1.61138 9.52533 2.05066 8.98913 2.08719C7.95281 2.15779 7.07422 2.27305 6.32548 2.43945C4.96932 2.74085 4.16478 3.18276 3.63082 3.71672C3.09686 4.25068 2.65495 5.05522 2.35355 6.41138C2.18715 7.16012 2.07189 8.03872 2.00129 9.07505Z" fill="#ABAFD1"/>
<path d="M10 8.00723C10 7.45095 9.55232 7 9.00004 7C8.44776 7 8.00005 7.45095 8.00005 8.00723L8.00005 9.01447C8.00005 9.57075 8.44776 10.0217 9.00004 10.0217C9.55232 10.0217 10 9.57075 10 9.01447V8.00723Z" fill="#767BFA"/>
<path d="M16.596 16.8738C17.0395 16.5422 17.1321 15.9113 16.8028 15.4647C16.4736 15.018 15.8473 14.9248 15.4039 15.2564C15.2458 15.3746 15.0901 15.4958 14.9351 15.6164C14.0451 16.3092 13.1763 16.9855 12 16.9855C10.8237 16.9855 9.95492 16.3093 9.06496 15.6165C8.90996 15.4958 8.75417 15.3746 8.59614 15.2564C8.15271 14.9248 7.52636 15.018 7.19715 15.4647C6.86794 15.9113 6.96053 16.5422 7.40396 16.8738C7.50259 16.9476 7.61558 17.0379 7.74239 17.1393C8.5945 17.8204 10.0702 19 12 19C13.9298 19 15.4055 17.8204 16.2576 17.1393C16.3844 17.0379 16.4974 16.9476 16.596 16.8738Z" fill="#767BFA"/>
<path d="M12 10.0217C12.5523 10.0217 13 10.4727 13 11.0289V14.0506C13 14.6069 12.5523 15.0579 12 15.0579C11.4477 15.0579 11 14.6069 11 14.0506V11.0289C11 10.4727 11.4477 10.0217 12 10.0217Z" fill="#767BFA"/>
<path d="M16 8.00723C16 7.45095 15.5522 7 15 7C14.4477 7 14 7.45095 14 8.00723V9.01447C14 9.57075 14.4477 10.0217 15 10.0217C15.5522 10.0217 16 9.57075 16 9.01447V8.00723Z" fill="#767BFA"/>
</svg>
