<svg width="24" height="24" viewBox="0 0 24 24" fill="none" xmlns="http://www.w3.org/2000/svg">
<path d="M12 6C11.062 6 10.285 6.3617 9.75259 6.96064C9.23656 7.54117 9 8.28693 9 9C9 10.254 9.73406 11.1201 10.2114 11.6833L10.2369 11.7134C10.8008 12.3793 11 12.6599 11 13C11 13.5523 11.4477 14 12 14C12.5523 14 13 13.5523 13 13C13 11.8664 12.2959 11.0438 11.8487 10.5211C11.8189 10.4864 11.7903 10.4529 11.7631 10.4208C11.2392 9.80231 11 9.45141 11 9C11 8.71307 11.0968 8.45883 11.2474 8.28936C11.3817 8.1383 11.6047 8 12 8C12.3953 8 12.6183 8.1383 12.7526 8.28936C12.9032 8.45883 13 8.71307 13 9C13 9.55228 13.4477 10 14 10C14.5523 10 15 9.55228 15 9C15 8.28693 14.7634 7.54117 14.2474 6.96064C13.715 6.3617 12.938 6 12 6Z" fill="#767BFA"/>
<path d="M12 15C11.4477 15 11 15.4477 11 16C11 16.5523 11.4477 17 12 17C12.5523 17 13 16.5523 13 16C13 15.4477 12.5523 15 12 15Z" fill="#767BFA"/>
<path fill-rule="evenodd" clip-rule="evenodd" d="M0 12C0 21.882 2.118 24 12 24C21.882 24 24 21.882 24 12C24 2.118 21.882 0 12 0C2.118 0 0 2.118 0 12ZM2 12C2 14.4249 2.13254 16.2369 2.43771 17.6101C2.73783 18.9605 3.17768 19.7608 3.70846 20.2915C4.23924 20.8223 5.03949 21.2622 6.38993 21.5623C7.76307 21.8675 9.57515 22 12 22C14.4249 22 16.2369 21.8675 17.6101 21.5623C18.9605 21.2622 19.7608 20.8223 20.2915 20.2915C20.8223 19.7608 21.2622 18.9605 21.5623 17.6101C21.8675 16.2369 22 14.4249 22 12C22 9.57515 21.8675 7.76307 21.5623 6.38993C21.2622 5.03949 20.8223 4.23924 20.2915 3.70846C19.7608 3.17768 18.9605 2.73783 17.6101 2.43771C16.2369 2.13254 14.4249 2 12 2C9.57515 2 7.76307 2.13254 6.38993 2.43771C5.03949 2.73783 4.23924 3.17768 3.70846 3.70846C3.17768 4.23924 2.73783 5.03949 2.43771 6.38993C2.13254 7.76307 2 9.57515 2 12Z" fill="#ABAFD1"/>
</svg>
