<svg width="20" height="24" viewBox="0 0 20 24" fill="none" xmlns="http://www.w3.org/2000/svg">
<path fill-rule="evenodd" clip-rule="evenodd" d="M19.3277 5.55616C20.9748 3.2669 19.4078 0 16.6626 0H3.33737C0.592209 0 -0.974782 3.2669 0.672312 5.55616L6.22451 13.2731C6.51283 13.6738 6.66868 14.1612 6.66868 14.6621V21.6805C6.66868 23.6433 8.86481 24.7155 10.3113 23.459L12.5322 21.5298C13.0386 21.0899 13.3313 20.4383 13.3313 19.7513V14.6621C13.3313 14.1612 13.4872 13.6738 13.7755 13.2731L19.3277 5.55616ZM2.16103 2.78457C2.40134 2.28357 2.83102 2 3.33737 2H16.6626C17.169 2 17.5987 2.28357 17.839 2.78457C18.0813 3.28978 18.0619 3.89098 17.7042 4.3881L12.152 12.105C11.6151 12.8513 11.3313 13.7486 11.3313 14.6621V19.7513C11.3313 19.8753 11.2776 19.9704 11.2206 20.0199L8.99974 21.9491C8.94559 21.9962 8.91719 21.9989 8.91145 21.9994C8.89762 22.001 8.86652 22 8.82504 21.9798C8.78346 21.9595 8.74555 21.9266 8.71883 21.8848C8.69619 21.8495 8.66868 21.7886 8.66868 21.6805V14.6621C8.66868 13.7486 8.38494 12.8513 7.84797 12.105L2.29578 4.3881C1.9381 3.89098 1.9187 3.28978 2.16103 2.78457Z" fill="#ABAFD1"/>
<path d="M7 4C6.44772 4 6 4.44772 6 5C6 5.55228 6.44772 6 7 6H13C13.5523 6 14 5.55228 14 5C14 4.44772 13.5523 4 13 4H7Z" fill="#767BFA"/>
</svg>
