<svg width="24" height="24" viewBox="0 0 24 24" fill="none" xmlns="http://www.w3.org/2000/svg">
<path d="M6.97182 13.6057C7.70474 10.6496 10.3535 8.83728 13.1568 9.58841C15.9601 10.3395 17.3478 13.2335 16.5045 16.16C16.3516 16.6907 16.6578 17.2449 17.1885 17.3978C17.7192 17.5507 18.2734 17.2445 18.4263 16.7138C19.5216 12.9129 17.7506 8.74875 13.6745 7.65656C9.59833 6.56436 5.98251 9.28505 5.0306 13.1244C4.89769 13.6605 5.22451 14.2028 5.76056 14.3357C6.29662 14.4686 6.83892 14.1418 6.97182 13.6057Z" fill="#767BFA"/>
<path d="M9.97064 14.644C10.3393 13.1707 11.4393 12.537 12.3098 12.7703C13.1802 13.0035 13.816 14.1023 13.3986 15.5625C13.2468 16.0936 13.5543 16.6471 14.0853 16.7989C14.6163 16.9507 15.1698 16.6432 15.3216 16.1122C15.9201 14.0183 15.1731 11.4669 12.8274 10.8384C10.4817 10.2099 8.55906 12.046 8.03045 14.1586C7.89639 14.6943 8.22204 15.2373 8.75781 15.3714C9.29358 15.5054 9.83658 15.1798 9.97064 14.644Z" fill="#767BFA"/>
<path d="M2.00129 15.0114C1.96476 14.4752 1.52548 14.0504 0.988034 14.0504C0.420441 14.0504 -0.0354561 14.5258 0.0021736 15.0921C0.427057 21.4868 2.51371 23.5735 8.90838 23.9984C9.47472 24.036 9.9501 23.5801 9.9501 23.0125C9.9501 22.475 9.52533 22.0358 8.98913 21.9992C7.95281 21.9286 7.07422 21.8134 6.32548 21.647C4.96932 21.3456 4.16478 20.9037 3.63082 20.3697C3.09686 19.8357 2.65495 19.0312 2.35355 17.6751C2.18715 16.9263 2.07189 16.0477 2.00129 15.0114Z" fill="#ABAFD1"/>
<path d="M21.9133 15.0114C21.9499 14.4752 22.3891 14.0504 22.9266 14.0504C23.4942 14.0504 23.9501 14.5258 23.9125 15.0921C23.4876 21.4868 21.4009 23.5735 15.0062 23.9984C14.4399 24.036 13.9645 23.5801 13.9645 23.0125C13.9645 22.475 14.3893 22.0358 14.9255 21.9992C15.9618 21.9286 16.8404 21.8134 17.5892 21.647C18.9453 21.3456 19.7498 20.9037 20.2838 20.3697C20.8178 19.8357 21.2597 19.0312 21.5611 17.6751C21.7275 16.9263 21.8427 16.0477 21.9133 15.0114Z" fill="#ABAFD1"/>
<path d="M24.0005 12.0892C24.0005 12.0739 24.0005 12.0585 24.0005 12.0432C24.0005 12.0279 24.0005 12.0126 24.0005 11.9973V12.0892Z" fill="#ABAFD1"/>
<path d="M23.9125 8.9943C23.9501 9.56064 23.4942 10.036 22.9266 10.036C22.3891 10.036 21.9499 9.61125 21.9133 9.07505C21.8427 8.03872 21.7275 7.16012 21.5611 6.41138C21.2597 5.05522 20.8178 4.25068 20.2838 3.71672C19.7498 3.18276 18.9453 2.74085 17.5892 2.43945C16.8404 2.27305 15.9618 2.15778 14.9255 2.08719C14.3893 2.05066 13.9645 1.61138 13.9645 1.07393C13.9645 0.50634 14.4399 0.0504437 15.0062 0.0880731C21.4009 0.512954 23.4876 2.59961 23.9125 8.9943Z" fill="#ABAFD1"/>
<path d="M2.00129 9.07505C1.96476 9.61125 1.52548 10.036 0.988034 10.036C0.420441 10.036 -0.0354562 9.56064 0.00217349 8.9943C0.427057 2.59962 2.51371 0.512961 8.90838 0.0880753C9.47472 0.0504453 9.9501 0.506343 9.9501 1.07394C9.9501 1.61138 9.52533 2.05066 8.98913 2.08719C7.95281 2.15779 7.07422 2.27305 6.32548 2.43945C4.96932 2.74085 4.16478 3.18276 3.63082 3.71672C3.09686 4.25068 2.65495 5.05522 2.35355 6.41138C2.18715 7.16012 2.07189 8.03872 2.00129 9.07505Z" fill="#ABAFD1"/>
</svg>
