<svg width="24" height="24" viewBox="0 0 24 24" fill="none" xmlns="http://www.w3.org/2000/svg">
<path d="M8 6C8 6.55228 7.55228 7 7 7C6.44772 7 6 6.55228 6 6C6 4.06198 6.7367 2.53498 7.89814 1.50259C9.04117 0.486564 10.5369 0 12 0C13.4631 0 14.9588 0.486564 16.1019 1.50259C17.2633 2.53498 18 4.06198 18 6C18 6.55228 17.5523 7 17 7C16.4477 7 16 6.55228 16 6C16 4.60469 15.4867 3.63169 14.7731 2.99741C14.0412 2.34677 13.0369 2 12 2C10.9631 2 9.95883 2.34677 9.22686 2.99741C8.5133 3.63169 8 4.60469 8 6Z" fill="#767BFA"/>
<path fill-rule="evenodd" clip-rule="evenodd" d="M0 14.5C0 22.3232 2.118 24 12 24C21.882 24 24 22.3232 24 14.5C24 6.67675 21.882 5 12 5C2.118 5 0 6.67675 0 14.5ZM2 14.5C2 18.4173 2.58387 19.8621 3.53566 20.6156C4.05849 21.0295 4.88865 21.3973 6.30259 21.646C7.7176 21.895 9.56486 22 12 22C14.4351 22 16.2824 21.895 17.6974 21.646C19.1113 21.3973 19.9415 21.0295 20.4643 20.6156C21.4161 19.8621 22 18.4173 22 14.5C22 10.5827 21.4161 9.13787 20.4643 8.38437C19.9415 7.97046 19.1113 7.60275 17.6974 7.35398C16.2824 7.10502 14.4351 7 12 7C9.56486 7 7.7176 7.10502 6.30259 7.35398C4.88865 7.60275 4.05849 7.97046 3.53566 8.38437C2.58387 9.13787 2 10.5827 2 14.5Z" fill="#ABAFD1"/>
<path d="M13 12C13 11.4477 12.5523 11 12 11C11.4477 11 11 11.4477 11 12V14H9C8.44772 14 8 14.4477 8 15C8 15.5523 8.44772 16 9 16H11V18C11 18.5523 11.4477 19 12 19C12.5523 19 13 18.5523 13 18V16H15C15.5523 16 16 15.5523 16 15C16 14.4477 15.5523 14 15 14H13V12Z" fill="#767BFA"/>
</svg>
