<svg width="16" height="26" viewBox="0 0 16 26" fill="none" xmlns="http://www.w3.org/2000/svg">
<path fill-rule="evenodd" clip-rule="evenodd" d="M9.53028 0.0337594C8.87543 -0.108087 8.33683 0.224672 7.99406 0.518345C7.63653 0.824665 7.28766 1.26104 6.94164 1.75422C6.25121 2.7383 5.38822 4.22104 4.28927 6.10917L1.14218 11.5162C0.778541 12.1408 0.4529 12.7002 0.255311 13.1652C0.0605307 13.6235 -0.159033 14.3202 0.165847 15.0286C0.509474 15.7779 1.19659 15.9829 1.66837 16.0577C2.12609 16.1302 2.72069 16.1301 3.36138 16.13L6.37421 16.1299L5.98171 18.2929C5.61298 20.3249 5.31999 21.9395 5.22551 23.0653C5.17873 23.6227 5.16771 24.1825 5.27507 24.6527C5.39117 25.1613 5.71918 25.8037 6.46972 25.9662C7.12457 26.1081 7.66317 25.7753 8.00594 25.4817C8.36347 25.1753 8.71234 24.739 9.05836 24.2458C9.74879 23.2617 10.6118 21.779 11.7107 19.8909L14.8578 14.4839C15.2214 13.8592 15.5471 13.2998 15.7447 12.8348C15.9395 12.3764 16.159 11.6798 15.8342 10.9714C15.4905 10.2221 14.8034 10.0171 14.3316 9.94233C13.8739 9.86981 13.2793 9.86991 12.6386 9.87001L9.62581 9.87006L10.0183 7.70709C10.387 5.67507 10.68 4.06052 10.7745 2.93472C10.8213 2.37725 10.8323 1.81755 10.7249 1.34726C10.6088 0.838725 10.2808 0.196333 9.53028 0.0337594ZM6.02488 7.32114C7.16269 5.36626 7.97868 3.96631 8.60839 3.06878C8.63439 3.03172 8.65976 2.99598 8.68452 2.96151C8.58208 3.95731 8.3225 5.39455 7.96453 7.36731L7.5366 9.72548C7.49748 9.9403 7.45051 10.1983 7.43879 10.4222C7.42534 10.6792 7.44157 11.1205 7.7483 11.5142C8.05502 11.908 8.4607 12.0082 8.70125 12.0428C8.91087 12.0729 9.15866 12.0727 9.36501 12.0726L12.5646 12.0725C13.1173 12.0725 13.4994 12.0742 13.7761 12.0938C13.6306 12.3953 13.3987 12.7968 13.0544 13.3883L9.97512 18.6789C8.83731 20.6337 8.02132 22.0337 7.39161 22.9312C7.36561 22.9683 7.34024 23.004 7.31548 23.0385C7.41792 22.0427 7.67751 20.6054 8.03547 18.6327L8.46341 16.2744C8.50253 16.0596 8.54951 15.8017 8.56123 15.5777C8.57467 15.3207 8.55844 14.8794 8.25172 14.4857C7.945 14.092 7.53931 13.9917 7.29877 13.9571C7.08914 13.927 6.84136 13.9272 6.635 13.9273L5.75839 13.9274L5.75663 13.9274L3.43541 13.9275C2.88272 13.9275 2.50059 13.9258 2.22389 13.9062C2.3694 13.6047 2.60134 13.2032 2.94559 12.6117L6.02488 7.32114Z" fill="#ABAFD1"/>
</svg>
