<svg width="24" height="24" viewBox="0 0 24 24" fill="none" xmlns="http://www.w3.org/2000/svg">
<path fill-rule="evenodd" clip-rule="evenodd" d="M4 6C4 3.17157 4 1.75736 4.87868 0.87868C5.75736 0 7.17157 0 10 0H14C16.8284 0 18.2426 0 19.1213 0.87868C20 1.75736 20 3.17157 20 6V8.06799C21.4721 8.17521 22.4025 8.43663 22.9904 9.03468C24 10.0616 24 12.081 24 16.0165C24 22 21 24 12 24C3 24 0 22 0 16.0165C0 12.081 0 10.0616 1.00957 9.03468C1.59751 8.43663 2.52785 8.17521 4 8.06799V6ZM10 2H14C15.4708 2 16.3726 2.00425 17.0253 2.092C17.599 2.16913 17.6948 2.27883 17.7062 2.29185L17.7071 2.29289L17.7082 2.29383C17.7212 2.3052 17.8309 2.40098 17.908 2.97468C17.9958 3.62738 18 4.52925 18 6V8H6V6C6 4.52925 6.00425 3.62738 6.092 2.97468C6.16913 2.40099 6.27883 2.3052 6.29185 2.29383L6.29289 2.29289L6.29383 2.29185C6.3052 2.27883 6.40099 2.16913 6.97468 2.092C7.62738 2.00425 8.52925 2 10 2ZM6.35541 10C5.91319 10.0011 5.50268 10.006 5.11792 10.0166C3.40019 10.0642 2.76299 10.2357 2.50619 10.3852C2.50535 10.3857 2.50395 10.3862 2.50204 10.3869C2.47013 10.3992 2.29543 10.4662 2.16228 11.2966C2.00629 12.2695 2 13.6957 2 16.0165C2 18.6788 2.64861 19.8653 3.73313 20.5871C5.06594 21.4742 7.51789 22 12 22C16.4821 22 18.9341 21.4742 20.2669 20.5871C21.3514 19.8653 22 18.6788 22 16.0165C22 13.6957 21.9937 12.2695 21.8377 11.2966C21.7046 10.4662 21.5299 10.3992 21.498 10.3869C21.4961 10.3862 21.4947 10.3857 21.4938 10.3852C21.237 10.2357 20.5998 10.0642 18.8821 10.0166C18.4973 10.006 18.0868 10.0011 17.6446 10H17.201C16.6321 10.0013 16.0125 10.0071 15.3312 10.0135C14.3575 10.0227 13.2578 10.033 12 10.033C10.7422 10.033 9.64257 10.0227 8.66889 10.0135C7.98762 10.0071 7.36793 10.0013 6.79903 10H6.35541Z" fill="#ABAFD1"/>
<path d="M10 3C9.44772 3 9 3.44772 9 4V6C9 6.55228 9.44772 7 10 7C10.5523 7 11 6.55228 11 6V4C11 3.44772 10.5523 3 10 3Z" fill="#767BFA"/>
<path d="M14 3C13.4477 3 13 3.44772 13 4V6C13 6.55228 13.4477 7 14 7C14.5523 7 15 6.55228 15 6V4C15 3.44772 14.5523 3 14 3Z" fill="#767BFA"/>
</svg>
