<svg width="25" height="24" viewBox="0 0 25 24" fill="none" xmlns="http://www.w3.org/2000/svg">
<path d="M10 13C10.5523 13 11 13.4477 11 14C11 14.5523 10.5523 15 10 15H6C5.44772 15 5 14.5523 5 14C5 13.4477 5.44772 13 6 13H10Z" fill="#767BFA"/>
<path d="M14 17C14.5523 17 15 17.4477 15 18C15 18.5523 14.5523 19 14 19H6C5.44772 19 5 18.5523 5 18C5 17.4477 5.44772 17 6 17H14Z" fill="#767BFA"/>
<path fill-rule="evenodd" clip-rule="evenodd" d="M23.1731 1.90628C22.4044 1.15626 21.1781 0.727546 19.9427 0.463081C18.6622 0.188956 17.1809 0.0537159 15.7289 0.0133374C14.2726 -0.0271589 12.8166 0.0270148 11.5762 0.142598C10.3627 0.255671 9.27278 0.434621 8.59404 0.675442C7.21155 1.16596 6.4739 2.01742 6.14545 2.97886C5.98004 3.46301 5.92953 3.96325 5.91691 4.37684C0.393601 5.0868 -0.623293 7.51766 0.302485 14.0648C1.45938 22.2464 3.83212 24 13.7457 24C20.6117 24 23.6227 23.1589 24.4408 19.9238L24.449 19.9258C24.5992 19.325 24.7413 18.0573 24.8434 16.5423C24.9476 14.9949 25.0154 13.1023 24.997 11.2026C24.9786 9.3084 24.8744 7.37873 24.6269 5.76806C24.5033 4.96353 24.3401 4.21209 24.1226 3.57304C23.9121 2.95457 23.6177 2.34011 23.1731 1.90628ZM22.8891 8.40903C22.8332 7.57397 22.753 6.78334 22.6438 6.07286C22.5302 5.33356 22.3892 4.70751 22.2232 4.21978C22.0502 3.71147 21.8818 3.44988 21.772 3.34278C21.4319 3.01092 20.6881 2.67492 19.5228 2.42545C18.4026 2.18564 17.0525 2.05773 15.6731 2.01937C14.298 1.98113 12.9227 2.03263 11.7623 2.14076C10.575 2.25139 9.69489 2.41419 9.26483 2.56678C8.42973 2.86308 8.1643 3.27582 8.04407 3.62775C7.97993 3.81548 7.9487 4.00296 7.93413 4.20033C8.84092 4.15108 9.8393 4.12962 10.936 4.12962C17.9435 4.12962 21.1833 5.00578 22.8891 8.40903ZM22.3729 14.0648C21.791 9.94938 20.9767 8.37139 19.8728 7.55559C19.2878 7.12326 18.4094 6.74311 16.9671 6.48526C15.5195 6.22647 13.6579 6.11666 11.217 6.11666C8.77609 6.11666 6.94556 6.22647 5.57119 6.48526C4.20182 6.74311 3.43085 7.12326 2.96813 7.55559C2.09498 8.37139 1.72696 9.94938 2.30889 14.0648C2.89082 18.1802 3.7051 19.7582 4.80896 20.574C5.39395 21.0064 6.27242 21.3865 7.71472 21.6444C9.16227 21.9031 11.0239 22.013 13.4648 22.013C15.9057 22.013 17.7362 21.9031 19.1106 21.6444C20.48 21.3865 21.2509 21.0064 21.7137 20.574C22.5868 19.7582 22.9548 18.1802 22.3729 14.0648Z" fill="#ABAFD1"/>
</svg>
