<svg width="25" height="24" viewBox="0 0 25 24" fill="none" xmlns="http://www.w3.org/2000/svg">
<path d="M15.0672 13.1602C14.5131 13.1602 14.064 13.6094 14.064 14.1636C14.064 14.7177 14.5131 15.167 15.0672 15.167H19.08C19.634 15.167 20.0832 14.7177 20.0832 14.1636C20.0832 13.6094 19.634 13.1602 19.08 13.1602H15.0672Z" fill="#767BFA"/>
<path d="M11.0543 17.1738C10.5003 17.1738 10.0511 17.623 10.0511 18.1772C10.0511 18.7314 10.5003 19.1806 11.0543 19.1806H19.08C19.634 19.1806 20.0832 18.7314 20.0832 18.1772C20.0832 17.623 19.634 17.1738 19.08 17.1738H11.0543Z" fill="#767BFA"/>
<path fill-rule="evenodd" clip-rule="evenodd" d="M1.82694 1.90628C2.59562 1.15626 3.82192 0.727546 5.05731 0.463081C6.33784 0.188956 7.81915 0.0537159 9.27114 0.0133374C10.7274 -0.0271589 12.1834 0.0270148 13.4238 0.142598C14.6373 0.255671 15.7272 0.434621 16.406 0.675442C17.7885 1.16596 18.5261 2.01742 18.8546 2.97886C19.02 3.46301 19.0705 3.96326 19.0831 4.37685C24.6064 5.0868 25.6233 7.51766 24.6975 14.0648C23.5406 22.2464 21.1679 24 11.2543 24C4.38833 24 1.37733 23.1589 0.55924 19.9238L0.551021 19.9258C0.400836 19.325 0.258718 18.0573 0.156627 16.5423C0.05235 14.9949 -0.0154054 13.1023 0.00301737 11.2026C0.0213884 9.3084 0.125616 7.37873 0.373074 5.76806C0.496677 4.96353 0.659908 4.21209 0.877421 3.57304C1.08793 2.95457 1.38231 2.34011 1.82694 1.90628ZM2.11089 8.40903C3.81672 5.00578 7.05645 4.12962 14.064 4.12962C15.1607 4.12962 16.1591 4.15108 17.0659 4.20033C17.0513 4.00296 17.0201 3.81548 16.9559 3.62775C16.8357 3.27582 16.5703 2.86308 15.7352 2.56678C15.3051 2.41419 14.425 2.25139 13.2377 2.14076C12.0773 2.03263 10.702 1.98113 9.3269 2.01937C7.94751 2.05773 6.59744 2.18564 5.47723 2.42545C4.31189 2.67492 3.56811 3.01092 3.22799 3.34278C3.11823 3.44988 2.94979 3.71147 2.77677 4.21978C2.61077 4.70751 2.46978 5.33356 2.3562 6.07286C2.24704 6.78334 2.16679 7.57396 2.11089 8.40903ZM2.6271 14.0648C3.20903 9.94938 4.02331 8.37139 5.12717 7.55559C5.71216 7.12326 6.59064 6.74311 8.03293 6.48526C9.48049 6.22647 11.3421 6.11666 13.783 6.11666C16.2239 6.11666 18.0544 6.22647 19.4288 6.48526C20.7982 6.74311 21.5692 7.12326 22.0319 7.55559C22.905 8.37139 23.273 9.94938 22.6911 14.0648C22.1092 18.1802 21.2949 19.7582 20.191 20.574C19.6061 21.0064 18.7276 21.3865 17.2853 21.6444C15.8377 21.9031 13.9761 22.013 11.5352 22.013C9.09431 22.013 7.26378 21.9031 5.88941 21.6444C4.52004 21.3865 3.74906 21.0064 3.28634 20.574C2.41319 19.7582 2.04517 18.1802 2.6271 14.0648Z" fill="#ABAFD1"/>
</svg>
