<svg width="24" height="24" viewBox="0 0 24 24" fill="none" xmlns="http://www.w3.org/2000/svg">
<path d="M6.18535 0.64917C7.27796 1.36324 7.99994 2.59728 7.99994 3.99994C7.99994 6.20908 6.20908 7.99994 3.99994 7.99994C2.59728 7.99994 1.36324 7.27796 0.64917 6.18535C1.01094 4.9199 1.53475 3.87892 2.2473 3.03571C2.08965 3.32166 1.99994 3.65032 1.99994 3.99994C1.99994 5.10451 2.89537 5.99994 3.99994 5.99994C5.10451 5.99994 5.99994 5.10451 5.99994 3.99994C5.99994 2.89537 5.10451 1.99994 3.99994 1.99994C3.65032 1.99994 3.32166 2.08965 3.03571 2.2473C3.87892 1.53475 4.9199 1.01094 6.18535 0.64917Z" fill="#767BFA"/>
<path d="M6.18535 23.3508C7.27796 22.6368 7.99994 21.4027 7.99994 20.0001C7.99994 17.7909 6.20908 16.0001 3.99994 16.0001C2.59728 16.0001 1.36324 16.722 0.649171 17.8147C1.01094 19.0801 1.53475 20.1211 2.2473 20.9643C2.08965 20.6783 1.99994 20.3497 1.99994 20.0001C1.99994 18.8955 2.89537 18.0001 3.99994 18.0001C5.10451 18.0001 5.99994 18.8955 5.99994 20.0001C5.99994 21.1046 5.10451 22.0001 3.99994 22.0001C3.65032 22.0001 3.32166 21.9104 3.03571 21.7527C3.87892 22.4653 4.9199 22.9891 6.18535 23.3508Z" fill="#767BFA"/>
<path d="M17.8147 0.64917C16.722 1.36324 16.0001 2.59728 16.0001 3.99994C16.0001 6.20908 17.7909 7.99994 20.0001 7.99994C21.4027 7.99994 22.6368 7.27796 23.3508 6.18535C22.9891 4.9199 22.4653 3.87892 21.7527 3.03571C21.9104 3.32166 22.0001 3.65032 22.0001 3.99994C22.0001 5.10451 21.1046 5.99994 20.0001 5.99994C18.8955 5.99994 18.0001 5.10451 18.0001 3.99994C18.0001 2.89537 18.8955 1.99994 20.0001 1.99994C20.3497 1.99994 20.6783 2.08965 20.9643 2.2473C20.1211 1.53475 19.0801 1.01094 17.8147 0.64917Z" fill="#767BFA"/>
<path d="M17.8147 23.3508C16.722 22.6368 16.0001 21.4027 16.0001 20.0001C16.0001 17.7909 17.7909 16.0001 20.0001 16.0001C21.4027 16.0001 22.6368 16.722 23.3508 17.8147C22.9891 19.0801 22.4653 20.1211 21.7527 20.9643C21.9104 20.6783 22.0001 20.3497 22.0001 20.0001C22.0001 18.8955 21.1046 18.0001 20.0001 18.0001C18.8955 18.0001 18.0001 18.8955 18.0001 20.0001C18.0001 21.1046 18.8955 22.0001 20.0001 22.0001C20.3497 22.0001 20.6783 21.9104 20.9643 21.7527C20.1211 22.4653 19.0801 22.9891 17.8147 23.3508Z" fill="#767BFA"/>
<path fill-rule="evenodd" clip-rule="evenodd" d="M7 12C7 14.7614 9.23858 17 12 17C14.7614 17 17 14.7614 17 12C17 9.23858 14.7614 7 12 7C9.23858 7 7 9.23858 7 12ZM12 15C10.3431 15 9 13.6569 9 12C9 10.3431 10.3431 9 12 9C13.6569 9 15 10.3431 15 12C15 13.6569 13.6569 15 12 15Z" fill="#ABAFD1"/>
<path fill-rule="evenodd" clip-rule="evenodd" d="M0 12C0 21 3 24 12 24C21 24 24 21 24 12C24 3 21 0 12 0C3 0 0 3 0 12ZM2 12C2 16.3892 2.75734 18.6789 4.03921 19.9608C5.32109 21.2427 7.6108 22 12 22C16.3892 22 18.6789 21.2427 19.9608 19.9608C21.2427 18.6789 22 16.3892 22 12C22 7.6108 21.2427 5.32109 19.9608 4.03921C18.6789 2.75734 16.3892 2 12 2C7.6108 2 5.32109 2.75734 4.03921 4.03921C2.75734 5.32109 2 7.6108 2 12Z" fill="#ABAFD1"/>
</svg>
