<svg width="24" height="24" viewBox="0 0 24 24" fill="none" xmlns="http://www.w3.org/2000/svg">
<path d="M3.0014 10.0001H20.9986H3.0014Z" fill="#ABAFD1"/>
<path fill-rule="evenodd" clip-rule="evenodd" d="M21 5.00013H3.00001L2.95307 5.00007C2.76626 4.99973 2.46073 4.99918 2.18488 5.03627C1.82694 5.08439 1.239 5.2256 0.732239 5.73236C0.225478 6.23912 0.0842694 6.82706 0.0361465 7.185C-0.000941914 7.46086 -0.000389811 7.76637 -5.22092e-05 7.95319L6.21176e-06 8.00013V9.00013L-5.22008e-05 9.04706C-0.000389802 9.23388 -0.000941914 9.5394 0.0361465 9.81526C0.0842694 10.1732 0.225478 10.7611 0.732239 11.2679C1.15935 11.695 1.64412 11.8624 2.00025 11.9333C2.00208 14.0532 2.01735 15.825 2.14445 17.275C2.28886 18.9223 2.58658 20.3069 3.2878 21.3803C4.02244 22.505 5.11175 23.1608 6.54716 23.5309C7.94397 23.8912 9.74014 24.0001 12 24.0001C14.2599 24.0001 16.056 23.8912 17.4528 23.5309C18.8883 23.1608 19.9776 22.505 20.7122 21.3803C21.4134 20.3069 21.7112 18.9223 21.8556 17.275C21.9827 15.825 21.9979 14.0532 21.9998 11.9333C22.3559 11.8624 22.8407 11.695 23.2678 11.2679C23.7745 10.7611 23.9157 10.1732 23.9639 9.81526C24.001 9.5394 24.0004 9.23388 24.0001 9.04706L24 9.00013V8.00013L24.0001 7.9532C24.0004 7.76638 24.001 7.46086 23.9639 7.185C23.9157 6.82706 23.7745 6.23912 23.2678 5.73236C22.761 5.2256 22.1731 5.08439 21.8151 5.03627C21.5393 4.99918 21.2338 4.99973 21.0469 5.00007L21 5.00013ZM21 10.0001C21.0011 10.0001 21.0022 10.0001 21.0032 10.0001C21.4725 10.0001 21.7074 9.99979 21.8536 9.85368C22 9.70724 22 9.47153 22 9.00013V8.00013C22 7.52872 22 7.29302 21.8536 7.14657C21.7071 7.00013 21.4714 7.00013 21 7.00013H3.00001C2.5286 7.00013 2.2929 7.00013 2.14645 7.14657C2.00001 7.29302 2.00001 7.52872 2.00001 8.00013V9.00013C2.00001 9.47153 2.00001 9.70724 2.14645 9.85368C2.29275 9.99998 2.52814 10.0001 2.99861 10.0001C2.99908 10.0001 2.99954 10.0001 3.00001 10.0001M19.9996 12.0001C19.9974 14.0936 19.981 15.757 19.8632 17.1003C19.7264 18.6613 19.4616 19.6378 19.0378 20.2866C18.6474 20.8842 18.0492 21.3117 16.9534 21.5943C15.819 21.8869 14.2401 22.0001 12 22.0001C9.75987 22.0001 8.18104 21.8869 7.0466 21.5943C5.95076 21.3117 5.35257 20.8842 4.96221 20.2866C4.53843 19.6378 4.27365 18.6613 4.13681 17.1003C4.01905 15.757 4.00265 14.0936 4.00037 12.0001H19.9996Z" fill="#ABAFD1"/>
<path fill-rule="evenodd" clip-rule="evenodd" d="M9.5 0C10.4793 0 11.3647 0.402234 12 1.05051C12.6353 0.402234 13.5207 0 14.5 0C16.433 0 18 1.567 18 3.5C18 5.433 16.433 7 14.5 7H13V22H11V7H9.5C7.567 7 6 5.433 6 3.5C6 1.567 7.567 0 9.5 0ZM13 3.5V5H14.5C14.6753 5 14.8436 4.96992 15 4.91465C15.5826 4.70873 16 4.15311 16 3.5C16 2.67157 15.3284 2 14.5 2C13.8469 2 13.2913 2.4174 13.0854 3C13.0301 3.15639 13 3.32468 13 3.5ZM8 3.5C8 4.15311 8.4174 4.70873 9 4.91465C9.15639 4.96992 9.32468 5 9.5 5H11V3.5C11 3.32468 10.9699 3.15639 10.9146 3C10.7087 2.4174 10.1531 2 9.5 2C8.67157 2 8 2.67157 8 3.5Z" fill="#767BFA"/>
</svg>
