<svg width="24" height="24" viewBox="0 0 24 24" fill="none" xmlns="http://www.w3.org/2000/svg">
<path d="M15.3762 6.51808C15.1971 6.19237 14.8521 5.99291 14.4804 6.00019C14.1088 6.00748 13.7718 6.22031 13.6056 6.55279L9.45783 14.8483L7.62622 11.5181C7.45046 11.1985 7.11469 11 6.75 11H5C4.44772 11 4 11.4477 4 12C4 12.5523 4.44772 13 5 13H6.15873L8.62378 17.4819C8.80292 17.8076 9.14795 18.0071 9.5196 17.9998C9.89125 17.9925 10.2282 17.7797 10.3944 17.4472L14.5422 9.15172L16.3738 12.4819C16.5495 12.8015 16.8853 13 17.25 13H19C19.5523 13 20 12.5523 20 12C20 11.4477 19.5523 11 19 11H17.8413L15.3762 6.51808Z" fill="#767BFA"/>
<path fill-rule="evenodd" clip-rule="evenodd" d="M0 12C0 21.882 2.118 24 12 24C21.882 24 24 21.882 24 12C24 2.118 21.882 0 12 0C2.118 0 0 2.118 0 12ZM2 12C2 14.4249 2.13254 16.2369 2.43771 17.6101C2.73783 18.9605 3.17768 19.7608 3.70846 20.2915C4.23924 20.8223 5.03949 21.2622 6.38993 21.5623C7.76307 21.8675 9.57515 22 12 22C14.4249 22 16.2369 21.8675 17.6101 21.5623C18.9605 21.2622 19.7608 20.8223 20.2915 20.2915C20.8223 19.7608 21.2622 18.9605 21.5623 17.6101C21.8675 16.2369 22 14.4249 22 12C22 9.57515 21.8675 7.76307 21.5623 6.38993C21.2622 5.03949 20.8223 4.23924 20.2915 3.70846C19.7608 3.17768 18.9605 2.73783 17.6101 2.43771C16.2369 2.13254 14.4249 2 12 2C9.57515 2 7.76307 2.13254 6.38993 2.43771C5.03949 2.73783 4.23924 3.17768 3.70846 3.70846C3.17768 4.23924 2.73783 5.03949 2.43771 6.38993C2.13254 7.76307 2 9.57515 2 12Z" fill="#ABAFD1"/>
</svg>
