<svg width="28" height="24" viewBox="0 0 28 24" fill="none" xmlns="http://www.w3.org/2000/svg">
<path fill-rule="evenodd" clip-rule="evenodd" d="M3.05455 6C3.05455 9.31371 5.78968 12 9.16364 12C12.5376 12 15.2727 9.31371 15.2727 6C15.2727 2.68629 12.5376 0 9.16364 0C5.78968 0 3.05455 2.68629 3.05455 6ZM5.09091 6C5.09091 8.20914 6.91433 10 9.16364 10C11.4129 10 13.2364 8.20914 13.2364 6C13.2364 3.79086 11.4129 2 9.16364 2C6.91433 2 5.09091 3.79086 5.09091 6Z" fill="#ABAFD1"/>
<path fill-rule="evenodd" clip-rule="evenodd" d="M0 19C0 23.1175 1.61738 24 9.16364 24C16.7099 24 18.3273 23.1175 18.3273 19C18.3273 14.8825 16.7099 14 9.16364 14C1.61738 14 0 14.8825 0 19ZM2.03636 19C2.03636 19.9374 2.13468 20.4646 2.26132 20.7755C2.35522 21.006 2.47241 21.1492 2.74092 21.2957C3.08304 21.4824 3.69421 21.679 4.79777 21.8128C5.88499 21.9447 7.30186 22 9.16364 22C11.0254 22 12.4423 21.9447 13.5295 21.8128C14.6331 21.679 15.2442 21.4824 15.5864 21.2957C15.8549 21.1492 15.9721 21.006 16.066 20.7755C16.1926 20.4646 16.2909 19.9374 16.2909 19C16.2909 18.0626 16.1926 17.5354 16.066 17.2245C15.9721 16.994 15.8549 16.8508 15.5864 16.7043C15.2442 16.5176 14.6331 16.321 13.5295 16.1872C12.4423 16.0553 11.0254 16 9.16364 16C7.30186 16 5.88499 16.0553 4.79777 16.1872C3.69421 16.321 3.08304 16.5176 2.74092 16.7043C2.47241 16.8508 2.35522 16.994 2.26132 17.2245C2.13468 17.5354 2.03636 18.0626 2.03636 19Z" fill="#ABAFD1"/>
<path d="M17.3091 2C20.3801 2 22.4 4.51382 22.4 7C22.4 9.48618 20.3801 12 17.3091 12C16.7467 12 16.2909 11.5523 16.2909 11C16.2909 10.4477 16.7467 10 17.3091 10C19.1254 10 20.3636 8.51382 20.3636 7C20.3636 5.48618 19.1254 4 17.3091 4C16.7467 4 16.2909 3.55228 16.2909 3C16.2909 2.44772 16.7467 2 17.3091 2Z" fill="#767BFA"/>
<path d="M19.3454 13C18.7831 13 18.3273 13.4477 18.3273 14C18.3273 14.5523 18.7831 15 19.3454 15C22.1864 15 23.8816 15.1385 24.8685 15.5466C25.315 15.7313 25.5517 15.9474 25.6966 16.1914C25.8522 16.4532 25.9636 16.8519 25.9636 17.5C25.9636 18.1444 25.8536 18.568 25.7034 18.8535C25.561 19.1241 25.3531 19.3282 25.039 19.4926C24.3362 19.8608 23.1798 20 21.3818 20C20.8195 20 20.3636 20.4477 20.3636 21C20.3636 21.5523 20.8195 22 21.3818 22C23.1475 22 24.791 21.8892 25.9973 21.2574C26.6378 20.9218 27.1617 20.4384 27.5125 19.7715C27.8555 19.1195 28 18.3556 28 17.5C28 16.6481 27.8569 15.8593 27.4556 15.1836C27.0437 14.4901 26.4214 14.0187 25.6587 13.7034C24.2274 13.1115 22.1045 13 19.3454 13Z" fill="#767BFA"/>
</svg>
