<svg width="28" height="24" viewBox="0 0 28 24" fill="none" xmlns="http://www.w3.org/2000/svg">
<path fill-rule="evenodd" clip-rule="evenodd" d="M24.9455 6C24.9455 9.31371 22.2103 12 18.8364 12C15.4624 12 12.7273 9.31371 12.7273 6C12.7273 2.68629 15.4624 0 18.8364 0C22.2103 0 24.9455 2.68629 24.9455 6ZM22.9091 6C22.9091 8.20914 21.0857 10 18.8364 10C16.5871 10 14.7636 8.20914 14.7636 6C14.7636 3.79086 16.5871 2 18.8364 2C21.0857 2 22.9091 3.79086 22.9091 6Z" fill="#ABAFD1"/>
<path fill-rule="evenodd" clip-rule="evenodd" d="M28 19C28 23.1175 26.3826 24 18.8364 24C11.2901 24 9.67273 23.1175 9.67273 19C9.67273 14.8825 11.2901 14 18.8364 14C26.3826 14 28 14.8825 28 19ZM25.9636 19C25.9636 19.9374 25.8653 20.4646 25.7387 20.7755C25.6448 21.006 25.5276 21.1492 25.2591 21.2957C24.917 21.4824 24.3058 21.679 23.2022 21.8128C22.115 21.9447 20.6981 22 18.8364 22C16.9746 22 15.5577 21.9447 14.4705 21.8128C13.3669 21.679 12.7558 21.4824 12.4136 21.2957C12.1451 21.1492 12.0279 21.006 11.934 20.7755C11.8074 20.4646 11.7091 19.9374 11.7091 19C11.7091 18.0626 11.8074 17.5354 11.934 17.2245C12.0279 16.994 12.1451 16.8508 12.4136 16.7043C12.7558 16.5176 13.3669 16.321 14.4705 16.1872C15.5577 16.0553 16.9746 16 18.8364 16C20.6981 16 22.115 16.0553 23.2022 16.1872C24.3058 16.321 24.917 16.5176 25.2591 16.7043C25.5276 16.8508 25.6448 16.994 25.7387 17.2245C25.8653 17.5354 25.9636 18.0626 25.9636 19Z" fill="#ABAFD1"/>
<path d="M10.6909 2C7.61992 2 5.6 4.51382 5.6 7C5.6 9.48618 7.61992 12 10.6909 12C11.2532 12 11.7091 11.5523 11.7091 11C11.7091 10.4477 11.2532 10 10.6909 10C8.87462 10 7.63636 8.51382 7.63636 7C7.63636 5.48618 8.87462 4 10.6909 4C11.2532 4 11.7091 3.55228 11.7091 3C11.7091 2.44772 11.2532 2 10.6909 2Z" fill="#767BFA"/>
<path d="M8.65454 13C9.21687 13 9.67273 13.4477 9.67273 14C9.67273 14.5523 9.21687 15 8.65454 15C5.81356 15 4.11837 15.1385 3.13148 15.5466C2.68502 15.7313 2.44823 15.9474 2.30335 16.1914C2.14782 16.4532 2.03636 16.8519 2.03636 17.5C2.03636 18.1444 2.14643 18.568 2.29662 18.8535C2.43898 19.1241 2.64693 19.3282 2.96096 19.4926C3.66379 19.8608 4.82021 20 6.61818 20C7.18051 20 7.63636 20.4477 7.63636 21C7.63636 21.5523 7.18051 22 6.61818 22C4.85251 22 3.20894 21.8892 2.00267 21.2574C1.36216 20.9218 0.838296 20.4384 0.487466 19.7715C0.144482 19.1195 0 18.3556 0 17.5C0 16.6481 0.143088 15.8593 0.544379 15.1836C0.956311 14.4901 1.57862 14.0187 2.34125 13.7034C3.77254 13.1115 5.89553 13 8.65454 13Z" fill="#767BFA"/>
</svg>
