<svg width="24" height="24" viewBox="0 0 24 24" fill="none" xmlns="http://www.w3.org/2000/svg">
<path fill-rule="evenodd" clip-rule="evenodd" d="M0 12C0 21.882 2.118 24 12 24C21.882 24 24 21.882 24 12C24 2.118 21.882 0 12 0C2.118 0 0 2.118 0 12ZM2 12C2 14.4249 2.13254 16.2369 2.43771 17.6101C2.73783 18.9605 3.17768 19.7608 3.70846 20.2915C4.23924 20.8223 5.03949 21.2622 6.38993 21.5623C7.76307 21.8675 9.57515 22 12 22C14.4249 22 16.2369 21.8675 17.6101 21.5623C18.9605 21.2622 19.7608 20.8223 20.2915 20.2915C20.8223 19.7608 21.2622 18.9605 21.5623 17.6101C21.8675 16.2369 22 14.4249 22 12C22 9.57515 21.8675 7.76307 21.5623 6.38993C21.2622 5.03949 20.8223 4.23924 20.2915 3.70846C19.7608 3.17768 18.9605 2.73783 17.6101 2.43771C16.2369 2.13254 14.4249 2 12 2C9.57515 2 7.76307 2.13254 6.38993 2.43771C5.03949 2.73783 4.23924 3.17768 3.70846 3.70846C3.17768 4.23924 2.73783 5.03949 2.43771 6.38993C2.13254 7.76307 2 9.57515 2 12Z" fill="#ABAFD1"/>
<path fill-rule="evenodd" clip-rule="evenodd" d="M10 6C9.44772 6 9 6.44772 9 7V9H7C6.44772 9 6 9.44772 6 10C6 10.5523 6.44772 11 7 11H9V13H7C6.44772 13 6 13.4477 6 14C6 14.5523 6.44772 15 7 15H9V17C9 17.5523 9.44772 18 10 18C10.5523 18 11 17.5523 11 17V15H13V17C13 17.5523 13.4477 18 14 18C14.5523 18 15 17.5523 15 17V15H17C17.5523 15 18 14.5523 18 14C18 13.4477 17.5523 13 17 13H15V11H17C17.5523 11 18 10.5523 18 10C18 9.44772 17.5523 9 17 9H15V7C15 6.44772 14.5523 6 14 6C13.4477 6 13 6.44772 13 7V9H11V7C11 6.44772 10.5523 6 10 6ZM13 13V11H11V13H13Z" fill="#767BFA"/>
</svg>
