<svg width="24" height="22" viewBox="0 0 24 22" fill="none" xmlns="http://www.w3.org/2000/svg">
<path d="M5 7.99995C5 8.55223 4.55228 8.99995 4 8.99995C3.44772 8.99995 3 8.55223 3 7.99995C3 5.45311 3.81159 3.39621 5.44503 1.99568C7.05275 0.617207 9.31182 2.81344e-05 11.9668 9.73614e-10C14.6194 -2.81324e-05 16.8925 0.609557 18.5162 1.9812C20.168 3.3766 21 5.43458 21 7.99995C21 8.55223 20.5523 8.99995 20 8.99995C19.4477 8.99995 19 8.55223 19 7.99995C19 5.88573 18.332 4.44371 17.2255 3.50902C16.0909 2.55057 14.3474 1.99997 11.9668 2C9.58855 2.00003 7.86422 2.55594 6.74685 3.51399C5.6552 4.44999 5 5.89303 5 7.99995Z" fill="#ABAFD1"/>
<path d="M5 16.9999C5 16.4477 4.55228 15.9999 4 15.9999C3.44772 15.9999 3 16.4477 3 16.9999C3 19.7614 5.23871 21.9999 8.0001 21.9999H9C9.55228 21.9999 10 21.5522 10 20.9999C10 20.4477 9.55228 19.9999 9 19.9999H8.0001C6.34322 19.9999 5 18.6568 5 16.9999Z" fill="#ABAFD1"/>
<path fill-rule="evenodd" clip-rule="evenodd" d="M0 12C0 16.1175 0.79425 17 4.5 17C8.20575 17 9 16.1175 9 12C9 7.8825 8.20575 7 4.5 7C0.79425 7 0 7.8825 0 12ZM2 12C2 12.9887 2.04985 13.6596 2.14316 14.1261C2.23408 14.5806 2.33887 14.6972 2.34693 14.7061C2.35693 14.7173 2.60909 15 4.5 15C6.39092 15 6.64292 14.7175 6.65292 14.7063C6.66098 14.6973 6.76592 14.5806 6.85684 14.1261C6.95015 13.6596 7 12.9887 7 12C7 11.0113 6.95015 10.3404 6.85684 9.87395C6.76592 9.4194 6.66113 9.30283 6.65307 9.29387C6.64307 9.28266 6.39091 9 4.5 9C2.60909 9 2.35708 9.28249 2.34708 9.2937C2.33902 9.30266 2.23408 9.4194 2.14316 9.87395C2.04985 10.3404 2 11.0113 2 12Z" fill="#767BFA"/>
<path fill-rule="evenodd" clip-rule="evenodd" d="M15 12C15 16.1175 15.7943 17 19.5 17C23.2057 17 24 16.1175 24 12C24 7.8825 23.2057 7 19.5 7C15.7943 7 15 7.8825 15 12ZM17 12C17 12.9887 17.0499 13.6596 17.1432 14.1261C17.2341 14.5806 17.3389 14.6972 17.3469 14.7061C17.3569 14.7173 17.6091 15 19.5 15C21.3909 15 21.6429 14.7175 21.6529 14.7063C21.661 14.6973 21.7659 14.5806 21.8568 14.1261C21.9501 13.6596 22 12.9887 22 12C22 11.0113 21.9501 10.3404 21.8568 9.87395C21.7659 9.4194 21.6611 9.30283 21.6531 9.29387C21.6431 9.28266 21.3909 9 19.5 9C17.6091 9 17.3571 9.2825 17.3471 9.2937C17.339 9.30266 17.2341 9.4194 17.1432 9.87395C17.0499 10.3404 17 11.0113 17 12Z" fill="#767BFA"/>
</svg>
