<svg width="30" height="22" viewBox="0 0 30 22" fill="none" xmlns="http://www.w3.org/2000/svg">
<path d="M10.2 0C5.73645 0 2 3.39619 2 7.72633C2 8.16116 2.02551 8.58572 2.07412 9H4.09171C4.0316 8.58611 4 8.16155 4 7.72633C4 4.62677 6.71065 2 10.2 2C11.7121 2 13.1721 2.77512 14.3585 3.76716L15 4.30351L15.6415 3.76716C16.8279 2.77512 18.2879 2 19.8 2C23.2893 2 26 4.62692 26 7.72651C26 8.16167 25.9684 8.58617 25.9083 9H27.9259C27.9745 8.58577 28 8.16128 28 7.72651C28 3.3964 24.2636 0 19.8 0C17.9471 0 16.2913 0.793707 15 1.73211C13.7087 0.793707 12.0529 0 10.2 0Z" fill="#ABAFD1"/>
<path d="M26.6558 13H24.3314C23.63 14.0616 22.7556 15.0184 21.8032 15.8706C19.4759 17.9533 16.7992 19.3025 15.4622 19.9007C15.1663 20.0331 14.8337 20.0331 14.5378 19.9007C13.2008 19.3025 10.5241 17.9532 8.19681 15.8705C7.24447 15.0183 6.37005 14.0615 5.66872 13H3.3443C4.25314 14.7119 5.5274 16.1656 6.86311 17.3609C9.41064 19.6406 12.2987 21.0899 13.721 21.7263C14.5366 22.0912 15.4634 22.0912 16.279 21.7263C17.7013 21.0899 20.5894 19.6407 23.1369 17.361C24.4726 16.1657 25.7469 14.7119 26.6558 13Z" fill="#ABAFD1"/>
<path fill-rule="evenodd" clip-rule="evenodd" d="M10.9723 6.00039C11.3409 5.99015 11.6853 6.18366 11.8682 6.50386L14.9923 11.9709C15.0623 12.0935 15.2339 12.1069 15.3221 11.9966L18.2191 8.37531C18.3968 8.15319 18.6607 8.01726 18.9447 8.00153C19.2287 7.9858 19.506 8.09176 19.7071 8.29289L21.2678 9.85356C21.3615 9.94732 21.4887 10 21.6213 10H29C29.5523 10 30 10.4477 30 11C30 11.5523 29.5523 12 29 12H21C20.7348 12 20.4804 11.8946 20.2929 11.7071L19.2409 10.6551C19.1566 10.5709 19.0178 10.5785 18.9433 10.6716L15.7809 14.6247C15.574 14.8833 15.2525 15.0227 14.9223 14.997C14.5921 14.9712 14.2961 14.7837 14.1318 14.4961L11.2442 9.44293C11.165 9.30424 10.9631 9.30984 10.8917 9.45272L9.89443 11.4472C9.72503 11.786 9.37877 12 9 12L1 12C0.447715 12 0 11.5523 0 11C0 10.4477 0.447715 10 1 10L8.07295 10C8.26233 10 8.43547 9.893 8.52016 9.72361L10.1056 6.55279C10.2705 6.22293 10.6036 6.01062 10.9723 6.00039Z" fill="#767BFA"/>
</svg>
