<svg width="24" height="20" viewBox="0 0 24 20" fill="none" xmlns="http://www.w3.org/2000/svg">
<path fill-rule="evenodd" clip-rule="evenodd" d="M7.56923 0C3.44903 0 0 3.08744 0 7.02394C0 10.7936 2.14173 13.714 4.48902 15.7827C6.84059 17.8551 9.50649 19.1726 10.8194 19.7512C11.5723 20.0829 12.4277 20.0829 13.1806 19.7512C14.4935 19.1727 17.1594 17.8552 19.511 15.7828C21.8583 13.7141 24 10.7937 24 7.0241C24 3.08764 20.551 0 16.4308 0C14.7204 0 13.192 0.721551 12 1.57464C10.808 0.721552 9.2796 0 7.56923 0ZM1.84615 7.02394C1.84615 4.20616 4.34829 1.81818 7.56923 1.81818C8.96498 1.81818 10.3127 2.52284 11.4079 3.42469L12 3.91228L12.5921 3.42469C13.6873 2.52284 15.035 1.81818 16.4308 1.81818C19.6517 1.81818 22.1538 4.20629 22.1538 7.0241C22.1538 10.0637 20.4325 12.5308 18.2799 14.4279C16.1316 16.3212 13.6608 17.5477 12.4267 18.0915C12.1535 18.2119 11.8465 18.2119 11.5734 18.0915C10.3392 17.5477 7.86845 16.3211 5.72013 14.4278C3.56754 12.5307 1.84615 10.0636 1.84615 7.02394Z" fill="#ABAFD1"/>
</svg>
