<svg width="24" height="20" viewBox="0 0 24 20" fill="none" xmlns="http://www.w3.org/2000/svg">
<path d="M12.3255 1.7379C12.1342 1.8861 11.8658 1.8861 11.6745 1.7379C10.4458 0.786133 8.89097 0 7.2 0C3.22355 0 0 3.01148 0 6.72633C0 7.37912 0.0635759 8.00815 0.181473 8.61342C0.225789 8.84094 0.428541 9 0.660335 9L5.07295 9C5.26233 9 5.43547 8.893 5.52016 8.72361L7.10557 5.55279C7.2705 5.22293 7.6036 5.01062 7.97225 5.00039C8.34091 4.99015 8.68527 5.18366 8.86824 5.50386L11.9923 10.9709C12.0623 11.0935 12.2339 11.1069 12.3221 10.9966L15.2191 7.37531C15.3968 7.15319 15.6607 7.01726 15.9447 7.00153C16.2287 6.9858 16.506 7.09176 16.7071 7.29289L18.2678 8.85356C18.3615 8.94732 18.4887 9 18.6213 9H23.3397C23.5715 9 23.7743 8.84094 23.8186 8.61341C23.9364 8.0082 24 7.37923 24 6.72651C24 3.01166 20.7765 0 16.8 0C15.109 0 13.5542 0.786133 12.3255 1.7379Z" fill="#ABAFD1"/>
<path d="M22.6815 11.6993C22.858 11.3791 22.6181 11 22.2525 11H18C17.7348 11 17.4804 10.8946 17.2929 10.7071L16.2409 9.65514C16.1566 9.57085 16.0178 9.57854 15.9433 9.67162L12.7809 13.6247C12.574 13.8833 12.2525 14.0227 11.9223 13.997C11.5921 13.9712 11.2961 13.7837 11.1318 13.4961L8.24421 8.44293C8.16496 8.30424 7.96311 8.30984 7.89168 8.45272L6.89443 10.4472C6.72504 10.786 6.37877 11 6 11L1.74756 11C1.38194 11 1.14207 11.3791 1.31862 11.6993C3.78876 16.1788 9.0509 18.8835 11.1294 19.8135C11.6852 20.0622 12.3148 20.0622 12.8706 19.8135C14.9491 18.8835 20.2114 16.1788 22.6815 11.6993Z" fill="#ABAFD1"/>
</svg>
