<svg width="24" height="24" viewBox="0 0 24 24" fill="none" xmlns="http://www.w3.org/2000/svg">
<path fill-rule="evenodd" clip-rule="evenodd" d="M0.221326 8.99248C-0.0147588 10.5601 -0.292667 14.7333 0.735171 19.4303C1.3021 22.0211 2.77266 23.2096 5.87555 23.6054C10 24.1315 14 24.1315 18.2127 23.6054C21.3166 23.2177 22.8394 22.0397 23.3531 19.4303C24.2569 14.8392 23.9842 10.7454 23.8747 9.1023L23.8674 8.99248C23.7934 7.87377 17.7777 3.28332 14.357 0.759246C12.9796 -0.257135 11.1125 -0.252513 9.73942 0.769785C6.34725 3.2954 0.389923 7.87297 0.221326 8.99248ZM21.4194 9.00872C21.6372 9.22633 21.7935 9.39745 21.8981 9.52338C22.0116 11.2838 22.1941 14.9627 21.3909 19.0423C21.1992 20.0165 20.8747 20.4887 20.5033 20.7871C20.0812 21.1262 19.3444 21.4442 17.9653 21.6164C13.9151 22.1222 10.0831 22.1216 6.12807 21.6171C4.75547 21.442 4.03091 21.1223 3.61281 20.7831C3.23681 20.478 2.90581 19.9928 2.68874 19.0009C1.78797 14.8846 1.96138 11.1972 2.15652 9.60453C2.27081 9.46564 2.44992 9.27105 2.70496 9.01969C3.27852 8.45441 4.09291 7.74149 5.04459 6.95432C6.93905 5.38734 9.24385 3.63575 10.9321 2.37876C11.6001 1.88142 12.5021 1.87961 13.1712 2.37334C14.8733 3.62932 17.1974 5.38214 19.0952 6.94967C20.0492 7.73762 20.8582 8.44824 21.4194 9.00872Z" fill="#ABAFD1"/>
<path d="M9 21.896C8.33504 21.852 7.66893 21.7935 7 21.7204V16.114C7 14.4535 8.34315 13.1074 10 13.1074H14C15.6568 13.1074 17 14.4535 17 16.114L17 21.7278C16.3285 21.7989 15.6624 21.8558 15 21.8985L15 16.114C15 15.5605 14.5523 15.1118 14 15.1118L10 15.1118C9.44772 15.1118 9 15.5605 9 16.114V21.896Z" fill="#767BFA"/>
</svg>
