<svg width="16" height="25" viewBox="0 0 16 25" fill="none" xmlns="http://www.w3.org/2000/svg">
<path fill-rule="evenodd" clip-rule="evenodd" d="M2.1101 10C1.82558 11.1026 2.12938 12.8259 2.60003 15.4956C2.63272 15.6811 2.66629 15.8715 2.70045 16.0662C3.91967 23.0147 5.34382 25 7.99676 25C10.6497 25 12.08 23.0147 13.2994 16.0662C13.3336 15.8716 13.3671 15.6817 13.3997 15.4964C13.8706 12.8262 14.1745 11.1027 13.8899 10H2.1101ZM4.67036 15.7205C5.27722 19.1791 5.89086 21.0777 6.51421 22.0905C6.79984 22.5546 7.03661 22.7454 7.19951 22.8367C7.35935 22.9263 7.58997 23 7.99676 23C8.40352 23 8.63495 22.9263 8.79579 22.8362C8.95967 22.7445 9.19712 22.5531 9.48329 22.0891C10.1076 21.0766 10.7227 19.1783 11.3296 15.7205L11.4277 15.1628C11.6915 13.6651 11.884 12.5723 11.9636 11.7101C12.0368 10.917 11.9795 10.5941 11.9524 10.4934C11.888 10.459 11.7483 10.4016 11.4769 10.3418C10.7975 10.1921 9.7262 10.125 7.99994 10.125C6.27367 10.125 5.20244 10.1921 4.52298 10.3418C4.25166 10.4016 4.11198 10.459 4.04757 10.4934C4.02045 10.5941 3.96319 10.917 4.03641 11.7101C4.116 12.5722 4.30842 13.6647 4.5721 15.1619L4.67036 15.7205ZM11.9996 10.5258C12.001 10.5253 11.9948 10.5187 11.9769 10.5075C11.9893 10.5207 11.9982 10.5263 11.9996 10.5258ZM4.0004 10.5258C4.00178 10.5263 4.01071 10.5207 4.02304 10.5075C4.00519 10.5187 3.99902 10.5253 4.0004 10.5258Z" fill="#ABAFD1"/>
<path fill-rule="evenodd" clip-rule="evenodd" d="M12.9013 4.00638C13.0104 4.54777 13.46 4.98368 13.9819 5.16437C15.1565 5.57105 16 6.68703 16 8C16 9.65685 14.6569 11 13 11H3C1.34315 11 0 9.65685 0 8C0 6.68703 0.843465 5.57105 2.01811 5.16437C2.54 4.98368 2.98957 4.54777 3.09873 4.00638C3.55953 1.72096 5.57879 0 8 0C10.4212 0 12.4405 1.72096 12.9013 4.00638ZM13.3276 7.05431C13.7217 7.19075 14 7.56545 14 8C14 8.55229 13.5523 9 13 9H3C2.44772 9 2 8.55229 2 8C2 7.56545 2.27835 7.19075 2.67243 7.05431C3.7224 6.69079 4.78288 5.77249 5.05927 4.40168C5.33558 3.0313 6.54959 2 8 2C9.45041 2 10.6644 3.0313 10.9407 4.40168C11.2171 5.77249 12.2776 6.69079 13.3276 7.05431Z" fill="#767BFA"/>
</svg>
