<svg width="24" height="24" viewBox="0 0 24 24" fill="none" xmlns="http://www.w3.org/2000/svg">
<path d="M2 10.2218C2 14.4629 2.59112 16.115 3.59115 16.9669C4.11345 17.4118 4.93232 17.8009 6.32804 18.0651C6.7863 18.1519 7.29091 18.2224 7.84748 18.2779L7.09301 20.2059C1.37737 19.4973 0 17.01 0 10.2218C0 1.80415 2.118 0 12 0C21.882 0 24 1.80415 24 10.2218C24 17.1823 22.5518 19.6208 16.4634 20.2565L16.0777 18.2853C16.664 18.2286 17.1933 18.1558 17.672 18.0651C19.0677 17.8009 19.8865 17.4118 20.4088 16.9669C21.4089 16.115 22 14.4629 22 10.2218C22 5.98078 21.4089 4.32865 20.4088 3.4768C19.8865 3.03189 19.0677 2.64275 17.672 2.37852C16.2693 2.11298 14.4322 2 12 2C9.56777 2 7.73074 2.11298 6.32804 2.37852C4.93232 2.64275 4.11345 3.03189 3.59115 3.4768C2.59112 4.32865 2 5.98078 2 10.2218Z" fill="#ABAFD1"/>
<path fill-rule="evenodd" clip-rule="evenodd" d="M12.782 13.4157C12.27 13.2755 11.7305 13.2755 11.2184 13.4157C10.4804 13.6179 9.96714 14.1591 9.5439 14.7441C9.12516 15.3229 8.67398 16.1218 8.12866 17.0873L8.06848 17.1939C7.52286 18.1598 7.07171 18.9585 6.7909 19.6181C6.50577 20.2879 6.31011 21.0017 6.50298 21.7374C6.63744 22.2504 6.90222 22.7205 7.27311 23.0996C7.8097 23.6481 8.52655 23.8345 9.24173 23.9176C9.944 23.9992 10.8487 23.9991 11.9374 23.9991H12.063C13.1517 23.9991 14.0564 23.9992 14.7587 23.9176C15.4739 23.8345 16.1907 23.6481 16.7273 23.0996C17.0982 22.7205 17.363 22.2504 17.4975 21.7374C17.6903 21.0017 17.4947 20.2879 17.2095 19.6181C16.9287 18.9585 16.4776 18.1598 15.932 17.1939L15.8718 17.0873C15.3265 16.1218 14.8753 15.3229 14.4565 14.7441C14.0333 14.1591 13.52 13.6179 12.782 13.4157ZM11.7467 15.3447C11.9129 15.2992 12.0875 15.2992 12.2537 15.3447C12.3159 15.3617 12.4883 15.4356 12.8361 15.9165C13.1808 16.3929 13.5774 17.0918 14.1606 18.1244C14.7437 19.1568 15.1378 19.8576 15.3694 20.4015C15.6017 20.9473 15.5844 21.1481 15.5628 21.2303C15.5156 21.4106 15.4233 21.5726 15.2977 21.701C15.2485 21.7513 15.1014 21.8643 14.5279 21.9309C13.955 21.9975 13.1678 21.9991 12.0002 21.9991C10.8326 21.9991 10.0454 21.9975 9.47251 21.9309C8.89907 21.8643 8.75195 21.7513 8.70275 21.701C8.57715 21.5726 8.48488 21.4106 8.43761 21.2303C8.41607 21.1481 8.39874 20.9473 8.63109 20.4015C8.86264 19.8576 9.25672 19.1568 9.83984 18.1244C10.4231 17.0918 10.8196 16.3929 11.1643 15.9165C11.5122 15.4356 11.6845 15.3617 11.7467 15.3447Z" fill="#767BFA"/>
<path fill-rule="evenodd" clip-rule="evenodd" d="M12.779 13.4166C12.267 13.2764 11.7275 13.2764 11.2154 13.4166C10.4775 13.6188 9.96416 14.16 9.54092 14.745C9.12219 15.3238 8.671 16.1227 8.12568 17.0882L8.0655 17.1948C7.51988 18.1607 7.06873 18.9594 6.78792 19.619C6.5028 20.2888 6.30713 21.0026 6.5 21.7383C6.63446 22.2513 6.89925 22.7214 7.27013 23.1005C7.80672 23.649 8.52358 23.8354 9.23875 23.9185C9.94103 24.0001 10.8458 24 11.9345 24H12.06C13.1487 24 14.0535 24.0001 14.7557 23.9185C15.4709 23.8354 16.1878 23.649 16.7244 23.1005C17.0952 22.7214 17.36 22.2513 17.4945 21.7383C17.6874 21.0026 17.4917 20.2888 17.2066 19.619C16.9258 18.9594 16.4746 18.1607 15.929 17.1948L15.8688 17.0882C15.3235 16.1227 14.8723 15.3238 14.4536 14.745C14.0303 14.16 13.517 13.6188 12.779 13.4166ZM11.7438 15.3456C11.91 15.3001 12.0845 15.3001 12.2507 15.3456C12.3129 15.3626 12.4853 15.4365 12.8332 15.9174C13.1779 16.3938 13.5744 17.0927 14.1576 18.1253C14.7407 19.1577 15.1348 19.8585 15.3664 20.4024C15.5987 20.9482 15.5814 21.149 15.5599 21.2312C15.5126 21.4115 15.4203 21.5735 15.2947 21.7019C15.2455 21.7522 15.0984 21.8652 14.525 21.9318C13.9521 21.9984 13.1648 22 11.9972 22C10.8297 22 10.0424 21.9984 9.46954 21.9318C8.8961 21.8652 8.74898 21.7522 8.69978 21.7019C8.57417 21.5735 8.4819 21.4115 8.43464 21.2312C8.41309 21.149 8.39576 20.9482 8.62812 20.4024C8.85967 19.8585 9.25375 19.1577 9.83687 18.1253C10.4201 17.0927 10.8166 16.3938 11.1613 15.9174C11.5092 15.4365 11.6816 15.3626 11.7438 15.3456Z" fill="#767BFA"/>
</svg>
