<svg width="24" height="24" viewBox="0 0 24 24" fill="none" xmlns="http://www.w3.org/2000/svg">
<path fill-rule="evenodd" clip-rule="evenodd" d="M0 12C0 21.882 2.118 24 12 24C21.882 24 24 21.882 24 12C24 2.118 21.882 0 12 0C2.118 0 0 2.118 0 12ZM2 12C2 14.4249 2.13254 16.2369 2.43771 17.6101C2.73783 18.9605 3.17768 19.7608 3.70846 20.2915C4.23924 20.8223 5.03949 21.2622 6.38993 21.5623C7.76307 21.8675 9.57515 22 12 22C14.4249 22 16.2369 21.8675 17.6101 21.5623C18.9605 21.2622 19.7608 20.8223 20.2915 20.2915C20.8223 19.7608 21.2622 18.9605 21.5623 17.6101C21.8675 16.2369 22 14.4249 22 12C22 9.57515 21.8675 7.76307 21.5623 6.38993C21.2622 5.03949 20.8223 4.23924 20.2915 3.70846C19.7608 3.17768 18.9605 2.73783 17.6101 2.43771C16.2369 2.13254 14.4249 2 12 2C9.57515 2 7.76307 2.13254 6.38993 2.43771C5.03949 2.73783 4.23924 3.17768 3.70846 3.70846C3.17768 4.23924 2.73783 5.03949 2.43771 6.38993C2.13254 7.76307 2 9.57515 2 12Z" fill="#ABAFD1"/>
<path fill-rule="evenodd" clip-rule="evenodd" d="M9 5C6.79086 5 5 6.79086 5 9C5 11.2091 6.79086 13 9 13C11.2091 13 13 11.2091 13 9C13 6.79086 11.2091 5 9 5ZM9 7C7.89543 7 7 7.89543 7 9C7 10.1046 7.89543 11 9 11C10.1046 11 11 10.1046 11 9C11 7.89543 10.1046 7 9 7Z" fill="#767BFA"/>
<path d="M2.43774 17.61C2.39859 17.4339 2.36229 17.2505 2.32874 17.0596C2.42532 16.9625 2.52726 16.8639 2.63425 16.7652C3.50217 15.964 4.86548 15 6.50003 15C7.66152 15 8.56975 15.2622 9.31814 15.5556C9.59742 15.665 9.86566 15.7838 10.0998 15.8874C10.1671 15.9172 10.232 15.9459 10.2931 15.9726C10.5829 16.0993 10.8122 16.192 11.0248 16.2527C11.3984 16.3595 11.7105 16.3681 12.1301 16.1758C12.6115 15.9551 13.2813 15.4457 14.2475 14.3415C16.4255 11.8522 18.5865 11.1979 20.3019 11.287C20.9768 11.3221 21.5521 11.4708 21.999 11.636C21.9997 11.7557 22 11.8771 22 12C22 12.6602 21.9902 13.275 21.9697 13.8478C21.9514 13.8363 21.9333 13.8242 21.9155 13.8113L21.9055 13.8046C21.8925 13.7959 21.8677 13.7798 21.8318 13.7585C21.7597 13.7158 21.6447 13.653 21.4923 13.5868C21.1863 13.4539 20.7417 13.3126 20.1982 13.2843C19.1636 13.2306 17.5745 13.5763 15.7526 15.6585C14.7188 16.84 13.8261 17.5984 12.9637 17.9938C12.0395 18.4175 11.2267 18.3905 10.4753 18.1758C10.1253 18.0758 9.79219 17.9364 9.49211 17.8052C9.41434 17.7712 9.33902 17.7379 9.265 17.7052C9.03816 17.6048 8.82346 17.5098 8.58817 17.4176C7.99281 17.1842 7.33854 17 6.50003 17C5.63458 17 4.74789 17.5359 3.99081 18.2348C3.62963 18.5682 3.33487 18.9047 3.13035 19.1585C3.08633 19.2132 3.04678 19.2636 3.01196 19.309C2.78739 18.865 2.5937 18.3118 2.43774 17.61Z" fill="#767BFA"/>
</svg>
