<svg width="24" height="24" viewBox="0 0 24 24" fill="none" xmlns="http://www.w3.org/2000/svg">
<path fill-rule="evenodd" clip-rule="evenodd" d="M0 12C0 21.882 2.11801 24 12 24C21.882 24 24 21.882 24 12C24 2.118 21.882 0 12 0C2.11801 0 0 2.118 0 12ZM2.17905 16C2.24527 16.5954 2.33093 17.1296 2.43771 17.6101C2.73782 18.9605 3.17767 19.7608 3.70847 20.2915C4.23926 20.8223 5.03949 21.2622 6.38992 21.5623C7.76306 21.8675 9.57513 22 12 22C14.4249 22 16.2369 21.8675 17.6101 21.5623C18.9605 21.2622 19.7607 20.8223 20.2915 20.2915C20.8223 19.7608 21.2622 18.9605 21.5623 17.6101C21.6691 17.1296 21.7547 16.5954 21.821 16H2.17905ZM2.03601 14H21.964C21.9883 13.3842 22 12.719 22 12C22 9.57515 21.8675 7.76308 21.5623 6.38992C21.2622 5.03949 20.8223 4.23924 20.2915 3.70847C19.7607 3.17769 18.9605 2.73784 17.6101 2.43771C16.2369 2.13254 14.4249 2 12 2C9.57513 2 7.76306 2.13254 6.38992 2.43771C5.03949 2.73784 4.23926 3.17769 3.70847 3.70847C3.17767 4.23924 2.73782 5.03949 2.43771 6.38992C2.13254 7.76308 2 9.57515 2 12C2 12.719 2.01166 13.3842 2.03601 14Z" fill="#ABAFD1"/>
<rect width="10" height="2" rx="1" transform="matrix(-1 0 0 1 17 9)" fill="#767BFA"/>
</svg>
