<svg width="24" height="24" viewBox="0 0 24 24" fill="none" xmlns="http://www.w3.org/2000/svg">
<path fill-rule="evenodd" clip-rule="evenodd" d="M4 12C4 14.2091 5.79086 16 8 16C9.86658 16 11.4345 14.7215 11.8759 12.9924C11.9166 12.9974 11.958 13 12 13H14V14C14 14.5523 14.4477 15 15 15C15.5523 15 16 14.5523 16 14V13H18V15C18 15.5523 18.4477 16 19 16C19.5523 16 20 15.5523 20 15V12C20 11.4477 19.5523 11 19 11H12C11.958 11 11.9166 11.0026 11.8759 11.0076C11.4345 9.27853 9.86658 8 8 8C5.79086 8 4 9.79086 4 12ZM6 12C6 13.1046 6.89543 14 8 14C9.10457 14 10 13.1046 10 12C10 10.8954 9.10457 10 8 10C6.89543 10 6 10.8954 6 12Z" fill="#767BFA"/>
<path fill-rule="evenodd" clip-rule="evenodd" d="M0 12C0 21.882 2.118 24 12 24C21.882 24 24 21.882 24 12C24 2.118 21.882 0 12 0C2.118 0 0 2.118 0 12ZM2 12C2 14.4249 2.13254 16.2369 2.43771 17.6101C2.73783 18.9605 3.17768 19.7608 3.70846 20.2915C4.23924 20.8223 5.03949 21.2622 6.38993 21.5623C7.76307 21.8675 9.57515 22 12 22C14.4249 22 16.2369 21.8675 17.6101 21.5623C18.9605 21.2622 19.7608 20.8223 20.2915 20.2915C20.8223 19.7608 21.2622 18.9605 21.5623 17.6101C21.8675 16.2369 22 14.4249 22 12C22 9.57515 21.8675 7.76307 21.5623 6.38993C21.2622 5.03949 20.8223 4.23924 20.2915 3.70846C19.7608 3.17768 18.9605 2.73783 17.6101 2.43771C16.2369 2.13254 14.4249 2 12 2C9.57515 2 7.76307 2.13254 6.38993 2.43771C5.03949 2.73783 4.23924 3.17768 3.70846 3.70846C3.17768 4.23924 2.73783 5.03949 2.43771 6.38993C2.13254 7.76307 2 9.57515 2 12Z" fill="#ABAFD1"/>
</svg>
