<svg width="24" height="16" viewBox="0 0 24 16" fill="none" xmlns="http://www.w3.org/2000/svg">
<path d="M19 11C18.4477 11 18 10.5523 18 10C18 9.44771 18.4477 9 19 9C19.5523 9 20 9.44772 20 10C20 10.5523 19.5523 11 19 11Z" fill="#ABAFD1"/>
<path d="M4 10C4 10.5523 4.44772 11 5 11C5.55228 11 6 10.5523 6 10C6 9.44772 5.55228 9 5 9C4.44772 9 4 9.44771 4 10Z" fill="#ABAFD1"/>
<path d="M11 7C10.4477 7 10 6.55228 10 6C10 5.44772 10.4477 5 11 5C11.5523 5 12 5.44772 12 6C12 6.55228 11.5523 7 11 7Z" fill="#ABAFD1"/>
<path d="M7 6C7 6.55228 7.44772 7 8 7C8.55228 7 9 6.55228 9 6C9 5.44772 8.55229 5 8 5C7.44772 5 7 5.44772 7 6Z" fill="#ABAFD1"/>
<path d="M5 7C4.44772 7 4 6.55228 4 6C4 5.44772 4.44772 5 5 5C5.55228 5 6 5.44772 6 6C6 6.55228 5.55228 7 5 7Z" fill="#ABAFD1"/>
<path d="M13 6C13 6.55228 13.4477 7 14 7C14.5523 7 15 6.55228 15 6C15 5.44772 14.5523 5 14 5C13.4477 5 13 5.44772 13 6Z" fill="#ABAFD1"/>
<path fill-rule="evenodd" clip-rule="evenodd" d="M12 16C1 16 0 15.0588 0 8C0 0.941176 1 0 12 0C23 0 24 0.941176 24 8C24 15.0588 23 16 12 16ZM2.27034 11.7506C2.06888 10.9309 2 9.76954 2 8C2 6.23046 2.06888 5.06912 2.27034 4.24935C2.44937 3.52083 2.69382 3.21715 3.00837 3.00081C3.42039 2.71743 4.18957 2.42862 5.72464 2.24287C7.23515 2.06008 9.25479 2 12 2C14.7452 2 16.7649 2.06008 18.2754 2.24287C19.8104 2.42862 20.5796 2.71743 20.9916 3.00081C21.3062 3.21715 21.5506 3.52083 21.7297 4.24935C21.9311 5.06912 22 6.23046 22 8C22 9.76954 21.9311 10.9309 21.7297 11.7506C21.5506 12.4792 21.3062 12.7828 20.9916 12.9992C20.5796 13.2826 19.8104 13.5714 18.2754 13.7571C16.7649 13.9399 14.7452 14 12 14C9.25479 14 7.23515 13.9399 5.72464 13.7571C4.18957 13.5714 3.42039 13.2826 3.00837 12.9992C2.69382 12.7828 2.44937 12.4792 2.27034 11.7506Z" fill="#ABAFD1"/>
<path d="M16 6C16 6.55228 16.4477 7 17 7L19 7C19.5523 7 20 6.55229 20 6C20 5.44772 19.5523 5 19 5H17C16.4477 5 16 5.44772 16 6Z" fill="#767BFA"/>
<path d="M7 10C7 10.5523 7.44772 11 8 11L16 11C16.5523 11 17 10.5523 17 10C17 9.44772 16.5523 9 16 9L8 9C7.44772 9 7 9.44771 7 10Z" fill="#767BFA"/>
</svg>
