<svg width="24" height="24" viewBox="0 0 24 24" fill="none" xmlns="http://www.w3.org/2000/svg">
<path fill-rule="evenodd" clip-rule="evenodd" d="M0 10C0 18.235 2.118 20 12 20C21.882 20 24 18.235 24 10C24 1.765 21.882 0 12 0C2.118 0 0 1.765 0 10ZM2 10C2 14.1423 2.58927 15.7306 3.57462 16.5517C4.0968 16.9868 4.91889 17.3695 6.32024 17.629C7.7267 17.8895 9.56687 18 12 18C14.4331 18 16.2733 17.8895 17.6798 17.629C19.0811 17.3695 19.9032 16.9868 20.4254 16.5517C21.4107 15.7306 22 14.1423 22 10C22 5.85772 21.4107 4.26945 20.4254 3.44832C19.9032 3.01317 19.0811 2.63054 17.6798 2.37101C16.2733 2.11053 14.4331 2 12 2C9.56687 2 7.7267 2.11053 6.32024 2.37101C4.91889 2.63054 4.0968 3.01317 3.57462 3.44832C2.58927 4.26945 2 5.85772 2 10Z" fill="#ABAFD1"/>
<rect x="2" y="22" width="20" height="2" rx="1" fill="#767BFA"/>
</svg>
