<svg width="18" height="16" viewBox="0 0 18 16" fill="none" xmlns="http://www.w3.org/2000/svg">
<path d="M6.70714 1.70711C7.09766 1.31658 7.09766 0.683417 6.70714 0.292893C6.31661 -0.0976311 5.68345 -0.0976311 5.29292 0.292893L0.292922 5.29289C0.00692445 5.57889 -0.0786313 6.00901 0.0761497 6.38268C0.230931 6.75636 0.595567 7 1.00003 7H17C17.5523 7 18 6.55228 18 6C18 5.44772 17.5523 5 17 5H3.41424L6.70714 1.70711Z" fill="#ABAFD1"/>
<path d="M11.2929 14.2929C10.9024 14.6834 10.9024 15.3166 11.2929 15.7071C11.6834 16.0976 12.3166 16.0976 12.7071 15.7071L17.7071 10.7071C17.9931 10.4211 18.0787 9.99099 17.9239 9.61732C17.7691 9.24364 17.4045 9 17 9H1C0.447716 9 0 9.44772 0 10C0 10.5523 0.447716 11 1 11H14.5858L11.2929 14.2929Z" fill="#767BFA"/>
</svg>
