<svg width="18" height="22" viewBox="0 0 18 22" fill="none" xmlns="http://www.w3.org/2000/svg">
<path d="M11.2929 20.2929C10.9024 20.6834 10.9024 21.3166 11.2929 21.7071C11.6834 22.0976 12.3166 22.0976 12.7071 21.7071L17.7071 16.7071C18.0976 16.3166 18.0976 15.6834 17.7071 15.2929L12.7071 10.2929C12.3166 9.90237 11.6834 9.90237 11.2929 10.2929C10.9024 10.6834 10.9024 11.3166 11.2929 11.7071L14.5858 15L0.999999 15C0.447715 15 0 15.4477 0 16C0 16.5523 0.447715 17 1 17L14.5858 17L11.2929 20.2929Z" fill="#767BFA"/>
<path d="M6.70711 10.2929C7.09763 10.6834 7.09763 11.3166 6.70711 11.7071C6.31658 12.0976 5.68342 12.0976 5.29289 11.7071L0.292893 6.70711C-0.0976311 6.31658 -0.0976311 5.68342 0.292893 5.29289L5.29289 0.292894C5.68342 -0.0976312 6.31658 -0.0976312 6.70711 0.292894C7.09763 0.683417 7.09763 1.31658 6.70711 1.70711L3.41421 5L17 5C17.5523 5 18 5.44771 18 6C18 6.55228 17.5523 7 17 7L3.41421 7L6.70711 10.2929Z" fill="#ABAFD1"/>
</svg>
