<svg width="25" height="12" viewBox="0 0 25 12" fill="none" xmlns="http://www.w3.org/2000/svg">
<rect x="6.86722" y="5" width="12" height="2" rx="1" fill="#767BFA"/>
<path d="M10.8672 0.994308C10.8672 0.436123 10.4068 -0.0149749 9.84883 0.000380747C3.18291 0.183829 0.867218 1.2289 0.867218 6C0.867218 10.7711 3.18291 11.8162 9.84883 11.9996C10.4068 12.015 10.8672 11.5639 10.8672 11.0057C10.8672 10.4592 10.4285 10.015 9.88227 9.99978C8.9481 9.9738 8.11748 9.9307 7.37743 9.86304C5.91156 9.72903 4.94536 9.50931 4.3015 9.22441C3.71937 8.96683 3.43856 8.67563 3.25513 8.31901C3.03883 7.89847 2.86722 7.20354 2.86722 6C2.86722 4.79646 3.03883 4.10153 3.25513 3.68099C3.43856 3.32437 3.71937 3.03317 4.3015 2.77559C4.94536 2.49069 5.91156 2.27097 7.37743 2.13696C8.11748 2.0693 8.9481 2.0262 9.88227 2.00022C10.4285 1.98503 10.8672 1.54078 10.8672 0.994308Z" fill="#ABAFD1"/>
<path d="M14.8672 11.0057C14.8672 10.4592 15.3059 10.015 15.8522 9.99978C16.7863 9.9738 17.617 9.9307 18.357 9.86304C19.8229 9.72903 20.7891 9.50931 21.4329 9.22441C22.0151 8.96683 22.2959 8.67563 22.4793 8.31901C22.6956 7.89847 22.8672 7.20354 22.8672 6C22.8672 4.79646 22.6956 4.10153 22.4793 3.68099C22.2959 3.32437 22.0151 3.03317 21.4329 2.77559C20.7891 2.49069 19.8229 2.27097 18.357 2.13696C17.617 2.0693 16.7863 2.0262 15.8522 2.00022C15.3059 1.98503 14.8672 1.54078 14.8672 0.994308C14.8672 0.436123 15.3276 -0.0149749 15.8856 0.000380752C22.5515 0.183829 24.8672 1.2289 24.8672 6C24.8672 10.7711 22.5515 11.8162 15.8856 11.9996C15.3276 12.015 14.8672 11.5639 14.8672 11.0057Z" fill="#ABAFD1"/>
</svg>
