<svg width="24" height="24" viewBox="0 0 24 24" fill="none" xmlns="http://www.w3.org/2000/svg">
<path fill-rule="evenodd" clip-rule="evenodd" d="M0.17507 12.1676C1.35743 18.2504 7.64684 22.1456 10.5408 23.6417C11.4648 24.1194 12.5352 24.1194 13.4592 23.6417C16.3532 22.1456 22.6426 18.2504 23.8249 12.1676C24.8104 7.09776 21.7378 0 12 0C2.26217 0 -0.81039 7.09776 0.17507 12.1676ZM2.13732 11.7754C2.61379 14.2267 4.14941 16.3597 6.06224 18.1249C7.9633 19.8792 10.0884 21.1315 11.4492 21.835C11.8026 22.0177 12.1974 22.0177 12.5508 21.835C13.9116 21.1315 16.0367 19.8792 17.9378 18.1249C19.8506 16.3597 21.3862 14.2267 21.8627 11.7755C22.2526 9.76953 21.833 7.33897 20.3598 5.43389C18.934 3.59004 16.3537 2.02793 12 2.02793C7.64635 2.02793 5.066 3.59004 3.64019 5.43389C2.16703 7.33898 1.74742 9.76953 2.13732 11.7754Z" fill="#ABAFD1"/>
<path fill-rule="evenodd" clip-rule="evenodd" d="M8 10.1396C8 12.3796 9.79086 14.1955 12 14.1955C14.2091 14.1955 16 12.3796 16 10.1396C16 7.89961 14.2091 6.08374 12 6.08374C9.79086 6.08374 8 7.89961 8 10.1396ZM10 10.1396C10 11.2596 10.8954 12.1675 12 12.1675C13.1046 12.1675 14 11.2596 14 10.1396C14 9.01961 13.1046 8.11167 12 8.11167C10.8954 8.11167 10 9.01961 10 10.1396Z" fill="#767BFA"/>
</svg>
