<svg width="24" height="24" viewBox="0 0 24 24" fill="none" xmlns="http://www.w3.org/2000/svg">
<path fill-rule="evenodd" clip-rule="evenodd" d="M18.9886 6.55229C18.8829 4.49425 18.0484 2.8717 16.7894 1.75259C15.4588 0.569897 13.7131 0 12 0C10.2869 0 8.54117 0.569897 7.21064 1.75259C5.95164 2.8717 5.11707 4.49425 5.01138 6.55229C1.03115 7.49223 0 9.82865 0 15C0 22.4115 2.118 24 12 24C21.882 24 24 22.4115 24 15C24 9.82865 22.9689 7.49224 18.9886 6.55229ZM7.04679 6.21439C8.42857 6.06087 10.0655 6 12 6C13.9345 6 15.5714 6.06087 16.9532 6.21439C16.7906 4.89357 16.2186 3.92116 15.4606 3.24741C14.5412 2.4301 13.2869 2 12 2C10.7131 2 9.45883 2.4301 8.53936 3.24741C7.78139 3.92116 7.20935 4.89357 7.04679 6.21439ZM2 15C2 18.6887 2.57639 19.9909 3.49425 20.6793C4.01913 21.073 4.85848 21.4255 6.28486 21.6632C7.70849 21.9005 9.56287 22 12 22C14.4371 22 16.2915 21.9005 17.7151 21.6632C19.1415 21.4255 19.9809 21.073 20.5058 20.6793C21.4236 19.9909 22 18.6887 22 15C22 11.3113 21.4236 10.0091 20.5058 9.32069C19.9809 8.92703 19.1415 8.57454 17.7151 8.33679C16.2915 8.0995 14.4371 8 12 8C9.56287 8 7.70849 8.0995 6.28486 8.33679C4.85848 8.57454 4.01913 8.92703 3.49425 9.32069C2.57639 10.0091 2 11.3113 2 15Z" fill="#ABAFD1"/>
<path fill-rule="evenodd" clip-rule="evenodd" d="M9 15C9 16.6569 10.3431 18 12 18C13.6569 18 15 16.6569 15 15C15 13.3431 13.6569 12 12 12C10.3431 12 9 13.3431 9 15ZM11 15C11 15.5523 11.4477 16 12 16C12.5523 16 13 15.5523 13 15C13 14.4477 12.5523 14 12 14C11.4477 14 11 14.4477 11 15Z" fill="#767BFA"/>
</svg>
