<svg width="24" height="27" viewBox="0 0 24 27" fill="none" xmlns="http://www.w3.org/2000/svg">
<path fill-rule="evenodd" clip-rule="evenodd" d="M0 15C0 24.882 2.118 27 12 27C21.882 27 24 24.882 24 15C24 5.118 21.882 3 12 3C2.118 3 0 5.118 0 15ZM2 15C2 17.4249 2.13254 19.2369 2.43771 20.6101C2.73783 21.9605 3.17768 22.7608 3.70846 23.2915C4.23924 23.8223 5.03949 24.2622 6.38993 24.5623C7.76307 24.8675 9.57515 25 12 25C14.4249 25 16.2369 24.8675 17.6101 24.5623C18.9605 24.2622 19.7608 23.8223 20.2915 23.2915C20.8223 22.7608 21.2622 21.9605 21.5623 20.6101C21.8675 19.2369 22 17.4249 22 15C22 12.5751 21.8675 10.7631 21.5623 9.38993C21.2622 8.03949 20.8223 7.23924 20.2915 6.70846C19.7608 6.17768 18.9605 5.73783 17.6101 5.43771C16.2369 5.13254 14.4249 5 12 5C9.57515 5 7.76307 5.13254 6.38993 5.43771C5.03949 5.73783 4.23924 6.17768 3.70846 6.70846C3.17768 7.23924 2.73783 8.03949 2.43771 9.38993C2.13254 10.7631 2 12.5751 2 15Z" fill="#ABAFD1"/>
<path d="M9 1C9 0.447708 9.44772 0 10 0C10.5523 0 11 0.447708 11 1V2H13V1C13 0.447708 13.4477 0 14 0C14.5523 0 15 0.447708 15 1V2H16C17.1046 2 18 2.89543 18 4C18 5.10457 17.1046 6 16 6H8C6.89542 6 6 5.10457 6 4C6 2.89543 6.89542 2 8 2H9V1Z" fill="#767BFA"/>
<path d="M7 20C6.44772 20 6 20.4477 6 21C6 21.5523 6.44772 22 7 22H17C17.5523 22 18 21.5523 18 21C18 20.4477 17.5523 20 17 20H7Z" fill="#767BFA"/>
</svg>
