<svg width="28" height="16" viewBox="0 0 28 16" fill="none" xmlns="http://www.w3.org/2000/svg">
<path fill-rule="evenodd" clip-rule="evenodd" d="M19.9204 6.60887C20.1364 7.11715 19.8995 7.70432 19.3912 7.92034L19 7.00002C19.3912 7.92034 19.3912 7.92032 19.3912 7.92034L19.3867 7.92225L19.3769 7.92636L19.3425 7.94074C19.3131 7.95291 19.2713 7.97011 19.2191 7.99115C19.1149 8.03313 18.9685 8.09083 18.7971 8.1546C18.4611 8.27956 18.0016 8.43827 17.5693 8.54322C16.3864 8.83037 15.4949 9.00002 14 9.00002C12.5052 9.00002 11.6137 8.83037 10.4308 8.54322C9.99844 8.43826 9.53895 8.27956 9.20301 8.1546C9.03158 8.09083 8.88513 8.03313 8.78096 7.99115C8.72878 7.97011 8.68695 7.95291 8.6576 7.94074L8.62315 7.92636L8.6134 7.92225L8.60952 7.92061C8.60946 7.92058 8.6089 7.92035 8.95011 7.11748L8.60952 7.92061C8.10123 7.70459 7.86368 7.11715 8.07971 6.60887C8.2957 6.10067 8.8827 5.86374 9.39093 6.07958C9.39096 6.07959 9.3909 6.07956 9.39093 6.07958L9.39197 6.08002L9.39785 6.0825L9.42408 6.09344C9.44773 6.10325 9.48328 6.11788 9.52866 6.13617C9.61962 6.17283 9.74897 6.22379 9.9003 6.28009C10.2099 6.39525 10.5837 6.52226 10.9026 6.59967C11.989 6.8634 12.7144 7.00002 14 7.00002C15.2857 7.00002 16.0111 6.8634 17.0975 6.59967C17.4163 6.52226 17.7902 6.39525 18.0998 6.28009C18.2511 6.22379 18.3805 6.17283 18.4714 6.13617C18.5168 6.11788 18.5523 6.10325 18.576 6.09344L18.6022 6.0825L18.6081 6.08002C18.6081 6.08001 18.6081 6.08004 18.6081 6.08002M19.9204 6.60887C19.7044 6.10062 19.1164 5.86407 18.6081 6.08002L19.9204 6.60887ZM19.9204 9.60887C20.1364 10.1172 19.8995 10.7043 19.3912 10.9203L19 10C19.3912 10.9203 19.3912 10.9203 19.3912 10.9203L19.3867 10.9223L19.3769 10.9264L19.3425 10.9407C19.3131 10.9529 19.2713 10.9701 19.2191 10.9911C19.1149 11.0331 18.9685 11.0908 18.7971 11.1546C18.4611 11.2796 18.0016 11.4383 17.5693 11.5432C16.3864 11.8304 15.4949 12 14 12C12.5052 12 11.6137 11.8304 10.4308 11.5432C9.99844 11.4383 9.53895 11.2796 9.20301 11.1546C9.03158 11.0908 8.88513 11.0331 8.78096 10.9911C8.72878 10.9701 8.68695 10.9529 8.6576 10.9407L8.62315 10.9264L8.6134 10.9223L8.60952 10.9206C8.60946 10.9206 8.6089 10.9203 8.95011 10.1175L8.60952 10.9206C8.10123 10.7046 7.86368 10.1172 8.07971 9.60887C8.2957 9.10067 8.8827 8.86374 9.39093 9.07958C9.39096 9.07959 9.3909 9.07956 9.39093 9.07958L9.39197 9.08002L9.39785 9.0825L9.42408 9.09344C9.44773 9.10325 9.48328 9.11788 9.52866 9.13617C9.61962 9.17283 9.74897 9.22379 9.9003 9.28009C10.2099 9.39525 10.5837 9.52226 10.9026 9.59967C11.989 9.8634 12.7144 10 14 10C15.2857 10 16.0111 9.8634 17.0975 9.59967C17.4163 9.52226 17.7902 9.39525 18.0998 9.28009C18.2511 9.22379 18.3805 9.17283 18.4714 9.13617C18.5168 9.11788 18.5523 9.10325 18.576 9.09344L18.6022 9.0825L18.6081 9.08002C18.6081 9.08001 18.6081 9.08004 18.6081 9.08002M19.9204 9.60887C19.7044 9.10062 19.1164 8.86407 18.6081 9.08002L19.9204 9.60887Z" fill="#767BFA"/>
<path d="M27.0897 0.531038C27.353 1.01877 27.1647 1.6242 26.6691 1.88331L26.6606 1.88776L26.6393 1.89876L26.5607 1.93912C26.4929 1.97374 26.395 2.02326 26.2722 2.08416C26.0268 2.20584 25.6808 2.37357 25.2757 2.55894C24.8053 2.7742 24.2437 3.01869 23.6609 3.24338C24.0576 4.3602 24.0946 5.91112 23.7433 8.0649L26.729 7.26314C27.2697 7.11794 27.8236 7.43269 27.9663 7.96616C28.1089 8.49962 27.7862 9.04978 27.2455 9.19498L23.4207 10.2221C23.3657 10.2368 23.3106 10.2468 23.2558 10.2524C21.854 14.9829 18.7931 16 13.9507 16C9.08473 16 6.01647 14.973 4.63307 10.1832L0.754523 9.1417C0.213815 8.9965 -0.108892 8.44633 0.0337373 7.91287C0.176367 7.37941 0.730321 7.06466 1.27103 7.20985L4.16009 7.98567C3.85403 5.86533 3.90991 4.33534 4.30789 3.23133C3.73632 3.00998 3.18626 2.77036 2.72428 2.55894C2.31921 2.37357 1.97316 2.20584 1.72779 2.08416C1.60498 2.02326 1.50708 1.97374 1.43926 1.93912L1.36064 1.89876L1.33941 1.88776L1.33179 1.88379C1.3317 1.88374 1.33086 1.8833 1.80755 1.0002L1.33086 1.8833C0.835314 1.6242 0.647009 1.01876 0.910275 0.531037C1.17352 0.043343 1.78859 -0.141999 2.28413 0.117032L2.28861 0.119364L2.30549 0.128114L2.37483 0.163712C2.43624 0.195059 2.52705 0.240999 2.64214 0.298073C2.87256 0.412337 3.19907 0.570601 3.58106 0.74541C4.3536 1.09895 5.31901 1.50439 6.16672 1.75756C8.87571 2.56661 10.7428 3.00019 14 3.00019C17.2571 3.00019 19.1243 2.56661 21.8333 1.75756C22.681 1.5044 23.6464 1.09896 24.4189 0.745411C24.8009 0.570602 25.1274 0.412338 25.3578 0.298074C25.4729 0.241 25.5637 0.19506 25.6251 0.163713L25.6945 0.128115L25.7114 0.119365L25.7152 0.117397C26.2107 -0.141633 26.8265 0.043344 27.0897 0.531038ZM6.23551 3.86522C6.20238 3.95315 6.17198 4.0501 6.14438 4.1575C5.95913 4.87824 5.91779 6.03363 6.1973 7.87549C6.6952 10.8626 7.60495 12.206 8.60228 12.9076C9.67622 13.6631 11.2908 14 13.9507 14C16.6102 14 18.225 13.6632 19.3006 12.9072C20.3017 12.2035 21.2149 10.8556 21.7186 7.8587C22.0288 6.01298 21.9968 4.8618 21.8168 4.14987C21.7914 4.04921 21.7633 3.9578 21.7325 3.87444C19.2432 4.59236 17.23 5.00018 14 5.00018C10.7562 5.00018 8.73958 4.58887 6.23551 3.86522Z" fill="#ABAFD1"/>
<path d="M27.0897 0.531038C27.353 1.01877 27.1647 1.6242 26.6691 1.88331L26.6606 1.88776L26.6393 1.89876L26.5607 1.93912C26.4929 1.97374 26.395 2.02326 26.2722 2.08416C26.0268 2.20584 25.6808 2.37357 25.2757 2.55894C24.8053 2.7742 24.2437 3.01869 23.6609 3.24338C24.0576 4.3602 24.0946 5.91112 23.7433 8.0649L26.729 7.26314C27.2697 7.11794 27.8236 7.43269 27.9663 7.96616C28.1089 8.49962 27.7862 9.04978 27.2455 9.19498L23.4207 10.2221C23.3657 10.2368 23.3106 10.2468 23.2558 10.2524C21.854 14.9829 18.7931 16 13.9507 16C9.08473 16 6.01647 14.973 4.63307 10.1832L0.754523 9.1417C0.213815 8.9965 -0.108892 8.44633 0.0337373 7.91287C0.176367 7.37941 0.730321 7.06466 1.27103 7.20985L4.16009 7.98567C3.85403 5.86533 3.90991 4.33534 4.30789 3.23133C3.73632 3.00998 3.18626 2.77036 2.72428 2.55894C2.31921 2.37357 1.97316 2.20584 1.72779 2.08416C1.60498 2.02326 1.50708 1.97374 1.43926 1.93912L1.36064 1.89876L1.33941 1.88776L1.33179 1.88379C1.3317 1.88374 1.33086 1.8833 1.80755 1.0002L1.33086 1.8833C0.835314 1.6242 0.647009 1.01876 0.910275 0.531037C1.17352 0.043343 1.78859 -0.141999 2.28413 0.117032L2.28861 0.119364L2.30549 0.128114L2.37483 0.163712C2.43624 0.195059 2.52705 0.240999 2.64214 0.298073C2.87256 0.412337 3.19907 0.570601 3.58106 0.74541C4.3536 1.09895 5.31901 1.50439 6.16672 1.75756C8.87571 2.56661 10.7428 3.00019 14 3.00019C17.2571 3.00019 19.1243 2.56661 21.8333 1.75756C22.681 1.5044 23.6464 1.09896 24.4189 0.745411C24.8009 0.570602 25.1274 0.412338 25.3578 0.298074C25.4729 0.241 25.5637 0.19506 25.6251 0.163713L25.6945 0.128115L25.7114 0.119365L25.7152 0.117397C26.2107 -0.141633 26.8265 0.043344 27.0897 0.531038ZM6.23551 3.86522C6.20238 3.95315 6.17198 4.0501 6.14438 4.1575C5.95913 4.87824 5.91779 6.03363 6.1973 7.87549C6.6952 10.8626 7.60495 12.206 8.60228 12.9076C9.67622 13.6631 11.2908 14 13.9507 14C16.6102 14 18.225 13.6632 19.3006 12.9072C20.3017 12.2035 21.2149 10.8556 21.7186 7.8587C22.0288 6.01298 21.9968 4.8618 21.8168 4.14987C21.7914 4.04921 21.7633 3.9578 21.7325 3.87444C19.2432 4.59236 17.23 5.00018 14 5.00018C10.7562 5.00018 8.73958 4.58887 6.23551 3.86522Z" stroke="#ABAFD1"/>
</svg>
