<svg width="24" height="22" viewBox="0 0 24 22" fill="none" xmlns="http://www.w3.org/2000/svg">
<path d="M23.7071 6.2513C23.4142 6.00024 22.9428 6.00024 22 6.00024V12.0002C22.9428 12.0002 23.4142 12.0002 23.7071 11.7492C24 11.4981 24 11.0941 24 10.286V7.71453C24 6.90641 24 6.50235 23.7071 6.2513Z" fill="#767BFA"/>
<path d="M4.05727 13.1953C4.03591 13.1303 4.01684 13.0653 4 13.0002C4.3798 13.1578 4.78978 13.2438 5.21739 13.2438H6.0497L8.16855 19.686C8.35091 20.2405 9.13177 20.1029 9.13177 19.5163V13.4165C9.76602 13.5531 10.3882 13.7638 11 14.0234V19.5163C11 22.316 7.27302 22.9726 6.40265 20.3263L4.05727 13.1953Z" fill="#767BFA"/>
<path fill-rule="evenodd" clip-rule="evenodd" d="M22.9996 9L22.9998 8.82688C23.0015 7.61368 23.0051 5.11362 22.4038 3.14648C22.0911 2.12311 21.5577 1.04404 20.5821 0.445008C19.5282 -0.202113 18.2457 -0.127533 16.8457 0.565105C16.2098 0.879718 15.566 1.22445 14.9304 1.5648C14.7862 1.64201 14.6423 1.71903 14.4992 1.79539C13.7165 2.21281 12.9417 2.61721 12.1579 2.97322C10.587 3.68681 9.04245 4.17602 7.46131 4.17602H4.87619C2.18228 4.17602 0 6.33664 0 9C0 11.6634 2.18228 13.824 4.87618 13.824H7.46131C9.04245 13.824 10.587 14.3132 12.1579 15.0268C12.9417 15.3828 13.7165 15.7872 14.4992 16.2046C14.6422 16.2809 14.7859 16.3578 14.93 16.435C15.5656 16.7753 16.2098 17.1203 16.8457 17.4349C18.2457 18.1275 19.5282 18.2021 20.5821 17.555C21.5577 16.956 22.0911 15.8769 22.4038 14.8535C23.0051 12.8864 23.0015 10.3863 22.9998 9.17312L22.9996 9ZM17.7035 2.25944C18.7415 1.74589 19.2739 1.87217 19.5708 2.05449C19.9461 2.2849 20.2997 2.81303 20.5691 3.69446C21.0847 5.38157 21.0836 7.63288 21.083 8.87853V9.12146C21.0836 10.3671 21.0847 12.6184 20.5691 14.3055C20.2997 15.187 19.9461 15.7151 19.5708 15.9455C19.2739 16.1278 18.7415 16.2541 17.7035 15.7406C17.0981 15.441 16.4881 15.1144 15.8542 14.7751L15.8521 14.7739C15.7058 14.6956 15.5583 14.6166 15.4092 14.5371C14.6218 14.1172 13.8014 13.6882 12.9582 13.3052C11.3336 12.5672 9.56621 11.9719 7.66661 11.9315V6.06851C9.56621 6.0281 11.3336 5.43281 12.9582 4.69485C13.8014 4.31183 14.6218 3.88282 15.4092 3.46286C15.5583 3.38337 15.7058 3.30438 15.8521 3.22608L15.8541 3.22498C16.488 2.88558 17.0981 2.55897 17.7035 2.25944ZM5.74996 6.0707V11.9293H4.87618C3.24254 11.9293 1.91665 10.6187 1.91665 9C1.91665 7.38134 3.24254 6.0707 4.87619 6.0707H5.74996Z" fill="#ABAFD1"/>
</svg>
