<svg width="24" height="24" viewBox="0 0 24 24" fill="none" xmlns="http://www.w3.org/2000/svg">
<path fill-rule="evenodd" clip-rule="evenodd" d="M18.5 11C13.9707 11 13 10.0293 13 5.5C13 0.97075 13.9707 0 18.5 0C23.0293 0 24 0.97075 24 5.5C24 10.0293 23.0293 11 18.5 11ZM16.1637 8.82518C16.6766 8.93916 17.4133 9 18.5 9C19.5867 9 20.3234 8.93916 20.8363 8.82518C21.3264 8.71625 21.4814 8.58708 21.5343 8.53426C21.5871 8.48143 21.7163 8.3264 21.8252 7.83626C21.9392 7.32339 22 6.58666 22 5.5C22 4.41334 21.9392 3.67661 21.8252 3.16375C21.7163 2.6736 21.5871 2.51857 21.5343 2.46574C21.4814 2.41292 21.3264 2.28375 20.8363 2.17482C20.3234 2.06084 19.5867 2 18.5 2C17.4133 2 16.6766 2.06084 16.1637 2.17482C15.6736 2.28375 15.5186 2.41292 15.4657 2.46574C15.4129 2.51857 15.2837 2.6736 15.1748 3.16375C15.0608 3.67661 15 4.41334 15 5.5C15 6.58666 15.0608 7.32339 15.1748 7.83626C15.2837 8.3264 15.4129 8.48143 15.4657 8.53426C15.5186 8.58708 15.6736 8.71625 16.1637 8.82518Z" fill="#767BFA"/>
<path fill-rule="evenodd" clip-rule="evenodd" d="M5.5 24C0.97075 24 0 23.0293 0 18.5C0 13.9707 0.97075 13 5.5 13C10.0293 13 11 13.9707 11 18.5C11 23.0293 10.0293 24 5.5 24ZM2.17482 20.8363C2.06084 20.3234 2 19.5867 2 18.5C2 17.4133 2.06084 16.6766 2.17482 16.1637C2.28375 15.6736 2.41292 15.5186 2.46574 15.4657C2.51857 15.4129 2.6736 15.2837 3.16375 15.1748C3.67661 15.0608 4.41334 15 5.5 15C6.58666 15 7.32339 15.0608 7.83626 15.1748C8.3264 15.2837 8.48143 15.4129 8.53426 15.4657C8.58708 15.5186 8.71625 15.6736 8.82518 16.1637C8.93916 16.6766 9 17.4133 9 18.5C9 19.5867 8.93916 20.3234 8.82518 20.8363C8.71625 21.3264 8.58708 21.4814 8.53426 21.5343C8.48143 21.5871 8.3264 21.7163 7.83626 21.8252C7.32339 21.9392 6.58666 22 5.5 22C4.41334 22 3.67661 21.9392 3.16375 21.8252C2.6736 21.7163 2.51857 21.5871 2.46574 21.5343C2.41292 21.4814 2.28375 21.3264 2.17482 20.8363Z" fill="#767BFA"/>
<path fill-rule="evenodd" clip-rule="evenodd" d="M0 5.5C0 10.0293 0.97075 11 5.5 11C10.0293 11 11 10.0293 11 5.5C11 0.97075 10.0293 0 5.5 0C0.97075 0 0 0.97075 0 5.5ZM2 5.5C2 6.58666 2.06084 7.32339 2.17482 7.83626C2.28375 8.3264 2.41292 8.48143 2.46574 8.53426C2.51857 8.58708 2.6736 8.71625 3.16375 8.82518C3.67661 8.93916 4.41334 9 5.5 9C6.58666 9 7.32339 8.93916 7.83626 8.82518C8.3264 8.71625 8.48143 8.58708 8.53426 8.53426C8.58708 8.48143 8.71625 8.3264 8.82518 7.83626C8.93916 7.32339 9 6.58666 9 5.5C9 4.41334 8.93916 3.67661 8.82518 3.16374C8.71625 2.6736 8.58708 2.51857 8.53426 2.46574C8.48143 2.41292 8.3264 2.28375 7.83626 2.17482C7.32339 2.06084 6.58666 2 5.5 2C4.41334 2 3.67661 2.06084 3.16375 2.17482C2.6736 2.28375 2.51857 2.41292 2.46574 2.46574C2.41292 2.51857 2.28375 2.6736 2.17482 3.16374C2.06084 3.67661 2 4.41334 2 5.5Z" fill="#ABAFD1"/>
<path fill-rule="evenodd" clip-rule="evenodd" d="M13 18.5C13 23.0292 13.9707 24 18.5 24C23.0293 24 24 23.0292 24 18.5C24 13.9707 23.0293 13 18.5 13C13.9707 13 13 13.9707 13 18.5ZM15 18.5C15 19.5867 15.0608 20.3234 15.1748 20.8363C15.2837 21.3264 15.4129 21.4814 15.4657 21.5343C15.5186 21.5871 15.6736 21.7163 16.1637 21.8252C16.6766 21.9392 17.4133 22 18.5 22C19.5867 22 20.3234 21.9392 20.8363 21.8252C21.3264 21.7163 21.4814 21.5871 21.5343 21.5343C21.5871 21.4814 21.7163 21.3264 21.8252 20.8363C21.9392 20.3234 22 19.5867 22 18.5C22 17.4133 21.9392 16.6766 21.8252 16.1637C21.7163 15.6736 21.5871 15.5186 21.5343 15.4657C21.4814 15.4129 21.3264 15.2837 20.8363 15.1748C20.3234 15.0608 19.5867 15 18.5 15C17.4133 15 16.6766 15.0608 16.1637 15.1748C15.6736 15.2837 15.5186 15.4129 15.4657 15.4657C15.4129 15.5186 15.2837 15.6736 15.1748 16.1637C15.0608 16.6766 15 17.4133 15 18.5Z" fill="#ABAFD1"/>
</svg>
