<svg width="24" height="24" viewBox="0 0 24 24" fill="none" xmlns="http://www.w3.org/2000/svg">
<path fill-rule="evenodd" clip-rule="evenodd" d="M12 0C21.882 0 24 1.77781 24 10.6667C24 16.4445 23.0002 20 18.5002 20C16.0954 20 15.3801 21.1424 14.714 22.2061C14.1336 23.1329 13.5906 24 12.0002 24C10.41 24 9.86699 23.1329 9.28663 22.2061C8.62048 21.1424 7.9051 20 5.50024 20C1.00024 20 0 16.3307 0 10.6667C0 1.88267 2.118 0 12 0ZM22 10.6667C22 6.168 21.4029 4.39911 20.3833 3.50035C19.8642 3.04279 19.0543 2.64773 17.6661 2.38066C16.2678 2.11163 14.4346 2 12 2C9.56959 2 7.73883 2.11788 6.34364 2.3935C4.95923 2.66698 4.14621 3.06906 3.62298 3.53415C2.59399 4.44881 2 6.22922 2 10.6667C2 13.4774 2.26607 15.392 2.85152 16.563C3.11816 17.0964 3.42346 17.4161 3.76537 17.6196C4.11537 17.8279 4.64824 18 5.50024 18C6.93756 18 8.10544 18.3253 9.05581 18.9692C9.97023 19.5888 10.504 20.3908 10.8448 20.9272L10.9818 21.1432C11.2765 21.6084 11.3741 21.7625 11.5122 21.8864L11.5176 21.8916C11.5466 21.9199 11.6286 22 12.0003 22C12.372 22 12.454 21.9199 12.483 21.8916L12.4884 21.8864C12.6265 21.7625 12.7241 21.6085 13.0188 21.1431L13.1557 20.9273C13.4965 20.391 14.0303 19.5889 14.9447 18.9693C15.895 18.3253 17.0629 18 18.5002 18C19.3628 18 19.9003 17.8307 20.2506 17.6264C20.5896 17.4288 20.8894 17.1199 21.1518 16.5995C21.7325 15.448 22 13.5408 22 10.6667Z" fill="#ABAFD1"/>
<path d="M10 7C10.5523 7 11 7.44771 11 8C11 8.55229 10.5523 9 10 9H7C6.44771 9 6 8.55229 6 8C6 7.44771 6.44771 7 7 7H10Z" fill="#767BFA"/>
<path d="M17 11C17.5523 11 18 11.4477 18 12C18 12.5523 17.5523 13 17 13H7C6.44771 13 6 12.5523 6 12C6 11.4477 6.44771 11 7 11H17Z" fill="#767BFA"/>
</svg>
