<svg width="24" height="22" viewBox="0 0 24 22" fill="none" xmlns="http://www.w3.org/2000/svg">
<path d="M21.9714 6.11867C21.7669 5.19351 21.5001 4.51466 21.1854 4C20.1591 5.01102 18.8602 6.23772 17.4497 7.31464C15.5051 8.79945 13.575 9.81806 12 9.81806C10.425 9.81806 8.49494 8.79945 6.55027 7.31464C5.13983 6.23772 3.84094 5.01102 2.81462 4C2.49985 4.51466 2.23311 5.19351 2.0286 6.11867C2.0189 6.16254 2.00937 6.20685 2 6.25158C2.93097 7.14206 4.03799 8.14215 5.22513 9.04856C7.2098 10.5639 9.64571 12 12 12C14.3543 12 16.7902 10.5639 18.7749 9.04856C19.962 8.14215 21.069 7.14206 22 6.25158C21.9906 6.20685 21.9811 6.16254 21.9714 6.11867Z" fill="#767BFA"/>
<path fill-rule="evenodd" clip-rule="evenodd" d="M0 11C0 20.0585 2.118 22 12 22C21.882 22 24 20.0585 24 11C24 1.9415 21.882 0 12 0C2.118 0 0 1.9415 0 11ZM12 20.1667C9.57515 20.1667 7.76307 20.0452 6.38993 19.7654C5.03949 19.4903 4.23924 19.0871 3.70846 18.6006C3.17768 18.114 2.73783 17.3805 2.43771 16.1426C2.13254 14.8838 2 13.2228 2 11C2 8.77722 2.13254 7.11615 2.43771 5.85743C2.73783 4.61954 3.17768 3.88597 3.70846 3.39943C4.23924 2.91288 5.03949 2.50968 6.38993 2.23457C7.76307 1.95483 9.57515 1.83333 12 1.83333C14.4249 1.83333 16.2369 1.95483 17.6101 2.23457C18.9605 2.50968 19.7608 2.91288 20.2915 3.39943C20.8223 3.88597 21.2622 4.61954 21.5623 5.85743C21.8675 7.11615 22 8.77722 22 11C22 13.2228 21.8675 14.8838 21.5623 16.1426C21.2622 17.3805 20.8223 18.114 20.2915 18.6006C19.7608 19.0871 18.9605 19.4903 17.6101 19.7654C16.2369 20.0452 14.4249 20.1667 12 20.1667Z" fill="#ABAFD1"/>
</svg>
