<svg width="16" height="22" viewBox="0 0 16 22" fill="none" xmlns="http://www.w3.org/2000/svg">
<path d="M8 18C7.44772 18 7 18.4477 7 19V20H5C4.44772 20 4 20.4477 4 21C4 21.5523 4.44772 22 5 22H11C11.5523 22 12 21.5523 12 21C12 20.4477 11.5523 20 11 20H9V19C9 18.4477 8.55228 18 8 18Z" fill="#ABAFD1"/>
<path d="M0 11C0 10.4477 0.447715 10 1 10C1.55228 10 2 10.4477 2 11C2 13.6225 3.91221 17 8 17C12.0878 17 14 13.6225 14 11C14 10.4477 14.4477 10 15 10C15.5523 10 16 10.4477 16 11C16 14.3775 13.5122 19 8 19C2.48779 19 0 14.3775 0 11Z" fill="#767BFA"/>
<path fill-rule="evenodd" clip-rule="evenodd" d="M8 0C3.5 0 3 4.57143 3 8C3 11.4286 3.5 16 8 16C12.5 16 13 11.4286 13 8C13 4.57143 12.5 0 8 0ZM8 2C7.23085 2 6.77401 2.18876 6.47746 2.39912C6.16585 2.62016 5.88293 2.97167 5.64481 3.51592C5.13728 4.676 5 6.30888 5 8C5 9.69112 5.13728 11.324 5.64481 12.4841C5.88292 13.0283 6.16585 13.3798 6.47746 13.6009C6.77401 13.8112 7.23085 14 8 14C8.76915 14 9.22599 13.8112 9.52254 13.6009C9.83415 13.3798 10.1171 13.0283 10.3552 12.4841C10.8627 11.324 11 9.69112 11 8C11 6.30888 10.8627 4.676 10.3552 3.51592C10.1171 2.97167 9.83415 2.62016 9.52254 2.39912C9.22599 2.18876 8.76915 2 8 2Z" fill="#ABAFD1"/>
</svg>
