<svg width="18" height="22" viewBox="0 0 18 22" fill="none" xmlns="http://www.w3.org/2000/svg">
<path d="M9.20262 18.9439C9.20262 18.3812 9.65993 17.9251 10.2241 17.9251C10.7882 17.9251 11.2455 18.3812 11.2455 18.9439V19.9627C11.2455 20.5253 10.7882 20.9814 10.2241 20.9814C9.65993 20.9814 9.20262 20.5253 9.20262 19.9627V18.9439Z" fill="#ABAFD1"/>
<path d="M10 2.03755C9.2444 2.03755 8.80083 2.22315 8.51491 2.42658C8.21291 2.64147 7.93451 2.98621 7.69859 3.5271C7.19525 4.68111 7.05816 6.30897 7.05816 8C7.05816 9.01661 7.10771 10.0104 7.25659 10.8921C7.31505 11.2383 7.21637 11.5966 6.96816 11.8456L6.83927 11.9749C6.32016 12.4956 5.45298 12.3049 5.30808 11.5849C5.07029 10.4035 5.0153 9.13869 5.0153 8C5.0153 4.57143 5.51377 0 10 0C12.6691 0 13.9267 1.61819 14.5075 3.65112C14.5963 3.96194 14.4976 4.29304 14.2691 4.52222C13.7049 5.08818 12.722 4.73824 12.4729 3.97975C12.4211 3.82204 12.3641 3.67089 12.3014 3.5271C12.0655 2.98621 11.7871 2.64147 11.4851 2.42658C11.1992 2.22315 10.7556 2.03755 10 2.03755Z" fill="#ABAFD1"/>
<path d="M7.17389 13.5294C7.52534 13.1769 8.10915 13.2847 8.51491 13.5734C8.80083 13.7769 9.2444 13.9624 10 13.9624C10.7556 13.9624 11.1992 13.7769 11.4851 13.5734C11.7871 13.3585 12.0655 13.0138 12.3014 12.4729C12.8047 11.3189 12.9418 9.69104 12.9418 8C12.9418 7.83671 13.0057 7.67966 13.1212 7.56387L13.3582 7.32611C13.968 6.71443 14.9835 7.09145 14.9847 7.95405C14.9847 7.96939 14.9847 7.98471 14.9847 8C14.9847 11.4286 14.4862 16 10 16C8.65192 16 7.66392 15.5872 6.94132 14.9167C6.59576 14.5961 6.64546 14.0594 6.97826 13.7256L7.17389 13.5294Z" fill="#ABAFD1"/>
<path d="M4.29072 14.5313C4.61009 14.2109 4.67195 13.7217 4.5029 13.3026C4.19438 12.5376 4.04286 11.7394 4.04286 11C4.04286 10.4373 3.58555 9.98122 3.02143 9.98122C2.45731 9.98122 2 10.4373 2 11C2 12.0562 2.24258 13.2357 2.74463 14.3581C3.01106 14.9538 3.7857 15.0379 4.2468 14.5753L4.29072 14.5313Z" fill="#ABAFD1"/>
<path d="M4.85731 17.2183C4.44593 16.8673 4.46483 16.2468 4.84658 15.8639C5.26022 15.4489 5.93481 15.4772 6.40136 15.8319C7.32105 16.5311 8.5166 16.9812 10 16.9812C14.053 16.9812 15.9571 13.6212 15.9571 11C15.9571 10.4373 16.4145 9.98122 16.9786 9.98122C17.5427 9.98122 18 10.4373 18 11C18 14.3788 15.5176 19.0188 10 19.0188C7.82572 19.0188 6.12277 18.2983 4.85731 17.2183Z" fill="#ABAFD1"/>
<path d="M7.01487 20C6.46115 20 6.01227 20.4477 6.01227 21C6.01227 21.5523 6.46115 22 7.01487 22H12.9852C13.5389 22 13.9878 21.5523 13.9878 21C13.9878 20.4477 13.5389 20 12.9852 20H7.01487Z" fill="#ABAFD1"/>
<path d="M17.7017 0.298302C17.304 -0.0994335 16.6591 -0.0994345 16.2614 0.298301L0.298302 16.2614C0.248585 16.3111 0.205082 16.3647 0.167795 16.4211C-0.0932194 16.8165 -0.0497169 17.3537 0.298302 17.7017C0.696038 18.0994 1.34089 18.0994 1.73863 17.7017L17.7017 1.73863C18.0994 1.3409 18.0994 0.696038 17.7017 0.298302Z" fill="#767BFA"/>
</svg>
