<svg width="24" height="24" viewBox="0 0 24 24" fill="none" xmlns="http://www.w3.org/2000/svg">
<path d="M21.7071 3.70711C22.0976 3.31658 22.0976 2.68342 21.7071 2.29289C21.3166 1.90237 20.6834 1.90237 20.2929 2.29289L18 4.58579L15.7071 2.29289C15.3166 1.90237 14.6834 1.90237 14.2929 2.29289C13.9024 2.68342 13.9024 3.31658 14.2929 3.70711L16.5858 6L14.2929 8.29289C13.9024 8.68342 13.9024 9.31658 14.2929 9.70711C14.6834 10.0976 15.3166 10.0976 15.7071 9.70711L18 7.41421L20.2929 9.70711C20.6834 10.0976 21.3166 10.0976 21.7071 9.70711C22.0976 9.31658 22.0976 8.68342 21.7071 8.29289L19.4142 6L21.7071 3.70711Z" fill="#767BFA"/>
<path fill-rule="evenodd" clip-rule="evenodd" d="M2.3467 1.38886C3.09776 0.749045 4.2605 -0.0402024 5.51529 0.00159241L5.55209 0.00281794L5.58869 0.00674577C6.28445 0.0814019 6.91607 0.428643 7.45726 0.951291L7.46063 0.954547C7.83114 1.31574 8.48512 2.07994 9.05371 2.82085C9.34182 3.19629 9.62342 3.58564 9.84637 3.93423C9.95761 4.10816 10.0617 4.2835 10.1463 4.4496C10.2226 4.5994 10.3142 4.80082 10.3591 5.01531C10.5957 6.11406 10.0998 6.9795 9.82087 7.46643C9.80996 7.48548 9.79938 7.50395 9.78918 7.52183L9.76619 7.56218C9.68505 7.70237 9.58154 7.85878 9.49168 7.99459L9.48175 8.0096C9.29275 8.29531 9.12849 8.54722 9.02345 8.77187C8.99316 8.83666 8.97437 8.88582 8.96306 8.92065C9.34391 9.82239 9.87782 10.7159 10.5245 11.552C11.3037 12.4808 12.5028 13.633 13.1125 14.0624C13.7296 14.4972 14.3669 14.8611 15.0145 15.141C15.0549 15.1292 15.1138 15.1077 15.1932 15.0711C15.4292 14.962 15.6906 14.7932 15.9781 14.6051L15.9914 14.5963C16.118 14.5135 16.2615 14.4196 16.3895 14.345L16.3965 14.3409L16.4377 14.3178C16.4549 14.3081 16.4726 14.2982 16.4908 14.2879C16.986 14.0086 17.8508 13.5208 18.9601 13.7534L18.9626 13.7539L18.9577 13.7529L18.9601 13.7534C19.1712 13.7971 19.3711 13.8862 19.5208 13.9608C19.6856 14.043 19.8602 14.1442 20.0342 14.2526C20.3828 14.4699 20.7734 14.7444 21.1509 15.026C21.8922 15.5789 22.663 16.219 23.0314 16.5906L23.0283 16.5875L23.0347 16.5939L23.0314 16.5906C23.5557 17.112 23.9374 17.7538 23.9954 18.5024L23.9968 18.5202L23.9976 18.538C24.0489 19.7696 23.2801 20.9007 22.6475 21.6362C22.0063 22.3817 21.2741 22.9823 20.8913 23.2241C20.7945 23.2853 20.959 23.1757 20.8913 23.2241C19.3696 24.3125 17.4668 24.1789 15.5156 23.3008C15.4694 23.28 15.555 23.3169 15.5156 23.3008C13.4294 22.4509 11.0258 20.7204 8.77083 18.7003C7.9658 17.9791 6.41487 16.459 5.92644 15.8999C5.92974 15.9035 5.93303 15.9071 5.93633 15.9106L5.91574 15.8876C5.91925 15.8917 5.92282 15.8958 5.92644 15.8999C3.65177 13.4342 1.67417 10.726 0.715268 8.45575C0.693975 8.40533 0.735008 8.49782 0.715268 8.45575C0.252412 7.46918 0 6.50087 0 5.58592C0 4.67433 0.257777 3.83383 0.7689 3.10822C0.757812 3.12615 0.747458 3.14351 0.737888 3.16024L0.794312 3.07253C0.785773 3.08439 0.777302 3.09629 0.7689 3.10822C0.888768 2.91438 1.09451 2.65384 1.3243 2.39405C1.59159 2.09185 1.94217 1.73348 2.3467 1.38886ZM14.9606 15.1534L14.9633 15.1531L14.9606 15.1534ZM8.94813 8.97852L8.94843 8.97619L8.94813 8.97852ZM2.47538 4.15132C2.47353 4.15409 2.47408 4.15303 2.47408 4.15303L2.44816 4.19836L2.41766 4.24074C2.14529 4.61923 2 5.05985 2 5.58591C2 6.14024 2.15585 6.82208 2.53323 7.62184L2.54242 7.64132L2.55076 7.66117C3.37728 9.62798 5.18645 12.1498 7.40589 14.554L7.41636 14.5654L7.42647 14.577C7.82276 15.0338 9.32011 16.5072 10.1053 17.2106C12.3029 19.1793 14.511 20.7357 16.2851 21.4547L16.3036 21.4621L16.3217 21.4703C17.9633 22.2129 19.0359 22.102 19.7452 21.5848L19.7802 21.5593L19.8173 21.5369C19.9732 21.4427 20.5777 20.9756 21.1312 20.3321C21.7073 19.6623 22.0073 19.0541 21.9999 18.6405C21.9847 18.5043 21.905 18.2905 21.6194 18.007L21.613 18.0006C21.3513 17.7362 20.6724 17.1641 19.9552 16.6292C19.6024 16.366 19.2605 16.127 18.9763 15.9499C18.8339 15.8612 18.7171 15.7949 18.6281 15.7505C18.573 15.7231 18.5429 15.7112 18.5337 15.7076C18.2164 15.6464 17.9561 15.7589 17.417 16.0616L17.39 16.0768C17.3131 16.122 17.214 16.1865 17.0732 16.2786L17.0506 16.2934C16.7899 16.4641 16.4145 16.7099 16.0324 16.8865C15.6956 17.0422 15.0582 17.2908 14.4138 17.0571L14.3925 17.0493L14.3716 17.0407C13.5296 16.6914 12.7222 16.2339 11.9607 15.6975C11.1557 15.1305 9.82142 13.8288 8.97855 12.8211L8.96674 12.807L8.95546 12.7924C8.17591 11.7874 7.52108 10.6874 7.05838 9.54851L7.053 9.53527L7.04801 9.52188C6.80882 8.88126 7.05954 8.25021 7.21172 7.92474C7.38532 7.55347 7.62786 7.18697 7.79822 6.92954C7.80345 6.92165 7.80861 6.91385 7.81369 6.90616C7.91591 6.75163 7.98605 6.64492 8.0337 6.56289L8.05163 6.53142C8.36065 5.98929 8.46533 5.74118 8.40645 5.44829C8.40277 5.43915 8.39104 5.41006 8.36419 5.35736C8.31937 5.26936 8.25214 5.15354 8.16151 5.01184C7.98071 4.72915 7.73635 4.38935 7.46707 4.03847C6.92202 3.32824 6.33677 2.65249 6.06624 2.38833C5.78451 2.11674 5.56059 2.02489 5.40985 2.00004C4.96251 2.00448 4.3247 2.33115 3.64366 2.91132C3.32215 3.18521 3.03816 3.47514 2.82238 3.7191C2.71486 3.84065 2.62767 3.94696 2.56386 4.02982C2.50843 4.10179 2.4821 4.14125 2.47538 4.15132Z" fill="#ABAFD1"/>
</svg>
