<svg width="24" height="24" viewBox="0 0 24 24" fill="none" xmlns="http://www.w3.org/2000/svg">
<path fill-rule="evenodd" clip-rule="evenodd" d="M3.18408 5.57802C2.86485 5.12735 2.97141 4.50321 3.42208 4.18398L3.42355 4.18294L3.42583 4.18133L3.43278 4.17645L3.45581 4.16043C3.47506 4.14712 3.50199 4.12867 3.53532 4.10628C3.60171 4.06168 3.69488 4.00051 3.80416 3.93276C4.01209 3.80384 4.31962 3.62514 4.62505 3.50157C5.37293 3.19899 5.99114 3 7.0001 3C8.00907 3 8.62728 3.19899 9.37516 3.50157C9.68059 3.62514 9.98812 3.80384 10.1961 3.93276C10.3053 4.00051 10.3985 4.06168 10.4649 4.10628C10.4982 4.12867 10.5252 4.14712 10.5444 4.16043L10.5674 4.17645L10.5744 4.18133L10.5775 4.18353C11.0282 4.50277 11.1354 5.12735 10.8161 5.57802C10.497 6.02851 9.87328 6.13516 9.42265 5.81642L9.42022 5.81472L9.40685 5.80542C9.39429 5.79674 9.3748 5.78337 9.3496 5.76644C9.29891 5.73239 9.22659 5.6849 9.14221 5.63259C8.96284 5.52138 8.77036 5.41436 8.62505 5.35557C8.01134 5.10728 7.65946 5 7.0001 5C6.34075 5 5.98887 5.10728 5.37516 5.35557C5.22985 5.41437 5.03737 5.52138 4.858 5.63259C4.77362 5.6849 4.7013 5.73239 4.65061 5.76644C4.62541 5.78337 4.60592 5.79674 4.59336 5.80542L4.57999 5.81472L4.57813 5.81602M3.18408 5.57802C3.50327 6.02863 4.12747 6.13508 4.57813 5.81602L3.18408 5.57802ZM0.168893 3.55596C-0.138153 3.09689 -0.0149168 2.47583 0.444149 2.16879L0.449065 2.16551L0.460655 2.1578L0.502756 2.13001C0.538851 2.10627 0.590607 2.07246 0.655014 2.03098C0.783595 1.94816 0.963807 1.83398 1.17134 1.70791C1.57527 1.46253 2.12383 1.14677 2.60288 0.939421C4.17614 0.258457 5.17657 7.97094e-08 7.0001 0C8.82364 -7.97089e-08 9.82407 0.258457 11.3973 0.93942C11.8764 1.14677 12.4249 1.46253 12.8289 1.70791C13.0364 1.83398 13.2166 1.94816 13.3452 2.03097C13.4096 2.07246 13.4614 2.10627 13.4975 2.13001L13.5396 2.1578L13.5511 2.16551L13.5555 2.16839C14.0145 2.47544 14.1384 3.09689 13.8313 3.55596C13.5243 4.01499 12.9033 4.13824 12.4442 3.83126L12.4423 3.82996L12.4339 3.82438L12.3986 3.80109C12.3672 3.78047 12.3208 3.75012 12.2622 3.71238C12.1448 3.63675 11.9798 3.53221 11.7905 3.41723C11.4008 3.18051 10.9494 2.92485 10.6029 2.77486C9.24391 2.18665 8.51321 2 7.0001 2C5.487 2 4.7563 2.18665 3.39733 2.77486C3.05082 2.92485 2.59938 3.18052 2.2097 3.41723C2.02043 3.53221 1.85543 3.63675 1.73801 3.71238C1.67941 3.75012 1.63296 3.78047 1.60161 3.80109L1.56634 3.82438L1.55793 3.82996L1.55616 3.83114M0.168893 3.55596C0.475922 4.015 1.09711 4.13812 1.55616 3.83114L0.168893 3.55596Z" fill="#767BFA"/>
<path d="M6.00012 17C5.44784 17 5.00012 17.4477 5.00012 18C5.00012 18.5523 5.44784 19 6.00012 19H7.00012C7.55241 19 8.00012 18.5523 8.00012 18C8.00012 17.4477 7.55241 17 7.00012 17H6.00012Z" fill="#767BFA"/>
<path d="M10.0001 17C9.44784 17 9.00012 17.4477 9.00012 18C9.00012 18.5523 9.44784 19 10.0001 19H18.0001C18.5524 19 19.0001 18.5523 19.0001 18C19.0001 17.4477 18.5524 17 18.0001 17H10.0001Z" fill="#767BFA"/>
<path fill-rule="evenodd" clip-rule="evenodd" d="M8.00012 13L7.99997 13.0177C9.16607 13 10.4928 13 12.0001 13C13.5075 13 14.8342 13 16.0003 13.0177C16.0002 13.0118 16.0001 13.0059 16.0001 13V11C16.0001 10.4477 16.4478 10 17.0001 10C17.5524 10 18.0001 10.4477 18.0001 11V13C18.0001 13.0255 17.9992 13.0508 17.9973 13.0759C22.801 13.3064 24.0001 14.2378 24.0001 18C24.0001 21.1724 23.1475 22.332 20.0001 22.7558V23C20.0001 23.5523 19.5524 24 19.0001 24C18.4478 24 18.0001 23.5523 18.0001 23V22.924C16.4193 23 14.4479 23 12.0001 23C9.55237 23 7.58097 23 6.00012 22.924V23C6.00012 23.5523 5.55241 24 5.00012 24C4.44784 24 4.00012 23.5523 4.00012 23V22.7558C0.852755 22.332 0.00012207 21.1724 0.00012207 18C0.00012207 14.2378 1.19929 13.3064 6.00295 13.0759C6.00108 13.0508 6.00012 13.0255 6.00012 13L6.00012 7C6.00012 6.44772 6.44784 6 7.00012 6C7.55241 6 8.00012 6.44772 8.00012 7L8.00012 13ZM2.00012 18C2.00012 19.1678 2.13525 19.7192 2.27289 19.9933C2.34951 20.146 2.4638 20.3133 2.96205 20.4897C3.55431 20.6995 4.4998 20.8478 6.05442 20.9243C7.5823 20.9994 9.51083 21 12.0001 21C14.4894 21 16.4179 20.9994 17.9458 20.9243C19.5004 20.8478 20.4459 20.6995 21.0382 20.4897C21.5364 20.3133 21.6507 20.146 21.7274 19.9933C21.865 19.7192 22.0001 19.1678 22.0001 18C22.0001 16.8322 21.865 16.2808 21.7274 16.0067C21.6507 15.854 21.5364 15.6867 21.0382 15.5103C20.4459 15.3005 19.5004 15.1522 17.9458 15.0757C16.4179 15.0006 14.4894 15 12.0001 15C9.51083 15 7.5823 15.0006 6.05442 15.0757C4.4998 15.1522 3.55431 15.3005 2.96205 15.5103C2.4638 15.6867 2.34951 15.854 2.27289 16.0067C2.13525 16.2808 2.00012 16.8322 2.00012 18Z" fill="#ABAFD1"/>
</svg>
