<svg width="24" height="25" viewBox="0 0 24 25" fill="none" xmlns="http://www.w3.org/2000/svg">
<path fill-rule="evenodd" clip-rule="evenodd" d="M10.8023 1.59694C11.051 1.26266 11.0664 0.809205 10.8409 0.45885C10.6154 0.108494 10.1963 -0.0653373 9.78904 0.0225601C4.12084 1.24587 0 6.52234 0 12.4885C0 19.3971 5.60055 24.9976 12.5092 24.9976C17.7126 24.9976 22.0366 21.8967 23.9226 17.3858C24.0834 17.0012 23.9887 16.5571 23.685 16.2715C23.3813 15.9859 22.9322 15.9187 22.5582 16.1029C21.3123 16.7165 20.0255 16.9995 18.4995 16.9995C13.2528 16.9995 8.99948 12.7462 8.99948 7.49947C8.99948 5.3312 9.65055 3.14512 10.8023 1.59694ZM2 12.4885C2 8.29748 4.39604 4.54928 7.88021 2.80088C7.29709 4.27711 6.99948 5.90801 6.99948 7.49947C6.99948 13.8507 12.1482 18.9995 18.4995 18.9995C19.3252 18.9995 20.1076 18.928 20.8622 18.7769C18.982 21.3596 15.9826 22.9976 12.5092 22.9976C6.70512 22.9976 2 18.2925 2 12.4885Z" fill="#ABAFD1"/>
<path fill-rule="evenodd" clip-rule="evenodd" d="M19.5942 2.42718C19.0465 0.947126 16.9531 0.947125 16.4055 2.42718L15.601 4.60124L13.4269 5.40571C11.9469 5.95338 11.9469 8.04674 13.4269 8.59441L15.601 9.39888L16.4055 11.5729C16.9531 13.053 19.0465 13.053 19.5942 11.5729L20.3986 9.39888L22.5727 8.59441C24.0527 8.04674 24.0527 5.95338 22.5727 5.40571L20.3986 4.60124L19.5942 2.42718ZM17.4288 5.42468L17.9998 3.8816L18.5708 5.42468C18.743 5.89 19.1099 6.25688 19.5752 6.42907L21.1183 7.00006L19.5752 7.57105C19.1099 7.74323 18.743 8.11011 18.5708 8.57544L17.9998 10.1185L17.4288 8.57544C17.2566 8.11012 16.8898 7.74324 16.4244 7.57105L14.8814 7.00006L16.4244 6.42907C16.8898 6.25688 17.2566 5.89001 17.4288 5.42468Z" fill="#767BFA"/>
</svg>
