<svg width="24" height="25" viewBox="0 0 24 25" fill="none" xmlns="http://www.w3.org/2000/svg">
<path fill-rule="evenodd" clip-rule="evenodd" d="M23.923 17.2382C24.0829 16.8498 23.9888 16.4015 23.6867 16.1131C23.3846 15.8247 22.938 15.7569 22.5661 15.9429C21.3101 16.5709 19.8961 16.9241 18.3981 16.9241C13.1801 16.9241 8.95016 12.6295 8.95016 7.33176C8.95016 5.18705 9.64224 3.20939 10.8124 1.61247C11.0597 1.27493 11.075 0.81707 10.8508 0.46331C10.6265 0.109549 10.2097 -0.0659724 9.80466 0.0227794C4.2002 1.25082 2.60834e-07 6.31085 0 12.3692C-3.00331e-07 19.345 5.56986 25 12.4406 25C17.6133 25 22.0464 21.795 23.923 17.2382ZM18.3981 18.9435C19.238 18.9435 20.0573 18.8515 20.8466 18.6766C18.942 21.2886 15.8852 22.9806 12.4406 22.9806C6.66837 22.9806 1.98904 18.2297 1.98904 12.3692C1.98904 8.18091 4.37972 4.55789 7.85166 2.83247C7.27816 4.21659 6.96112 5.73714 6.96112 7.33176C6.96112 13.7448 12.0816 18.9435 18.3981 18.9435Z" fill="#ABAFD1"/>
</svg>
