<svg width="16" height="22" viewBox="0 0 16 22" fill="none" xmlns="http://www.w3.org/2000/svg">
<path d="M8 5C7.44772 5 7 5.44772 7 6V8C7 8.55228 7.44772 9 8 9C8.55228 9 9 8.55228 9 8V6C9 5.44772 8.55228 5 8 5Z" fill="#767BFA"/>
<path fill-rule="evenodd" clip-rule="evenodd" d="M0 11C0 19 2 22 8 22C14 22 16 19 16 11C16 3 14 0 8 0C2 0 0 3 0 11ZM2 11C2 14.9536 2.52061 17.1379 3.37747 18.3375C4.09494 19.342 5.31737 20 8 20C10.6826 20 11.9051 19.342 12.6225 18.3375C13.4794 17.1379 14 14.9536 14 11C14 7.04638 13.4794 4.86208 12.6225 3.66248C11.9051 2.65802 10.6826 2 8 2C5.31737 2 4.09494 2.65802 3.37747 3.66248C2.52061 4.86208 2 7.04638 2 11Z" fill="#ABAFD1"/>
</svg>
