<svg width="22" height="21" viewBox="0 0 22 21" fill="none" xmlns="http://www.w3.org/2000/svg">
<path d="M18.3724 3.64921C18.6304 3.39354 18.7234 3.01014 18.5804 2.67624C17.8607 0.995997 16.7303 0 15.0275 0C13.3792 0 12.6963 0.933317 11.9527 1.94964C11.0638 3.16437 10.0882 4.49769 7.27378 4.49769C2.1046 4.49769 0 6.90323 0 10.5015C0 13.5768 1.15971 15.7766 5.04655 16.351C5.32898 16.3927 5.61309 16.292 5.8159 16.091L7.3165 14.6041C7.35543 14.5655 7.32856 14.4994 7.27376 14.4994C4.65172 14.4994 3.44868 13.9367 2.88031 13.3981C2.34361 12.8895 2 12.0459 2 10.5015C2 9.09476 2.39971 8.20771 3.03364 7.63929C3.70464 7.03761 4.96539 6.49769 7.27378 6.49769C8.87442 6.49769 10.1542 6.1439 11.2039 5.49915C12.2247 4.87222 12.8779 4.05691 13.3345 3.44581C13.4455 3.29712 13.5414 3.167 13.6261 3.05205C13.9412 2.62433 14.1017 2.40637 14.3168 2.22226C14.4574 2.10201 14.613 2 15.0275 2C15.4781 2 15.7564 2.12535 15.9849 2.31975C16.2516 2.54668 16.5595 2.9672 16.8405 3.70827C17.0228 4.18934 17.6468 4.36816 18.0123 4.00605L18.3724 3.64921Z" fill="#ABAFD1"/>
<path d="M9.65555 15.26C9.89085 15.0268 10.2379 14.9382 10.545 15.0623C10.8451 15.1835 11.1284 15.3238 11.3962 15.4828C12.4765 16.1241 13.1264 16.9669 13.5729 17.6148C13.7329 17.8469 13.8548 18.0302 13.954 18.1793C14.1784 18.5164 14.2862 18.6783 14.4534 18.8343L14.4587 18.8393C14.5338 18.9095 14.6305 19 15.0275 19C15.4784 19 15.7569 18.8746 15.9853 18.6804C16.2518 18.4537 16.5597 18.0335 16.8406 17.293C17.4168 15.7735 17.6798 13.4523 17.6798 10.5015C17.6798 9.57422 17.6538 8.70906 17.6003 7.91136C17.5796 7.60239 17.6906 7.29828 17.9106 7.08033C18.5172 6.47925 19.5291 6.82284 19.589 7.67472C19.6518 8.56736 19.6798 9.51404 19.6798 10.5015C19.6798 16.5053 18.646 21 15.0275 21C13.4219 21 12.8341 20.1138 12.1802 19.1279C11.6853 18.3818 11.1526 17.5787 10.1123 17.0592C9.44414 16.7255 9.125 15.7856 9.65555 15.26Z" fill="#ABAFD1"/>
<path d="M21.6997 0.297531C21.3056 -0.092993 20.6666 -0.0929918 20.2725 0.297533L2.73212 17.6776C2.48579 17.9217 2.39342 18.2606 2.455 18.5757C2.49195 18.7648 2.58432 18.9454 2.73212 19.0918C3.12624 19.4824 3.76525 19.4824 4.15937 19.0918L21.6997 1.71175C22.0939 1.32122 22.0939 0.688056 21.6997 0.297531Z" fill="#767BFA"/>
</svg>
