<svg width="24" height="24" viewBox="0 0 24 24" fill="none" xmlns="http://www.w3.org/2000/svg">
<path fill-rule="evenodd" clip-rule="evenodd" d="M23.9427 3.75513C23.8567 2.98287 23.6308 1.91963 22.8783 1.15493C22.1163 0.380645 21.0464 0.147105 20.273 0.0587667C19.4116 -0.039609 18.4257 -0.00695612 17.4141 0.100985C15.3793 0.318112 12.9534 0.872277 10.6161 1.60881C8.27996 2.34496 5.93744 3.29317 4.08789 4.33958C3.16612 4.86109 2.30772 5.43994 1.62518 6.07071C0.977038 6.66971 0.293379 7.49233 0.0660425 8.53189L2.59669 7.81849L2.59543 7.81988L0.065768 8.53314C-0.100592 9.29443 0.0771142 9.99074 0.282593 10.4906C0.495238 11.0078 0.807154 11.486 1.13723 11.9036C1.79878 12.7405 2.70053 13.5437 3.64147 14.1913C4.57349 14.8328 5.67036 15.4088 6.75606 15.6811C7.17562 15.7864 7.69967 15.8694 8.25308 15.8427C8.23297 16.3493 8.30493 16.8264 8.39633 17.2117C8.6436 18.2539 9.1756 19.3081 9.76299 20.2081C10.3581 21.1198 11.0892 21.9941 11.8391 22.6606C12.2133 22.993 12.6327 23.3102 13.0796 23.5505C13.4976 23.7754 14.1098 24.0259 14.8185 23.9978L14.8319 23.9973C14.9021 23.9948 15.1011 23.9874 15.3054 23.9539L15.3113 23.9529C16.3965 23.771 17.2571 23.1007 17.8809 22.4544C18.5337 21.7779 19.126 20.92 19.6549 20.0003C20.7163 18.1545 21.6673 15.8038 22.4017 13.4587C23.137 11.1105 23.6856 8.67067 23.9002 6.62371C24.007 5.60577 24.0387 4.61707 23.9427 3.75513ZM21.4949 2.49103L2.59669 7.81849C5.81732 4.26175 19.4395 0.452043 21.4949 2.49103ZM21.4949 2.49103L2.59543 7.81988C2.25233 8.19911 2.02751 8.57544 1.9476 8.9415C1.52651 10.8643 7.40507 15.2754 9.14217 13.5281L11.9687 10.679C12.3872 10.258 12.9667 10.3111 13.3602 10.6999C13.7536 11.0887 13.812 11.6661 13.3935 12.087L10.5593 14.9439C8.90676 16.606 12.9986 22.1482 14.7421 22.0792C14.822 22.076 14.9119 22.0725 14.9921 22.0593C18.9255 21.4001 23.7448 4.77728 21.5035 2.4997C21.5007 2.4968 21.4978 2.49391 21.4949 2.49103Z" fill="#ABAFD1"/>
<rect width="2.02848" height="6.39758" rx="1.01424" transform="matrix(0.733802 0.679363 -0.699552 0.714582 12.6359 9.96289)" fill="#767BFA"/>
</svg>
