<svg width="24" height="24" viewBox="0 0 24 24" fill="none" xmlns="http://www.w3.org/2000/svg">
<path fill-rule="evenodd" clip-rule="evenodd" d="M0 12C0 21.882 2.118 24 12 24C21.882 24 24 21.882 24 12C24 2.118 21.882 0 12 0C2.118 0 0 2.118 0 12ZM2 12C2 14.4249 2.13254 16.2369 2.43771 17.6101C2.73783 18.9605 3.17768 19.7608 3.70846 20.2915C4.23924 20.8223 5.03949 21.2622 6.38993 21.5623C7.76307 21.8675 9.57515 22 12 22C14.4249 22 16.2369 21.8675 17.6101 21.5623C18.9605 21.2622 19.7608 20.8223 20.2915 20.2915C20.8223 19.7608 21.2622 18.9605 21.5623 17.6101C21.8675 16.2369 22 14.4249 22 12C22 9.57515 21.8675 7.76307 21.5623 6.38993C21.2622 5.03949 20.8223 4.23924 20.2915 3.70846C19.7608 3.17768 18.9605 2.73783 17.6101 2.43771C16.2369 2.13254 14.4249 2 12 2C9.57515 2 7.76307 2.13254 6.38993 2.43771C5.03949 2.73783 4.23924 3.17768 3.70846 3.70846C3.17768 4.23924 2.73783 5.03949 2.43771 6.38993C2.13254 7.76307 2 9.57515 2 12Z" fill="#ABAFD1"/>
<path d="M16.8602 15.4969C17.2967 15.2212 17.7983 14.9043 18.1732 14.5783C18.6099 14.1985 19.2454 13.4924 19.2454 12.4002C19.2454 11.308 18.6099 10.6019 18.1732 10.2221C17.7983 9.89604 17.2967 9.57923 16.8602 9.30349L15.5354 8.46558C15.1022 8.19117 14.5979 7.87166 14.1455 7.67588C13.6416 7.45783 12.6044 7.13067 11.5609 7.79069C10.7967 8.27401 10.5041 8.99743 10.3808 9.52861L9.40498 8.91131C9.06604 8.69646 8.63636 8.42409 8.244 8.25429C7.80102 8.06258 6.80867 7.73949 5.80362 8.37518C4.86938 8.96609 4.67995 9.92578 4.62159 10.3564C4.5644 10.7784 4.56471 11.2906 4.56498 11.7295V13.0724C4.56471 13.5113 4.5644 14.0234 4.62159 14.4454C4.67995 14.8761 4.86938 15.8358 5.80362 16.4267C6.80867 17.0624 7.80102 16.7393 8.244 16.5476C8.63635 16.3778 9.06602 16.1054 9.40496 15.8906L10.3811 15.2731C10.5046 15.8041 10.7974 16.5268 11.5609 17.0097C12.6044 17.6697 13.6416 17.3426 14.1455 17.1245C14.5979 16.9287 15.1022 16.6092 15.5354 16.3348L16.8602 15.4969ZM10.2454 12.9466C10.0403 13.1222 9.73663 13.3142 9.33435 13.5687L8.41124 14.1525C7.5907 14.6715 7.18042 14.931 6.87272 14.7364C6.56501 14.5418 6.56501 14.0228 6.56501 12.9848V11.8171C6.56501 10.7791 6.56501 10.2601 6.87272 10.0655C7.18042 9.87083 7.59069 10.1303 8.41124 10.6493L9.33435 11.2332C9.73663 11.4876 10.0403 11.6797 10.2454 11.8553V12.9466ZM15.7069 10.9406C16.7325 11.5893 17.2454 11.9137 17.2454 12.4002C17.2454 12.8867 16.7325 13.2111 15.7069 13.8598L14.5531 14.5896C13.5274 15.2383 13.0146 15.5627 12.63 15.3194C12.2454 15.0762 12.2454 14.4274 12.2454 13.13V13.13V11.6704V11.6704C12.2454 10.373 12.2454 9.72423 12.63 9.48097C13.0146 9.2377 13.5274 9.56206 14.5531 10.2108L15.7069 10.9406Z" fill="#767BFA"/>
<path d="M16.8602 15.4969C17.2967 15.2212 17.7983 14.9043 18.1732 14.5783C18.6099 14.1985 19.2454 13.4924 19.2454 12.4002C19.2454 11.308 18.6099 10.6019 18.1732 10.2221C17.7983 9.89604 17.2967 9.57923 16.8602 9.30349L15.5354 8.46558C15.1022 8.19117 14.5979 7.87166 14.1455 7.67588C13.6416 7.45783 12.6044 7.13067 11.5609 7.79069C10.7967 8.27401 10.5041 8.99743 10.3808 9.52861L9.40498 8.91131C9.06604 8.69646 8.63636 8.42409 8.244 8.25429C7.80102 8.06258 6.80867 7.73949 5.80362 8.37518C4.86938 8.96609 4.67995 9.92578 4.62159 10.3564C4.5644 10.7784 4.56471 11.2906 4.56498 11.7295V13.0724C4.56471 13.5113 4.5644 14.0234 4.62159 14.4454C4.67995 14.8761 4.86938 15.8358 5.80362 16.4267C6.80867 17.0624 7.80102 16.7393 8.244 16.5476C8.63635 16.3778 9.06602 16.1054 9.40496 15.8906L10.3811 15.2731C10.5046 15.8041 10.7974 16.5268 11.5609 17.0097C12.6044 17.6697 13.6416 17.3426 14.1455 17.1245C14.5979 16.9287 15.1022 16.6092 15.5354 16.3348L16.8602 15.4969ZM10.2454 12.9466C10.0403 13.1222 9.73663 13.3142 9.33435 13.5687L8.41124 14.1525C7.5907 14.6715 7.18042 14.931 6.87272 14.7364C6.56501 14.5418 6.56501 14.0228 6.56501 12.9848V11.8171C6.56501 10.7791 6.56501 10.2601 6.87272 10.0655C7.18042 9.87083 7.59069 10.1303 8.41124 10.6493L9.33435 11.2332C9.73663 11.4876 10.0403 11.6797 10.2454 11.8553V12.9466ZM15.7069 10.9406C16.7325 11.5893 17.2454 11.9137 17.2454 12.4002C17.2454 12.8867 16.7325 13.2111 15.7069 13.8598L14.5531 14.5896C13.5274 15.2383 13.0146 15.5627 12.63 15.3194C12.2454 15.0762 12.2454 14.4274 12.2454 13.13V13.13V11.6704V11.6704C12.2454 10.373 12.2454 9.72423 12.63 9.48097C13.0146 9.2377 13.5274 9.56206 14.5531 10.2108L15.7069 10.9406Z" stroke="#767BFA"/>
</svg>
