<svg width="20" height="24" viewBox="0 0 20 24" fill="none" xmlns="http://www.w3.org/2000/svg">
<path d="M10.9713 1.07446C10.9721 1.05685 10.9726 1.03911 10.9726 1.02127C10.9726 0.45724 10.5249 0 9.9726 0C9.42032 0 8.97261 0.45724 8.97261 1.02127C8.97261 1.03913 8.97306 1.05687 8.97395 1.0745C9.21262 1.03937 9.45229 1.02127 9.69173 1.02127H10.2537C10.4931 1.02127 10.7327 1.03935 10.9713 1.07446Z" fill="#767BFA"/>
<path d="M6.40005 20.6298C5.95823 20.9682 5.86869 21.6084 6.20006 22.0596C8.10003 24.6468 11.9 24.6468 13.7999 22.0596C14.1313 21.6084 14.0418 20.9682 13.5999 20.6298C13.1581 20.2914 12.5313 20.3828 12.2 20.834C11.1 22.3319 8.90002 22.3319 7.80003 20.834C7.46867 20.3828 6.84187 20.2914 6.40005 20.6298Z" fill="#767BFA"/>
<path fill-rule="evenodd" clip-rule="evenodd" d="M20 14.7925C20.0002 16.5 19.0002 17.5 17.532 17.9719C17.532 17.9719 14.8429 19 10.0001 19C5.15739 19 2.4683 17.9719 2.4683 17.9719C1.00001 17.5 0.000253188 16.5484 0.000253188 14.7925C-0.0165819 13.5396 0.809054 12.845 1.60517 12.1752C2.44768 11.4664 3.25713 10.7854 3.00005 9.5C2.4683 5 6.12138 1 9.71912 1H10.2811C13.8789 1 17.532 5 17.0002 9.5C16.743 10.7861 17.5442 11.4609 18.383 12.1672C19.1747 12.8339 19.9998 13.5288 20 14.7925ZM4.42771 12.088C4.93433 11.287 5.17843 10.317 4.97921 9.20278C4.80686 7.5846 5.3713 6.0193 6.35016 4.83963C7.36228 3.61987 8.6503 3 9.71912 3H10.2811C11.35 3 12.638 3.61987 13.6501 4.83963C14.6289 6.01928 15.1934 7.58455 15.0211 9.2027C14.8228 10.3108 15.0604 11.2779 15.5647 12.0801C16.0023 12.7762 16.6175 13.2948 16.9944 13.6125L17.0229 13.6365C17.97 14.4354 18 14.5596 18 14.7927C18.0001 15.2288 17.8834 15.4409 17.7775 15.5684C17.6501 15.722 17.3987 15.914 16.92 16.0679L16.8684 16.0844L16.8252 16.1009L16.822 16.1021C16.8132 16.1053 16.7943 16.112 16.7653 16.1218C16.7073 16.1415 16.6091 16.1734 16.4719 16.2138C16.1974 16.2945 15.7666 16.4088 15.1876 16.5252C14.0301 16.7581 12.2794 17 10.0001 17C7.72086 17 5.97019 16.7581 4.81263 16.5252C4.23369 16.4088 3.80287 16.2945 3.52836 16.2138C3.39111 16.1734 3.29297 16.1415 3.23497 16.1218C3.23135 16.1206 3.22788 16.1194 3.22457 16.1183C3.20139 16.1104 3.18592 16.1049 3.17823 16.1021L3.17509 16.101L3.13188 16.0844L3.08028 16.0678C2.57899 15.9067 2.33382 15.7188 2.21549 15.5778C2.12294 15.4676 2.00025 15.2637 2.00025 14.7925V14.779L2.00007 14.7656C1.9974 14.5665 2.00237 14.4559 2.96343 13.6461L2.9923 13.6218C3.37109 13.3028 3.98794 12.7834 4.42771 12.088Z" fill="#ABAFD1"/>
</svg>
