<svg width="28" height="26" viewBox="0 0 28 26" fill="none" xmlns="http://www.w3.org/2000/svg">
<path d="M28 10.8833C28 11.4297 27.5447 11.8727 26.9831 11.8727C26.4215 11.8727 25.9663 11.4297 25.9663 10.8833C25.9663 8.13994 25.0309 5.93072 23.4678 4.40981C21.9047 2.8889 19.6342 1.97878 16.8148 1.97878C16.2532 1.97878 15.798 1.53581 15.798 0.989388C15.798 0.442964 16.2532 0 16.8148 0C20.0964 0 22.91 1.06865 24.9058 3.0106C26.9017 4.95255 28 7.69027 28 10.8833Z" fill="#767BFA"/>
<path d="M23.9326 10.8833C23.9326 11.4297 23.4774 11.8727 22.9158 11.8727C22.3542 11.8727 21.899 11.4297 21.899 10.8833C21.899 7.96684 19.8121 5.93633 16.8148 5.93633C16.2532 5.93633 15.798 5.49337 15.798 4.94694C15.798 4.40052 16.2532 3.95755 16.8148 3.95755C20.9353 3.95755 23.9326 6.87399 23.9326 10.8833Z" fill="#767BFA"/>
<path fill-rule="evenodd" clip-rule="evenodd" d="M19.7782 15.0314C20.2144 16.6667 19.4855 17.8728 18.1608 18.6895C18.1608 18.6895 15.7766 20.3422 11.0101 21.5453C6.2436 22.7484 3.33436 22.4319 3.33436 22.4319C1.76869 22.3447 0.541715 21.6817 0.0933719 20.0001C-0.243087 18.8044 0.392197 17.934 1.00477 17.0948C1.65303 16.2067 2.27586 15.3534 1.69464 14.1863C0.0222972 10.0088 2.59656 5.27046 6.13765 4.37666L6.69081 4.23704C10.2319 3.34324 14.8488 6.26645 15.4744 10.7082C15.5496 12.0038 16.5105 12.4509 17.5164 12.919C18.4658 13.3608 19.4554 13.8213 19.7782 15.0314ZM3.76061 16.3101C4.05473 15.4171 4.04733 14.4275 3.56674 13.4099C2.98395 11.903 3.13985 10.2637 3.80209 8.89081C4.48684 7.47121 5.59631 6.55758 6.6483 6.29204L7.20146 6.15242C8.25345 5.88689 9.67946 6.16055 10.9871 7.07725C12.2517 7.96382 13.2069 9.32263 13.4505 10.9151C13.5382 12.0256 14.0191 12.8927 14.7202 13.5357C15.3287 14.0937 16.0666 14.4375 16.5186 14.6481L16.5529 14.664C17.689 15.1938 17.7502 15.3053 17.8098 15.5286C17.9212 15.9462 17.8605 16.1783 17.7889 16.3267C17.7026 16.5054 17.5042 16.7518 17.0723 17.0181L17.0258 17.0468L16.9875 17.0733L16.9847 17.0752C16.9768 17.0804 16.9599 17.0916 16.9338 17.1082C16.8818 17.1414 16.7933 17.1964 16.6686 17.2691C16.419 17.4146 16.0241 17.6311 15.484 17.8865C14.4042 18.3971 12.7428 19.0636 10.4994 19.6299C8.25605 20.1961 6.47119 20.3994 5.2724 20.464C4.67283 20.4963 4.21963 20.4939 3.92883 20.4848C3.78344 20.4802 3.67869 20.474 3.61658 20.4696C3.6127 20.4693 3.60899 20.469 3.60544 20.4688C3.58061 20.4669 3.56397 20.4655 3.55569 20.4648L3.55231 20.4645L3.50557 20.4594L3.45054 20.4563C2.91601 20.4265 2.62671 20.3074 2.47425 20.2018C2.35501 20.1193 2.1822 19.9545 2.06188 19.5032L2.05845 19.4903L2.05484 19.4775C2.00139 19.2875 1.97805 19.1804 2.7172 18.1661L2.73941 18.1356C3.03079 17.736 3.5053 17.0853 3.76061 16.3101Z" fill="#ABAFD1"/>
<path d="M7.41029 4.10854C7.40676 4.0918 7.40277 4.07506 7.39831 4.05833C7.25729 3.52942 6.70232 3.21187 6.15873 3.34908C5.61514 3.48628 5.28879 4.02628 5.4298 4.5552C5.43426 4.57194 5.43914 4.58847 5.44442 4.60478C5.67055 4.51254 5.90193 4.43603 6.1376 4.37655L6.69075 4.23693C6.92634 4.17746 7.16668 4.13489 7.41029 4.10854Z" fill="#767BFA"/>
<path d="M7.7999 23.5819C7.44964 24.009 7.52154 24.6315 7.9605 24.9723C10.4774 26.9264 14.2176 25.9824 15.4408 23.0842C15.6542 22.5787 15.406 22.0007 14.8865 21.7931C14.3671 21.5855 13.773 21.827 13.5596 22.3325C12.8514 24.0104 10.6861 24.5569 9.22892 23.4256C8.78996 23.0848 8.15016 23.1547 7.7999 23.5819Z" fill="#767BFA"/>
</svg>
