<svg width="20" height="23" viewBox="0 0 20 23" fill="none" xmlns="http://www.w3.org/2000/svg">
<path d="M11.0001 0.977819C11.0001 1.51785 10.5523 1.95564 10.0001 1.95564C9.44777 1.95564 9.00005 1.51785 9.00005 0.977819C9.00005 0.437784 9.44777 0 10.0001 0C10.5523 0 11.0001 0.437784 11.0001 0.977819Z" fill="#767BFA"/>
<path d="M6.41879 19.7408C6.85701 19.4046 7.48474 19.4874 7.82087 19.9256C8.92059 21.3594 11.1342 21.3594 12.2339 19.9256C12.57 19.4874 13.1978 19.4046 13.636 19.7408C14.0742 20.0769 14.157 20.7046 13.8209 21.1428C11.9206 23.6203 8.13419 23.6203 6.23392 21.1428C5.8978 20.7046 5.98057 20.0769 6.41879 19.7408Z" fill="#767BFA"/>
<path d="M15.0001 6.84484C16.1046 6.84484 17.0001 5.96927 17.0001 4.8892C17.0001 3.80914 16.1046 2.93357 15.0001 2.93357C13.8955 2.93357 13.0001 3.80914 13.0001 4.8892C13.0001 5.96927 13.8955 6.84484 15.0001 6.84484Z" fill="#767BFA"/>
<path d="M20 14.7925C20.0002 16.5 19.0002 17.5 17.532 17.9719C17.532 17.9719 14.8429 19 10.0001 19C5.15739 19 2.4683 17.9719 2.4683 17.9719C1.00001 17.5 0.000253188 16.5484 0.000253188 14.7925C-0.0165819 13.5396 0.809054 12.845 1.60517 12.1752C2.44768 11.4664 3.25713 10.7854 3.00005 9.5C2.4683 5 6.12138 1 9.71912 1H10.2811C11.5039 1 12.733 1.46204 13.8021 2.24871C13.1583 2.52941 12.6321 3.02945 12.3179 3.65443C11.6309 3.21955 10.9172 3 10.2811 3H9.71912C8.6503 3 7.36228 3.61987 6.35016 4.83963C5.3713 6.0193 4.80686 7.5846 4.97921 9.20278C5.17843 10.317 4.93433 11.287 4.42771 12.088C3.98794 12.7834 3.3711 13.3028 2.99231 13.6218L2.96343 13.6461C2.00237 14.4559 1.9974 14.5665 2.00007 14.7656L2.00025 14.779V14.7925C2.00025 15.2637 2.12294 15.4676 2.21549 15.5778C2.33382 15.7188 2.57899 15.9067 3.08028 16.0678L3.13188 16.0844L3.17509 16.101L3.17823 16.1021C3.18702 16.1053 3.20598 16.112 3.23497 16.1218C3.29297 16.1415 3.39111 16.1734 3.52836 16.2138C3.80287 16.2945 4.23369 16.4088 4.81263 16.5252C5.97019 16.7581 7.72086 17 10.0001 17C12.2794 17 14.0301 16.7581 15.1876 16.5252C15.7666 16.4088 16.1974 16.2945 16.4719 16.2138C16.6091 16.1734 16.7073 16.1415 16.7653 16.1218C16.7943 16.112 16.8132 16.1053 16.822 16.1021L16.8252 16.1009L16.8684 16.0844L16.92 16.0679C17.3987 15.914 17.6501 15.722 17.7775 15.5684C17.8834 15.4409 18.0001 15.2288 18 14.7927C18 14.5596 17.97 14.4354 17.0229 13.6365L16.9944 13.6125C16.6175 13.2948 16.0023 12.7762 15.5647 12.0801C15.0604 11.2779 14.8228 10.3108 15.0211 9.2027C15.0643 8.7967 15.0611 8.39403 15.0167 7.99995C15.7473 7.99597 16.416 7.73083 16.9344 7.29316C17.0608 8.00366 17.0894 8.74479 17.0002 9.5C16.743 10.7861 17.5442 11.4609 18.383 12.1672C19.1747 12.8339 19.9998 13.5288 20 14.7925Z" fill="#ABAFD1"/>
</svg>
