<svg width="24" height="24" viewBox="0 0 24 24" fill="none" xmlns="http://www.w3.org/2000/svg">
<path fill-rule="evenodd" clip-rule="evenodd" d="M0 12C0 21.882 2.118 24 12 24C21.882 24 24 21.882 24 12C24 2.118 21.882 0 12 0C2.118 0 0 2.118 0 12ZM2 12C2 14.4249 2.13254 16.2369 2.43771 17.6101C2.73783 18.9605 3.17768 19.7608 3.70846 20.2915C4.23924 20.8223 5.03949 21.2622 6.38993 21.5623C7.76307 21.8675 9.57515 22 12 22C14.4249 22 16.2369 21.8675 17.6101 21.5623C18.9605 21.2622 19.7608 20.8223 20.2915 20.2915C20.8223 19.7608 21.2622 18.9605 21.5623 17.6101C21.8675 16.2369 22 14.4249 22 12C22 9.57515 21.8675 7.76307 21.5623 6.38993C21.2622 5.03949 20.8223 4.23924 20.2915 3.70846C19.7608 3.17768 18.9605 2.73783 17.6101 2.43771C16.2369 2.13254 14.4249 2 12 2C9.57515 2 7.76307 2.13254 6.38993 2.43771C5.03949 2.73783 4.23924 3.17768 3.70846 3.70846C3.17768 4.23924 2.73783 5.03949 2.43771 6.38993C2.13254 7.76307 2 9.57515 2 12Z" fill="#ABAFD1"/>
<path d="M11 7C11 6.44772 11.4477 6 12 6C12.5523 6 13 6.44772 13 7V10.1887L15.7798 8.58374C16.2581 8.30759 16.8697 8.47147 17.1459 8.94977C17.422 9.42807 17.2581 10.0396 16.7798 10.3158L13.9497 11.9498L16.7798 13.5837C17.2581 13.8599 17.422 14.4715 17.1458 14.9498C16.8697 15.4281 16.2581 15.5919 15.7798 15.3158L13 13.7109V17C13 17.5523 12.5523 18 12 18C11.4477 18 11 17.5523 11 17V13.6528L8.11959 15.3158C7.64129 15.5919 7.02972 15.4281 6.75356 14.9498C6.47741 14.4715 6.64129 13.8599 7.11959 13.5837L9.9497 11.9498L7.11956 10.3158C6.64126 10.0396 6.47738 9.42807 6.75353 8.94977C7.02969 8.47147 7.64126 8.30759 8.11956 8.58374L11 10.2468V7Z" fill="#767BFA"/>
</svg>
