<svg width="24" height="24" viewBox="0 0 24 24" fill="none" xmlns="http://www.w3.org/2000/svg">
<rect x="13" width="10" height="2" rx="1" transform="rotate(90 13 0)" fill="#767BFA"/>
<path d="M6 2.80094C6 2.06697 5.23624 1.5905 4.6279 2.00113C1.65406 4.00851 0 7.45286 0 11.9999C0 19.4999 4.5 23.9999 12 23.9999C19.5 23.9999 24 19.4999 24 11.9999C24 7.45286 22.3459 4.00851 19.3721 2.00113C18.7638 1.5905 18 2.06698 18 2.80094V2.93974C18 3.2853 18.1813 3.60253 18.4614 3.80483C18.8005 4.04971 19.1127 4.31604 19.3983 4.60163C21.0032 6.20651 22 8.65093 22 11.9999C22 15.3489 21.0032 17.7933 19.3983 19.3982C17.7934 21.0031 15.349 21.9999 12 21.9999C8.65102 21.9999 6.20659 21.0031 4.60171 19.3982C2.99683 17.7933 2 15.3489 2 11.9999C2 8.65093 2.99683 6.20651 4.60171 4.60163C4.8873 4.31604 5.19946 4.04971 5.53858 3.80483C5.81873 3.60253 6 3.2853 6 2.93974V2.80094Z" fill="#ABAFD1"/>
</svg>
