<svg width="24" height="24" viewBox="0 0 24 24" fill="none" xmlns="http://www.w3.org/2000/svg">
<path d="M8.00002 6C8.00002 6.55228 7.55231 7 7.00002 7C6.44774 7 6.00002 6.55228 6.00002 6C6.00002 4.06198 6.73672 2.53498 7.89816 1.50259C9.04119 0.486564 10.537 0 12 0C13.4631 0 14.9589 0.486564 16.1019 1.50259C17.2633 2.53498 18 4.06198 18 6C18 6.55228 17.5523 7 17 7C16.4477 7 16 6.55228 16 6C16 4.60469 15.4867 3.63169 14.7732 2.99741C14.0412 2.34677 13.037 2 12 2C10.9631 2 9.95885 2.34677 9.22688 2.99741C8.51332 3.63169 8.00002 4.60469 8.00002 6Z" fill="#767BFA"/>
<path d="M1.00002 11C0.386079 11.7894 0.386367 11.7896 0.386671 11.7898L0.389072 11.7917L0.393729 11.7953L0.408009 11.8062C0.419726 11.8151 0.435827 11.8272 0.456238 11.8424C0.497055 11.8726 0.555131 11.915 0.629853 11.9677C0.779259 12.073 0.995465 12.2198 1.27357 12.3942C1.82937 12.7426 2.63495 13.2025 3.65093 13.6614C5.67967 14.5776 8.5715 15.5 12 15.5C15.4285 15.5 18.3204 14.5776 20.3491 13.6614C21.3651 13.2025 22.1707 12.7426 22.7265 12.3942C23.0046 12.2198 23.2208 12.073 23.3702 11.9677C23.4449 11.915 23.503 11.8726 23.5438 11.8424C23.5642 11.8272 23.5803 11.8151 23.592 11.8062L23.6063 11.7953L23.611 11.7917L23.6127 11.7904C23.613 11.7901 23.614 11.7894 23 11C22.3861 10.2106 22.3863 10.2105 22.3866 10.2103L22.3818 10.2139L22.352 10.2363C22.3237 10.2572 22.2788 10.2901 22.2177 10.3331C22.0957 10.4192 21.9095 10.5458 21.6642 10.6996C21.1731 11.0074 20.4474 11.4225 19.5259 11.8386C17.6797 12.6724 15.0715 13.5 12 13.5C8.92854 13.5 6.32037 12.6724 4.47411 11.8386C3.55259 11.4225 2.82692 11.0074 2.33584 10.6996C2.09051 10.5458 1.90438 10.4192 1.7823 10.3331C1.72128 10.2901 1.67632 10.2572 1.64805 10.2363L1.61825 10.2139L1.61347 10.2103C1.61371 10.2105 1.61396 10.2106 1.00002 11Z" fill="#767BFA"/>
<path fill-rule="evenodd" clip-rule="evenodd" d="M0 14.5C0 22.3232 2.118 24 12 24C21.882 24 24 22.3232 24 14.5C24 6.67675 21.882 5 12 5C2.118 5 0 6.67675 0 14.5ZM2 14.5C2 18.4173 2.58387 19.8621 3.53566 20.6156C4.05849 21.0295 4.88865 21.3973 6.30259 21.646C7.7176 21.895 9.56486 22 12 22C14.4351 22 16.2824 21.895 17.6974 21.646C19.1113 21.3973 19.9415 21.0295 20.4643 20.6156C21.4161 19.8621 22 18.4173 22 14.5C22 10.5827 21.4161 9.13787 20.4643 8.38437C19.9415 7.97046 19.1113 7.60275 17.6974 7.35398C16.2824 7.10502 14.4351 7 12 7C9.56486 7 7.7176 7.10502 6.30259 7.35398C4.88865 7.60275 4.05849 7.97046 3.53566 8.38437C2.58387 9.13787 2 10.5827 2 14.5Z" fill="#ABAFD1"/>
</svg>
