<svg width="24" height="24" viewBox="0 0 24 24" fill="none" xmlns="http://www.w3.org/2000/svg">
<path fill-rule="evenodd" clip-rule="evenodd" d="M3.74793 20.2504C9.04873 25.5535 11.5482 25.3262 17.9092 18.9625C25.6095 11.1362 25.6063 11.133 20.1551 5.74519L20.1538 5.74395C19.8514 5.44501 19.5321 5.1295 19.1965 4.79515C18.8418 4.44177 18.5083 4.10654 18.1933 3.78991C12.8376 -1.59333 12.8341 -1.59681 5.03532 6.0831C-1.32565 12.4468 -1.55287 14.9473 3.74793 20.2504ZM11.2651 3.30048C10.1482 4.21817 8.71781 5.62294 6.62392 7.6849C5.06682 9.24305 3.97776 10.4751 3.26383 11.514C2.55226 12.5495 2.31146 13.2539 2.26467 13.7688C2.17893 14.7123 2.67263 15.9836 5.34279 18.6549C8.01295 21.3262 9.28364 21.8201 10.2268 21.7344C10.7415 21.6875 11.4456 21.4466 12.4806 20.7348C13.5191 20.0205 14.7506 18.931 16.3081 17.3731C18.369 15.2785 19.7751 13.8456 20.6946 12.7259C21.656 11.5552 21.7387 11.1206 21.7442 11.0298L21.7443 11.0286C21.7452 11.0191 21.7498 10.9705 21.6863 10.8313C21.6065 10.6562 21.4396 10.3854 21.0966 9.97178C20.5321 9.29115 19.7411 8.50895 18.6251 7.40548C18.3117 7.0955 17.972 6.75959 17.605 6.39405C17.2156 6.00612 16.8605 5.64933 16.5338 5.32106C15.4548 4.23699 14.6854 3.46394 14.0133 2.90756C13.5982 2.56393 13.3262 2.39604 13.1497 2.31537C13.0089 2.251 12.96 2.25577 12.9514 2.25661C12.8643 2.26174 12.4328 2.3411 11.2651 3.30048Z" fill="#ABAFD1"/>
<path d="M4.69101 2.99153C4.25453 2.55672 4.25453 1.85174 4.69101 1.41693C5.1275 0.982117 5.83518 0.982117 6.27167 1.41693L13.4636 8.58132C13.4921 8.57988 13.5207 8.57916 13.5495 8.57916C14.4755 8.57916 15.2261 9.3269 15.2261 10.2493C15.2261 11.1717 14.4755 11.9194 13.5495 11.9194C12.6236 11.9194 11.873 11.1717 11.873 10.2493C11.873 10.2156 11.874 10.1821 11.876 10.1489L4.69101 2.99153Z" fill="#767BFA"/>
<path fill-rule="evenodd" clip-rule="evenodd" d="M22.4617 18.2388L22.4423 18.2196C22.356 18.1341 22.2427 18.022 22.1344 17.9363C22.0227 17.848 21.7563 17.6535 21.3735 17.6535C20.9906 17.6535 20.7242 17.848 20.6125 17.9363C20.5042 18.0219 20.3909 18.1341 20.3045 18.2196L20.2851 18.2388C20.0182 18.5026 19.6528 18.9462 19.3483 19.4648C19.0537 19.9667 18.7468 20.6549 18.7468 21.3799C18.7468 22.825 19.9209 23.9999 21.3734 23.9999C22.8259 23.9999 24 22.825 24 21.3799C24 20.6549 23.6932 19.9667 23.3985 19.4648C23.0941 18.9463 22.7287 18.5026 22.4617 18.2388ZM20.9885 20.4203C21.1121 20.2097 21.2497 20.0182 21.3734 19.8643C21.4972 20.0182 21.6347 20.2097 21.7584 20.4204C21.9876 20.8108 22.0999 21.1502 22.0999 21.3799C22.0999 21.7834 21.7728 22.1071 21.3734 22.1071C20.9741 22.1071 20.6469 21.7834 20.6469 21.3799C20.6469 21.1501 20.7593 20.8108 20.9885 20.4203Z" fill="#767BFA"/>
</svg>
