<svg width="18" height="22" viewBox="0 0 18 22" fill="none" xmlns="http://www.w3.org/2000/svg">
<path fill-rule="evenodd" clip-rule="evenodd" d="M15.8769 5.38663C15.4177 7.50131 13.5369 8 8 8C1.412 8 0 7.294 0 4C0 0.706 1.412 0 8 0C13.9718 0 15.6906 0.580102 15.9599 3.14206C17.1441 3.52081 18 4.61435 18 5.90431V8.04374C18 9.52363 16.8528 10.9303 15.3706 10.9303H9.84702C9.25151 10.9303 8.97055 11.3992 8.97055 11.8925V15.0319H7V11.8925C7 10.4126 7.93909 9.00592 9.62941 9.00592H15.153C15.7828 9.00592 16.0294 8.53703 16.0294 8.04374V5.90431C16.0294 5.71391 15.9735 5.53635 15.8769 5.38663ZM8 6C9.62517 6 10.861 5.95574 11.8084 5.85045C12.774 5.74315 13.2967 5.58608 13.5761 5.4464C13.7844 5.34223 13.8172 5.27346 13.8488 5.20232C13.9163 5.05051 14 4.71793 14 4C14 3.28207 13.9163 2.94949 13.8488 2.79768C13.8172 2.72654 13.7844 2.65777 13.5761 2.5536C13.2967 2.41392 12.774 2.25685 11.8084 2.14955C10.861 2.04426 9.62517 2 8 2C6.37483 2 5.13905 2.04426 4.19157 2.14955C3.22595 2.25685 2.7033 2.41391 2.42393 2.5536C2.2156 2.65777 2.18278 2.72654 2.15116 2.79768C2.08368 2.94949 2 3.28207 2 4C2 4.71793 2.08368 5.05051 2.15116 5.20232C2.18278 5.27346 2.2156 5.34223 2.42393 5.4464C2.7033 5.58608 3.22595 5.74315 4.19157 5.85045C5.13905 5.95574 6.37483 6 8 6Z" fill="#ABAFD1"/>
<path d="M8 22C6.353 22 6 21.294 6 18C6 14.706 6.353 14 8 14C9.647 14 10 14.706 10 18C10 21.294 9.647 22 8 22Z" fill="#767BFA"/>
</svg>
