<svg width="24" height="24" viewBox="0 0 24 24" fill="none" xmlns="http://www.w3.org/2000/svg">
<path fill-rule="evenodd" clip-rule="evenodd" d="M0 12C0 15.7531 0.762448 18.9034 2.92954 21.0705C5.09663 23.2376 8.24692 24 12 24C13.9442 24 14.8028 22.056 14.3208 20.6764C14.1252 20.1166 14 19.3347 14 18.25C14 16.2479 14.4224 15.3357 14.8791 14.8791C15.3357 14.4224 16.2479 14 18.25 14C19.3347 14 20.1166 14.1252 20.6764 14.3208C22.056 14.8028 24 13.9442 24 12C24 8.24692 23.2376 5.09663 21.0705 2.92954C18.9034 0.762448 15.7531 0 12 0C8.24692 0 5.09663 0.762448 2.92954 2.92954C0.762448 5.09663 0 8.24692 0 12ZM10.5307 21.9539C10.5682 21.9564 10.6058 21.9588 10.6436 21.961C11.0776 21.9871 11.5296 22 12 22C12.3301 22 12.5416 21.6476 12.4327 21.336C12.1388 20.4946 12 19.4714 12 18.25C12 13.8229 13.8229 12 18.25 12C19.4714 12 20.4946 12.1388 21.336 12.4327C21.6476 12.5416 22 12.3301 22 12C22 11.5296 21.9871 11.0776 21.961 10.6436C21.9588 10.6058 21.9564 10.5682 21.9539 10.5307C21.5571 4.51118 18.5718 2 12 2C4.91667 2 2 4.91667 2 12C2 18.5718 4.51118 21.5571 10.5307 21.9539Z" fill="#ABAFD1"/>
<path d="M10.5 7C11.3284 7 12 6.32843 12 5.5C12 4.67157 11.3284 4 10.5 4C9.67157 4 9 4.67157 9 5.5C9 6.32843 9.67157 7 10.5 7Z" fill="#767BFA"/>
<path d="M15.5 9C16.3284 9 17 8.32843 17 7.5C17 6.67157 16.3284 6 15.5 6C14.6716 6 14 6.67157 14 7.5C14 8.32843 14.6716 9 15.5 9Z" fill="#767BFA"/>
<path d="M8 9.5C8 10.3284 7.32843 11 6.5 11C5.67157 11 5 10.3284 5 9.5C5 8.67157 5.67157 8 6.5 8C7.32843 8 8 8.67157 8 9.5Z" fill="#767BFA"/>
<path d="M7.5 16C8.32843 16 9 15.3284 9 14.5C9 13.6716 8.32843 13 7.5 13C6.67157 13 6 13.6716 6 14.5C6 15.3284 6.67157 16 7.5 16Z" fill="#767BFA"/>
</svg>
