<svg width="24" height="24" viewBox="0 0 24 24" fill="none" xmlns="http://www.w3.org/2000/svg">
<path fill-rule="evenodd" clip-rule="evenodd" d="M19.9607 14.9413L14.9413 19.9607C15.7773 20.7967 16.2396 21.2519 16.6006 21.5273C16.6053 21.5309 16.6099 21.5344 16.6144 21.5378C16.619 21.5344 16.6236 21.5309 16.6283 21.5273C16.9893 21.2519 17.4515 20.7967 18.2876 19.9607L19.9607 18.2876C20.7967 17.4515 21.2519 16.9893 21.5273 16.6283C21.5309 16.6236 21.5344 16.619 21.5378 16.6144C21.5344 16.6099 21.5309 16.6053 21.5273 16.6006C21.2519 16.2396 20.7967 15.7773 19.9607 14.9413ZM21.6684 16.811L21.6674 16.8089L21.6684 16.811ZM16.811 21.6684L16.8089 21.6674L16.811 21.6684ZM13.2682 21.6338C14.8456 23.2113 15.6343 24 16.6144 24C17.5945 24 18.3833 23.2113 19.9607 21.6338L21.6338 19.9607C23.2113 18.3832 24 17.5945 24 16.6144C24 15.6343 23.2113 14.8456 21.6338 13.2682L13.2682 21.6338Z" fill="#ABAFD1"/>
<path fill-rule="evenodd" clip-rule="evenodd" d="M12.7603 1.46308C15.2804 1.82702 17.4401 3.46098 18.4775 5.78831L21.6338 13.2682L13.2682 21.6338L5.7883 18.4775C3.46097 17.4402 1.82702 15.2804 1.46308 12.7604L0.0259969 2.80962C-0.208937 1.18287 1.18287 -0.208938 2.80961 0.0259969L12.7603 1.46308ZM3.80495 12.4222L2.4 2.50354C2.39127 2.44311 2.43992 2.39082 2.50353 2.4L12.4221 3.80496C14.1304 4.05166 15.5973 5.15649 16.3076 6.73211L18.8347 12.721L12.721 18.8348L6.73207 16.3076C5.15647 15.5973 4.05165 14.1304 3.80495 12.4222Z" fill="#ABAFD1"/>
<path d="M2.39999 4.10784C1.9284 3.63626 1.9284 2.87166 2.39999 2.40008C2.87158 1.92849 3.63618 1.92849 4.10778 2.40008L7.75951 6.05179C8.56523 5.83666 9.46053 6.04514 10.0926 6.67723C11.0358 7.6204 11.0358 9.14959 10.0926 10.0928C9.14945 11.0359 7.62024 11.0359 6.67706 10.0928C6.04491 9.46062 5.83645 8.56525 6.05166 7.75949L2.39999 4.10784Z" fill="#767BFA"/>
</svg>
