<svg width="24" height="24" viewBox="0 0 24 24" fill="none" xmlns="http://www.w3.org/2000/svg">
<path fill-rule="evenodd" clip-rule="evenodd" d="M24 12C24 21.882 21.882 24 12 24C2.118 24 0 21.882 0 12C0 2.118 2.118 0 12 0C21.882 0 24 2.118 24 12ZM22 12C22 14.4249 21.8675 16.2369 21.5623 17.6101C21.2622 18.9605 20.8223 19.7608 20.2915 20.2915C19.7608 20.8223 18.9605 21.2622 17.6101 21.5623C16.2369 21.8675 14.4249 22 12 22C9.57515 22 7.76307 21.8675 6.38993 21.5623C5.03949 21.2622 4.23924 20.8223 3.70846 20.2915C3.17768 19.7608 2.73783 18.9605 2.43771 17.6101C2.13254 16.2369 2 14.4249 2 12C2 9.57515 2.13254 7.76307 2.43771 6.38993C2.73783 5.03949 3.17768 4.23924 3.70846 3.70846C4.23924 3.17768 5.03949 2.73783 6.38993 2.43771C7.76307 2.13254 9.57515 2 12 2C14.4249 2 16.2369 2.13254 17.6101 2.43771C18.9605 2.73783 19.7608 3.17768 20.2915 3.70846C20.8223 4.23924 21.2622 5.03949 21.5623 6.38993C21.8675 7.76307 22 9.57515 22 12Z" fill="#ABAFD1"/>
<path fill-rule="evenodd" clip-rule="evenodd" d="M16 16C18.2091 16 20 14.2091 20 12C20 9.79086 18.2091 8 16 8C13.7909 8 12 9.79086 12 12C12 14.2091 13.7909 16 16 16ZM16 14C17.1046 14 18 13.1046 18 12C18 10.8954 17.1046 10 16 10C14.8954 10 14 10.8954 14 12C14 13.1046 14.8954 14 16 14Z" fill="#767BFA"/>
<path d="M5 9C4.44772 9 4 9.44772 4 10C4 10.5523 4.44772 11 5 11H9C9.55228 11 10 10.5523 10 10C10 9.44772 9.55228 9 9 9H5Z" fill="#767BFA"/>
<path d="M4 14C4 13.4477 4.44772 13 5 13H9C9.55228 13 10 13.4477 10 14C10 14.5523 9.55228 15 9 15H5C4.44772 15 4 14.5523 4 14Z" fill="#767BFA"/>
</svg>
