<svg width="21" height="24" viewBox="0 0 21 24" fill="none" xmlns="http://www.w3.org/2000/svg">
<path fill-rule="evenodd" clip-rule="evenodd" d="M20.5248 5.64241C20.9937 5.91661 21.1598 6.52999 20.8209 6.95769C20.4997 7.36299 20.131 7.72878 19.722 8.04659C19.0531 8.56647 18.2895 8.94781 17.4751 9.16884C16.926 9.31783 16.3611 9.39201 15.7951 9.3904C15.9575 9.57503 16.1134 9.76588 16.2625 9.96262C17.0637 11.0202 17.6514 12.2272 17.9921 13.5148C18.3327 14.8024 18.4196 16.1453 18.2478 17.4669C18.1188 18.4597 17.8457 19.4258 17.4388 20.3345C17.2151 20.8339 16.6107 20.9951 16.1417 20.7209L0.480385 11.5631C0.0114421 11.2889 -0.153016 10.6782 0.162234 10.2323C0.735771 9.4211 1.42534 8.69846 2.20973 8.08888C3.25392 7.27739 4.4457 6.68215 5.71703 6.33714C6.98837 5.99214 8.31434 5.90411 9.61926 6.07811C9.84152 6.10774 10.0624 6.14488 10.2816 6.1894C9.98749 5.68399 9.76163 5.13952 9.61108 4.57049C9.39285 3.7456 9.33717 2.88525 9.44723 2.03856C9.51451 1.52096 9.64293 1.01466 9.82891 0.530315C10.0252 0.0191943 10.6327 -0.141852 11.1016 0.132355L20.5248 5.64241ZM16.9676 7.25053C17.4434 7.1214 17.8942 6.9135 18.3019 6.63582L11.3636 2.57876C11.33 3.07522 11.3777 3.57456 11.5052 4.05648C11.6568 4.62946 11.9183 5.16659 12.2748 5.6372C12.6314 6.1078 13.076 6.50268 13.5832 6.79927C14.0904 7.09587 14.6504 7.28837 15.2311 7.3658C15.8118 7.44323 16.4018 7.40406 16.9676 7.25053ZM16.0634 18.3818L2.51961 10.4623C2.79389 10.1754 3.08921 9.90867 3.40344 9.66446C4.24334 9.01174 5.20196 8.53296 6.22455 8.25545C7.24715 7.97794 8.3137 7.90714 9.36331 8.04709C10.4129 8.18705 11.425 8.53501 12.3419 9.07111C13.2587 9.60722 14.0623 10.321 14.7068 11.1716C15.3513 12.0222 15.824 12.9931 16.098 14.0288C16.372 15.0645 16.4419 16.1447 16.3037 17.2077C16.252 17.6054 16.1716 17.9978 16.0634 18.3818Z" fill="#ABAFD1"/>
<path d="M7.24707 15.4922L8.94526 16.4852L5.14841 23.1456C4.87938 23.6176 4.28113 23.7778 3.81219 23.5036C3.34325 23.2294 3.18119 22.6246 3.45022 22.1526L7.24707 15.4922Z" fill="#767BFA"/>
</svg>
