<svg width="22" height="22" viewBox="0 0 22 22" fill="none" xmlns="http://www.w3.org/2000/svg">
<path d="M9.82526 6.57263C9.40849 5.85075 9.29555 4.99289 9.51129 4.18774L11.2323 4.64889C11.1389 4.99759 11.1878 5.36912 11.3683 5.68175C11.5488 5.99438 11.8461 6.22251 12.1948 6.31594C12.5435 6.40937 12.915 6.36046 13.2277 6.17996C13.5403 5.99946 13.7684 5.70217 13.8618 5.35347L15.5829 5.81462C15.3671 6.61977 14.8404 7.30623 14.1185 7.723C13.3967 8.13978 12.5388 8.25272 11.7336 8.03698C10.9285 7.82124 10.242 7.2945 9.82526 6.57263Z" fill="#767BFA"/>
<path d="M6.28378 6.68721C5.3876 6.1698 4.32259 6.02958 3.32303 6.29742L3.89553 8.43403C4.32843 8.31804 4.78967 8.37876 5.17779 8.60284C5.56591 8.82692 5.84912 9.19601 5.96512 9.6289C6.08111 10.0618 6.02039 10.523 5.7963 10.9112C5.57222 11.2993 5.20314 11.5825 4.77024 11.6985L5.34275 13.8351C6.34231 13.5673 7.19453 12.9133 7.71194 12.0172C8.22935 11.121 8.36956 10.056 8.10173 9.0564C7.8339 8.05684 7.17996 7.20461 6.28378 6.68721Z" fill="#767BFA"/>
<path fill-rule="evenodd" clip-rule="evenodd" d="M19.2149 5.20344C21.1587 5.8024 22.4974 7.62501 21.8235 9.42872C21.1164 11.3211 20.1148 13.4794 16.7971 16.7971C13.4794 20.1148 11.3211 21.1164 9.42872 21.8235C7.62501 22.4974 5.80241 21.1587 5.20344 19.2149L0.104576 2.66812C-0.403588 1.01903 1.01903 -0.403588 2.66812 0.104576L19.2149 5.20344ZM6.4666 16.233L2.1167 2.1167L16.3531 6.50361C16.3289 6.55923 16.3034 6.6173 16.2767 6.67736C16.0618 7.16047 15.7827 7.74311 15.5021 8.21175C14.5844 9.74398 13.9118 10.7425 12.4459 12.2084C10.98 13.6743 9.98147 14.3469 8.44924 15.2646C7.9806 15.5452 7.39797 15.8244 6.91485 16.0392C6.74635 16.1141 6.59352 16.1796 6.4666 16.233ZM7.08343 18.2347L7.19625 18.6008C7.36608 19.1519 7.69339 19.5518 8.00404 19.7546C8.28454 19.9377 8.50148 19.9438 8.69883 19.8701C10.3315 19.26 12.2305 18.4146 15.3226 15.3226C18.4146 12.2305 19.26 10.3315 19.8701 8.69883C19.9438 8.50148 19.9377 8.28454 19.7546 8.00404C19.5518 7.69339 19.1519 7.36607 18.6008 7.19625L18.3573 7.12121C18.3065 7.24094 18.2476 7.37726 18.1821 7.52461C17.9551 8.03503 17.636 8.7071 17.291 9.28316C16.3187 10.9067 15.5457 12.0576 13.9204 13.6829C12.2951 15.3082 11.1442 16.0812 9.52065 17.0536C8.94459 17.3986 8.27252 17.7176 7.7621 17.9446C7.50325 18.0597 7.27847 18.1544 7.1178 18.2206C7.106 18.2254 7.09454 18.2301 7.08343 18.2347Z" fill="#ABAFD1"/>
</svg>
