<svg width="24" height="24" viewBox="0 0 24 24" fill="none" xmlns="http://www.w3.org/2000/svg">
<path fill-rule="evenodd" clip-rule="evenodd" d="M0 12C0 21.882 2.118 24 12 24C21.882 24 24 21.882 24 12C24 2.118 21.882 0 12 0C2.118 0 0 2.118 0 12ZM2 12C2 14.4249 2.13254 16.2369 2.43771 17.6101C2.73783 18.9605 3.17768 19.7608 3.70846 20.2915C4.23924 20.8223 5.03949 21.2622 6.38993 21.5623C7.76307 21.8675 9.57515 22 12 22C14.4249 22 16.2369 21.8675 17.6101 21.5623C18.9605 21.2622 19.7608 20.8223 20.2915 20.2915C20.8223 19.7608 21.2622 18.9605 21.5623 17.6101C21.8675 16.2369 22 14.4249 22 12C22 9.57515 21.8675 7.76307 21.5623 6.38993C21.2622 5.03949 20.8223 4.23924 20.2915 3.70846C19.7608 3.17768 18.9605 2.73783 17.6101 2.43771C16.2369 2.13254 14.4249 2 12 2C9.57515 2 7.76307 2.13254 6.38993 2.43771C5.03949 2.73783 4.23924 3.17768 3.70846 3.70846C3.17768 4.23924 2.73783 5.03949 2.43771 6.38993C2.13254 7.76307 2 9.57515 2 12Z" fill="#ABAFD1"/>
<path fill-rule="evenodd" clip-rule="evenodd" d="M14.8719 15.5991C15.5013 15.2203 16.1536 14.8277 16.6309 14.4324C17.1597 13.9944 17.8936 13.2142 17.8936 12.0001C17.8936 10.786 17.1597 10.0058 16.6309 9.56786C16.1536 9.17253 15.5013 8.77993 14.872 8.40111L13.0545 7.30629C12.4271 6.92804 11.7738 6.53418 11.2038 6.29925C10.5842 6.04388 9.49437 5.73544 8.40007 6.39463C7.33762 7.03463 7.07299 8.11108 6.98085 8.7586C6.89313 9.37513 6.89335 10.1483 6.89358 10.9114L6.89358 13.0888C6.89335 13.8519 6.89312 14.6251 6.98085 15.2416C7.07299 15.8892 7.33762 16.9656 8.40007 17.6056C9.49437 18.2648 10.5842 17.9564 11.2038 17.701C11.7738 17.4661 12.4271 17.0722 13.0545 16.6939L14.8719 15.5991ZM13.7398 10.054C15.1757 10.9189 15.8936 11.3514 15.8936 12.0001C15.8936 12.6488 15.1757 13.0813 13.7398 13.9463L12.1244 14.9193C10.6885 15.7843 9.97052 16.2168 9.43206 15.8924C8.8936 15.5681 8.8936 14.7031 8.8936 12.9732V11.027C8.8936 9.29713 8.8936 8.43217 9.43206 8.10781C9.97052 7.78345 10.6885 8.21593 12.1244 9.08089L13.7398 10.054Z" fill="#767BFA"/>
</svg>
