<svg width="24" height="24" viewBox="0 0 24 24" fill="none" xmlns="http://www.w3.org/2000/svg">
<path fill-rule="evenodd" clip-rule="evenodd" d="M0 12C0 21.882 2.118 24 12 24C21.882 24 24 21.882 24 12C24 2.118 21.882 0 12 0C2.118 0 0 2.118 0 12ZM2 12C2 14.4249 2.13254 16.2369 2.43771 17.6101C2.73783 18.9605 3.17768 19.7608 3.70846 20.2915C4.23924 20.8223 5.03949 21.2622 6.38993 21.5623C7.76307 21.8675 9.57515 22 12 22C14.4249 22 16.2369 21.8675 17.6101 21.5623C18.9605 21.2622 19.7608 20.8223 20.2915 20.2915C20.8223 19.7608 21.2622 18.9605 21.5623 17.6101C21.8675 16.2369 22 14.4249 22 12C22 9.57515 21.8675 7.76307 21.5623 6.38993C21.2622 5.03949 20.8223 4.23924 20.2915 3.70846C19.7608 3.17768 18.9605 2.73783 17.6101 2.43771C16.2369 2.13254 14.4249 2 12 2C9.57515 2 7.76307 2.13254 6.38993 2.43771C5.03949 2.73783 4.23924 3.17768 3.70846 3.70846C3.17768 4.23924 2.73783 5.03949 2.43771 6.38993C2.13254 7.76307 2 9.57515 2 12Z" fill="#ABAFD1"/>
<path fill-rule="evenodd" clip-rule="evenodd" d="M6.95013 15.4969C6.51358 15.2212 6.01199 14.9043 5.63709 14.5783C5.20043 14.1985 4.56494 13.4924 4.56494 12.4002C4.56494 11.308 5.20043 10.6019 5.63709 10.2221C6.01199 9.89604 6.51359 9.57923 6.95015 9.30349L8.27488 8.46558C8.70807 8.19117 9.21243 7.87167 9.66484 7.67588C10.1687 7.45783 11.2059 7.13067 12.2494 7.79069C13.0136 8.27401 13.3062 8.99743 13.4295 9.52861L14.4053 8.91131C14.7443 8.69646 15.1739 8.42409 15.5663 8.25429C16.0093 8.06258 17.0016 7.73949 18.0067 8.37518C18.9409 8.96609 19.1304 9.92578 19.1887 10.3564C19.2459 10.7784 19.2456 11.2906 19.2453 11.7295V13.0724C19.2456 13.5113 19.2459 14.0234 19.1887 14.4454C19.1304 14.8761 18.9409 15.8358 18.0067 16.4267C17.0016 17.0624 16.0093 16.7393 15.5663 16.5476C15.174 16.3778 14.7443 16.1054 14.4053 15.8906L13.4292 15.2731C13.3057 15.8041 13.0129 16.5268 12.2494 17.0097C11.2059 17.6697 10.1687 17.3426 9.66484 17.1245C9.21243 16.9287 8.70807 16.6092 8.27488 16.3348L6.95013 15.4969ZM13.5649 12.9466C13.77 13.1222 14.0737 13.3142 14.4759 13.5687L15.3991 14.1525C16.2196 14.6715 16.6299 14.931 16.9376 14.7364C17.2453 14.5418 17.2453 14.0228 17.2453 12.9848V11.8171C17.2453 10.7791 17.2453 10.2601 16.9376 10.0655C16.6299 9.87083 16.2196 10.1303 15.3991 10.6493L14.476 11.2332C14.0737 11.4876 13.77 11.6797 13.5649 11.8553V12.9466ZM8.1034 10.9406C7.07776 11.5893 6.56494 11.9137 6.56494 12.4002C6.56494 12.8867 7.07776 13.2111 8.1034 13.8598L9.25725 14.5896C10.2829 15.2383 10.7957 15.5627 11.1803 15.3194C11.5649 15.0762 11.5649 14.4274 11.5649 13.13V11.6704C11.5649 10.373 11.5649 9.72423 11.1803 9.48097C10.7957 9.2377 10.2829 9.56206 9.25725 10.2108L8.1034 10.9406Z" fill="#767BFA"/>
</svg>
