<svg width="22" height="24" viewBox="0 0 22 24" fill="none" xmlns="http://www.w3.org/2000/svg">
<path d="M17 11C17.5523 11 18 10.5523 18 10C18 9.44772 17.5523 9 17 9C16.4477 9 16 9.44772 16 10C16 10.5523 16.4477 11 17 11Z" fill="#767BFA"/>
<path d="M18.2824 6.21485C17.7475 6.08912 17.1411 5.99026 16.4552 5.91401C16.4756 5.65183 16.4872 5.34401 16.4872 4.9817C16.4872 2.99185 16.1381 2.64541 15.8939 2.47955C15.6782 2.33302 15.2582 2.1538 14.418 2.02695C13.5856 1.90129 12.482 1.84615 11 1.84615C9.518 1.84615 8.41441 1.90129 7.58208 2.02695C6.74188 2.1538 6.32183 2.33302 6.10613 2.47955C5.86198 2.64541 5.51284 2.99185 5.51284 4.9817C5.51284 5.34401 5.52442 5.65183 5.54482 5.914C4.85892 5.99025 4.25259 6.08912 3.71762 6.21484C3.68216 5.84028 3.66669 5.43026 3.66669 4.9817C3.66669 0.87927 4.96102 0 11 0C17.039 0 18.3334 0.87927 18.3334 4.9817C18.3334 5.43026 18.3179 5.84029 18.2824 6.21485Z" fill="#767BFA"/>
<path d="M18.2824 6.21485C17.7475 6.08912 17.1411 5.99026 16.4552 5.91401C16.4756 5.65183 16.4872 5.34401 16.4872 4.9817C16.4872 2.99185 16.1381 2.64541 15.8939 2.47955C15.6782 2.33302 15.2582 2.1538 14.418 2.02695C13.5856 1.90129 12.482 1.84615 11 1.84615C9.518 1.84615 8.41441 1.90129 7.58208 2.02695C6.74188 2.1538 6.32183 2.33302 6.10613 2.47955C5.86198 2.64541 5.51284 2.99185 5.51284 4.9817C5.51284 5.34401 5.52442 5.65183 5.54482 5.914C4.85892 5.99025 4.25259 6.08912 3.71762 6.21484C3.68216 5.84028 3.66669 5.43026 3.66669 4.9817C3.66669 0.87927 4.96102 0 11 0C17.039 0 18.3334 0.87927 18.3334 4.9817C18.3334 5.43026 18.3179 5.84029 18.2824 6.21485Z" stroke="#767BFA"/>
<path d="M2.08691 15.6139C1.90992 14.9369 1.84615 13.965 1.84615 12.4497C1.84615 9.45978 2.34134 8.71604 3.01912 8.30541C3.49074 8.01968 4.2741 7.7644 5.63423 7.60103C6.9788 7.43952 8.71911 7.38473 11 7.38473C13.5149 7.38473 15.37 7.43972 16.7587 7.60176C18.1721 7.76668 18.8888 8.0223 19.2725 8.27259C19.5583 8.45907 19.7609 8.70334 19.9131 9.28562C20.0901 9.96264 20.1538 10.9345 20.1538 12.4497C20.1538 13.965 20.0901 14.9369 19.9131 15.6139C19.7609 16.1962 19.5583 16.4404 19.2725 16.6269C19.0072 16.8 18.5826 16.9756 17.8785 17.122C17.9176 17.5363 17.9345 17.9932 17.9345 18.4969C17.9345 18.6674 17.9326 18.8326 17.9285 18.9926C21.5594 18.3436 22 16.6425 22 12.4497C22 6.40247 21.0833 5.53857 11 5.53857C1.83333 5.53857 0 6.40247 0 12.4497C0 16.6881 0.450278 18.3803 4.19109 19.0134C4.18664 18.8469 4.18453 18.6748 4.18453 18.4969C4.18453 18.0028 4.20079 17.5536 4.23833 17.1456C3.46385 16.9946 3.00718 16.8094 2.72755 16.6269C2.44174 16.4404 2.23913 16.1962 2.08691 15.6139Z" fill="#ABAFD1"/>
<path fill-rule="evenodd" clip-rule="evenodd" d="M4 18.5C4 23.0833 5.23051 24 10.9717 24C16.7129 24 18 23.0833 18 18.5C18 15.9743 18 14.6084 17.3193 13.8698C16.5178 13 14.7724 13 10.9717 13C7.21091 13 5.47883 13 4.68109 13.8633C4 14.6005 4 15.9669 4 18.5ZM5.84615 18.5C5.84615 20.804 6.20675 21.3084 6.47043 21.5147C6.64807 21.6537 7.0051 21.8346 7.77104 21.9653C8.53703 22.0961 9.56554 22.1538 10.9717 22.1538C12.3775 22.1538 13.4105 22.0962 14.1829 21.965C14.9556 21.8339 15.3239 21.6515 15.511 21.5072C15.7849 21.2958 16.1538 20.7873 16.1538 18.5C16.1538 17.0677 16.1494 16.1929 16.0624 15.5798C16.0251 15.3174 15.9828 15.1857 15.9584 15.1282C15.8809 15.0915 15.6084 14.9889 14.875 14.9252C13.9859 14.8478 12.7642 14.8462 10.9717 14.8462C9.19307 14.8462 7.9828 14.8479 7.1024 14.925C6.38797 14.9877 6.11876 15.0876 6.0407 15.1239C6.0162 15.1822 5.97408 15.3149 5.93704 15.5778C5.85052 16.1921 5.84615 17.0681 5.84615 18.5ZM15.9379 15.0904C15.9379 15.0904 15.9409 15.0982 15.9492 15.1083C15.9424 15.0946 15.9379 15.0904 15.9379 15.0904ZM6.06139 15.0851C6.06139 15.0851 6.05708 15.0892 6.05048 15.1024C6.05843 15.0925 6.06139 15.0851 6.06139 15.0851Z" fill="#767BFA"/>
</svg>
