<svg width="28" height="26" viewBox="0 0 28 26" fill="none" xmlns="http://www.w3.org/2000/svg">
<path d="M20.0247 1C20.0247 0.447715 20.4724 0 21.0247 0C21.5769 0 22.0247 0.447715 22.0247 1L22.0248 1.08256C22.026 1.76052 22.0279 2.83496 21.36 3.6818C20.6229 4.61624 19.3362 5 17.5 5C16.7689 5 16.3071 5.15562 16.0085 5.34134C15.7134 5.52491 15.5074 5.78143 15.3583 6.10547C15.034 6.81022 15.0247 7.70761 15.0247 8.5C15.0247 9.05229 14.5769 9.5 14.0247 9.5C13.4724 9.5 13.0247 9.05229 13.0247 8.5L13.0246 8.42069C13.0238 7.69473 13.0224 6.39743 13.5413 5.26953C13.8236 4.65607 14.2676 4.06884 14.9522 3.64304C15.6334 3.21938 16.481 3 17.5 3C19.1638 3 19.6394 2.63376 19.7897 2.4432C19.9812 2.2003 20.0247 1.82933 20.0247 1Z" fill="#767BFA"/>
<path d="M22 13C22 13.5523 21.5523 14 21 14C20.4477 14 20 13.5523 20 13C20 12.4477 20.4477 12 21 12C21.5523 12 22 12.4477 22 13Z" fill="#767BFA"/>
<path d="M24 15C24 15.5523 23.5523 16 23 16C22.4477 16 22 15.5523 22 15C22 14.4477 22.4477 14 23 14C23.5523 14 24 14.4477 24 15Z" fill="#767BFA"/>
<path d="M21 18C21.5523 18 22 17.5523 22 17C22 16.4477 21.5523 16 21 16C20.4477 16 20 16.4477 20 17C20 17.5523 20.4477 18 21 18Z" fill="#767BFA"/>
<path d="M20 15C20 15.5523 19.5523 16 19 16C18.4477 16 18 15.5523 18 15C18 14.4477 18.4477 14 19 14C19.5523 14 20 14.4477 20 15Z" fill="#767BFA"/>
<path d="M4 15C4 14.4477 4.44772 14 5 14H6V13C6 12.4477 6.44772 12 7 12C7.55228 12 8 12.4477 8 13V14H9C9.55228 14 10 14.4477 10 15C10 15.5523 9.55228 16 9 16H8V17C8 17.5523 7.55228 18 7 18C6.44772 18 6 17.5523 6 17V16H5C4.44772 16 4 15.5523 4 15Z" fill="#767BFA"/>
<path fill-rule="evenodd" clip-rule="evenodd" d="M7 7C4.65546 7 2.82752 8.32482 1.67657 10.1758C0.550276 11.9872 0 14.3735 0 16.9588C0 20.1927 0.412744 23.0701 2.58252 24.9702C3.3926 25.6796 4.34905 26.0138 5.33449 25.9996C6.26454 25.9862 7.09877 25.6665 7.77225 25.2904C9.09666 24.5508 10.2391 23.345 11.0191 22.3532C11.7809 21.3846 12.8552 20.8315 14 20.8315C15.1448 20.8315 16.2191 21.3846 16.9809 22.3532C17.7609 23.345 18.9033 24.5508 20.2278 25.2904C20.9012 25.6665 21.7355 25.9862 22.6655 25.9996C23.6509 26.0138 24.6074 25.6796 25.4175 24.9702C27.5873 23.0701 28 20.1927 28 16.9588C28 14.3735 27.4497 11.9872 26.3234 10.1758C25.1725 8.32484 23.3445 7.00005 21 7.00005C19.6181 7.00005 18.57 7.34991 17.4617 7.79696C16.5558 8.16236 15.3559 8.40451 14 8.40451C12.6441 8.40451 11.4442 8.16236 10.5383 7.79696C9.43005 7.34994 8.3819 7 7 7ZM2 16.9588C2 12.2989 4 9 7 9C8 9 8.76592 9.23863 9.79013 9.65176C10.9617 10.1243 12.4197 10.4045 14 10.4045C15.5803 10.4045 17.0383 10.1243 18.2099 9.65176C19.2341 9.23863 20 9.00005 21 9.00005C24 9.00005 26 12.2989 26 16.9588C26 20.1554 25.5506 22.1952 24.0999 23.4655C22.3486 24.9991 19.9748 22.9247 18.553 21.1168C17.4526 19.7177 15.821 18.8315 14 18.8315C12.179 18.8315 10.5474 19.7177 9.44704 21.1168C8.02522 22.9247 5.65139 24.9991 3.90012 23.4655C2.44942 22.1952 2 20.1554 2 16.9588Z" fill="#ABAFD1"/>
</svg>
