<svg width="28" height="20" viewBox="0 0 28 20" fill="none" xmlns="http://www.w3.org/2000/svg">
<path fill-rule="evenodd" clip-rule="evenodd" d="M7 0C4.59193 0 2.76907 1.44888 1.64715 3.37348C0.5425 5.26844 0 7.76852 0 10.4894C0 13.9144 0.406596 16.9035 2.5349 18.8915C3.33864 19.6422 4.31145 20.0153 5.33641 19.9995C6.29597 19.9848 7.14671 19.6335 7.82063 19.2321C9.14646 18.4424 10.2838 17.1599 11.0568 16.1115C11.8402 15.0489 12.9091 14.4869 14 14.4869C15.0909 14.4869 16.1598 15.0489 16.9432 16.1115C17.7162 17.1599 18.8535 18.4424 20.1794 19.2321C20.8533 19.6335 21.704 19.9848 22.6636 19.9995C23.6885 20.0153 24.6614 19.6422 25.4651 18.8915C27.5934 16.9035 28 13.9144 28 10.4894C28 7.76852 27.4575 5.26845 26.3529 3.3735C25.2309 1.4489 23.4081 4.93526e-05 21 4.93526e-05C19.593 4.93526e-05 18.5285 0.38084 17.4194 0.858035C16.5246 1.24302 15.3397 1.49815 14 1.49815C12.6603 1.49815 11.4754 1.24302 10.5806 0.858035C9.47155 0.380875 8.40708 0 7 0ZM2 10.4894C2 5.51878 4 2 7 2C8 2 8.76592 2.25454 9.79013 2.69521C10.9617 3.19929 12.4197 3.49815 14 3.49815C15.5803 3.49815 17.0383 3.19929 18.2099 2.69521C19.2341 2.25454 20 2.00005 21 2.00005C24 2.00005 26 5.51878 26 10.4894C26 13.8991 25.5506 16.0749 24.0999 17.4299C22.3486 19.0657 19.9748 16.853 18.553 14.9246C17.4526 13.4322 15.821 12.4869 14 12.4869C12.179 12.4869 10.5474 13.4322 9.44704 14.9246C8.02522 16.853 5.65139 19.0657 3.90012 17.4299C2.44942 16.0749 2 13.8991 2 10.4894Z" fill="#ABAFD1"/>
<path d="M21 7.5C21.5523 7.5 22 7.05228 22 6.5C22 5.94772 21.5523 5.5 21 5.5C20.4477 5.5 20 5.94772 20 6.5C20 7.05228 20.4477 7.5 21 7.5Z" fill="#767BFA"/>
<path d="M23 9.5C23.5523 9.5 24 9.05228 24 8.5C24 7.94772 23.5523 7.5 23 7.5C22.4477 7.5 22 7.94772 22 8.5C22 9.05228 22.4477 9.5 23 9.5Z" fill="#767BFA"/>
<path d="M22 10.5C22 11.0523 21.5523 11.5 21 11.5C20.4477 11.5 20 11.0523 20 10.5C20 9.94772 20.4477 9.5 21 9.5C21.5523 9.5 22 9.94772 22 10.5Z" fill="#767BFA"/>
<path d="M19 9.5C19.5523 9.5 20 9.05228 20 8.5C20 7.94772 19.5523 7.5 19 7.5C18.4477 7.5 18 7.94772 18 8.5C18 9.05228 18.4477 9.5 19 9.5Z" fill="#767BFA"/>
<path d="M4 8.5C4 7.94772 4.44772 7.5 5 7.5H6V6.5C6 5.94772 6.44772 5.5 7 5.5C7.55228 5.5 8 5.94772 8 6.5V7.5H9C9.55228 7.5 10 7.94772 10 8.5C10 9.05228 9.55228 9.5 9 9.5H8V10.5C8 11.0523 7.55228 11.5 7 11.5C6.44772 11.5 6 11.0523 6 10.5V9.5H5C4.44772 9.5 4 9.05228 4 8.5Z" fill="#767BFA"/>
</svg>
