<svg width="23" height="24" viewBox="0 0 23 24" fill="none" xmlns="http://www.w3.org/2000/svg">
<path fill-rule="evenodd" clip-rule="evenodd" d="M21.9776 13C21.4329 13 21 12.5448 21 12C21 8.28751 20.1092 5.87413 18.681 4.38381C17.268 2.90938 15.0029 2 11.5 2C7.99714 2 5.73197 2.90938 4.31898 4.38381C3.62766 5.10519 3.06226 6.04284 2.66286 7.23941C2.51531 7.68145 2.11425 8 1.64823 8C0.999491 8 0.513418 7.39837 0.709242 6.7799C2.14036 2.25997 5.73728 0 11.5 0C19.1667 0 23 4 23 12C23 12.0147 23 12.0294 23 12.044C22.999 12.5786 22.5575 13 22.0229 13H21.9776ZM20.3371 16.7606C20.4847 16.3185 20.8858 16 21.3518 16C22.0005 16 22.4866 16.6016 22.2908 17.2201C20.8596 21.74 17.2627 24 11.5 24C3.83333 24 0 20 0 12C0 11.9853 1.33514e-05 11.9706 3.8147e-05 11.956C0.000980377 11.4214 0.442528 11 0.977131 11H1.02237C1.56713 11 2 11.4552 2 12C2 15.7125 2.89076 18.1259 4.31898 19.6162C5.73197 21.0906 7.99714 22 11.5 22C15.0029 22 17.268 21.0906 18.681 19.6162C19.3723 18.8948 19.9377 17.9572 20.3371 16.7606Z" fill="#ABAFD1"/>
<path d="M1 1V7H7" stroke="#767BFA" stroke-width="2" stroke-linecap="round" stroke-linejoin="round"/>
<path d="M22 23L22 17L16 17" stroke="#767BFA" stroke-width="2" stroke-linecap="round" stroke-linejoin="round"/>
</svg>
