<svg width="24" height="24" viewBox="0 0 24 24" fill="none" xmlns="http://www.w3.org/2000/svg">
<path fill-rule="evenodd" clip-rule="evenodd" d="M12 24C2.118 24 4.31956e-07 21.882 0 12C-4.31956e-07 2.118 2.118 4.31956e-07 12 0C21.882 -4.31956e-07 24 2.118 24 12C24 21.882 21.882 24 12 24ZM12 22C9.57515 22 7.76308 21.8675 6.38993 21.5623C5.03949 21.2622 4.23924 20.8223 3.70846 20.2915C3.17768 19.7608 2.73783 18.9605 2.43771 17.6101C2.13254 16.2369 2 14.4249 2 12C2 9.57515 2.13254 7.76308 2.43771 6.38993C2.73783 5.03949 3.17768 4.23924 3.70846 3.70846C4.23924 3.17768 5.03949 2.73783 6.38993 2.43771C7.76307 2.13254 9.57515 2 12 2C14.4249 2 16.2369 2.13254 17.6101 2.43771C18.9605 2.73783 19.7608 3.17768 20.2915 3.70846C20.8223 4.23924 21.2622 5.03949 21.5623 6.38993C21.8675 7.76307 22 9.57515 22 12C22 14.4249 21.8675 16.2369 21.5623 17.6101C21.2622 18.9605 20.8223 19.7608 20.2915 20.2915C19.7608 20.8223 18.9605 21.2622 17.6101 21.5623C16.2369 21.8675 14.4249 22 12 22Z" fill="#ABAFD1"/>
<path d="M14.7071 11.2929C15.0976 11.6834 15.0976 12.3166 14.7071 12.7071L10.7071 16.7071C10.3166 17.0976 9.68342 17.0976 9.29289 16.7071C8.90237 16.3166 8.90237 15.6834 9.29289 15.2929L12.5858 12L9.29289 8.70711C8.90237 8.31658 8.90237 7.68342 9.29289 7.29289C9.68342 6.90237 10.3166 6.90237 10.7071 7.29289L14.7071 11.2929Z" fill="#767BFA"/>
</svg>
