<svg width="24" height="24" viewBox="0 0 24 24" fill="none" xmlns="http://www.w3.org/2000/svg">
<path d="M22 12C22 15.6913 21.0778 18.0925 19.5838 19.5852C18.0895 21.0782 15.6852 22 11.9895 22C8.29391 22 5.88963 21.0782 4.3953 19.5852C3.04067 18.2317 2.15613 16.1314 2.00288 12.9997C1.97589 12.4481 1.53138 12 0.979092 12C0.426807 12 -0.0236523 12.4506 0.00096316 13.0023C0.328068 20.3341 4.32426 24 11.9895 24C19.9965 24 24 20 24 12C24 4 19.9965 0 11.9895 0C5.97533 0 2.21982 2.25674 0.723019 6.77022C0.517265 7.39066 1.00486 8 1.65852 8C2.1206 8 2.51934 7.68706 2.67212 7.25097C3.08734 6.06579 3.67483 5.13467 4.3953 4.41483C5.88963 2.92181 8.29391 2 11.9895 2C15.6852 2 18.0895 2.92181 19.5838 4.41483C21.0778 5.90753 22 8.30873 22 12Z" fill="#ABAFD1"/>
<path d="M0 1C0 0.447715 0.447715 0 1 0C1.55228 0 2 0.447715 2 1V6H7C7.55228 6 8 6.44772 8 7C8 7.55228 7.55228 8 7 8H1C0.447715 8 0 7.55228 0 7V1Z" fill="#767BFA"/>
</svg>
