<svg width="24" height="24" viewBox="0 0 24 24" fill="none" xmlns="http://www.w3.org/2000/svg">
<path d="M2 12C2 15.6913 2.92221 18.0925 4.41621 19.5852C5.91053 21.0782 8.31482 22 12.0105 22C15.7061 22 18.1104 21.0782 19.6047 19.5852C20.9593 18.2317 21.8439 16.1314 21.9971 12.9997C22.0241 12.4481 22.4686 12 23.0209 12C23.5732 12 24.0237 12.4506 23.999 13.0023C23.6719 20.3341 19.6757 24 12.0105 24C4.00348 24 0 20 0 12C0 4 4.00348 0 12.0105 0C18.0247 0 21.7802 2.25674 23.277 6.77022C23.4827 7.39066 22.9951 8 22.3415 8C21.8794 8 21.4807 7.68706 21.3279 7.25097C20.9127 6.06579 20.3252 5.13467 19.6047 4.41483C18.1104 2.92181 15.7061 2 12.0105 2C8.31482 2 5.91053 2.92181 4.41621 4.41483C2.92221 5.90753 2 8.30873 2 12Z" fill="#ABAFD1"/>
<path d="M24 1C24 0.447715 23.5523 0 23 0C22.4477 0 22 0.447715 22 1V6H17C16.4477 6 16 6.44772 16 7C16 7.55228 16.4477 8 17 8H23C23.5523 8 24 7.55228 24 7V1Z" fill="#767BFA"/>
</svg>
