<svg width="24" height="24" viewBox="0 0 24 24" fill="none" xmlns="http://www.w3.org/2000/svg">
<path fill-rule="evenodd" clip-rule="evenodd" d="M0 12C0 21.882 2.118 24 12 24C21.882 24 24 21.882 24 12C24 2.118 21.882 0 12 0C2.118 0 0 2.118 0 12ZM2 12C2 14.4249 2.13254 16.2369 2.43771 17.6101C2.73783 18.9605 3.17768 19.7608 3.70846 20.2915C4.23924 20.8223 5.03949 21.2622 6.38993 21.5623C7.76307 21.8675 9.57515 22 12 22C14.4249 22 16.2369 21.8675 17.6101 21.5623C18.9605 21.2622 19.7608 20.8223 20.2915 20.2915C20.8223 19.7608 21.2622 18.9605 21.5623 17.6101C21.8675 16.2369 22 14.4249 22 12C22 9.57515 21.8675 7.76307 21.5623 6.38993C21.2622 5.03949 20.8223 4.23924 20.2915 3.70846C19.7608 3.17768 18.9605 2.73783 17.6101 2.43771C16.2369 2.13254 14.4249 2 12 2C9.57515 2 7.76307 2.13254 6.38993 2.43771C5.03949 2.73783 4.23924 3.17768 3.70846 3.70846C3.17768 4.23924 2.73783 5.03949 2.43771 6.38993C2.13254 7.76307 2 9.57515 2 12Z" fill="#ABAFD1"/>
<path fill-rule="evenodd" clip-rule="evenodd" d="M16.0775 14.5961L18.0977 9.11201C18.8349 7.11079 16.8889 5.16474 14.8877 5.90195L9.40362 7.92215C8.71657 8.17525 8.175 8.71681 7.92191 9.40387L5.9017 14.8879C5.1645 16.8891 7.11056 18.8352 9.11177 18.098L14.5958 16.0778C15.2829 15.8247 15.8244 15.2831 16.0775 14.5961ZM15.579 7.77866C15.9793 7.63122 16.3685 8.02043 16.221 8.42067L14.2008 13.9047C14.1502 14.0421 14.0419 14.1504 13.9045 14.2011L8.42043 16.2213C8.02019 16.3687 7.63098 15.9795 7.77842 15.5793L9.79862 10.0952C9.84924 9.9578 9.95755 9.84948 10.095 9.79886L15.579 7.77866Z" fill="#767BFA"/>
</svg>
