<svg width="24" height="24" viewBox="0 0 24 24" fill="none" xmlns="http://www.w3.org/2000/svg">
<path d="M8.30021 15.694C7.89153 15.286 7.89153 14.6244 8.30021 14.2164L14.22 8.30604C14.6287 7.89799 15.2913 7.89799 15.7 8.30604C16.1086 8.71406 16.1086 9.37559 15.7 9.78361L9.78016 15.694C9.37148 16.102 8.70888 16.102 8.30021 15.694Z" fill="#767BFA"/>
<path d="M8.9953 11C8.44213 11 7.9937 10.5523 7.9937 10V9.00001C7.9937 8.44773 8.44213 8.00001 8.9953 8.00001C9.54846 8.00001 9.99689 8.44773 9.99689 9.00001V10C9.99689 10.5523 9.54846 11 8.9953 11Z" fill="#767BFA"/>
<path d="M14.0033 15C14.0033 15.5523 14.4517 16 15.0049 16C15.558 16 16.0065 15.5523 16.0065 15V14C16.0065 13.4477 15.558 13 15.0049 13C14.4517 13 14.0033 13.4477 14.0033 14V15Z" fill="#767BFA"/>
<path fill-rule="evenodd" clip-rule="evenodd" d="M0.553036 19.4616C1.1863 21.1602 2.10003 22.2241 3.48642 23C4.7406 23.7019 6.55061 24 9.77466 24H14.2253C17.4494 24 19.2594 23.7019 20.5136 23C21.9 22.2241 22.8137 21.1602 23.447 19.4616C23.7631 18.6136 23.9048 17.6321 23.9683 16.2588C23.9883 15.8264 23.9983 15.6102 23.9638 15.4021C23.8329 14.613 23.1889 13.9396 22.4054 13.7728C22.1988 13.7287 21.9601 13.7287 21.4829 13.7287C20.8266 13.7287 20.2946 13.0769 20.2946 12.2729C20.2946 11.4689 20.8266 10.8171 21.4829 10.8171C21.9699 10.8171 22.2135 10.8171 22.4211 10.7727C23.1988 10.6061 23.8286 9.95778 23.9716 9.17669C24.0098 8.96808 24.0028 8.74023 23.9889 8.28452C23.938 6.61962 23.8033 5.49417 23.447 4.53836C22.8137 2.83978 21.9 1.77586 20.5136 1C19.2594 0.298132 17.4494 0 14.2253 0H9.77466C6.55061 0 4.7406 0.298132 3.48642 1C2.10003 1.77586 1.1863 2.83978 0.553036 4.53836C0.196692 5.49417 0.0620053 6.61962 0.0110984 8.28454C-0.00283493 8.74023 -0.0098016 8.96807 0.0283821 9.17668C0.171356 9.95778 0.801241 10.6062 1.57886 10.7727C1.78654 10.8171 2.03007 10.8171 2.51714 10.8171C3.17338 10.8171 3.70537 11.4689 3.70537 12.2729C3.70537 13.0769 3.17338 13.7287 2.51714 13.7287C2.03987 13.7287 1.80123 13.7287 1.59458 13.7727C0.811143 13.9396 0.167089 14.613 0.0362485 15.4021C0.00173491 15.6102 0.0117306 15.8264 0.0317221 16.2588C0.0952122 17.6321 0.236889 18.6136 0.553036 19.4616ZM2.01336 8.34556C2.06298 6.72261 2.19373 5.87085 2.43039 5.23605C2.91083 3.94739 3.52443 3.27148 4.46588 2.74463C5.23212 2.31582 6.57941 2 9.77466 2H14.2253C17.4206 2 18.7679 2.31582 19.5341 2.74463C20.4756 3.27148 21.0892 3.94739 21.5696 5.23605C21.8063 5.87084 21.937 6.7226 21.9866 8.34555C21.9941 8.5887 21.9975 8.71371 21.9967 8.80487L21.9966 8.81237L21.9813 8.813C21.88 8.81681 21.7412 8.81714 21.4829 8.81714C19.3565 8.81714 18.2914 10.7664 18.2914 12.2729C18.2914 13.7794 19.3565 15.7287 21.4829 15.7287C21.7364 15.7287 21.8712 15.7291 21.9696 15.7328L21.9784 15.7331L21.9806 15.7353L21.9833 15.7383C21.9828 15.8218 21.9778 15.9368 21.9672 16.1666C21.907 17.4694 21.7775 18.2064 21.5696 18.764C21.0892 20.0526 20.4756 20.7285 19.5341 21.2554C18.7679 21.6842 17.4206 22 14.2253 22H9.77466C6.57941 22 5.23212 21.6842 4.46588 21.2554C3.52443 20.7285 2.91083 20.0526 2.43039 18.764C2.22252 18.2064 2.09301 17.4694 2.03279 16.1666C2.02216 15.9368 2.01722 15.8218 2.01673 15.7383L2.01945 15.7353L2.02159 15.7331L2.03038 15.7328C2.12876 15.7291 2.26362 15.7287 2.51714 15.7287C4.64346 15.7287 5.70856 13.7794 5.70856 12.2729C5.70856 10.7664 4.64346 8.81714 2.51714 8.81714C2.25876 8.81714 2.11996 8.81681 2.01868 8.813L2.00339 8.81237L2.00331 8.80487C2.00247 8.71371 2.00593 8.58871 2.01336 8.34556Z" fill="#ABAFD1"/>
</svg>
