<svg width="24" height="24" viewBox="0 0 24 24" fill="none" xmlns="http://www.w3.org/2000/svg">
<path d="M18 12.0003L18.3339 12.9429C18.8545 12.7585 19.127 12.187 18.9427 11.6664C18.7583 11.1459 18.1868 10.8733 17.6663 11.0576L17.6647 11.0582L17.657 11.0609L17.6243 11.0722C17.595 11.0824 17.5514 11.0973 17.4959 11.116C17.3847 11.1533 17.2268 11.2052 17.042 11.2624C16.6666 11.3788 16.2037 11.5102 15.8018 11.5916C14.4817 11.8586 13.5812 12.0003 12 12.0003C10.4188 12.0003 9.5184 11.8586 8.19831 11.5916C7.79631 11.5102 7.33347 11.3788 6.95806 11.2624C6.77327 11.2052 6.61536 11.1533 6.50417 11.116C6.44866 11.0973 6.40503 11.0824 6.37577 11.0722L6.34304 11.0609L6.3354 11.0582L6.33388 11.0576C5.81333 10.8734 5.24176 11.1459 5.0574 11.6664C4.87302 12.187 5.14558 12.7585 5.66618 12.9429L6.00003 12.0003C5.97395 12.0739 5.9499 12.1418 5.92774 12.2044C5.66618 12.9429 5.66612 12.9429 5.66618 12.9429L5.67102 12.9446L5.68213 12.9485L5.72221 12.9624C5.75655 12.9743 5.80578 12.9912 5.86734 13.0119C5.9903 13.0532 6.16336 13.11 6.36589 13.1728C6.7651 13.2965 7.30226 13.4508 7.80175 13.5518C9.20483 13.8357 10.2446 14.0003 12 14.0003C13.7555 14.0003 14.7952 13.8357 16.1983 13.5518C16.6978 13.4508 17.235 13.2965 17.6342 13.1728C17.8367 13.11 18.0098 13.0532 18.1327 13.0119C18.1943 12.9912 18.2435 12.9743 18.2778 12.9624L18.3179 12.9485L18.329 12.9446L18.3339 12.9429C18.3339 12.9429 18.3339 12.9429 18 12.0003Z" fill="#767BFA"/>
<path d="M2.00129 15.0114C1.96476 14.4752 1.52548 14.0504 0.988034 14.0504C0.420441 14.0504 -0.0354561 14.5258 0.0021736 15.0921C0.427057 21.4868 2.51371 23.5735 8.90838 23.9984C9.47472 24.036 9.9501 23.5801 9.9501 23.0125C9.9501 22.475 9.52533 22.0358 8.98913 21.9992C7.95281 21.9286 7.07422 21.8134 6.32548 21.647C4.96932 21.3456 4.16478 20.9037 3.63082 20.3697C3.09686 19.8357 2.65495 19.0312 2.35355 17.6751C2.18715 16.9263 2.07189 16.0477 2.00129 15.0114Z" fill="#ABAFD1"/>
<path d="M21.9133 15.0114C21.9499 14.4752 22.3891 14.0504 22.9266 14.0504C23.4942 14.0504 23.9501 14.5258 23.9125 15.0921C23.4876 21.4868 21.4009 23.5735 15.0062 23.9984C14.4399 24.036 13.9645 23.5801 13.9645 23.0125C13.9645 22.475 14.3893 22.0358 14.9255 21.9992C15.9618 21.9286 16.8404 21.8134 17.5892 21.647C18.9453 21.3456 19.7498 20.9037 20.2838 20.3697C20.8178 19.8357 21.2597 19.0312 21.5611 17.6751C21.7275 16.9263 21.8427 16.0477 21.9133 15.0114Z" fill="#ABAFD1"/>
<path d="M24.0005 12.0892C24.0005 12.0739 24.0005 12.0585 24.0005 12.0432C24.0005 12.0279 24.0005 12.0126 24.0005 11.9973V12.0892Z" fill="#ABAFD1"/>
<path d="M23.9125 8.9943C23.9501 9.56064 23.4942 10.036 22.9266 10.036C22.3891 10.036 21.9499 9.61125 21.9133 9.07505C21.8427 8.03872 21.7275 7.16012 21.5611 6.41138C21.2597 5.05522 20.8178 4.25068 20.2838 3.71672C19.7498 3.18276 18.9453 2.74085 17.5892 2.43945C16.8404 2.27305 15.9618 2.15778 14.9255 2.08719C14.3893 2.05066 13.9645 1.61138 13.9645 1.07393C13.9645 0.50634 14.4399 0.0504437 15.0062 0.0880731C21.4009 0.512954 23.4876 2.59961 23.9125 8.9943Z" fill="#ABAFD1"/>
<path d="M2.00129 9.07505C1.96476 9.61125 1.52548 10.036 0.988034 10.036C0.420441 10.036 -0.0354562 9.56064 0.00217349 8.9943C0.427057 2.59962 2.51371 0.512961 8.90838 0.0880753C9.47472 0.0504453 9.9501 0.506343 9.9501 1.07394C9.9501 1.61138 9.52533 2.05066 8.98913 2.08719C7.95281 2.15779 7.07422 2.27305 6.32548 2.43945C4.96932 2.74085 4.16478 3.18276 3.63082 3.71672C3.09686 4.25068 2.65495 5.05522 2.35355 6.41138C2.18715 7.16012 2.07189 8.03872 2.00129 9.07505Z" fill="#ABAFD1"/>
</svg>
