<svg width="24" height="25" viewBox="0 0 24 25" fill="none" xmlns="http://www.w3.org/2000/svg">
<path d="M0.987795 10.0358C0.420201 10.0358 -0.0356969 9.56042 0.00193493 8.99407C0.426828 2.59958 2.51349 0.512985 8.90815 0.0881114C9.47449 0.0504824 9.94986 0.506379 9.94986 1.07397C9.94986 1.61142 9.5251 2.0507 8.9889 2.08723C7.95257 2.15782 7.07397 2.27309 6.32522 2.43949C4.96906 2.74088 4.16452 3.18278 3.63056 3.71673C3.09661 4.25067 2.6547 5.05518 2.35331 6.41129C2.18691 7.16 2.07165 8.03855 2.00105 9.07482C1.96452 9.61103 1.52524 10.0358 0.987795 10.0358Z" fill="#ABAFD1"/>
<path d="M0.987789 14.0501C0.420196 14.0501 -0.0357008 14.5255 0.00192941 15.0918C0.42681 21.4864 2.51346 23.573 8.90815 23.9979C9.47449 24.0355 9.94986 23.5796 9.94986 23.012C9.94986 22.4746 9.5251 22.0353 8.9889 21.9987C7.95257 21.9282 7.07397 21.8129 6.32522 21.6465C4.96906 21.3451 4.16452 20.9032 3.63056 20.3692C3.09661 19.8353 2.6547 19.0308 2.35331 17.6747C2.18691 16.926 2.07164 16.0474 2.00104 15.0111C1.96451 14.4749 1.52524 14.0501 0.987789 14.0501Z" fill="#ABAFD1"/>
<path d="M22.9264 14.0501C22.3889 14.0501 21.9496 14.4749 21.9131 15.0111C21.8425 16.0474 21.7272 16.926 21.5608 17.6747C21.2594 19.0308 20.8175 19.8353 20.2836 20.3692C19.7496 20.9032 18.9451 21.3451 17.5889 21.6465C16.8402 21.8129 15.9616 21.9282 14.9252 21.9988C14.389 22.0353 13.9643 22.4746 13.9643 23.012C13.9643 23.5796 14.4396 24.0355 15.006 23.9979C21.4007 23.573 23.4873 21.4864 23.9122 15.0918C23.9498 14.5255 23.4939 14.0501 22.9264 14.0501Z" fill="#ABAFD1"/>
<path d="M24.0003 12.0755C24.0003 12.0647 24.0003 12.0538 24.0003 12.043C24.0003 12.0321 24.0003 12.0213 24.0003 12.0105V12.0755Z" fill="#ABAFD1"/>
<path d="M22.9263 10.0358C23.4939 10.0358 23.9498 9.56042 23.9122 8.99407C23.4873 2.59958 21.4007 0.512983 15.006 0.0881109C14.4396 0.0504821 13.9643 0.506379 13.9643 1.07397C13.9643 1.61142 14.389 2.0507 14.9252 2.08723C15.9616 2.15782 16.8402 2.27309 17.5889 2.43949C18.9451 2.74088 19.7496 3.18278 20.2836 3.71673C20.8175 4.25067 21.2594 5.05518 21.5608 6.41129C21.7272 7.16 21.8425 8.03855 21.9131 9.07483C21.9496 9.61103 22.3889 10.0358 22.9263 10.0358Z" fill="#ABAFD1"/>
<path d="M11.9571 24.0859L11.8585 24.0859H12.0556L11.9571 24.0859Z" fill="#ABAFD1"/>
<path fill-rule="evenodd" clip-rule="evenodd" d="M16.9998 11.9143C16.9998 14.6757 14.7612 16.9143 11.9998 16.9143C9.23833 16.9143 6.99976 14.6757 6.99976 11.9143C6.99976 9.15288 9.23833 6.91431 11.9998 6.91431C14.7612 6.91431 16.9998 9.15288 16.9998 11.9143ZM14.9998 11.9143C14.9998 13.5712 13.6566 14.9143 11.9998 14.9143C10.3429 14.9143 8.99976 13.5712 8.99976 11.9143C8.99976 10.2575 10.3429 8.91431 11.9998 8.91431C13.6566 8.91431 14.9998 10.2575 14.9998 11.9143Z" fill="#767BFA"/>
</svg>
