<svg width="24" height="24" viewBox="0 0 24 24" fill="none" xmlns="http://www.w3.org/2000/svg">
<path d="M5.66618 12.2295C5.14558 12.4139 4.87302 12.9854 5.0574 13.506C5.24177 14.0265 5.81322 14.2991 6.33379 14.1148L6.3354 14.1142L6.34304 14.1115L6.37577 14.1001C6.40503 14.09 6.44866 14.0751 6.50417 14.0564C6.61536 14.0191 6.77327 13.9672 6.95806 13.91C7.33347 13.7936 7.79631 13.6622 8.19831 13.5808C9.5184 13.3138 10.4188 13.1721 12 13.1721C13.5812 13.1721 14.4817 13.3138 15.8018 13.5808C16.2037 13.6622 16.6666 13.7936 17.042 13.91C17.2268 13.9672 17.3847 14.0191 17.4959 14.0564C17.5514 14.0751 17.595 14.09 17.6243 14.1001L17.657 14.1115L17.6647 14.1142L17.6662 14.1147C18.1867 14.299 18.7583 14.0265 18.9427 13.506C19.127 12.9854 18.8545 12.4139 18.3339 12.2295L18 13.1721C18.0209 13.1132 18.0405 13.058 18.0588 13.0062C18.3339 12.2295 18.3339 12.2295 18.3339 12.2295L18.329 12.2278L18.3179 12.2239L18.2778 12.2099C18.2435 12.1981 18.1943 12.1812 18.1327 12.1605C18.0098 12.1192 17.8367 12.0624 17.6342 11.9996C17.235 11.8759 16.6978 11.7216 16.1983 11.6205C14.7952 11.3367 13.7555 11.1721 12 11.1721C10.2446 11.1721 9.20483 11.3367 7.80175 11.6205C7.30226 11.7216 6.7651 11.8759 6.36589 11.9996C6.16336 12.0624 5.9903 12.1192 5.86734 12.1605C5.80578 12.1812 5.75655 12.1981 5.72221 12.2099L5.68213 12.2239L5.67102 12.2278L5.66618 12.2295C5.66612 12.2295 5.66618 12.2295 6.00003 13.1721L5.66618 12.2295Z" fill="#767BFA"/>
<path d="M2.00129 15.0114C1.96476 14.4752 1.52548 14.0504 0.988034 14.0504C0.420441 14.0504 -0.0354561 14.5258 0.0021736 15.0921C0.427057 21.4868 2.51371 23.5735 8.90838 23.9984C9.47472 24.036 9.9501 23.5801 9.9501 23.0125C9.9501 22.475 9.52533 22.0358 8.98913 21.9992C7.95281 21.9286 7.07422 21.8134 6.32548 21.647C4.96932 21.3456 4.16478 20.9037 3.63082 20.3697C3.09686 19.8357 2.65495 19.0312 2.35355 17.6751C2.18715 16.9263 2.07189 16.0477 2.00129 15.0114Z" fill="#ABAFD1"/>
<path d="M21.9133 15.0114C21.9499 14.4752 22.3891 14.0504 22.9266 14.0504C23.4942 14.0504 23.9501 14.5258 23.9125 15.0921C23.4876 21.4868 21.4009 23.5735 15.0062 23.9984C14.4399 24.036 13.9645 23.5801 13.9645 23.0125C13.9645 22.475 14.3893 22.0358 14.9255 21.9992C15.9618 21.9286 16.8404 21.8134 17.5892 21.647C18.9453 21.3456 19.7498 20.9037 20.2838 20.3697C20.8178 19.8357 21.2597 19.0312 21.5611 17.6751C21.7275 16.9263 21.8427 16.0477 21.9133 15.0114Z" fill="#ABAFD1"/>
<path d="M24.0005 12.0892C24.0005 12.0739 24.0005 12.0585 24.0005 12.0432C24.0005 12.0279 24.0005 12.0126 24.0005 11.9973V12.0892Z" fill="#ABAFD1"/>
<path d="M23.9125 8.9943C23.9501 9.56064 23.4942 10.036 22.9266 10.036C22.3891 10.036 21.9499 9.61125 21.9133 9.07505C21.8427 8.03872 21.7275 7.16012 21.5611 6.41138C21.2597 5.05522 20.8178 4.25068 20.2838 3.71672C19.7498 3.18276 18.9453 2.74085 17.5892 2.43945C16.8404 2.27305 15.9618 2.15778 14.9255 2.08719C14.3893 2.05066 13.9645 1.61138 13.9645 1.07393C13.9645 0.50634 14.4399 0.0504437 15.0062 0.0880731C21.4009 0.512954 23.4876 2.59961 23.9125 8.9943Z" fill="#ABAFD1"/>
<path d="M2.00129 9.07505C1.96476 9.61125 1.52548 10.036 0.988034 10.036C0.420441 10.036 -0.0354562 9.56064 0.00217349 8.9943C0.427057 2.59962 2.51371 0.512961 8.90838 0.0880753C9.47472 0.0504453 9.9501 0.506343 9.9501 1.07394C9.9501 1.61138 9.52533 2.05066 8.98913 2.08719C7.95281 2.15779 7.07422 2.27305 6.32548 2.43945C4.96932 2.74085 4.16478 3.18276 3.63082 3.71672C3.09686 4.25068 2.65495 5.05522 2.35355 6.41138C2.18715 7.16012 2.07189 8.03872 2.00129 9.07505Z" fill="#ABAFD1"/>
</svg>
