<svg width="24" height="25" viewBox="0 0 24 25" fill="none" xmlns="http://www.w3.org/2000/svg">
<path d="M2.00129 15.9254C1.96476 15.3892 1.52548 14.9645 0.988034 14.9645C0.420441 14.9645 -0.0354561 15.4398 0.0021736 16.0062C0.427057 22.4009 2.51371 24.4875 8.90838 24.9124C9.47472 24.95 9.9501 24.4941 9.9501 23.9266C9.9501 23.3891 9.52533 22.9498 8.98913 22.9133C7.95281 22.8427 7.07422 22.7274 6.32548 22.561C4.96932 22.2596 4.16478 21.8177 3.63082 21.2838C3.09686 20.7498 2.65495 19.9453 2.35355 18.5891C2.18715 17.8404 2.07189 16.9618 2.00129 15.9254Z" fill="#ABAFD1"/>
<path d="M21.9133 15.9254C21.9499 15.3892 22.3891 14.9645 22.9266 14.9645C23.4942 14.9645 23.9501 15.4399 23.9125 16.0062C23.4876 22.4009 21.4009 24.4875 15.0062 24.9124C14.4399 24.95 13.9645 24.4942 13.9645 23.9266C13.9645 23.3891 14.3893 22.9498 14.9255 22.9133C15.9618 22.8427 16.8404 22.7274 17.5892 22.561C18.9453 22.2596 19.7498 21.8177 20.2838 21.2838C20.8178 20.7498 21.2597 19.9453 21.5611 18.5891C21.7275 17.8404 21.8427 16.9618 21.9133 15.9254Z" fill="#ABAFD1"/>
<path d="M24.0005 13.0032C24.0005 12.9879 24.0005 12.9726 24.0005 12.9573C24.0005 12.9419 24.0005 12.9266 24.0005 12.9113V13.0032Z" fill="#ABAFD1"/>
<path d="M23.9125 9.90836C23.9501 10.4747 23.4942 10.9501 22.9266 10.9501C22.3891 10.9501 21.9499 10.5253 21.9133 9.98911C21.8427 8.95278 21.7275 8.07419 21.5611 7.32544C21.2597 5.96928 20.8178 5.16474 20.2838 4.63078C19.7498 4.09683 18.9453 3.65491 17.5892 3.35352C16.8404 3.18711 15.9618 3.07185 14.9255 3.00125C14.3893 2.96472 13.9645 2.52544 13.9645 1.988C13.9645 1.4204 14.4399 0.964506 15.0062 1.00214C21.4009 1.42702 23.4876 3.51367 23.9125 9.90836Z" fill="#ABAFD1"/>
<path d="M2.00129 9.98911C1.96476 10.5253 1.52548 10.9501 0.988034 10.9501C0.420441 10.9501 -0.0354562 10.4747 0.00217349 9.90836C0.427057 3.51368 2.51371 1.42702 8.90838 1.00214C9.47472 0.964508 9.9501 1.42041 9.9501 1.988C9.9501 2.52544 9.52533 2.96472 8.98913 3.00125C7.95281 3.07185 7.07422 3.18711 6.32548 3.35352C4.96932 3.65491 4.16478 4.09683 3.63082 4.63078C3.09686 5.16474 2.65495 5.96928 2.35355 7.32544C2.18715 8.07419 2.07189 8.95278 2.00129 9.98911Z" fill="#ABAFD1"/>
<path d="M6 12.1721C5.44772 12.1721 5 12.6198 5 13.1721C5 13.7244 5.44772 14.1721 6 14.1721H18C18.5523 14.1721 19 13.7244 19 13.1721C19 12.6198 18.5523 12.1721 18 12.1721H6Z" fill="#767BFA"/>
</svg>
