<svg width="24" height="24" viewBox="0 0 24 24" fill="none" xmlns="http://www.w3.org/2000/svg">
<path d="M19.6915 18.2571L18.2571 19.6915L21.8484 23.2828C22.2445 23.6789 22.8867 23.6789 23.2828 23.2828C23.6789 22.8867 23.6789 22.2445 23.2828 21.8484L19.6915 18.2571Z" fill="#767BFA"/>
<path fill-rule="evenodd" clip-rule="evenodd" d="M0 11C0 19.5 3 22 11 22C19 22 22 19.5 22 11C22 2.5 19 0 11 0C3 0 0 2.5 0 11ZM2 11C2 15.1211 2.75081 17.151 3.88827 18.2478C5.04294 19.3612 7.09172 20 11 20C14.9083 20 16.9571 19.3612 18.1117 18.2478C19.2492 17.151 20 15.1211 20 11C20 6.87885 19.2492 4.84902 18.1117 3.75219C16.9571 2.63876 14.9083 2 11 2C7.09172 2 5.04294 2.63876 3.88827 3.75219C2.75081 4.84902 2 6.87885 2 11Z" fill="#ABAFD1"/>
</svg>
