<svg width="22" height="24" viewBox="0 0 22 24" fill="none" xmlns="http://www.w3.org/2000/svg">
<path fill-rule="evenodd" clip-rule="evenodd" d="M6.60643 3.65554C6.55267 3.94423 6.25616 4.11326 5.98413 4.0171C1.30599 2.36352 -2.16181 8.42001 1.58941 11.6377C1.81102 11.8278 1.81102 12.1722 1.58941 12.3623C-2.16181 15.58 1.30599 21.6365 5.98413 19.9829C6.25616 19.8867 6.55267 20.0558 6.60643 20.3445C7.51399 25.2185 14.486 25.2185 15.3936 20.3445C15.4473 20.0558 15.7438 19.8867 16.0159 19.9829C20.694 21.6365 24.1618 15.58 20.4106 12.3623C20.189 12.1722 20.189 11.8278 20.4106 11.6377C24.1618 8.42001 20.694 2.36352 16.0159 4.0171C15.7438 4.11326 15.4473 3.94423 15.3936 3.65554C14.486 -1.21851 7.51399 -1.21851 6.60643 3.65554ZM8.57055 4.02202C9.07256 1.32599 12.9274 1.32599 13.4295 4.02202C13.7076 5.5159 15.2508 6.40856 16.6811 5.90298C19.2624 4.99056 21.1899 8.33543 19.1106 10.119C17.9584 11.1073 17.9584 12.8927 19.1106 13.881C21.1899 15.6646 19.2624 19.0094 16.6811 18.097C15.2508 17.5914 13.7076 18.4841 13.4295 19.978C12.9274 22.674 9.07256 22.674 8.57055 19.978C8.29239 18.4841 6.74923 17.5914 5.3189 18.097C2.73757 19.0094 0.810125 15.6646 2.88945 13.881C4.04161 12.8927 4.04161 11.1073 2.88945 10.119C0.810125 8.33543 2.73757 4.99056 5.3189 5.90298C6.74923 6.40856 8.29239 5.5159 8.57055 4.02202Z" fill="#ABAFD1"/>
<path fill-rule="evenodd" clip-rule="evenodd" d="M7.00404 12C7.00404 14.2091 8.79307 16 10.9999 16C13.2068 16 14.9958 14.2091 14.9958 12C14.9958 9.79086 13.2068 8 10.9999 8C8.79307 8 7.00404 9.79086 7.00404 12ZM9.00199 12C9.00199 13.1046 9.89651 14 10.9999 14C12.1034 14 12.9979 13.1046 12.9979 12C12.9979 10.8954 12.1034 10 10.9999 10C9.89651 10 9.00199 10.8954 9.00199 12Z" fill="#767BFA"/>
</svg>
