<svg width="24" height="14" viewBox="0 0 24 14" fill="none" xmlns="http://www.w3.org/2000/svg">
<path fill-rule="evenodd" clip-rule="evenodd" d="M0.441643 5.89359C-0.147214 6.53437 -0.147214 7.46563 0.441643 8.10641C2.25469 10.0793 6.54403 14 12 14C17.456 14 21.7453 10.0793 23.5584 8.10641C24.1472 7.46563 24.1472 6.53437 23.5584 5.89359C21.7453 3.92067 17.456 0 12 0C6.54403 0 2.25469 3.92067 0.441643 5.89359ZM12 2C7.68339 2 4.04578 5.05757 2.20582 7C4.04578 8.94243 7.68339 12 12 12C16.3166 12 19.9542 8.94243 21.7942 7C19.9542 5.05757 16.3166 2 12 2Z" fill="#ABAFD1"/>
<path fill-rule="evenodd" clip-rule="evenodd" d="M9 7C9 8.65685 10.3431 10 12 10C13.6569 10 15 8.65685 15 7C15 5.34315 13.6569 4 12 4C10.3431 4 9 5.34315 9 7ZM11 7C11 7.55228 11.4477 8 12 8C12.5523 8 13 7.55228 13 7C13 6.44772 12.5523 6 12 6C11.4477 6 11 6.44772 11 7Z" fill="#767BFA"/>
</svg>
