<svg width="24" height="24" viewBox="0 0 24 24" fill="none" xmlns="http://www.w3.org/2000/svg">
<path fill-rule="evenodd" clip-rule="evenodd" d="M15 12C15 13.6569 13.6569 15 12 15C10.3431 15 9 13.6569 9 12C9 10.3431 10.3431 9 12 9C13.6569 9 15 10.3431 15 12ZM13 12C13 12.5523 12.5523 13 12 13C11.4477 13 11 12.5523 11 12C11 11.4477 11.4477 11 12 11C12.5523 11 13 11.4477 13 12Z" fill="#767BFA"/>
<path fill-rule="evenodd" clip-rule="evenodd" d="M13 1C13 0.447715 12.5523 0 12 0C11.4477 0 11 0.447715 11 1V5.01438C6.40727 5.15677 5.15677 6.40727 5.01438 11H1C0.447715 11 0 11.4477 0 12C0 12.5523 0.447715 13 1 13H5.01438C5.15677 17.5927 6.40727 18.8432 11 18.9856V23C11 23.5523 11.4477 24 12 24C12.5523 24 13 23.5523 13 23V18.9856C17.5927 18.8432 18.8432 17.5927 18.9856 13H23C23.5523 13 24 12.5523 24 12C24 11.4477 23.5523 11 23 11H18.9856C18.8432 6.40727 17.5927 5.15677 13 5.01438V1ZM17 12C17 10.6045 16.9226 9.61964 16.7645 8.90825C16.6115 8.21957 16.4106 7.91565 16.2475 7.75253C16.0843 7.5894 15.7804 7.38854 15.0918 7.23548C14.3804 7.07738 13.3955 7 12 7C10.6045 7 9.61964 7.07738 8.90825 7.23548C8.21957 7.38854 7.91565 7.5894 7.75253 7.75253C7.5894 7.91565 7.38854 8.21957 7.23548 8.90825C7.07738 9.61964 7 10.6045 7 12C7 13.3955 7.07738 14.3804 7.23548 15.0918C7.38854 15.7804 7.5894 16.0843 7.75253 16.2475C7.91565 16.4106 8.21957 16.6115 8.90825 16.7645C9.61964 16.9226 10.6045 17 12 17C13.3955 17 14.3804 16.9226 15.0918 16.7645C15.7804 16.6115 16.0843 16.4106 16.2475 16.2475C16.4106 16.0843 16.6115 15.7804 16.7645 15.0918C16.9226 14.3804 17 13.3955 17 12Z" fill="#ABAFD1"/>
</svg>
