<svg width="22" height="24" viewBox="0 0 22 24" fill="none" xmlns="http://www.w3.org/2000/svg">
<path fill-rule="evenodd" clip-rule="evenodd" d="M0 12C0 21.882 1.9415 24 11 24C20.0585 24 22 21.882 22 12C22 2.118 20.0585 0 11 0C1.9415 0 0 2.118 0 12ZM2 12C2 14.429 2.12155 16.2551 2.40464 17.6447C2.68495 19.0206 3.09659 19.8298 3.57737 20.3543C4.54003 21.4045 6.41667 22 11 22C15.5833 22 17.46 21.4045 18.4226 20.3543C18.9034 19.8298 19.3151 19.0206 19.5954 17.6447C19.8785 16.2551 20 14.429 20 12C20 9.57096 19.8785 7.7449 19.5954 6.35527C19.3151 4.97937 18.9034 4.17019 18.4226 3.6457C17.46 2.59553 15.5833 2 11 2C6.41667 2 4.54003 2.59553 3.57737 3.6457C3.09659 4.17019 2.68495 4.97937 2.40464 6.35527C2.12155 7.7449 2 9.57096 2 12Z" fill="#ABAFD1"/>
<path fill-rule="evenodd" clip-rule="evenodd" d="M14 7C14 8.65685 12.6569 10 11 10C9.34315 10 8 8.65685 8 7C8 5.34315 9.34315 4 11 4C12.6569 4 14 5.34315 14 7ZM12 7C12 7.55228 11.5523 8 11 8C10.4477 8 10 7.55228 10 7C10 6.44772 10.4477 6 11 6C11.5523 6 12 6.44772 12 7Z" fill="#767BFA"/>
<path fill-rule="evenodd" clip-rule="evenodd" d="M15 16C15 18.2091 13.2091 20 11 20C8.79086 20 7 18.2091 7 16C7 13.7909 8.79086 12 11 12C13.2091 12 15 13.7909 15 16ZM13 16C13 17.1046 12.1046 18 11 18C9.89543 18 9 17.1046 9 16C9 14.8954 9.89543 14 11 14C12.1046 14 13 14.8954 13 16Z" fill="#767BFA"/>
</svg>
