<svg width="24" height="24" viewBox="0 0 24 24" fill="none" xmlns="http://www.w3.org/2000/svg">
<path fill-rule="evenodd" clip-rule="evenodd" d="M0 12C0 21.882 2.118 24 12 24C21.882 24 24 21.882 24 12C24 2.118 21.882 0 12 0C2.118 0 0 2.118 0 12ZM2 12C2 14.4249 2.13254 16.2369 2.43771 17.6101C2.73783 18.9605 3.17768 19.7608 3.70846 20.2915C4.23924 20.8223 5.03949 21.2622 6.38993 21.5623C7.76307 21.8675 9.57515 22 12 22C14.4249 22 16.2369 21.8675 17.6101 21.5623C18.9605 21.2622 19.7608 20.8223 20.2915 20.2915C20.8223 19.7608 21.2622 18.9605 21.5623 17.6101C21.8675 16.2369 22 14.4249 22 12C22 9.57515 21.8675 7.76307 21.5623 6.38993C21.2622 5.03949 20.8223 4.23924 20.2915 3.70846C19.7608 3.17768 18.9605 2.73783 17.6101 2.43771C16.2369 2.13254 14.4249 2 12 2C9.57515 2 7.76307 2.13254 6.38993 2.43771C5.03949 2.73783 4.23924 3.17768 3.70846 3.70846C3.17768 4.23924 2.73783 5.03949 2.43771 6.38993C2.13254 7.76307 2 9.57515 2 12Z" fill="#ABAFD1"/>
<path fill-rule="evenodd" clip-rule="evenodd" d="M7 12C7 16.1175 7.8825 17 12 17C16.1175 17 17 16.1175 17 12C17 7.8825 16.1175 7 12 7C7.8825 7 7 7.8825 7 12ZM9 12C9 12.9837 9.05532 13.6377 9.15459 14.0844C9.24882 14.5084 9.35409 14.6138 9.37015 14.6298C9.38621 14.6459 9.4916 14.7512 9.91558 14.8454C10.3623 14.9447 11.0163 15 12 15C12.9837 15 13.6377 14.9447 14.0844 14.8454C14.5084 14.7512 14.6138 14.6459 14.6298 14.6298C14.6459 14.6138 14.7512 14.5084 14.8454 14.0844C14.9447 13.6377 15 12.9837 15 12C15 11.0163 14.9447 10.3623 14.8454 9.91558C14.7512 9.4916 14.6459 9.38621 14.6298 9.37015C14.6138 9.35409 14.5084 9.24882 14.0844 9.15459C13.6377 9.05532 12.9837 9 12 9C11.0163 9 10.3623 9.05532 9.91558 9.15459C9.4916 9.24882 9.38621 9.35409 9.37015 9.37015C9.35409 9.38621 9.24882 9.4916 9.15459 9.91558C9.05532 10.3623 9 11.0163 9 12Z" fill="#767BFA"/>
</svg>
