<svg width="24" height="24" viewBox="0 0 24 24" fill="none" xmlns="http://www.w3.org/2000/svg">
<path fill-rule="evenodd" clip-rule="evenodd" d="M12.0312 0C11.5304 0 11.1566 0.272794 10.9445 0.465027C10.7112 0.676487 10.5057 0.944105 10.3282 1.21165C9.96988 1.7518 9.6184 2.45751 9.29988 3.17601C8.65798 4.62394 8.07839 6.28879 7.77546 7.19764C7.77102 7.21098 7.75793 7.22146 7.74208 7.22199C6.79298 7.25408 5.05356 7.3392 3.5375 7.56154C2.78851 7.67138 2.03421 7.82283 1.44527 8.04213C1.15528 8.15011 0.839033 8.29823 0.578179 8.51312C0.314172 8.73061 0 9.11177 0 9.66144C0 10.0416 0.143828 10.3781 0.27402 10.6183C0.413569 10.8757 0.597996 11.1308 0.795264 11.3717C1.19066 11.8545 1.71348 12.3713 2.25402 12.8629C3.34026 13.8507 4.59819 14.8262 5.31389 15.3655C5.32518 15.374 5.33043 15.3882 5.32576 15.4035C5.05091 16.3059 4.57355 17.9569 4.26989 19.4883C4.11906 20.2489 4.00259 21.0211 3.9851 21.6732C3.9764 21.9976 3.99068 22.3334 4.05554 22.6413C4.11595 22.928 4.2487 23.3306 4.58844 23.6308C4.96974 23.9678 5.42866 24.0125 5.74642 23.9928C6.07135 23.9727 6.39678 23.8787 6.68679 23.7692C7.27244 23.5482 7.93353 23.1783 8.56741 22.779C9.84797 21.9723 11.2039 20.9252 11.975 20.3095C11.989 20.2983 12.0095 20.298 12.0241 20.3097C12.7951 20.9259 14.1522 21.9737 15.4423 22.781C16.0813 23.1808 16.7492 23.5507 17.3449 23.7714C17.6407 23.881 17.9694 23.9734 18.2973 23.993C18.6192 24.0122 19.0654 23.9671 19.4462 23.6544C19.803 23.3615 19.9512 22.9592 20.02 22.6608C20.0925 22.3465 20.1093 22.0053 20.1012 21.6784C20.0851 21.0215 19.9626 20.2464 19.8039 19.486C19.4841 17.9544 18.9782 16.3028 18.6856 15.3967C18.6804 15.3806 18.6859 15.3656 18.6976 15.3568C19.4169 14.8145 20.672 13.8404 21.7546 12.855C22.2933 12.3647 22.8141 11.8493 23.2079 11.3678C23.4044 11.1275 23.5881 10.873 23.7271 10.6162C23.8569 10.3764 24 10.0407 24 9.66144C24 9.11236 23.6865 8.73138 23.4227 8.51382C23.1621 8.29893 22.8462 8.1508 22.5566 8.04283C21.9685 7.82356 21.2152 7.6721 20.4672 7.56223C18.9531 7.33982 17.2151 7.25446 16.2638 7.2222C16.2478 7.22165 16.2349 7.21121 16.2306 7.19776C15.9345 6.2862 15.3694 4.62279 14.7405 3.17685C14.4285 2.45944 14.0832 1.75441 13.7294 1.21448C13.5542 0.947072 13.3505 0.678927 13.118 0.466782C12.9061 0.273382 12.5327 0 12.0312 0ZM9.67284 7.83006C9.97043 6.93722 10.526 5.34515 11.1283 3.98657C11.4318 3.30182 11.7297 2.71688 11.9948 2.31721C11.997 2.314 11.9991 2.31082 12.0012 2.30766C12.0103 2.29396 12.0193 2.28067 12.0281 2.26779C12.0374 2.28161 12.0469 2.29589 12.0566 2.31064C12.3172 2.70837 12.6093 3.2912 12.9065 3.97458C13.4962 5.33023 14.0376 6.92016 14.3284 7.81559C14.5933 8.63131 15.3408 9.19204 16.1961 9.22105C17.1299 9.25272 18.777 9.33541 20.1766 9.541C20.8597 9.64134 21.4285 9.76342 21.815 9.90118C21.771 9.96182 21.7194 10.0287 21.6597 10.1016C21.3563 10.4726 20.9179 10.9122 20.4084 11.376C19.3946 12.2988 18.1975 13.2291 17.4935 13.7598C16.7996 14.283 16.516 15.1866 16.7824 16.0114C17.069 16.8987 17.5485 18.4693 17.8461 19.8947C17.996 20.6129 18.0901 21.2501 18.1018 21.7275C18.1036 21.7982 18.1034 21.8617 18.1017 21.9182C18.082 21.9114 18.0614 21.904 18.0398 21.896C17.636 21.7464 17.1043 21.4617 16.5032 21.0856C15.3132 20.3409 14.0283 19.3512 13.2728 18.7474C12.529 18.1529 11.4719 18.1518 10.7271 18.7465C9.97063 19.3506 8.68486 20.3412 7.50135 21.0868C6.90454 21.4628 6.37902 21.7473 5.98325 21.8971C5.98243 21.8454 5.98272 21.7887 5.98438 21.7268C5.99739 21.2418 6.08875 20.5982 6.23169 19.8773C6.51559 18.4456 6.96961 16.8706 7.23898 15.9862C7.48787 15.1691 7.2012 14.2834 6.51749 13.7682C5.81711 13.2404 4.61719 12.3086 3.59961 11.3832C3.08824 10.9182 2.64765 10.477 2.34261 10.1045C2.28196 10.0304 2.22963 9.96263 2.18497 9.90118C2.57243 9.76308 3.14289 9.6408 3.8277 9.54037C5.22935 9.33481 6.87787 9.25235 7.80965 9.22085C8.65928 9.19213 9.40345 8.63827 9.67284 7.83006ZM12.3154 1.92445C12.3153 1.92481 12.3116 1.9279 12.3041 1.93265C12.3117 1.92646 12.3154 1.92409 12.3154 1.92445ZM11.7547 1.93083C11.7474 1.92613 11.7437 1.92308 11.7437 1.92273C11.7436 1.92238 11.7473 1.92473 11.7547 1.93083ZM18.0588 22.2538C18.0584 22.2549 18.0582 22.2555 18.0583 22.2556C18.0584 22.2557 18.0595 22.2533 18.0613 22.248C18.0601 22.2505 18.0593 22.2525 18.0588 22.2538ZM18.4262 21.9969L18.4303 21.9969C18.4303 21.9969 18.429 21.997 18.4262 21.9969ZM5.61381 21.997L5.6174 21.9969C5.61494 21.997 5.61377 21.997 5.61381 21.997Z" fill="#ABAFD1"/>
</svg>
