<svg width="26" height="26" viewBox="0 0 26 26" fill="none" xmlns="http://www.w3.org/2000/svg">
<path fill-rule="evenodd" clip-rule="evenodd" d="M6.00133 13C5.94451 18.25 7.69435 20 13.0007 20C18.307 20 20 18.25 20 13C20 7.75 18.307 6 13.0007 6C7.69435 6 6.05815 7.75 6.00133 13ZM8.00122 13.0216C7.97401 15.5357 8.41264 16.5631 8.9041 17.0546C9.40185 17.5524 10.4509 18 13.0007 18C15.5497 18 16.5812 17.5526 17.0713 17.0592C17.5646 16.5627 18 15.5276 18 13C18 10.4724 17.5646 9.43728 17.0713 8.94078C16.5812 8.44741 15.5497 8 13.0007 8C10.4524 8 9.43845 8.44721 8.95593 8.93612C8.4609 9.43772 8.02872 10.4805 8.00122 13.0216Z" fill="#ABAFD1"/>
<path d="M14 1C14 0.447715 13.5523 0 13 0C12.4477 0 12 0.447715 12 1V3C12 3.55228 12.4477 4 13 4C13.5523 4 14 3.55228 14 3V1Z" fill="#767BFA"/>
<path d="M14 23C14 22.4477 13.5523 22 13 22C12.4477 22 12 22.4477 12 23V25C12 25.5523 12.4477 26 13 26C13.5523 26 14 25.5523 14 25V23Z" fill="#767BFA"/>
<path d="M26 13C26 13.5523 25.5523 14 25 14H23C22.4477 14 22 13.5523 22 13C22 12.4477 22.4477 12 23 12H25C25.5523 12 26 12.4477 26 13Z" fill="#767BFA"/>
<path d="M3 14C3.55228 14 4 13.5523 4 13C4 12.4477 3.55228 12 3 12H1C0.447715 12 0 12.4477 0 13C0 13.5523 0.447715 14 1 14H3Z" fill="#767BFA"/>
<path d="M3.06218 3.06218C3.4527 2.67166 4.08587 2.67166 4.47639 3.06218L5.78182 4.36761C6.17235 4.75813 6.17235 5.3913 5.78182 5.78182C5.3913 6.17235 4.75813 6.17235 4.36761 5.78182L3.06218 4.47639C2.67166 4.08587 2.67166 3.4527 3.06218 3.06218Z" fill="#767BFA"/>
<path d="M4.47639 23.3201C4.08587 23.7107 3.4527 23.7107 3.06218 23.3201C2.67166 22.9296 2.67166 22.2965 3.06218 21.9059L4.36761 20.6005C4.75813 20.21 5.3913 20.21 5.78182 20.6005C6.17235 20.991 6.17235 21.6242 5.78182 22.0147L4.47639 23.3201Z" fill="#767BFA"/>
<path d="M23.3201 3.06218C22.9296 2.67166 22.2965 2.67166 21.9059 3.06218L20.6005 4.36761C20.21 4.75813 20.21 5.3913 20.6005 5.78182C20.991 6.17235 21.6242 6.17235 22.0147 5.78182L23.3201 4.47639C23.7107 4.08587 23.7107 3.4527 23.3201 3.06218Z" fill="#767BFA"/>
<path d="M21.9059 23.3201C22.2965 23.7107 22.9296 23.7107 23.3201 23.3201C23.7107 22.9296 23.7107 22.2965 23.3201 21.9059L22.0147 20.6005C21.6242 20.21 20.991 20.21 20.6005 20.6005C20.21 20.991 20.21 21.6242 20.6005 22.0147L21.9059 23.3201Z" fill="#767BFA"/>
</svg>
