<svg width="32" height="20" viewBox="0 0 32 20" fill="none" xmlns="http://www.w3.org/2000/svg">
<path fill-rule="evenodd" clip-rule="evenodd" d="M11 5C11 7.76142 13.2386 10 16 10C18.7614 10 21 7.76142 21 5C21 2.23858 18.7614 0 16 0C13.2386 0 11 2.23858 11 5ZM13 5C13 6.65685 14.3431 8 16 8C17.6569 8 19 6.65685 19 5C19 3.34315 17.6569 2 16 2C14.3431 2 13 3.34315 13 5Z" fill="#ABAFD1"/>
<path fill-rule="evenodd" clip-rule="evenodd" d="M8 16C8 19.294 9.412 20 16 20C22.588 20 24 19.294 24 16C24 12.706 22.588 12 16 12C9.412 12 8 12.706 8 16ZM10 16C10 16.7179 10.0837 17.0505 10.1512 17.2023C10.1828 17.2735 10.2156 17.3422 10.4239 17.4464C10.7033 17.5861 11.226 17.7432 12.1916 17.8505C13.1391 17.9557 14.3748 18 16 18C17.6252 18 18.861 17.9557 19.8084 17.8505C20.774 17.7432 21.2967 17.5861 21.5761 17.4464C21.7844 17.3422 21.8172 17.2735 21.8488 17.2023C21.9163 17.0505 22 16.7179 22 16C22 15.2821 21.9163 14.9495 21.8488 14.7977C21.8172 14.7265 21.7844 14.6578 21.5761 14.5536C21.2967 14.4139 20.774 14.2568 19.8084 14.1495C18.861 14.0443 17.6252 14 16 14C14.3748 14 13.1391 14.0443 12.1916 14.1495C11.226 14.2568 10.7033 14.4139 10.4239 14.5536C10.2156 14.6578 10.1828 14.7265 10.1512 14.7977C10.0837 14.9495 10 15.2821 10 16Z" fill="#ABAFD1"/>
<path d="M23 2C25.4161 2 27 4.01382 27 6C27 7.98618 25.4161 10 23 10C22.4477 10 22 9.55228 22 9C22 8.44772 22.4477 8 23 8C24.1839 8 25 7.01382 25 6C25 4.98618 24.1839 4 23 4C22.4477 4 22 3.55228 22 3C22 2.44772 22.4477 2 23 2Z" fill="#767BFA"/>
<path d="M25 11C24.4477 11 24 11.4477 24 12C24 12.5523 24.4477 13 25 13C26.09 13 26.9736 13.0269 27.6898 13.1017C28.4126 13.1773 28.9042 13.2963 29.2388 13.4473C29.5496 13.5875 29.7053 13.7452 29.803 13.9246C29.9127 14.1262 30 14.4504 30 15C30 15.5456 29.9142 15.8938 29.8055 16.1192C29.7048 16.328 29.5639 16.476 29.3539 16.596C28.8612 16.8776 28.0144 17 26.6 17C26.0477 17 25.6 17.4477 25.6 18C25.6 18.5523 26.0477 19 26.6 19C27.9856 19 29.3388 18.9081 30.3461 18.3325C30.8861 18.024 31.3202 17.5827 31.607 16.9879C31.8858 16.4098 32 15.7401 32 15C32 14.2639 31.8873 13.5702 31.5595 12.9683C31.2197 12.3441 30.7004 11.9125 30.0612 11.6242C29.4458 11.3466 28.7124 11.1977 27.8977 11.1126C27.0764 11.0267 26.11 11 25 11Z" fill="#767BFA"/>
<path d="M9 2C6.58385 2 5 4.01382 5 6C5 7.98618 6.58385 10 9 10C9.55228 10 10 9.55228 10 9C10 8.44772 9.55228 8 9 8C7.81615 8 7 7.01382 7 6C7 4.98618 7.81615 4 9 4C9.55228 4 10 3.55228 10 3C10 2.44772 9.55228 2 9 2Z" fill="#767BFA"/>
<path d="M7 11C7.55228 11 8 11.4477 8 12C8 12.5523 7.55228 13 7 13C5.90995 13 5.02637 13.0269 4.31021 13.1017C3.58737 13.1773 3.09582 13.2963 2.76122 13.4473C2.45036 13.5875 2.29469 13.7452 2.19702 13.9246C2.08726 14.1262 2 14.4504 2 15C2 15.5456 2.08578 15.8938 2.19449 16.1192C2.29517 16.328 2.43611 16.476 2.64614 16.596C3.13885 16.8776 3.98563 17 5.4 17C5.95228 17 6.4 17.4477 6.4 18C6.4 18.5523 5.95228 19 5.4 19C4.01437 19 2.66115 18.9081 1.65386 18.3325C1.11389 18.024 0.679829 17.5827 0.393009 16.9879C0.114219 16.4098 0 15.7401 0 15C0 14.2639 0.112741 13.5702 0.440482 12.9683C0.780311 12.3441 1.29964 11.9125 1.93878 11.6242C2.55418 11.3466 3.28763 11.1977 4.10229 11.1126C4.92363 11.0267 5.89005 11 7 11Z" fill="#767BFA"/>
</svg>
