<svg width="24" height="24" viewBox="0 0 24 24" fill="none" xmlns="http://www.w3.org/2000/svg">
<path fill-rule="evenodd" clip-rule="evenodd" d="M5.60797 1.17583C4.48609 2.25251 -3.13439 13.5361 1.45876 18.0105C2.88457 19.3994 9.59592 23.2086 11.4829 23.7987C17.6228 25.7192 23.6684 13.3014 23.9854 11.7876C24.2277 10.6307 21.3895 5.08986 19.6508 1.9318C19.0016 0.752799 17.6657 -0.0495353 16.3094 0.00237984C12.7543 0.138461 6.42724 0.389574 5.60797 1.17583ZM2.85433 16.5778C2.25897 15.9979 1.94026 15.1066 2.00903 13.7447C2.07861 12.3667 2.54273 10.7454 3.23513 9.09125C3.91897 7.45752 4.7777 5.90382 5.53589 4.69216C5.91369 4.08838 6.25893 3.58168 6.53468 3.20387C6.66119 3.03053 6.7686 2.89046 6.8541 2.7842C6.99654 2.7445 7.20147 2.69797 7.4769 2.64885C8.14993 2.52882 9.05681 2.42555 10.0995 2.33833C12.1756 2.16464 14.6012 2.06923 16.3859 2.00092C16.9429 1.9796 17.5932 2.34135 17.8988 2.89642C18.7564 4.45409 19.8775 6.58593 20.7481 8.45474C21.1855 9.39374 21.5415 10.2276 21.7697 10.8716C21.8722 11.1608 21.937 11.3787 21.973 11.5303C21.9337 11.6363 21.8704 11.7986 21.773 12.024C21.588 12.4523 21.3243 13.0083 20.9909 13.6433C20.3219 14.9172 19.4021 16.4528 18.3249 17.8716C17.2335 19.309 16.0588 20.522 14.9046 21.2601C13.7674 21.9873 12.8583 22.1334 12.0799 21.8899C11.3799 21.671 9.41791 20.6879 7.29285 19.4692C6.2711 18.8832 5.27415 18.2789 4.45552 17.7438C3.59262 17.1797 3.05625 16.7745 2.85433 16.5778ZM6.66976 2.84581C6.66976 2.84581 6.67762 2.84144 6.69705 2.83405C6.6801 2.84234 6.66976 2.84581 6.66976 2.84581ZM22.0036 11.6917C22.0036 11.6917 22.0023 11.6845 22.0015 11.6715C22.0035 11.6855 22.0036 11.6917 22.0036 11.6917Z" fill="#ABAFD1"/>
<path fill-rule="evenodd" clip-rule="evenodd" d="M16.7643 9.12377C17.6008 7.67481 17.1044 5.82203 15.6554 4.98548C14.2065 4.14892 12.3537 4.64537 11.5171 6.09433C10.6806 7.54328 11.177 9.39606 12.626 10.2326C14.075 11.0692 15.9277 10.5727 16.7643 9.12377ZM15.0322 8.12377C15.3165 7.63139 15.1478 7.0018 14.6554 6.71753C14.1631 6.43325 13.5335 6.60195 13.2492 7.09433C12.9649 7.5867 13.1336 8.21629 13.626 8.50057C14.1184 8.78484 14.748 8.61614 15.0322 8.12377Z" fill="#767BFA"/>
<path d="M6.09851 13.4601C5.61552 13.1813 4.99793 13.3467 4.71908 13.8297C4.44022 14.3127 4.60571 14.9303 5.08869 15.2092L12.0864 19.2493C12.5694 19.5282 13.187 19.3627 13.4659 18.8797C13.7447 18.3967 13.5792 17.7791 13.0962 17.5003L6.09851 13.4601Z" fill="#767BFA"/>
</svg>
