<svg width="24" height="24" viewBox="0 0 24 24" fill="none" xmlns="http://www.w3.org/2000/svg">
<path d="M7 1C6.44772 1 6 1.44772 6 2V7.01756C5.62996 7.04256 5.39685 7.10315 5.25 7.25C5 7.5 5 8 5 9C5 10 5 10.5 5.25 10.75C5.5 11 6 11 7 11C8 11 8.5 11 8.75 10.75C9 10.5 9 10 9 9C9 8 9 7.5 8.75 7.25C8.60315 7.10315 8.37004 7.04256 8 7.01756V2C8 1.44772 7.55228 1 7 1Z" fill="#767BFA"/>
<path d="M21.9205 11.8394C22.1408 10.4859 21.8711 9.90162 21.5546 9.60704C21.175 9.25381 20.4117 9 19 9C18.4477 9 18 8.55228 18 8C18 7.44772 18.4477 7 19 7C20.5189 7 21.9535 7.24619 22.9171 8.14296C23.9437 9.09838 24.1625 10.5141 23.8945 12.1606C23.6433 13.7038 23.2384 14.9674 22.4018 15.8238C21.5212 16.7252 20.3448 17 19 17C18.4477 17 18 16.5523 18 16C18 15.4477 18.4477 15 19 15C20.0974 15 20.6307 14.7748 20.9712 14.4262C21.3557 14.0326 21.6833 13.2962 21.9205 11.8394Z" fill="#767BFA"/>
<path fill-rule="evenodd" clip-rule="evenodd" d="M0.194831 12C1.28007 22 3.87977 24 9.99247 24C16.1052 24 18.7033 22 19.8019 12C20.9004 2 17.4036 0 9.99247 0C2.58133 0 -0.890407 2 0.194831 12ZM2.18316 11.7842C2.72283 16.7571 3.60759 19.1841 4.70567 20.4241C5.66721 21.5099 7.09233 22 9.99247 22C12.8922 22 14.3177 21.5101 15.2807 20.4235C16.3805 19.1825 17.2675 16.7547 17.8138 11.7816C18.3528 6.87554 17.6482 4.69002 16.6386 3.62784C15.6077 2.54313 13.6852 2 9.99247 2C6.29947 2 4.38512 2.5433 3.35909 3.62583C2.35193 4.68845 1.65043 6.87539 2.18316 11.7842Z" fill="#ABAFD1"/>
</svg>
