<svg width="20" height="24" viewBox="0 0 20 24" fill="none" xmlns="http://www.w3.org/2000/svg">
<path d="M3 0C2.44772 0 2 0.447715 2 1C2 1.55228 2.44772 2 3 2H9V5H11V2H17C17.5523 2 18 1.55228 18 1C18 0.447715 17.5523 0 17 0H3Z" fill="#767BFA"/>
<path fill-rule="evenodd" clip-rule="evenodd" d="M0 14C0 22.235 1.765 24 10 24C18.235 24 20 22.235 20 14C20 5.765 18.235 4 10 4C1.765 4 0 5.765 0 14ZM2 14C2 16.0131 2.11048 17.4943 2.35682 18.6027C2.59811 19.6885 2.94237 20.2902 3.32609 20.6739C3.70981 21.0576 4.31152 21.4019 5.39726 21.6432C6.5057 21.8895 7.9869 22 10 22C12.0131 22 13.4943 21.8895 14.6027 21.6432C15.6885 21.4019 16.2902 21.0576 16.6739 20.6739C17.0576 20.2902 17.4019 19.6885 17.6432 18.6027C17.8895 17.4943 18 16.0131 18 14C18 11.9869 17.8895 10.5057 17.6432 9.39726C17.4019 8.31153 17.0576 7.70981 16.6739 7.32609C16.2902 6.94237 15.6885 6.59811 14.6027 6.35682C13.4943 6.11048 12.0131 6 10 6C7.9869 6 6.5057 6.11048 5.39726 6.35682C4.31152 6.59811 3.70981 6.94237 3.32609 7.32609C2.94237 7.70981 2.59811 8.31153 2.35682 9.39726C2.11048 10.5057 2 11.9869 2 14Z" fill="#ABAFD1"/>
<path d="M5 12.7743C5 12.4675 5.24873 12.2188 5.55556 12.2188H7.77778C8.08199 12.2188 8.32909 12.4633 8.33328 12.7665C8.33747 12.4633 8.58457 12.2188 8.88878 12.2188C9.03884 12.2188 9.175 12.2782 9.27497 12.3749C9.28132 12.3807 9.28757 12.3867 9.29372 12.3928L10.5554 13.6545V12.7743C10.5554 12.4675 10.8041 12.2188 11.1109 12.2188C11.4178 12.2188 11.6665 12.4675 11.6665 12.7743V14.9965C11.6665 15.3034 11.4178 15.5521 11.1109 15.5521C10.9486 15.5521 10.8025 15.4824 10.7009 15.3714L9.44434 14.1148V14.9965C9.44434 15.3034 9.19561 15.5521 8.88878 15.5521C8.58196 15.5521 8.33322 15.3034 8.33322 14.9965L8.33323 12.7854C8.32732 13.0871 8.0809 13.3299 7.77778 13.3299H7.22217L7.22217 14.9965C7.22217 15.3034 6.97344 15.5521 6.66661 15.5521C6.35979 15.5521 6.11106 15.3034 6.11106 14.9965L6.11106 13.3299H5.55555C5.24873 13.3299 5 13.0811 5 12.7743Z" fill="#767BFA"/>
<path d="M11.6665 12.7743C11.6665 12.4675 11.9152 12.2188 12.2221 12.2188H14.4443C14.7511 12.2188 14.9998 12.4675 14.9998 12.7743C14.9998 13.0811 14.7511 13.3299 14.4443 13.3299H13.8887V14.9965C13.8887 15.3034 13.6399 15.5521 13.3331 15.5521C13.0263 15.5521 12.7776 15.3034 12.7776 14.9965V13.3299H12.2221C11.9152 13.3299 11.6665 13.0811 11.6665 12.7743Z" fill="#767BFA"/>
</svg>
