<svg width="24" height="24" viewBox="0 0 24 24" fill="none" xmlns="http://www.w3.org/2000/svg">
<path d="M5.10555 0.553005C5.35254 0.059027 5.95321 -0.141197 6.44719 0.105792L12 2.88218L17.5528 0.105792C18.0467 -0.141197 18.6474 0.059027 18.8944 0.553005C19.1414 1.04698 18.9412 1.64766 18.4472 1.89465L14.1676 4.03447C13.4902 4.0109 12.7686 4.00022 12 4.00022C11.2314 4.00022 10.5097 4.0109 9.8324 4.03447L5.55276 1.89465C5.05878 1.64766 4.85856 1.04698 5.10555 0.553005Z" fill="#767BFA"/>
<path fill-rule="evenodd" clip-rule="evenodd" d="M0 14.0002C0 22.2352 2.118 24.0002 12 24.0002C21.882 24.0002 24 22.2352 24 14.0002C24 5.76525 21.882 4.00024 12 4.00024C2.118 4.00024 0 5.76525 0 14.0002ZM2 14.0002C2 18.1425 2.58927 19.7308 3.57462 20.5519C4.0968 20.9871 4.91889 21.3697 6.32024 21.6292C7.7267 21.8897 9.56687 22.0002 12 22.0002C14.4331 22.0002 16.2733 21.8897 17.6798 21.6292C19.0811 21.3697 19.9032 20.9871 20.4254 20.5519C21.4107 19.7308 22 18.1425 22 14.0002C22 9.85797 21.4107 8.26969 20.4254 7.44856C19.9032 7.01341 19.0811 6.63079 17.6798 6.37126C16.2733 6.11078 14.4331 6.00024 12 6.00024C9.56687 6.00024 7.7267 6.11078 6.32024 6.37126C4.91889 6.63079 4.0968 7.01341 3.57462 7.44856C2.58927 8.26969 2 9.85797 2 14.0002Z" fill="#ABAFD1"/>
</svg>
