<svg width="24" height="24" viewBox="0 0 24 24" fill="none" xmlns="http://www.w3.org/2000/svg">
<path fill-rule="evenodd" clip-rule="evenodd" d="M12 0C21.882 0 24 1.77781 24 10.6667C24 16.4445 23.0002 20 18.5002 20C16.0954 20 15.3801 21.1424 14.714 22.2061C14.1336 23.1329 13.5906 24 12.0002 24C10.41 24 9.86699 23.1329 9.28663 22.2061C8.62048 21.1424 7.9051 20 5.50024 20C1.00024 20 0 16.3307 0 10.6667C0 1.88267 2.118 0 12 0ZM22 10.6667C22 6.168 21.4029 4.39911 20.3833 3.50035C19.8642 3.04279 19.0543 2.64773 17.6661 2.38066C16.2678 2.11163 14.4346 2 12 2C9.56959 2 7.73883 2.11788 6.34364 2.3935C4.95923 2.66698 4.14621 3.06906 3.62298 3.53415C2.59399 4.44881 2 6.22922 2 10.6667C2 13.4774 2.26607 15.392 2.85152 16.563C3.11816 17.0964 3.42346 17.4161 3.76537 17.6196C4.11537 17.8279 4.64824 18 5.50024 18C6.93756 18 8.10544 18.3253 9.05581 18.9692C9.97023 19.5888 10.504 20.3908 10.8448 20.9272L10.9818 21.1432C11.2765 21.6084 11.3741 21.7625 11.5122 21.8864L11.5176 21.8916C11.5466 21.9199 11.6286 22 12.0003 22C12.372 22 12.454 21.9199 12.483 21.8916L12.4884 21.8864C12.6265 21.7625 12.7241 21.6085 13.0188 21.1431L13.1557 20.9273C13.4965 20.391 14.0303 19.5889 14.9447 18.9693C15.895 18.3253 17.0629 18 18.5002 18C19.3628 18 19.9003 17.8307 20.2506 17.6264C20.5896 17.4288 20.8894 17.1199 21.1518 16.5995C21.7325 15.448 22 13.5408 22 10.6667Z" fill="#ABAFD1"/>
<path fill-rule="evenodd" clip-rule="evenodd" d="M17.8529 10.5223C18.1413 10.0513 17.9932 9.43573 17.5222 9.14732C17.0524 8.85961 16.4386 9.00623 16.1493 9.47455C16.1493 9.47457 16.1493 9.47453 16.1493 9.47455C16.1491 9.47486 16.1489 9.47523 16.1487 9.47553L16.1388 9.49083C16.1284 9.50676 16.1105 9.53338 16.0857 9.5685C16.0642 9.59901 16.0376 9.63556 16.0062 9.67678L13.2181 10.6505C13.046 10.554 12.8593 10.4231 12.6585 10.2473C11.8044 9.50003 10.9232 9.13621 10.0522 9.10238C9.19345 9.06902 8.46005 9.36089 7.89555 9.71654C7.33449 10.07 6.9025 10.5092 6.61734 10.8449C6.47242 11.0155 6.35946 11.1665 6.281 11.2776C6.24165 11.3332 6.21063 11.3794 6.18829 11.4135C6.1771 11.4306 6.16806 11.4447 6.16121 11.4555L6.15255 11.4693L6.14945 11.4743L6.14821 11.4763L6.14767 11.4772C6.14742 11.4776 6.14718 11.478 7.00003 12.0001L6.14767 11.4772C5.85929 11.9482 6.00686 12.5646 6.47788 12.853C6.94776 13.1407 7.56156 12.994 7.8508 12.5257L10.9413 11.4461C11.0677 11.5287 11.2011 11.6297 11.3415 11.7525C12.1957 12.4998 13.0768 12.8637 13.9477 12.8976C14.8065 12.931 15.5399 12.6392 16.1044 12.2836C16.6655 11.9302 17.0975 11.491 17.3827 11.1553C17.5276 10.9847 17.6406 10.8338 17.719 10.7228C17.7584 10.6671 17.7894 10.621 17.8117 10.5868C17.8229 10.5698 17.832 10.5557 17.8388 10.5448L17.8475 10.531L17.8506 10.526L17.8518 10.524L17.8529 10.5223C17.8531 10.5219 17.8529 10.5223 17 10.0001L17.8529 10.5223ZM10.9413 11.4461C10.9414 11.4462 10.9411 11.446 10.9413 11.4461L13.2181 10.6505C13.538 10.83 13.8081 10.8906 14.0255 10.8991C14.3721 10.9126 14.7101 10.7982 15.0385 10.5913C15.3703 10.3823 15.6525 10.1028 15.8584 9.86045C15.9155 9.79326 15.965 9.73092 16.0062 9.67678C16.0062 9.67683 16.0063 9.67674 16.0062 9.67678L13.2181 10.6505C13.218 10.6505 13.2182 10.6506 13.2181 10.6505L10.9413 11.4461ZM10.9413 11.4461C10.5507 11.191 10.2272 11.1107 9.9746 11.1009C9.62803 11.0874 9.29001 11.2018 8.96165 11.4087C8.62985 11.6177 8.34757 11.8973 8.14166 12.1397C8.04104 12.2582 7.96426 12.3611 7.91438 12.4317C7.88955 12.4668 7.87174 12.4935 7.8613 12.5094L7.8508 12.5257L10.9413 11.4461ZM16.1481 9.47653C16.148 9.47661 16.1481 9.47645 16.1481 9.47653V9.47653Z" fill="#767BFA"/>
</svg>
