<svg width="24" height="24" viewBox="0 0 24 24" fill="none" xmlns="http://www.w3.org/2000/svg">
<path fill-rule="evenodd" clip-rule="evenodd" d="M8.09625 6.11873C8.29826 4.80117 8.73593 3.90106 9.25475 3.29585C9.88415 2.56164 10.706 2.17553 11.6049 2.04788C12.5167 1.91839 13.4941 2.05952 14.3528 2.37838C15.225 2.70228 15.8764 3.17188 16.2043 3.60259C16.5389 4.04202 17.1663 4.12705 17.6057 3.79251C18.0452 3.45797 18.1302 2.83054 17.7957 2.39111C17.1712 1.57083 16.1559 0.914533 15.049 0.503479C13.9285 0.0873823 12.6142 -0.115515 11.3237 0.0677451C10.0202 0.252847 8.72894 0.836252 7.73632 1.99417C6.84072 3.03891 6.24904 4.4799 6.05055 6.34855C1.2071 7.12831 0 9.40483 0 15C0 22.4115 2.118 24 12 24C21.882 24 24 22.4115 24 15C24 7.58853 21.882 6.00003 12 6.00003C10.534 6.00003 9.23893 6.03499 8.09625 6.11873ZM2 15C2 18.6887 2.57639 19.9909 3.49425 20.6793C4.01913 21.073 4.85848 21.4255 6.28486 21.6632C7.70849 21.9005 9.56287 22 12 22C14.4371 22 16.2915 21.9005 17.7151 21.6632C19.1415 21.4255 19.9809 21.073 20.5058 20.6793C21.4236 19.9909 22 18.6887 22 15C22 11.3114 21.4236 10.0091 20.5058 9.32071C19.9809 8.92706 19.1415 8.57457 17.7151 8.33682C16.2915 8.09953 14.4371 8.00003 12 8.00003C9.56287 8.00003 7.70849 8.09953 6.28486 8.33682C4.85848 8.57457 4.01913 8.92706 3.49425 9.32071C2.57639 10.0091 2 11.3114 2 15Z" fill="#ABAFD1"/>
<path fill-rule="evenodd" clip-rule="evenodd" d="M9 15C9 16.6569 10.3431 18 12 18C13.6569 18 15 16.6569 15 15C15 13.3431 13.6569 12 12 12C10.3431 12 9 13.3431 9 15ZM11 15C11 15.5523 11.4477 16 12 16C12.5523 16 13 15.5523 13 15C13 14.4477 12.5523 14 12 14C11.4477 14 11 14.4477 11 15Z" fill="#767BFA"/>
</svg>
