<svg width="16" height="18" viewBox="0 0 16 18" fill="none" xmlns="http://www.w3.org/2000/svg">
<path d="M1.70711 11.2929C1.31658 10.9024 0.683417 10.9024 0.292893 11.2929C-0.0976311 11.6834 -0.0976311 12.3166 0.292893 12.7071L5.29289 17.7071C5.57889 17.9931 6.00901 18.0787 6.38268 17.9239C6.75636 17.7691 7 17.4045 7 17L7 1C7 0.447716 6.55228 0 6 0C5.44771 0 5 0.447716 5 1L5 14.5858L1.70711 11.2929Z" fill="#ABAFD1"/>
<path d="M14.2929 6.70714C14.6834 7.09766 15.3166 7.09766 15.7071 6.70714C16.0976 6.31661 16.0976 5.68345 15.7071 5.29292L10.7071 0.292922C10.4211 0.00692442 9.99099 -0.0786313 9.61732 0.0761497C9.24364 0.230931 9 0.595567 9 1.00003V17C9 17.5523 9.44772 18 10 18C10.5523 18 11 17.5523 11 17L11 3.41424L14.2929 6.70714Z" fill="#767BFA"/>
</svg>
