<svg width="27" height="22" viewBox="0 0 27 22" fill="none" xmlns="http://www.w3.org/2000/svg">
<path d="M7.75651 6.73465C9.08944 2.83011 12.649 0 17 0C22.4902 0 27 4.50111 27 9.99142C27 15.4354 22.4806 20.0635 17 20C16.4477 20 16 19.5523 16 19C16 18.4477 16.4477 18 17 18C21.2279 17.9458 25 14.2721 25 9.99142C25 5.67176 21.192 1.99828 17 1.99828C13.7736 1.99828 11.0764 4.21556 9.9821 7.16668C9.97377 7.21506 9.96176 7.26342 9.94591 7.31144L9.94557 7.31248L9.94326 7.31958L9.93278 7.35242C9.92337 7.38223 9.90944 7.42713 9.89249 7.48405C9.85845 7.59839 9.813 7.75867 9.76778 7.94083C9.67168 8.32799 9.5985 8.72905 9.59876 8.99852C9.59939 9.66353 9.66712 10.0014 9.92297 10.6155C10.1354 11.1253 9.89428 11.7107 9.38447 11.9231C8.87466 12.1355 8.28919 11.8945 8.07679 11.3846C7.71967 10.5275 7.59964 9.92889 7.59876 9.00042C7.59874 8.98698 7.59882 8.97349 7.59897 8.95996C7.32461 8.90835 7.0409 8.88126 6.75 8.88126C4.26472 8.88126 2 11.0359 2 13.4884C2 15.9409 4.51472 18 7 18H9C9.55229 18 10 18.4477 10 19C10 19.5523 9.55229 20 9 20H7C3.27208 20 0 17.1671 0 13.4884C0 9.80967 3.02208 6.66094 6.75 6.66094C7.09162 6.66094 7.42776 6.68608 7.75651 6.73465Z" fill="#ABAFD1"/>
<path d="M12.2929 12.2929C12.6834 11.9024 13.3166 11.9024 13.7071 12.2929L16.7071 15.2929C17.0976 15.6834 17.0976 16.3166 16.7071 16.7071C16.3166 17.0976 15.6834 17.0976 15.2929 16.7071L14 15.4142V21C14 21.5523 13.5523 22 13 22C12.4477 22 12 21.5523 12 21V15.4142L10.7071 16.7071C10.3166 17.0976 9.68342 17.0976 9.29289 16.7071C8.90237 16.3166 8.90237 15.6834 9.29289 15.2929L12.2929 12.2929Z" fill="#767BFA"/>
</svg>
