<svg width="26" height="24" viewBox="0 0 26 24" fill="none" xmlns="http://www.w3.org/2000/svg">
<path fill-rule="evenodd" clip-rule="evenodd" d="M5 6C5 9.31371 7.68629 12 11 12C14.3137 12 17 9.31371 17 6C17 2.68629 14.3137 0 11 0C7.68629 0 5 2.68629 5 6ZM7 6C7 8.20914 8.79086 10 11 10C13.2091 10 15 8.20914 15 6C15 3.79086 13.2091 2 11 2C8.79086 2 7 3.79086 7 6Z" fill="#ABAFD1"/>
<path fill-rule="evenodd" clip-rule="evenodd" d="M0 19C0 23.1175 1.9415 24 11 24C20.0585 24 22 23.1175 22 19C22 14.8825 20.0585 14 11 14C1.9415 14 0 14.8825 0 19ZM2 19C2 19.9093 2.11431 20.3794 2.24164 20.6398C2.33196 20.8246 2.47936 21.0182 2.93067 21.2233C3.44734 21.4582 4.28709 21.6691 5.66071 21.8079C7.01516 21.9447 8.75517 22 11 22C13.2448 22 14.9848 21.9447 16.3393 21.8079C17.7129 21.6691 18.5527 21.4582 19.0693 21.2233C19.5206 21.0182 19.668 20.8246 19.7584 20.6398C19.8857 20.3794 20 19.9093 20 19C20 18.0907 19.8857 17.6206 19.7584 17.3602C19.668 17.1754 19.5206 16.9818 19.0693 16.7767C18.5527 16.5418 17.7129 16.3309 16.3393 16.1921C14.9848 16.0553 13.2448 16 11 16C8.75517 16 7.01516 16.0553 5.66071 16.1921C4.28709 16.3309 3.44734 16.5418 2.93067 16.7767C2.47936 16.9818 2.33196 17.1754 2.24164 17.3602C2.11431 17.6206 2 18.0907 2 19Z" fill="#ABAFD1"/>
<path d="M23 7C23 6.44772 22.5523 6 22 6C21.4477 6 21 6.44772 21 7V9H19C18.4477 9 18 9.44772 18 10C18 10.5523 18.4477 11 19 11H21V13C21 13.5523 21.4477 14 22 14C22.5523 14 23 13.5523 23 13V11H25C25.5523 11 26 10.5523 26 10C26 9.44772 25.5523 9 25 9H23V7Z" fill="#767BFA"/>
</svg>
