<svg width="24" height="24" viewBox="0 0 24 24" fill="none" xmlns="http://www.w3.org/2000/svg">
<path d="M2.00129 15.0114C1.96476 14.4752 1.52548 14.0504 0.988034 14.0504C0.420441 14.0504 -0.0354561 14.5258 0.0021736 15.0921C0.427057 21.4868 2.51371 23.5735 8.90838 23.9984C9.47472 24.036 9.9501 23.5801 9.9501 23.0125C9.9501 22.475 9.52533 22.0358 8.98913 21.9992C7.95281 21.9286 7.07422 21.8134 6.32548 21.647C4.96932 21.3456 4.16478 20.9037 3.63082 20.3697C3.09686 19.8357 2.65495 19.0312 2.35355 17.6751C2.18715 16.9263 2.07189 16.0477 2.00129 15.0114Z" fill="#ABAFD1"/>
<path d="M21.9133 15.0114C21.9499 14.4752 22.3891 14.0504 22.9266 14.0504C23.4942 14.0504 23.9501 14.5258 23.9125 15.0921C23.4876 21.4868 21.4009 23.5735 15.0062 23.9984C14.4399 24.036 13.9645 23.5801 13.9645 23.0125C13.9645 22.475 14.3893 22.0358 14.9255 21.9992C15.9618 21.9286 16.8404 21.8134 17.5892 21.647C18.9453 21.3456 19.7498 20.9037 20.2838 20.3697C20.8178 19.8357 21.2597 19.0312 21.5611 17.6751C21.7275 16.9263 21.8427 16.0477 21.9133 15.0114Z" fill="#ABAFD1"/>
<path d="M24.0005 12.0892C24.0005 12.0739 24.0005 12.0585 24.0005 12.0432C24.0005 12.0279 24.0005 12.0126 24.0005 11.9973V12.0892Z" fill="#ABAFD1"/>
<path d="M23.9125 8.9943C23.9501 9.56064 23.4942 10.036 22.9266 10.036C22.3891 10.036 21.9499 9.61125 21.9133 9.07505C21.8427 8.03872 21.7275 7.16012 21.5611 6.41138C21.2597 5.05522 20.8178 4.25068 20.2838 3.71672C19.7498 3.18276 18.9453 2.74085 17.5892 2.43945C16.8404 2.27305 15.9618 2.15778 14.9255 2.08719C14.3893 2.05066 13.9645 1.61138 13.9645 1.07393C13.9645 0.50634 14.4399 0.0504437 15.0062 0.0880731C21.4009 0.512954 23.4876 2.59961 23.9125 8.9943Z" fill="#ABAFD1"/>
<path d="M2.00129 9.07505C1.96476 9.61125 1.52548 10.036 0.988034 10.036C0.420441 10.036 -0.0354562 9.56064 0.00217349 8.9943C0.427057 2.59962 2.51371 0.512961 8.90838 0.0880753C9.47472 0.0504453 9.9501 0.506343 9.9501 1.07394C9.9501 1.61138 9.52533 2.05066 8.98913 2.08719C7.95281 2.15779 7.07422 2.27305 6.32548 2.43945C4.96932 2.74085 4.16478 3.18276 3.63082 3.71672C3.09686 4.25068 2.65495 5.05522 2.35355 6.41138C2.18715 7.16012 2.07189 8.03872 2.00129 9.07505Z" fill="#ABAFD1"/>
<path fill-rule="evenodd" clip-rule="evenodd" d="M9 8.08618C9 9.74304 10.3431 11.0862 12 11.0862C13.6569 11.0862 15 9.74304 15 8.08618C15 6.42933 13.6569 5.08618 12 5.08618C10.3431 5.08618 9 6.42933 9 8.08618ZM11 8.08618C11 8.63847 11.4477 9.08618 12 9.08618C12.5523 9.08618 13 8.63847 13 8.08618C13 7.5339 12.5523 7.08618 12 7.08618C11.4477 7.08618 11 7.5339 11 8.08618Z" fill="#767BFA"/>
<path fill-rule="evenodd" clip-rule="evenodd" d="M6 15.0862C6 17.5567 7.059 18.0862 12 18.0862C16.941 18.0862 18 17.5567 18 15.0862C18 12.6157 16.941 12.0862 12 12.0862C7.059 12.0862 6 12.6157 6 15.0862ZM8 15.0862C8 15.4548 8.03193 15.6447 8.05305 15.7294C8.1922 15.796 8.51749 15.9014 9.1989 15.9771C9.88167 16.053 10.7866 16.0862 12 16.0862C13.2134 16.0862 14.1183 16.053 14.8011 15.9771C15.4825 15.9014 15.8078 15.796 15.9469 15.7294C15.9681 15.6447 16 15.4548 16 15.0862C16 14.7176 15.9681 14.5277 15.9469 14.443C15.8078 14.3764 15.4825 14.271 14.8011 14.1953C14.1183 14.1194 13.2134 14.0862 12 14.0862C10.7866 14.0862 9.88167 14.1194 9.1989 14.1953C8.51749 14.271 8.1922 14.3764 8.05305 14.443C8.03193 14.5277 8 14.7176 8 15.0862Z" fill="#767BFA"/>
</svg>
