<svg width="25" height="24" viewBox="0 0 25 24" fill="none" xmlns="http://www.w3.org/2000/svg">
<path fill-rule="evenodd" clip-rule="evenodd" d="M4.90886 6C4.90886 9.31371 7.54619 12 10.7995 12C14.0528 12 16.6901 9.31371 16.6901 6C16.6901 2.68629 14.0528 0 10.7995 0C7.54619 0 4.90886 2.68629 4.90886 6ZM6.87241 6C6.87241 8.20914 8.63063 10 10.7995 10C12.9684 10 14.7266 8.20914 14.7266 6C14.7266 3.79086 12.9684 2 10.7995 2C8.63063 2 6.87241 3.79086 6.87241 6Z" fill="#ABAFD1"/>
<path fill-rule="evenodd" clip-rule="evenodd" d="M0 19C0 23.1175 1.90611 24 10.7995 24C19.6929 24 21.599 23.1175 21.599 19C21.599 14.8825 19.6929 14 10.7995 14C1.90611 14 0 14.8825 0 19ZM1.96355 19C1.96355 19.9093 2.07577 20.3794 2.20078 20.6398C2.28945 20.8246 2.43417 21.0182 2.87725 21.2233C3.3845 21.4582 4.20895 21.6691 5.55753 21.8079C6.88729 21.9447 8.59558 22 10.7995 22C13.0034 22 14.7117 21.9447 16.0415 21.8079C17.3901 21.6691 18.2145 21.4582 18.7218 21.2233C19.1648 21.0182 19.3096 20.8246 19.3982 20.6398C19.5232 20.3794 19.6355 19.9093 19.6355 19C19.6355 18.0907 19.5232 17.6206 19.3982 17.3602C19.3096 17.1754 19.1648 16.9818 18.7218 16.7767C18.2145 16.5418 17.3901 16.3309 16.0415 16.1921C14.7117 16.0553 13.0034 16 10.7995 16C8.59558 16 6.88729 16.0553 5.55753 16.1921C4.20895 16.3309 3.3845 16.5418 2.87725 16.7767C2.43417 16.9818 2.28945 17.1754 2.20078 17.3602C2.07577 17.6206 1.96355 18.0907 1.96355 19Z" fill="#ABAFD1"/>
<path d="M23.324 7.2929C23.7074 6.90237 24.3291 6.90237 24.7124 7.2929C25.0959 7.6834 25.0959 8.31658 24.7124 8.70708L20.7498 12.7434C20.5473 12.9495 20.2785 13.0469 20.0134 13.0354C19.7717 13.0283 19.5324 12.9307 19.3479 12.7429L17.9595 11.3287C17.5761 10.9382 17.5761 10.305 17.9595 9.91448C18.3429 9.52395 18.9645 9.52395 19.3479 9.91448L20.0491 10.6286L23.324 7.2929Z" fill="#767BFA"/>
</svg>
