<svg width="25" height="24" viewBox="0 0 25 24" fill="none" xmlns="http://www.w3.org/2000/svg">
<path fill-rule="evenodd" clip-rule="evenodd" d="M4.97586 6C4.97586 9.31371 7.64918 12 10.9469 12C14.2446 12 16.9179 9.31371 16.9179 6C16.9179 2.68629 14.2446 0 10.9469 0C7.64918 0 4.97586 2.68629 4.97586 6ZM6.9662 6C6.9662 8.20914 8.74841 10 10.9469 10C13.1454 10 14.9276 8.20914 14.9276 6C14.9276 3.79086 13.1454 2 10.9469 2C8.74841 2 6.9662 3.79086 6.9662 6Z" fill="#ABAFD1"/>
<path fill-rule="evenodd" clip-rule="evenodd" d="M0 19C0 23.1175 1.93212 24 10.9469 24C19.9616 24 21.8938 23.1175 21.8938 19C21.8938 14.8825 19.9616 14 10.9469 14C1.93212 14 0 14.8825 0 19ZM1.99034 19C1.99034 19.9093 2.1041 20.3794 2.23081 20.6398C2.3207 20.8246 2.46739 21.0182 2.91652 21.2233C3.43069 21.4582 4.26639 21.6691 5.63338 21.8079C6.98129 21.9447 8.71289 22 10.9469 22C13.1809 22 14.9125 21.9447 16.2604 21.8079C17.6274 21.6691 18.4631 21.4582 18.9773 21.2233C19.4264 21.0182 19.5731 20.8246 19.663 20.6398C19.7897 20.3794 19.9034 19.9093 19.9034 19C19.9034 18.0907 19.7897 17.6206 19.663 17.3602C19.5731 17.1754 19.4264 16.9818 18.9773 16.7767C18.4631 16.5418 17.6274 16.3309 16.2604 16.1921C14.9125 16.0553 13.1809 16 10.9469 16C8.71289 16 6.98129 16.0553 5.63338 16.1921C4.26639 16.3309 3.43069 16.5418 2.91652 16.7767C2.46739 16.9818 2.3207 17.1754 2.23081 17.3602C2.1041 17.6206 1.99034 18.0907 1.99034 19Z" fill="#ABAFD1"/>
<path d="M20.4863 7.17156C20.0977 6.78103 19.4676 6.78103 19.079 7.17156C18.6903 7.56208 18.6903 8.19524 19.079 8.58577L20.4864 10L19.079 11.4142C18.6903 11.8048 18.6903 12.4379 19.079 12.8284C19.4676 13.219 20.0977 13.219 20.4863 12.8284L21.8937 11.4142L23.3011 12.8284C23.6897 13.2189 24.3199 13.2189 24.7085 12.8284C25.0971 12.4379 25.0971 11.8047 24.7085 11.4142L23.3011 10L24.7085 8.5858C25.0971 8.19528 25.0971 7.56211 24.7085 7.17159C24.3199 6.78107 23.6897 6.78107 23.3011 7.17159L21.8937 8.58579L20.4863 7.17156Z" fill="#767BFA"/>
</svg>
