<svg width="24" height="24" viewBox="0 0 24 24" fill="none" xmlns="http://www.w3.org/2000/svg">
<path d="M16.7071 10.7071C17.0976 10.3166 17.0976 9.68342 16.7071 9.29289C16.3166 8.90237 15.6834 8.90237 15.2929 9.29289L11 13.5858L9.70711 12.2929C9.31658 11.9024 8.68342 11.9024 8.29289 12.2929C7.90237 12.6834 7.90237 13.3166 8.29289 13.7071L10.2929 15.7071C10.6834 16.0976 11.3166 16.0976 11.7071 15.7071L16.7071 10.7071Z" fill="#767BFA"/>
<path fill-rule="evenodd" clip-rule="evenodd" d="M14.6835 1.33293C13.3359 -0.44431 10.6641 -0.44431 9.31652 1.33293L8.19449 2.81269L6.35475 2.55974C4.14516 2.25593 2.25593 4.14516 2.55974 6.35475L2.81269 8.19449L1.33293 9.31652C-0.44431 10.6641 -0.44431 13.3359 1.33293 14.6835L2.81269 15.8055L2.55973 17.6453C2.25593 19.8548 4.14516 21.7441 6.35475 21.4403L8.19449 21.1873L9.31652 22.6671C10.6641 24.4443 13.3359 24.4443 14.6835 22.6671L15.8055 21.1873L17.6453 21.4403C19.8548 21.7441 21.7441 19.8548 21.4403 17.6453L21.1873 15.8055L22.6671 14.6835C24.4443 13.3359 24.4443 10.6641 22.6671 9.31652L21.1873 8.19449L21.4403 6.35475C21.7441 4.14516 19.8548 2.25593 17.6453 2.55973L15.8055 2.81269L14.6835 1.33293ZM11.1055 2.68943C11.5547 2.09702 12.4453 2.09702 12.8945 2.68943L14.0165 4.16919C14.5067 4.81567 15.3076 5.1474 16.1113 5.03688L17.9511 4.78393C18.6876 4.68266 19.3173 5.31241 19.2161 6.04894L18.9631 7.88868C18.8526 8.69243 19.1843 9.49328 19.8308 9.98348L21.3106 11.1055C21.903 11.5547 21.903 12.4453 21.3106 12.8945L19.8308 14.0165C19.1843 14.5067 18.8526 15.3076 18.9631 16.1113L19.2161 17.9511C19.3173 18.6876 18.6876 19.3173 17.9511 19.2161L16.1113 18.9631C15.3076 18.8526 14.5067 19.1843 14.0165 19.8308L12.8945 21.3106C12.4453 21.903 11.5547 21.903 11.1055 21.3106L9.98348 19.8308C9.49328 19.1843 8.69243 18.8526 7.88868 18.9631L6.04894 19.2161C5.31241 19.3173 4.68266 18.6876 4.78393 17.9511L5.03689 16.1113C5.1474 15.3076 4.81567 14.5067 4.16919 14.0165L2.68943 12.8945C2.09702 12.4453 2.09702 11.5547 2.68943 11.1055L4.16919 9.98348C4.81567 9.49328 5.1474 8.69243 5.03689 7.88868L4.78393 6.04894C4.68266 5.31241 5.31241 4.68266 6.04894 4.78393L7.88868 5.03688C8.69243 5.1474 9.49328 4.81567 9.98348 4.16919L11.1055 2.68943Z" fill="#ABAFD1"/>
</svg>
