<svg width="29" height="20" viewBox="0 0 29 20" fill="none" xmlns="http://www.w3.org/2000/svg">
<path d="M21.2513 16.0272C21.9098 16.5442 22.5386 16.9645 23.1335 17.2817C23.9877 17.7371 24.84 18.016 25.6469 17.9994C26.5003 17.9818 27.2466 17.6314 27.7837 16.9585C28.2843 16.3313 28.5476 15.4956 28.6568 14.5649C29.1161 11.9025 29.1143 7.7321 28.652 5.06602C28.5178 4.29241 28.2234 3.5701 27.7184 3.01087C27.1997 2.43654 26.5046 2.08712 25.6925 2.01439C24.362 1.89525 22.8314 2.51838 21.1796 3.79174C21.4317 4.40339 21.6156 5.10682 21.7447 5.91404C23.5569 4.33919 24.8138 3.94372 25.5141 4.00642C25.8341 4.03508 26.0596 4.15813 26.2341 4.3513C26.4221 4.55958 26.5933 4.89981 26.6814 5.40773C27.1063 7.85809 27.1061 11.8172 26.6816 14.2501L26.6764 14.2795L26.6731 14.3092C26.5886 15.0534 26.4019 15.4836 26.2205 15.7108C26.0703 15.899 25.8921 15.9939 25.6057 15.9998C25.2726 16.0067 24.7695 15.8874 24.0744 15.5168C23.4185 15.1672 22.6504 14.6252 21.7779 13.8678C21.6595 14.6868 21.4883 15.4027 21.2513 16.0272Z" fill="#767BFA"/>
<path fill-rule="evenodd" clip-rule="evenodd" d="M0 10C0 18.235 1.9415 20 11 20C20.0585 20 22 18.235 22 10C22 1.765 20.0585 0 11 0C1.9415 0 0 1.765 0 10ZM2 10C2 14.1693 2.55103 15.7924 3.44841 16.6082C3.89898 17.0179 4.6099 17.3834 5.85577 17.6352C7.11456 17.8895 8.77646 18 11 18C13.2235 18 14.8854 17.8895 16.1442 17.6352C17.3901 17.3834 18.101 17.0179 18.5516 16.6082C19.449 15.7924 20 14.1693 20 10C20 5.83067 19.449 4.20755 18.5516 3.39176C18.101 2.98215 17.3901 2.61656 16.1442 2.36484C14.8854 2.11052 13.2235 2 11 2C8.77646 2 7.11456 2.11052 5.85577 2.36484C4.6099 2.61656 3.89898 2.98215 3.44841 3.39176C2.55103 4.20755 2 5.83067 2 10Z" fill="#ABAFD1"/>
</svg>
