<svg width="24" height="24" viewBox="0 0 24 24" fill="none" xmlns="http://www.w3.org/2000/svg">
<path fill-rule="evenodd" clip-rule="evenodd" d="M23.8731 12.6365C23.9321 12.3881 23.9616 12.2639 23.9821 12.0815C24.0026 11.8991 24.0012 11.7488 23.9984 11.4481C23.9108 2.04031 21.6799 0 12 0C2.32006 0 0.0891526 2.0403 0.00158848 11.4481C-0.00120967 11.7487 -0.0026092 11.8992 0.0178902 12.0815C0.0383863 12.2639 0.06788 12.3881 0.126859 12.6364C1.90688 20.1315 8.22677 22.9267 10.8479 23.7794C11.3 23.9265 11.5261 24 12 24C12.4739 24 12.7 23.9265 13.1521 23.7794C15.7732 22.9268 22.0931 20.1316 23.8731 12.6365ZM21.9983 11.4669C21.9541 6.72035 21.3219 4.69785 20.2232 3.65643C19.0899 2.58208 16.9076 2.00829 12 2.00829C7.09244 2.00829 4.91013 2.58208 3.77677 3.65642C2.67814 4.69785 2.04587 6.72035 2.00169 11.4669C1.99863 11.7955 2.00119 11.8183 2.00544 11.8561C2.00849 11.8833 2.01123 11.9008 2.0175 11.9315C2.02699 11.9781 2.04066 12.0366 2.07251 12.1707C3.60333 18.6164 9.04505 21.0819 11.4644 21.8689C11.5832 21.9075 11.6582 21.9318 11.7232 21.9512C11.7832 21.9692 11.8142 21.9767 11.8317 21.9805L11.8334 21.9808C11.8485 21.9841 11.8837 21.9917 12 21.9917C12.1163 21.9917 12.1515 21.9841 12.1666 21.9808L12.1683 21.9805C12.1858 21.9767 12.2168 21.9692 12.2768 21.9512C12.3418 21.9318 12.4168 21.9075 12.5356 21.8689C14.955 21.0819 20.3967 18.6164 21.9275 12.1707C21.9593 12.0366 21.973 11.9781 21.9825 11.9315C21.9888 11.9008 21.9915 11.8835 21.9945 11.8563C21.9988 11.8185 22.0014 11.7956 21.9983 11.4669Z" fill="#ABAFD1"/>
<path d="M15.7074 9.74739C16.0979 9.35524 16.0979 8.71945 15.7074 8.32731C15.3168 7.93517 14.6836 7.93517 14.293 8.32731L11.9999 10.6297L9.70678 8.32731C9.31622 7.93517 8.68299 7.93517 8.29243 8.32731C7.90187 8.71945 7.90187 9.35524 8.29243 9.74739L10.5855 12.0498L8.29243 14.3522C7.90187 14.7443 7.90187 15.3801 8.29243 15.7723C8.68299 16.1644 9.31622 16.1644 9.70678 15.7723L11.9999 13.4699L14.293 15.7723C14.6836 16.1644 15.3168 16.1644 15.7074 15.7723C16.0979 15.3801 16.0979 14.7443 15.7074 14.3522L13.4142 12.0498L15.7074 9.74739Z" fill="#767BFA"/>
</svg>
