<svg width="22" height="22" viewBox="0 0 22 22" fill="none" xmlns="http://www.w3.org/2000/svg">
<path fill-rule="evenodd" clip-rule="evenodd" d="M10 2.01587C10 1.46358 10.4477 1.01587 11 1.01587C11.5523 1.01587 12 1.46358 12 2.01587V4.07936L11.9999 4.09258C13.3393 4.17454 14.4248 4.43157 15.2851 4.8881C15.3121 4.85211 15.3418 4.81753 15.3742 4.78464L17.7675 2.35332C18.158 1.95659 18.7912 1.95659 19.1817 2.35332C19.5722 2.75004 19.5722 3.39325 19.1817 3.78998L16.8089 6.20045C17.5032 7.15745 17.8714 8.46081 17.9715 10.1597C17.9862 10.1591 18.001 10.1588 18.0159 10.1588H19.9841C20.5452 10.1588 21 10.6136 21 11.1746C21 11.7357 20.5452 12.1905 19.9841 12.1905H18.0159C18.001 12.1905 17.9862 12.1902 17.9715 12.1896C17.8748 13.8314 17.5276 15.1038 16.8778 16.0511L18.8038 18.0077C19.1943 18.4045 19.1943 19.0477 18.8038 19.4444C18.4133 19.8411 17.7801 19.8411 17.3896 19.4444L15.3841 17.4071C14.5085 17.8974 13.3912 18.1715 11.9999 18.2566L12 18.2698V20.3333C12 20.8856 11.5523 21.3333 11 21.3333C10.4477 21.3333 10 20.8856 10 20.3333V18.2698L10.0001 18.2567C8.52819 18.1669 7.35665 17.8664 6.45372 17.323C6.43472 17.3461 6.41456 17.3685 6.39323 17.3902L4.25007 19.5673C3.85955 19.9641 3.22639 19.9641 2.83586 19.5673C2.44534 19.1706 2.44534 18.5274 2.83586 18.1307L4.97902 15.9535C4.98911 15.9432 4.99937 15.9333 5.00977 15.9235C4.4114 14.9906 4.09308 13.759 4.01667 12.19C4.00586 12.1903 3.99502 12.1905 3.98413 12.1905H2.01587C1.45482 12.1905 1 11.7357 1 11.1746C1 10.6136 1.45482 10.1588 2.01587 10.1588H3.98413C4.00289 10.1588 4.02153 10.1593 4.04004 10.1603C4.15184 8.54354 4.49244 7.28499 5.11983 6.34222C5.07029 6.30756 5.02315 6.26785 4.97909 6.22309L2.84563 4.05577C2.4551 3.65905 2.4551 3.01583 2.84563 2.61911C3.23615 2.22238 3.86932 2.22238 4.25984 2.61911L6.3933 4.78643C6.45483 4.84894 6.50667 4.91757 6.54881 4.99038C7.42987 4.46979 8.56657 4.18057 10.0001 4.09263L10 4.07936V2.01587ZM7.00154 15.2319C6.43684 14.6582 5.96977 13.5473 5.99978 11.2002C6.03021 8.8201 6.49373 7.69102 7.0604 7.10692C7.60676 6.54376 8.66563 6.06348 10.9999 6.06348C13.3358 6.06348 14.4141 6.54446 14.9689 7.11214C15.5346 7.69096 15.9999 8.81103 15.9999 11.1746C15.9999 13.5382 15.5346 14.6582 14.9689 15.237C14.4141 15.8047 13.3358 16.2857 10.9999 16.2857C8.66249 16.2857 7.56477 15.8041 7.00154 15.2319Z" fill="#ABAFD1"/>
<path d="M14 1.01587C14 0.454822 13.5452 0 12.9841 0H9.01587C8.45482 0 8 0.454822 8 1.01587C8 1.57692 8.45482 2.03175 9.01587 2.03175L12.9841 2.03175C13.5452 2.03175 14 1.57692 14 1.01587Z" fill="#767BFA"/>
<path d="M21 14.2222C21.5523 14.2222 22 13.7745 22 13.2222V9.12697C22 8.57468 21.5523 8.12697 21 8.12697C20.4477 8.12697 20 8.57468 20 9.12697V13.2222C20 13.7745 20.4477 14.2222 21 14.2222Z" fill="#767BFA"/>
<path d="M2 13.2222C2 13.7745 1.55228 14.2222 1 14.2222C0.447715 14.2222 0 13.7745 0 13.2222V9.12697C0 8.57468 0.447716 8.12697 1 8.12697C1.55229 8.12697 2 8.57468 2 9.12697L2 13.2222Z" fill="#767BFA"/>
<path d="M14 20.9841C14 21.5452 13.5452 22 12.9841 22H9.01587C8.45482 22 8 21.5452 8 20.9841C8 20.4231 8.45482 19.9683 9.01587 19.9683H12.9841C13.5452 19.9683 14 20.4231 14 20.9841Z" fill="#767BFA"/>
<path d="M3.43401 0.821599C3.82453 0.424875 4.4577 0.424875 4.84822 0.821599C5.23874 1.21832 5.23874 1.86154 4.84822 2.25826L2.48527 4.65871C2.09475 5.05544 1.46158 5.05544 1.07106 4.65871C0.680535 4.26199 0.680535 3.61878 1.07106 3.22205L3.43401 0.821599Z" fill="#767BFA"/>
<path d="M5.03621 21.365C4.64568 21.7617 4.01252 21.7617 3.62199 21.365L1.06854 18.771C0.678016 18.3743 0.678015 17.7311 1.06854 17.3344C1.45906 16.9376 2.09223 16.9377 2.48275 17.3344L5.03621 19.9284C5.42673 20.3251 5.42673 20.9683 5.03621 21.365Z" fill="#767BFA"/>
<path d="M20.9496 3.59114C21.3402 3.98786 21.3402 4.63108 20.9496 5.0278C20.5591 5.42452 19.9259 5.42452 19.5354 5.0278L16.5523 1.99731C16.1618 1.60059 16.1618 0.957369 16.5523 0.560646C16.9428 0.163923 17.576 0.163923 17.9665 0.560646L20.9496 3.59114Z" fill="#767BFA"/>
<path d="M20.5566 17.369C20.9471 17.7658 20.9471 18.409 20.5566 18.8057L18.1545 21.2459C17.764 21.6426 17.1308 21.6426 16.7403 21.2459C16.3498 20.8491 16.3498 20.2059 16.7403 19.8092L19.1424 17.369C19.5329 16.9723 20.166 16.9723 20.5566 17.369Z" fill="#767BFA"/>
</svg>
