<svg width="29" height="20" viewBox="0 0 29 20" fill="none" xmlns="http://www.w3.org/2000/svg">
<path fill-rule="evenodd" clip-rule="evenodd" d="M0 10.0014C0 13.4283 1.61351 15.7137 7.39212 15.7137C10.6065 15.7137 11.5452 17.04 12.3783 18.217C13.0429 19.156 13.6403 20 15.272 20C18.9493 20 20 15.7193 20 10.0014C20 4.28351 18.9493 0 15.272 0C13.5969 0 12.9029 0.888874 12.1471 1.8568C11.2438 3.01369 10.2524 4.28351 7.39212 4.28351C2.13884 4.28351 0 6.5745 0 10.0014ZM2.85713 12.6472C3.44445 13.1688 4.69816 13.7137 7.3921 13.7137C9.08668 13.7137 10.4266 14.0294 11.5164 14.6357C12.6071 15.2424 13.2707 16.0456 13.7313 16.672C13.8967 16.8969 14.0218 17.0731 14.1226 17.215C14.3474 17.5315 14.4523 17.6793 14.6184 17.8245L14.6214 17.8271C14.6991 17.8952 14.8189 18 15.272 18C15.7717 18 16.0793 17.8661 16.3156 17.6778C16.583 17.4647 16.8848 17.0773 17.1611 16.3946C17.7327 14.982 18 12.8041 18 10.0014C18 7.19877 17.7328 5.01998 17.161 3.6065C16.8846 2.92334 16.5827 2.5356 16.3152 2.32233C16.0788 2.13383 15.7714 2 15.272 2C14.8071 2 14.6248 2.11294 14.4795 2.22949C14.2633 2.40292 14.1039 2.60565 13.785 3.01136C13.6987 3.12107 13.6008 3.24561 13.487 3.38843C13.0179 3.97692 12.3519 4.75376 11.3202 5.34759C10.2677 5.95337 8.99127 6.28351 7.39212 6.28351C5.01469 6.28351 3.70436 6.80737 3.01273 7.38855C2.38138 7.91908 2 8.72168 2 10.0014C2 11.4265 2.33266 12.1815 2.85713 12.6472Z" fill="#ABAFD1"/>
<path d="M21 10C21 9.44772 21.4477 9 22 9H28C28.5523 9 29 9.44772 29 10C29 10.5523 28.5523 11 28 11H22C21.4477 11 21 10.5523 21 10Z" fill="#767BFA"/>
</svg>
