<svg width="24" height="21" viewBox="0 0 24 21" fill="none" xmlns="http://www.w3.org/2000/svg">
<path fill-rule="evenodd" clip-rule="evenodd" d="M7.20732 16.4994C1.57317 16.4994 0 14.0997 0 10.5015C0 6.90323 2.08537 4.49768 7.20732 4.49768C9.99605 4.49768 10.9627 3.16437 11.8435 1.94964C12.5803 0.933315 13.257 0 14.8902 0C18.4756 0 19.5 4.49768 19.5 10.5015C19.5 16.5053 18.4756 21 14.8902 21C13.2993 21 12.7168 20.1138 12.0689 19.1279C11.2566 17.892 10.3414 16.4993 7.20732 16.4994ZM7.2073 14.4994C4.61511 14.4994 3.43156 13.9384 2.8732 13.4044C2.34219 12.8965 2 12.0503 2 10.5015C2 9.08921 2.39838 8.20014 3.0249 7.63318C3.68521 7.03563 4.9266 6.49768 7.20732 6.49768C8.7995 6.49768 10.0735 6.14231 11.1181 5.49484C12.1325 4.86609 12.7806 4.04922 13.2325 3.43875C13.3427 3.28993 13.4377 3.15975 13.5216 3.04477C13.8337 2.61721 13.9925 2.39971 14.2048 2.21634C14.3415 2.09829 14.4893 2 14.8902 2C15.3275 2 15.5967 2.12199 15.8201 2.31385C16.0827 2.53938 16.3883 2.95963 16.6674 3.7026C17.2394 5.22543 17.5 7.54997 17.5 10.5015C17.5 13.453 17.2394 15.7767 16.6675 17.2986C16.3884 18.0411 16.083 18.461 15.8205 18.6863C15.5971 18.878 15.3278 19 14.8902 19C14.509 19 14.4185 18.9144 14.3469 18.8466L14.3405 18.8406C14.1754 18.6852 14.0689 18.5237 13.8469 18.187C13.7485 18.0379 13.6275 17.8544 13.4688 17.6219C13.0269 16.9747 12.3821 16.1302 11.3084 15.4869C10.2252 14.838 8.88891 14.4994 7.2073 14.4994Z" fill="#ABAFD1"/>
<path d="M22.8549 6.48116C22.5683 6.00908 21.9532 5.85874 21.4812 6.14536C21.0091 6.43196 20.8588 7.04694 21.1453 7.51901L21.1472 7.52211L21.157 7.5386C21.166 7.55387 21.1798 7.57731 21.1972 7.6075C21.2321 7.66812 21.2808 7.75456 21.3344 7.85554C21.4468 8.06695 21.561 8.3049 21.6268 8.49446C21.8807 9.22674 22.0001 9.67666 22.0001 10.5001C22.0001 11.3236 21.8807 11.7735 21.6268 12.5058C21.561 12.6954 21.4468 12.9333 21.3344 13.1448C21.2808 13.2457 21.2321 13.3322 21.1972 13.3928C21.1798 13.423 21.166 13.4464 21.157 13.4617L21.1472 13.4782L21.1454 13.4812C20.8592 13.9532 21.0093 14.5684 21.4812 14.8549C21.9532 15.1416 22.5683 14.9912 22.8549 14.5191L22.0704 14.0428C22.1194 14.0726 22.1654 14.1005 22.2085 14.1266C22.8549 14.5191 22.8549 14.5192 22.8549 14.5191L22.8559 14.5176L22.8573 14.5151L22.862 14.5075L22.8775 14.4815C22.8904 14.4596 22.9084 14.4289 22.9304 14.3908C22.9741 14.3148 23.0341 14.2082 23.1005 14.0833C23.2283 13.8428 23.3997 13.4974 23.5164 13.1611C23.8133 12.3049 24.0001 11.623 24.0001 10.5001C24.0001 9.37726 23.8133 8.6954 23.5164 7.83917C23.3997 7.50286 23.2283 7.15748 23.1005 6.91702C23.0341 6.79207 22.9741 6.68544 22.9304 6.60948C22.9084 6.57137 22.8904 6.54064 22.8775 6.51881L22.862 6.49284L22.8573 6.48515L22.8559 6.48268L22.8549 6.48116C22.8549 6.48109 22.8549 6.48116 22.0001 7.00015L22.8549 6.48116Z" fill="#767BFA"/>
</svg>
