<svg width="28" height="21" viewBox="0 0 28 21" fill="none" xmlns="http://www.w3.org/2000/svg">
<path fill-rule="evenodd" clip-rule="evenodd" d="M7.02251 16.4994C1.53283 16.4994 0 14.0997 0 10.5015C0 6.90323 2.0319 4.49769 7.02251 4.49769C9.73974 4.49769 10.6816 3.16438 11.5398 1.94964C12.2577 0.933319 12.9171 0 14.5084 0C18.0019 0 19 4.49769 19 10.5015C19 16.5053 18.0019 21 14.5084 21C12.9583 21 12.3908 20.1138 11.7594 19.1279C10.968 17.892 10.0762 16.4993 7.02251 16.4994ZM7.0225 14.4994C4.51383 14.4994 3.38449 13.9436 2.85362 13.4225C2.33802 12.9164 2 12.0626 2 10.5015C2 9.07388 2.39443 8.17888 3.00082 7.61569C3.63171 7.02975 4.81924 6.49769 7.02251 6.49769C8.59153 6.49769 9.84986 6.13764 10.8799 5.4824C11.8762 4.84857 12.5101 4.02736 12.949 3.41878C13.0569 3.26918 13.1499 3.13851 13.2319 3.02325C13.5357 2.59612 13.6889 2.38075 13.8935 2.19939C14.0198 2.08738 14.1456 2 14.5084 2C14.9081 2 15.1519 2.11214 15.3616 2.29697C15.6132 2.51868 15.9122 2.93841 16.1861 3.68672C16.746 5.21653 17 7.54808 17 10.5015C17 13.4549 16.746 15.7856 16.1862 17.3145C15.9124 18.0623 15.6134 18.4817 15.362 18.7031C15.1524 18.8878 14.9085 19 14.5084 19C14.1713 19 14.0978 18.9281 14.0357 18.8673L14.0267 18.8585C13.8674 18.7046 13.7644 18.5443 13.5488 18.2087C13.4528 18.0594 13.3346 17.8754 13.1792 17.6418C12.7503 16.9971 12.1199 16.1478 11.0644 15.4989C9.9957 14.8417 8.67667 14.4994 7.0225 14.4994Z" fill="#ABAFD1"/>
<path d="M24.762 2.35237C24.4043 1.93156 23.7732 1.8804 23.3524 2.23809C22.9316 2.59574 22.8804 3.22676 23.238 3.64756L23.2397 3.64953L23.2477 3.65905L23.2817 3.69982C23.312 3.73628 23.3567 3.79064 23.4124 3.85979C23.5241 3.99838 23.6789 4.19482 23.8497 4.42434C24.2001 4.89534 24.5832 5.45986 24.8147 5.93677C25.6065 7.56763 26 8.62455 26 10.5C26 12.3755 25.6065 13.4324 24.8147 15.0633C24.5832 15.5402 24.2001 16.1047 23.8497 16.5757C23.6789 16.8052 23.5241 17.0017 23.4124 17.1402C23.3567 17.2094 23.312 17.2638 23.2817 17.3002L23.2477 17.341L23.2397 17.3505L23.2381 17.3524C22.8806 17.7732 22.9316 18.4043 23.3524 18.762C23.7732 19.1196 24.4043 19.0685 24.762 18.6477L24 18C24.762 18.6477 24.7619 18.6477 24.762 18.6477L24.7637 18.6456L24.7671 18.6416L24.7789 18.6277L24.8208 18.5774C24.8565 18.5344 24.9072 18.4727 24.9695 18.3955C25.0937 18.2414 25.2649 18.0241 25.4543 17.7695C25.8243 17.2722 26.2983 16.5867 26.6139 15.9368C27.4747 14.1637 28 12.7954 28 10.5C28 8.20469 27.4747 6.83637 26.6139 5.06327C26.2983 4.41333 25.8243 3.72785 25.4543 3.23055C25.2649 2.97594 25.0937 2.75866 24.9695 2.60457C24.9072 2.52738 24.8565 2.46567 24.8208 2.42263L24.7789 2.37239L24.7671 2.35845L24.7637 2.35441L24.7626 2.35314C24.7625 2.35306 24.762 2.35237 24 3.00002L24.762 2.35237Z" fill="#767BFA"/>
<path d="M22.8548 6.48104C22.5682 6.00895 21.9531 5.85861 21.481 6.14524C21.009 6.43184 20.8586 7.04681 21.1452 7.51888L21.147 7.52198L21.1569 7.53848C21.1659 7.55374 21.1797 7.57719 21.1971 7.60737C21.232 7.66799 21.2806 7.75443 21.3343 7.85541C21.4466 8.06682 21.5609 8.30477 21.6267 8.49433C21.8806 9.22662 22 9.67653 22 10.5C22 11.3235 21.8806 11.7734 21.6267 12.5057C21.5609 12.6953 21.4466 12.9332 21.3343 13.1446C21.2806 13.2456 21.232 13.3321 21.1971 13.3927C21.1797 13.4229 21.1659 13.4463 21.1569 13.4616L21.147 13.4781L21.1452 13.481C20.859 13.9531 21.0091 14.5683 21.481 14.8548C21.9531 15.1414 22.5682 14.9911 22.8548 14.519L22.0703 14.0427C22.8548 14.519 22.8548 14.5191 22.8548 14.519L22.8557 14.5175L22.8572 14.515L22.8618 14.5073L22.8773 14.4814C22.8903 14.4595 22.9083 14.4288 22.9303 14.3907C22.974 14.3147 23.034 14.2081 23.1004 14.0831C23.2282 13.8427 23.3996 13.4973 23.5163 13.161C23.8132 12.3048 24 11.6229 24 10.5C24 9.37713 23.8132 8.69527 23.5163 7.83904C23.3996 7.50274 23.2282 7.15735 23.1004 6.91689C23.034 6.79194 22.974 6.68532 22.9303 6.60935C22.9083 6.57124 22.8903 6.54052 22.8773 6.51869L22.8618 6.49271L22.8572 6.48502L22.8557 6.48256L22.8548 6.48104C22.8548 6.48097 22.8548 6.48104 22 7.00002L22.8548 6.48104Z" fill="#767BFA"/>
</svg>
