<svg width="29" height="20" viewBox="0 0 29 20" fill="none" xmlns="http://www.w3.org/2000/svg">
<path fill-rule="evenodd" clip-rule="evenodd" d="M7.39212 15.7137C1.61351 15.7137 0 13.4283 0 10.0014C0 6.5745 2.13884 4.28351 7.39212 4.28351C10.2524 4.28351 11.2438 3.01369 12.1471 1.8568C12.9029 0.888874 13.5969 0 15.272 0C18.9493 0 20 4.28351 20 10.0014C20 15.7193 18.9493 20 15.272 20C13.6403 20 13.0429 19.156 12.3783 18.217C11.5452 17.04 10.6065 15.7137 7.39212 15.7137ZM7.3921 13.7137C4.69816 13.7137 3.44445 13.1688 2.85713 12.6472C2.33266 12.1815 2 11.4265 2 10.0014C2 8.72168 2.38138 7.91908 3.01273 7.38855C3.70436 6.80737 5.01469 6.28351 7.39212 6.28351C8.99127 6.28351 10.2677 5.95337 11.3202 5.34759C12.3519 4.75376 13.0179 3.97692 13.487 3.38843C13.6008 3.24561 13.6987 3.12107 13.785 3.01136C14.1039 2.60565 14.2633 2.40292 14.4795 2.22949C14.6248 2.11294 14.8071 2 15.272 2C15.7714 2 16.0788 2.13383 16.3152 2.32233C16.5827 2.5356 16.8846 2.92334 17.161 3.6065C17.7328 5.01998 18 7.19877 18 10.0014C18 12.8041 17.7327 14.982 17.1611 16.3946C16.8848 17.0773 16.583 17.4647 16.3156 17.6778C16.0793 17.8661 15.7717 18 15.272 18C14.8189 18 14.6991 17.8952 14.6214 17.8271L14.6184 17.8245C14.4523 17.6793 14.3476 17.5319 14.1229 17.2154C14.022 17.0734 13.8969 16.8971 13.7313 16.672C13.2707 16.0456 12.6071 15.2424 11.5164 14.6357C10.4266 14.0294 9.08668 13.7137 7.3921 13.7137Z" fill="#ABAFD1"/>
<path d="M26 7C26 6.44772 25.5523 6 25 6C24.4477 6 24 6.44772 24 7V9H22C21.4477 9 21 9.44772 21 10C21 10.5523 21.4477 11 22 11H24V13C24 13.5523 24.4477 14 25 14C25.5523 14 26 13.5523 26 13V11H28C28.5523 11 29 10.5523 29 10C29 9.44772 28.5523 9 28 9H26V7Z" fill="#767BFA"/>
</svg>
