<svg width="24" height="24" viewBox="0 0 24 24" fill="none" xmlns="http://www.w3.org/2000/svg">
<path d="M17 11C16.4477 11 16 11.4477 16 12C16 12.5523 16.4477 13 17 13H19C19.5523 13 20 12.5523 20 12C20 11.4477 19.5523 11 19 11H17Z" fill="#ABAFD1"/>
<path d="M21.7694 7H17.0453C16.3827 7 15.7267 7.12933 15.1146 7.38062C14.5024 7.63187 13.9463 8.00018 13.4777 8.46448C13.0092 8.92877 12.6376 9.47995 12.3841 10.0866C12.1305 10.6932 12 11.3434 12 12C12 12.6566 12.1305 13.3068 12.3841 13.9134C12.6376 14.5201 13.0092 15.0712 13.4777 15.5355C13.9463 15.9998 14.5024 16.3681 15.1146 16.6194C15.7267 16.8707 16.3827 17 17.0453 17H21.7694C21.8716 16.4088 21.9476 15.7457 22 15H17.0453C16.6478 15 16.2541 14.9224 15.8869 14.7716C15.5196 14.6209 15.1859 14.3999 14.9048 14.1213C14.6237 13.8427 14.4007 13.512 14.2486 13.148C14.0964 12.7841 14.0181 12.394 14.0181 12C14.0181 11.606 14.0964 11.2159 14.2486 10.852C14.4007 10.488 14.6237 10.1573 14.9048 9.87869C15.1859 9.6001 15.5196 9.37912 15.8869 9.22836C16.2541 9.07761 16.6478 9 17.0453 9H22C21.9476 8.25433 21.8716 7.59122 21.7694 7Z" fill="#767BFA"/>
<path fill-rule="evenodd" clip-rule="evenodd" d="M0 12C0 21.882 2.118 24 12 24C21.882 24 24 21.882 24 12C24 2.118 21.882 0 12 0C2.118 0 0 2.118 0 12ZM2 12C2 14.4249 2.13254 16.2369 2.43771 17.6101C2.73783 18.9605 3.17768 19.7608 3.70846 20.2915C4.23924 20.8223 5.03949 21.2622 6.38993 21.5623C7.76307 21.8675 9.57515 22 12 22C14.4249 22 16.2369 21.8675 17.6101 21.5623C18.9605 21.2622 19.7608 20.8223 20.2915 20.2915C20.8223 19.7608 21.2622 18.9605 21.5623 17.6101C21.8675 16.2369 22 14.4249 22 12C22 9.57515 21.8675 7.76307 21.5623 6.38993C21.2622 5.03949 20.8223 4.23924 20.2915 3.70846C19.7608 3.17768 18.9605 2.73783 17.6101 2.43771C16.2369 2.13254 14.4249 2 12 2C9.57515 2 7.76307 2.13254 6.38993 2.43771C5.03949 2.73783 4.23924 3.17768 3.70846 3.70846C3.17768 4.23924 2.73783 5.03949 2.43771 6.38993C2.13254 7.76307 2 9.57515 2 12Z" fill="#ABAFD1"/>
</svg>
