<svg width="20" height="24" viewBox="0 0 20 24" fill="none" xmlns="http://www.w3.org/2000/svg">
<path d="M10 7C9.44772 7 9 7.44772 9 8V12C9 12.5523 9.44772 13 10 13H15C15.5523 13 16 12.5523 16 12C16 11.4477 15.5523 11 15 11L11 11V8C11 7.44772 10.5523 7 10 7Z" fill="#767BFA"/>
<path fill-rule="evenodd" clip-rule="evenodd" d="M4.01324 3.41866C4.00964 3.49344 4.00671 3.55202 4.00304 3.6033C0.829264 4.57548 0 6.91981 0 12C0 17.0812 0.82959 19.4254 4.0049 20.3973C4.00775 20.4415 4.01027 20.492 4.01324 20.5537L4.01372 20.5636C4.01807 20.6541 4.02347 20.7663 4.03321 20.883C4.05357 21.1266 4.09574 21.4347 4.21466 21.7587C4.47583 22.4701 5.03094 23.0579 5.98693 23.4424C6.89163 23.8063 8.17683 24 10 24C11.8232 24 13.1084 23.8063 14.0131 23.4424C14.9691 23.0579 15.5242 22.4701 15.7853 21.7587C15.9043 21.4347 15.9464 21.1266 15.9668 20.883C15.9765 20.7663 15.9819 20.654 15.9863 20.5636L15.9868 20.5537C15.9897 20.492 15.9922 20.4415 15.9951 20.3973C19.1704 19.4254 20 17.0812 20 12C20 6.91981 19.1707 4.57548 15.997 3.60331C15.9933 3.55202 15.9904 3.49344 15.9868 3.41866L15.9863 3.40947C15.982 3.31872 15.9766 3.20612 15.9668 3.08933C15.9464 2.84606 15.9041 2.53823 15.7843 2.21497C15.5207 1.50375 14.9615 0.923918 14.0077 0.546659C13.1048 0.18954 11.8216 0 10 0C8.17839 0 6.89517 0.18954 5.99228 0.546659C5.03848 0.923918 4.47934 1.50375 4.21574 2.21497C4.09593 2.53823 4.05362 2.84606 4.03323 3.08933C4.02344 3.20617 4.01804 3.31871 4.01368 3.40947L4.01324 3.41866ZM13.9647 20.8065C12.8481 20.9447 11.5367 21 10 21C8.46333 21 7.15194 20.9447 6.03527 20.8065C6.04842 20.9175 6.06692 21.0007 6.09215 21.0695C6.13213 21.1783 6.22759 21.3835 6.73324 21.5869C7.29018 21.8109 8.27772 22 10 22C11.7223 22 12.7098 21.8109 13.2668 21.5869C13.7724 21.3835 13.8679 21.1783 13.9078 21.0695C13.9331 21.0007 13.9516 20.9175 13.9647 20.8065ZM13.9089 2.91003C13.9354 2.9815 13.9546 3.07022 13.9678 3.19384C12.8505 3.05542 11.5381 3 10 3C8.46191 3 7.14952 3.05542 6.03218 3.19384C6.04541 3.07022 6.06459 2.9815 6.09108 2.91003C6.12862 2.80875 6.22005 2.60733 6.72789 2.40647C7.28665 2.18546 8.27615 2 10 2C11.7238 2 12.7134 2.18546 13.2721 2.40647C13.78 2.60733 13.8714 2.80875 13.9089 2.91003ZM3.2498 17.7927C2.50641 17.1237 2 15.7548 2 12C2 8.24522 2.50641 6.87633 3.2498 6.20728C3.62642 5.86832 4.23932 5.54844 5.35563 5.32516C6.48388 5.09949 7.98189 5 10 5C12.0181 5 13.5161 5.09949 14.6444 5.32516C15.7607 5.54844 16.3736 5.86832 16.7502 6.20728C17.4936 6.87633 18 8.24522 18 12C18 15.7548 17.4936 17.1237 16.7502 17.7927C16.3736 18.1317 15.7607 18.4516 14.6444 18.6748C13.5161 18.9005 12.0181 19 10 19C7.98189 19 6.48388 18.9005 5.35563 18.6748C4.23932 18.4516 3.62642 18.1317 3.2498 17.7927Z" fill="#ABAFD1"/>
</svg>
