<svg width="24" height="24" viewBox="0 0 24 24" fill="none" xmlns="http://www.w3.org/2000/svg">
<path fill-rule="evenodd" clip-rule="evenodd" d="M12 24C2.11801 24 0 21.882 0 12C0 2.11801 2.11801 0 12 0C21.882 0 24 2.11801 24 12C24 21.882 21.882 24 12 24ZM2.43771 17.6101C2.13254 16.2369 2 14.4249 2 12C2 10.8736 2.02859 9.87939 2.08981 9H5V21.1316C4.43491 20.8906 4.02405 20.6071 3.70847 20.2915C3.17767 19.7607 2.73782 18.9605 2.43771 17.6101ZM7 21.6816C8.28842 21.9023 9.91843 22 12 22C14.4249 22 16.2369 21.8675 17.6101 21.5623C18.9605 21.2622 19.7607 20.8223 20.2915 20.2915C20.8223 19.7607 21.2622 18.9605 21.5623 17.6101C21.8675 16.2369 22 14.4249 22 12C22 10.8736 21.9714 9.87939 21.9102 9H7V21.6816ZM21.5623 6.38992C21.6055 6.58432 21.6452 6.78751 21.6816 7H2.31836C2.35477 6.78751 2.3945 6.58432 2.43771 6.38992C2.73782 5.03949 3.17767 4.23926 3.70847 3.70847C4.23926 3.17767 5.03949 2.73782 6.38992 2.43771C7.76306 2.13254 9.57513 2 12 2C14.4249 2 16.2369 2.13254 17.6101 2.43771C18.9605 2.73782 19.7607 3.17767 20.2915 3.70847C20.8223 4.23926 21.2622 5.03949 21.5623 6.38992Z" fill="#ABAFD1"/>
<path d="M5 5C5 5.55228 5.44772 6 6 6C6.55228 6 7 5.55228 7 5C7 4.44772 6.55228 4 6 4C5.44772 4 5 4.44772 5 5Z" fill="#767BFA"/>
<path d="M8 5C8 5.55228 8.44772 6 9 6C9.55228 6 10 5.55228 10 5C10 4.44772 9.55228 4 9 4C8.44772 4 8 4.44772 8 5Z" fill="#767BFA"/>
<path d="M12 6C11.4477 6 11 5.55228 11 5C11 4.44772 11.4477 4 12 4C12.5523 4 13 4.44772 13 5C13 5.55228 12.5523 6 12 6Z" fill="#767BFA"/>
</svg>
