<svg width="24" height="24" viewBox="0 0 24 24" fill="none" xmlns="http://www.w3.org/2000/svg">
<path fill-rule="evenodd" clip-rule="evenodd" d="M0 12C0 20 4 24 12 24C20 24 24 20 24 12C24 4 20 0 12 0C4 0 0 4 0 12ZM2.46253 16C2.87573 17.5501 3.54904 18.7206 4.41421 19.5858C5.90685 21.0784 8.30829 22 12 22C15.6917 22 18.0931 21.0784 19.5858 19.5858C20.451 18.7206 21.1243 17.5501 21.5375 16H2.46253ZM2.10088 14H21.8991C21.9655 13.3798 22 12.714 22 12C22 11.286 21.9655 10.6202 21.8991 10H2.10088C2.03447 10.6202 2 11.286 2 12C2 12.714 2.03447 13.3798 2.10088 14ZM2.46253 8H21.5375C21.1243 6.44989 20.451 5.27939 19.5858 4.41421C18.0931 2.92157 15.6917 2 12 2C8.30829 2 5.90685 2.92157 4.41421 4.41421C3.54904 5.27939 2.87573 6.44989 2.46253 8Z" fill="#ABAFD1"/>
<path fill-rule="evenodd" clip-rule="evenodd" d="M16 12C16 18.6274 14.2091 24 12 24C9.79086 24 8 18.6274 8 12C8 5.37258 9.79086 0 12 0C14.2091 0 16 5.37258 16 12ZM14 12C14 15.1277 13.5741 17.8638 12.9488 19.7397C12.6332 20.6866 12.3046 21.2993 12.0404 21.6346C12.0263 21.6526 12.0128 21.6691 12 21.6844C11.9872 21.6691 11.9737 21.6526 11.9596 21.6346C11.6954 21.2993 11.3668 20.6866 11.0512 19.7397C10.4259 17.8638 10 15.1277 10 12C10 8.87229 10.4259 6.13622 11.0512 4.26034C11.3668 3.31343 11.6954 2.70066 11.9596 2.3654C11.9737 2.34743 11.9872 2.33085 12 2.31555C12.0128 2.33085 12.0263 2.34743 12.0404 2.3654C12.3046 2.70066 12.6332 3.31343 12.9488 4.26034C13.5741 6.13622 14 8.87229 14 12ZM11.8246 21.8549C11.8246 21.8549 11.8284 21.8519 11.836 21.8483C11.8284 21.8535 11.8246 21.8549 11.8246 21.8549ZM12.1754 21.8549C12.1754 21.8549 12.1716 21.8519 12.164 21.8483L12.1679 21.8508C12.1728 21.8541 12.1754 21.8549 12.1754 21.8549ZM12.1754 2.14511C12.1754 2.14511 12.1716 2.14808 12.164 2.15173C12.1716 2.14654 12.1754 2.14511 12.1754 2.14511ZM11.836 2.15173C11.8284 2.14808 11.8246 2.14511 11.8246 2.14511C11.8246 2.14511 11.8284 2.14654 11.836 2.15173Z" fill="#767BFA"/>
</svg>
