<svg width="24" height="24" viewBox="0 0 24 24" fill="none" xmlns="http://www.w3.org/2000/svg">
<path d="M12.2138 8.14257C12.2138 7.58045 11.7582 7.12476 11.196 7.12476C10.6339 7.12476 10.1782 7.58045 10.1782 8.14257V10.1782H8.14257C7.58045 10.1782 7.12476 10.6339 7.12476 11.196C7.12476 11.7582 7.58045 12.2138 8.14257 12.2138H10.1782V14.2495C10.1782 14.8116 10.6339 15.2673 11.196 15.2673C11.7582 15.2673 12.2138 14.8116 12.2138 14.2495V12.2138H14.2495C14.8116 12.2138 15.2673 11.7582 15.2673 11.196C15.2673 10.6339 14.8116 10.1782 14.2495 10.1782H12.2138V8.14257Z" fill="#767BFA"/>
<path d="M20.0424 18.5824L18.5824 20.0424L22.2377 23.6977C22.6408 24.1008 23.2945 24.1008 23.6977 23.6977C24.1008 23.2945 24.1008 22.6409 23.6977 22.2377L20.0424 18.5824Z" fill="#767BFA"/>
<path fill-rule="evenodd" clip-rule="evenodd" d="M0 11.196C0 19.8474 3.05346 22.392 11.196 22.392C19.3386 22.392 22.392 19.8474 22.392 11.196C22.392 2.54454 19.3386 0 11.196 0C3.05346 0 0 2.54454 0 11.196ZM2.03564 11.196C2.03564 15.3906 2.79983 17.4566 3.95755 18.5729C5.1328 19.7062 7.21808 20.3564 11.196 20.3564C15.1739 20.3564 17.2592 19.7062 18.4345 18.5729C19.5922 17.4566 20.3564 15.3906 20.3564 11.196C20.3564 7.00142 19.5922 4.93542 18.4345 3.81904C17.2592 2.68577 15.1739 2.03564 11.196 2.03564C7.21808 2.03564 5.1328 2.68577 3.95755 3.81904C2.79983 4.93542 2.03564 7.00142 2.03564 11.196Z" fill="#ABAFD1"/>
</svg>
