<svg width="24" height="24" viewBox="0 0 24 24" fill="none" xmlns="http://www.w3.org/2000/svg">
<path d="M21 5C19.8954 5 19 4.10457 19 3C19 1.89543 19.8954 1 21 1C22.1046 1 23 1.89543 23 3C23 4.10457 22.1046 5 21 5Z" stroke="#ABAFD1" stroke-width="2"/>
<path fill-rule="evenodd" clip-rule="evenodd" d="M2 12C2 14.4249 2.13254 16.2369 2.43771 17.6101C2.73783 18.9605 3.17768 19.7608 3.70846 20.2915C4.23924 20.8223 5.03949 21.2622 6.38993 21.5623C7.76307 21.8675 9.57515 22 12 22C14.4249 22 16.2369 21.8675 17.6101 21.5623C18.9605 21.2622 19.7608 20.8223 20.2915 20.2915C20.8223 19.7608 21.2622 18.9605 21.5623 17.6101C21.8675 16.2369 22 14.4249 22 12C22 9.57515 21.8675 7.76307 21.5623 6.38993C21.5294 6.24185 21.4948 6.10039 21.4586 5.96517C22.1702 5.85602 22.7994 5.49684 23.2537 4.98014C23.8042 6.70802 24 8.99506 24 12C24 21.882 21.882 24 12 24C2.118 24 0 21.882 0 12C0 2.118 2.118 0 12 0C15.0049 0 17.292 0.195843 19.0199 0.746281C18.5032 1.20062 18.144 1.82983 18.0348 2.54141C17.8996 2.50521 17.7582 2.47062 17.6101 2.43771C16.2369 2.13254 14.4249 2 12 2C9.57515 2 7.76307 2.13254 6.38993 2.43771C5.03949 2.73783 4.23924 3.17768 3.70846 3.70846C3.17768 4.23924 2.73783 5.03949 2.43771 6.38993C2.13254 7.76307 2 9.57515 2 12Z" fill="#ABAFD1"/>
<path d="M6 14C6 14 8.76929 7 12 12C15.2308 17 18 10 18 10" stroke="#ABAFD1" stroke-width="2" stroke-linecap="round" stroke-linejoin="round"/>
</svg>
