<svg width="24" height="24" viewBox="0 0 24 24" fill="none" xmlns="http://www.w3.org/2000/svg">
<path d="M1 12C1 14.4477 1.13246 16.3463 1.46153 17.827C1.78807 19.2963 2.29478 20.2921 3.00136 20.9986C3.70794 21.7052 4.70365 22.2119 6.17298 22.5385C7.65366 22.8675 9.55232 23 12 23C14.4477 23 16.3463 22.8675 17.827 22.5385C19.2963 22.2119 20.2921 21.7052 20.9986 20.9986C21.7052 20.2921 22.2119 19.2963 22.5385 17.827C22.8675 16.3463 23 14.4477 23 12C23 10.5119 22.9512 9.22172 22.8373 8.10118C22.5191 4.97271 21.7138 3.35199 20.2641 2.40859C18.7101 1.39733 16.1976 1 12 1C7.80241 1 5.28987 1.39733 3.73593 2.40859C2.28625 3.35199 1.48088 4.97271 1.16273 8.10118C1.04877 9.22172 1 10.5119 1 12Z" stroke="#ABAFD1" stroke-width="2" stroke-linecap="round" stroke-linejoin="round"/>
<circle r="1" transform="matrix(-1 0 0 1 12 16)" fill="#ABAFD1"/>
</svg>
