<svg width="24" height="24" viewBox="0 0 24 24" fill="none" xmlns="http://www.w3.org/2000/svg">
<path d="M12 1V4M6.5 2.5L7.5 4M17.5 2.5L16.5 4" stroke="#ABAFD1" stroke-width="2" stroke-linecap="round" stroke-linejoin="round"/>
<path fill-rule="evenodd" clip-rule="evenodd" d="M16.7471 20.0625H18.7674C18.9355 18.7904 19 17.0592 19 14.7083C19 8.49999 16.5 5.99999 12 6C7.5 6.00001 5 8.49999 5 14.7083C5 17.0592 5.06447 18.7904 5.23265 20.0625H7.25294C7.07772 18.9328 7 17.2484 7 14.7083C7 11.8154 7.59202 10.1995 8.3382 9.3192C9.02469 8.50926 10.1205 8 12 8C13.8795 8 14.9753 8.50925 15.6618 9.31919C16.408 10.1995 17 11.8154 17 14.7083C17 17.2484 16.9223 18.9328 16.7471 20.0625Z" fill="#ABAFD1"/>
<path d="M10 20C10 20 3.5 20 2.5 20C1.5 20 1 20.7728 1 21.5C1 22.2272 1.5 23 2.5 23C3.5 23 20.5 23 21.5 23C22.5 23 23 22.204 23 21.5C23 20.796 22.5 20 21.5 20C20.5 20 14 20 14 20M10 20C10 20 10 18 10 17C10 16 10.8954 15 12 15C13.1046 15 14 16 14 17C14 18 14 20 14 20M10 20H14" stroke="#ABAFD1" stroke-width="2" stroke-linecap="round" stroke-linejoin="round"/>
</svg>
