<svg width="16" height="24" viewBox="0 0 16 24" fill="none" xmlns="http://www.w3.org/2000/svg">
<path d="M10 5.00005L9.99999 5.00005L6 5.00002C5.9142 5.00002 5.85426 5.00594 5.81468 5.01227C5.81039 5.03029 5.80564 5.05268 5.80072 5.08017C5.78468 5.16978 5.77538 5.25472 5.76239 5.37335C5.75691 5.42344 5.75076 5.47953 5.74318 5.54452C5.70257 5.89239 5.62366 6.54951 5.15144 7.07742C4.64326 7.64555 3.88951 7.85716 2.99984 7.85716C2.47906 7.85716 2.18318 8.00822 1.97303 8.21859C1.73238 8.45949 1.51183 8.87306 1.34584 9.54552C1.00686 10.9188 1 12.8833 1 15.2917L1 15.2925C1 17.0864 1.08841 18.4579 1.30348 19.5149C1.51713 20.5649 1.84189 21.2331 2.26305 21.6877C3.10963 22.6014 4.66933 23 8 23C11.3213 23 12.8851 22.5827 13.7341 21.6587C14.158 21.1973 14.4831 20.5241 14.6967 19.4781C14.9116 18.4252 15 17.0644 15 15.2925C15 12.9319 14.9933 10.9652 14.6537 9.57887C14.4871 8.89864 14.265 8.47423 14.0209 8.22565C13.8083 8.00914 13.5135 7.85716 13 7.85716C12.1103 7.85716 11.3566 7.64556 10.8484 7.07741C10.3762 6.54948 10.2973 5.89234 10.2567 5.54448C10.2492 5.47949 10.243 5.4234 10.2375 5.37331C10.2245 5.25469 10.2153 5.16975 10.1992 5.08014C10.1943 5.05268 10.1896 5.0303 10.1853 5.01229C10.1457 5.00597 10.0858 5.00005 10 5.00005Z" stroke="#ABAFD1" stroke-width="2" stroke-linecap="round" stroke-linejoin="round"/>
<path d="M4 2C4 2 4.5 1.00006 6 1.00002C6.70709 0.999999 8 1 8 1M11 1H8M8 1V4" stroke="#ABAFD1" stroke-width="2" stroke-linecap="round" stroke-linejoin="round"/>
</svg>
