<svg width="18" height="25" viewBox="0 0 18 25" fill="none" xmlns="http://www.w3.org/2000/svg">
<path d="M7.82059 9.0416C7.276 8.89686 6.71437 9.22127 6.57399 9.76288C4.69908 16.9967 5.23315 18.8366 9.12271 19.8704C13.1829 20.9494 14.5194 19.4544 16.6953 11.4002C18.8711 3.34597 18.4672 1.38844 14.4071 0.309378C11.9991 -0.330579 10.5491 -0.0651694 9.31392 1.93692C8.98386 2.47189 9.30837 3.14738 9.91916 3.30971L9.95222 3.3185C10.4206 3.44298 10.9 3.21477 11.1705 2.81554C11.2658 2.67486 11.3562 2.55877 11.4418 2.46306C11.7109 2.16204 11.9105 2.08048 12.1351 2.04535C12.4487 1.99629 12.9677 2.02338 13.8786 2.26548C14.7896 2.50758 15.2527 2.74151 15.4995 2.93951C15.6763 3.08131 15.8081 3.25094 15.8894 3.6451C15.987 4.11805 15.9984 4.87709 15.8082 6.11623C15.6207 7.33711 15.2613 8.88386 14.7231 10.8761C14.1849 12.8683 13.7165 14.3861 13.2634 15.5363C12.8035 16.7038 12.4109 17.3555 12.088 17.7167C11.8189 18.0177 11.6192 18.0993 11.3947 18.1344C11.0811 18.1834 10.5621 18.1564 9.65114 17.9143C8.7402 17.6722 8.27706 17.4382 8.03023 17.2402C7.85347 17.0984 7.7217 16.9288 7.64038 16.5346C7.5428 16.0617 7.53134 15.3026 7.7216 14.0635C7.87714 13.0505 8.15105 11.8132 8.54723 10.2833C8.68748 9.74167 8.36518 9.18633 7.82059 9.0416Z" fill="#ABAFD1"/>
<path d="M4.12137 22.7345C5.03232 22.9766 5.55134 23.0037 5.86491 22.9547C6.08946 22.9195 6.28909 22.838 6.55821 22.5369C6.64378 22.4412 6.73423 22.3251 6.82952 22.1845C7.09996 21.7852 7.57939 21.557 8.04778 21.6815L8.08084 21.6903C8.69163 21.8526 9.01614 22.5281 8.68608 23.0631C7.45086 25.0652 6.00089 25.3306 3.59294 24.6906C-0.467222 23.6116 -0.871087 21.654 1.30475 13.5998C3.48058 5.54556 4.81713 4.05058 8.87729 5.12964C12.7669 6.16337 13.3009 8.00329 11.426 15.2371C11.2856 15.7787 10.724 16.1031 10.1794 15.9584C9.63482 15.8137 9.31252 15.2583 9.45277 14.7167C9.84895 13.1868 10.1229 11.9495 10.2784 10.9365C10.4687 9.69736 10.4572 8.93832 10.3596 8.46536C10.2783 8.07121 10.1465 7.90157 9.96977 7.75978C9.72294 7.56178 9.2598 7.32784 8.34886 7.08574C7.43791 6.84364 6.91889 6.81655 6.60532 6.86562C6.38076 6.90075 6.18114 6.98231 5.91201 7.28333C5.58909 7.64453 5.19653 8.29619 4.73665 9.46368C4.28354 10.6139 3.81508 12.1317 3.27689 14.1239C2.7387 16.1161 2.37929 17.6629 2.19183 18.8838C2.00157 20.1229 2.01303 20.8819 2.11061 21.3549C2.19193 21.7491 2.3237 21.9187 2.50046 22.0605C2.74729 22.2585 3.21043 22.4924 4.12137 22.7345Z" fill="#ABAFD1"/>
</svg>
