<svg width="24" height="24" viewBox="0 0 24 24" fill="none" xmlns="http://www.w3.org/2000/svg">
<path d="M17 5.5C16.75 2.83334 15 1 12 1C9 1 7.25 2.83335 7 5.5" stroke="#ABAFD1" stroke-width="2" stroke-linecap="round" stroke-linejoin="round"/>
<path d="M1.66668 13.8635C1.59557 14.1433 1.52187 14.4334 1.44482 14.7342C0.980131 16.7952 0.899558 18.2907 1.1101 19.3806C1.31194 20.4255 1.78159 21.111 2.51725 21.6099C3.29734 22.1389 4.44256 22.5016 6.05783 22.72C7.66323 22.937 9.6341 23 12 23C14.3659 23 16.3368 22.937 17.9422 22.72C19.5574 22.5016 20.7027 22.1389 21.4828 21.6099C22.2184 21.111 22.6881 20.4255 22.8899 19.3806C23.1004 18.2907 23.0199 16.7952 22.5552 14.7342C22.4781 14.4334 22.4044 14.1434 22.3333 13.8636C21.9557 12.3773 21.6512 11.1787 21.3055 10.1781C20.898 8.99852 20.4699 8.21162 19.9003 7.6489C18.7708 6.5331 16.7811 6 12 6C7.21883 6 5.22916 6.5331 4.09971 7.6489C3.5301 8.21161 3.10198 8.99852 2.69449 10.1781C2.34882 11.1787 2.0443 12.3772 1.66668 13.8635Z" stroke="#ABAFD1" stroke-width="2" stroke-linecap="round" stroke-linejoin="round"/>
<path d="M7 10H17" stroke="#ABAFD1" stroke-width="2" stroke-linecap="round" stroke-linejoin="round"/>
</svg>
