<svg width="24" height="24" viewBox="0 0 24 24" fill="none" xmlns="http://www.w3.org/2000/svg">
<path d="M17.6594 4.66876L16.7262 5.02812C16.8714 5.40524 17.2293 5.65789 17.6333 5.66842L17.6594 4.66876ZM19.9899 14.205L19.5674 13.2986C19.2099 13.4653 18.9838 13.8265 18.9901 14.2209L19.9899 14.205ZM19.0859 22.0013L19.8034 22.6979L19.0859 22.0013ZM4.91406 22.0013L4.19659 22.6979H4.19659L4.91406 22.0013ZM4.01005 14.205L5.00993 14.2209C5.01621 13.8265 4.79009 13.4653 4.43261 13.2986L4.01005 14.205ZM6.3406 4.66876L6.36668 5.66842C6.77066 5.65789 7.12858 5.40524 7.2738 5.02812L6.3406 4.66876ZM18.5926 4.30941C17.6104 1.75869 14.9967 0 12 0V2C14.2299 2 16.0624 3.30427 16.7262 5.02812L18.5926 4.30941ZM24 9.70835C24 6.35217 21.1092 3.75842 17.6855 3.6691L17.6333 5.66842C20.1372 5.73374 22 7.59341 22 9.70835H24ZM20.4125 15.1113C22.504 14.1362 24 12.1093 24 9.70835H22C22 11.2332 21.0485 12.6081 19.5674 13.2986L20.4125 15.1113ZM21 15.678C21 15.1469 20.9972 14.6512 20.9898 14.1891L18.9901 14.2209C18.9972 14.669 19 15.1535 19 15.678H21ZM19.8034 22.6979C20.4969 21.9837 20.7581 21.0137 20.8795 19.9304C21.0015 18.8425 21 17.4303 21 15.678H19C19 17.4786 18.9985 18.7574 18.892 19.7075C18.7849 20.6623 18.5891 21.0775 18.3685 21.3047L19.8034 22.6979ZM12 24C14.0343 24 15.6296 24.0015 16.8329 23.8692C18.0257 23.738 19.0665 23.4569 19.8034 22.6979L18.3685 21.3047C18.1357 21.5444 17.6926 21.7626 16.6143 21.8812C15.5466 21.9985 14.0837 22 12 22V24ZM4.19659 22.6979C4.93351 23.4569 5.97428 23.738 7.1671 23.8692C8.37043 24.0015 9.96566 24 12 24V22C9.91631 22 8.45339 21.9985 7.38566 21.8812C6.30744 21.7626 5.86425 21.5444 5.63152 21.3047L4.19659 22.6979ZM3 15.678C3 17.4303 2.9985 18.8425 3.12048 19.9304C3.24195 21.0137 3.50313 21.9837 4.19659 22.6979L5.63152 21.3047C5.41093 21.0775 5.21508 20.6623 5.10803 19.7075C5.0015 18.7574 5 17.4786 5 15.678H3ZM3.01018 14.1891C3.00282 14.6512 3 15.1469 3 15.678H5C5 15.1535 5.00279 14.669 5.00993 14.2209L3.01018 14.1891ZM4.43261 13.2986C2.95148 12.6081 2 11.2332 2 9.70835H0C0 12.1093 1.49602 14.1362 3.5875 15.1113L4.43261 13.2986ZM2 9.70835C2 7.59341 3.86275 5.73374 6.36668 5.66842L6.31453 3.6691C2.89075 3.75842 0 6.35217 0 9.70835H2ZM12 0C9.00329 0 6.38964 1.75869 5.4074 4.30941L7.2738 5.02812C7.93762 3.30427 9.77013 2 12 2V0Z" fill="#ABAFD1"/>
<path d="M19.8462 18L4.09033 18" stroke="#ABAFD1" stroke-width="2" stroke-linecap="square" stroke-linejoin="round"/>
</svg>
