<svg width="22" height="22" viewBox="0 0 22 22" fill="none" xmlns="http://www.w3.org/2000/svg">
<path fill-rule="evenodd" clip-rule="evenodd" d="M11.7063 8.88321C12.0963 8.4932 12.0963 7.86087 11.7063 7.47085C11.3163 7.08084 10.6839 7.08084 10.2939 7.47085C9.90392 7.86087 9.90392 8.4932 10.2939 8.88321C10.6839 9.27323 11.3163 9.27323 11.7063 8.88321ZM8.88138 11.7076C9.27139 11.3176 9.27139 10.6853 8.88138 10.2953C8.49137 9.90526 7.85904 9.90526 7.46902 10.2953C7.07901 10.6853 7.07901 11.3176 7.46902 11.7076C7.85904 12.0976 8.49137 12.0976 8.88138 11.7076ZM11.7063 14.532C12.0963 14.142 12.0963 13.5097 11.7063 13.1197C11.3163 12.7297 10.6839 12.7297 10.2939 13.1197C9.90392 13.5097 9.90392 14.142 10.2939 14.532C10.6839 14.9221 11.3163 14.9221 11.7063 14.532ZM14.5307 10.2953C14.9207 10.6853 14.9207 11.3176 14.5307 11.7076C14.1407 12.0976 13.5084 12.0976 13.1183 11.7076C12.7283 11.3176 12.7283 10.6853 13.1183 10.2953C13.5084 9.90526 14.1407 9.90526 14.5307 10.2953Z" fill="#ABAFD1"/>
<path d="M11.1082 19.1985C9.89864 18.2634 8.48641 16.9587 6.76385 15.2362C5.04298 13.5153 3.73915 12.1041 2.80423 10.8954C1.36835 9.0389 0.926716 7.81475 1.0097 6.81435C1.09349 5.80427 1.73317 4.73272 3.23295 3.23295C4.73272 1.73317 5.80427 1.09349 6.81435 1.0097C7.81475 0.926716 9.0389 1.36835 10.8954 2.80423C12.1041 3.73915 13.5153 5.04298 15.2362 6.76385C16.9613 8.48896 18.2672 9.90281 19.2026 11.1135C20.6343 12.9666 21.0739 14.1889 20.9901 15.1881C20.9055 16.1975 20.2656 17.2685 18.767 18.767C17.2678 20.2663 16.1964 20.9061 15.1866 20.9902C14.1867 21.0735 12.9633 20.6327 11.1082 19.1985Z" stroke="#ABAFD1" stroke-width="2" stroke-linecap="round" stroke-linejoin="round"/>
</svg>
