<svg width="24" height="24" viewBox="0 0 24 24" fill="none" xmlns="http://www.w3.org/2000/svg">
<path d="M1 12C1 14.4477 1.13246 16.3463 1.46153 17.827C1.78807 19.2963 2.29478 20.2921 3.00136 20.9986C3.70794 21.7052 4.70365 22.2119 6.17298 22.5385C7.65366 22.8675 9.55232 23 12 23C14.4477 23 16.3463 22.8675 17.827 22.5385C19.2963 22.2119 20.2921 21.7052 20.9986 20.9986C21.7052 20.2921 22.2119 19.2963 22.5385 17.827C22.8675 16.3463 23 14.4477 23 12C23 9.55232 22.8675 7.65366 22.5385 6.17298C22.2119 4.70365 21.7052 3.70794 20.9986 3.00136C20.2921 2.29478 19.2963 1.78807 17.827 1.46153C16.3463 1.13246 14.4477 1 12 1C9.55232 1 7.65366 1.13246 6.17298 1.46153C4.70365 1.78807 3.70794 2.29478 3.00136 3.00136C2.29478 3.70794 1.78807 4.70365 1.46153 6.17298C1.13246 7.65366 1 9.55232 1 12Z" stroke="#ABAFD1" stroke-width="2" stroke-linecap="round" stroke-linejoin="round"/>
<path d="M13.846 12C14.9229 12 15.9998 11 15.9998 9.5C15.9998 8 14.9229 6.99999 13.846 7C12.7692 7.00001 11.1537 7.00002 10.0769 7.00001C9.00007 7 8.99998 7 9.00002 8.00001C9.00007 9.00001 9.00002 12 9.00002 12M13.846 12C12.7692 12 10.0769 12 10.0769 12H9.00002M13.846 12C14.9229 12 15.982 13 15.9998 14.5C16.0175 16 14.9229 17 13.846 17C12.7691 17 11.1538 17 10.0769 17C9.00002 17 9.00007 17 9.00002 16C8.99998 15 9.00002 12 9.00002 12" stroke="#ABAFD1" stroke-width="2" stroke-linecap="round" stroke-linejoin="round"/>
</svg>
