<svg width="24" height="24" viewBox="0 0 24 24" fill="none" xmlns="http://www.w3.org/2000/svg">
<path d="M1 9C1 10.5482 1.17664 11.7678 1.45932 12.7284C1.86459 14.1056 2.4899 14.9606 3.15624 15.512C3.83055 16.0701 4.6077 16.3671 5.38595 16.5282C6.1092 16.6779 6.79117 16.7037 7.38549 16.7261C7.43963 16.7281 7.49304 16.7301 7.54569 16.7322C7.82676 16.7433 8.16872 16.7579 8.44342 16.8176C8.57712 16.8467 8.80565 16.9078 9.01906 17.0633C9.28153 17.2545 9.5 17.5789 9.5 18V18.0059V18.0117V18.0176V18.0235V18.0294V18.0354V18.0413V18.0472V18.0532V18.0592V18.0651V18.0711V18.0771V18.0831V18.0891V18.0952V18.1012V18.1072V18.1133V18.1194V18.1254V18.1315V18.1376V18.1437V18.1498V18.156V18.1621V18.1682V18.1744V18.1805V18.1867V18.1929V18.1991V18.2052V18.2114V18.2177V18.2239V18.2301V18.2363V18.2426V18.2488V18.2551V18.2613V18.2676V18.2739V18.2802V18.2865V18.2928V18.2991V18.3054V18.3117V18.3181V18.3244V18.3307V18.3371V18.3435V18.3498V18.3562V18.3626V18.3689V18.3753V18.3817V18.3881V18.3945V18.4009V18.4074V18.4138V18.4202V18.4266V18.4331V18.4395V18.446V18.4524V18.4589V18.4654V18.4718V18.4783V18.4848V18.4913V18.4977V18.5042V18.5107V18.5172V18.5237V18.5302V18.5367V18.5433V18.5498V18.5563V18.5628V18.5694V18.5759V18.5824V18.589V18.5955V18.6021V18.6086V18.6151V18.6217V18.6283V18.6348V18.6414V18.6479V18.6545V18.6611V18.6676V18.6742V18.6808V18.6874V18.6939V18.7005V18.7071V18.7137V18.7203V18.7268V18.7334V18.74V18.7466V18.7532V18.7598V18.7664V18.773V18.7795V18.7861V18.7927V18.7993V18.8059V18.8125V18.8191V18.8257V18.8323V18.8389V18.8455V18.852V18.8586V18.8652V18.8718V18.8784V18.885V18.8916V18.8982V18.9047V18.9113V18.9179V18.9245V18.9311V18.9376V18.9442V18.9508V18.9574V18.9639V18.9705V18.9771V18.9836V18.9902V18.9967V19.0033V19.0099V19.0164V19.0229V19.0295V19.036V19.0426V19.0491V19.0556V19.0622V19.0687V19.0752V19.0817V19.0883V19.0948V19.1013V19.1078V19.1143V19.1208V19.1273V19.1337V19.1402V19.1467V19.1532V19.1596V19.1661V19.1726V19.179V19.1855V19.1919V19.1984V19.2048V19.2112V19.2176V19.2241V19.2305V19.2369V19.2433V19.2497V19.2561V19.2624V19.2688V19.2752V19.2815V19.2879V19.2943V19.3006V19.3069V19.3133V19.3196V19.3259V19.3322V19.3385V19.3448V19.3511V19.3574V19.3637V19.3699V19.3762V19.3824V19.3887V19.3949V19.4011V19.4073V19.4136V19.4198V19.4259V19.4321V19.4383V19.4445V19.4506V19.4568V19.4629V19.469V19.4752V19.4813V19.4874V19.4935V19.4996V19.5056V19.5117V19.5178V19.5238V19.5298V19.5359V19.5419V19.5479V19.5539V19.5599V19.5658V19.5718V19.5778V19.5837V19.5896V19.5956V19.6015V19.6074V19.6133V19.6191V19.625V19.6309V19.6367V19.6425V19.6483V19.6542V19.6599V19.6657V19.6715V19.6773V19.683V19.6887V19.6945V19.7002V19.7059V19.7116V19.7172V19.7229V19.7285V19.7342V19.7398V19.7454V19.751V19.7566V19.7621V19.7677V19.7732V19.7787V19.7842V19.7897V19.7952V19.8007V19.8062V19.8116V19.817V19.8224V19.8278V19.8332V19.8386V19.8439V19.8493V19.8546V19.8599V19.8652V19.8705V19.8757V19.881V19.8862V19.8914V19.8966V19.9018V19.907V19.9121V19.9173V19.9224V19.9275V19.9326V19.9376V19.9427V19.9477V19.9527V19.9577V19.9627V19.9677V19.9727V19.9776V19.9825V19.9874V19.9923V19.9972V20.002V20.0068V20.0117V20.0164V20.0212V20.026V20.0307V20.0354V20.0401V20.0448V20.0495V20.0541V20.0588V20.0634V20.068V20.0726V20.0771V20.0816V20.0862V20.0907V20.0951V20.0996V20.104V20.1084V20.1128V20.1172V20.1216V20.1259V20.1302V20.1345V20.1388V20.1431V20.1473V20.1515V20.1557V20.1599V20.1641V20.1682V20.1723V20.1764V20.1805V20.1845V20.1885V20.1925V20.1965V20.2005V20.2044V20.2084V20.2122V20.2161V20.22V20.2238V20.2276V20.2314V20.2352V20.2389V20.2426V20.2463V20.25V20.2537V20.2573V20.2609V20.2645V20.268V20.2716V20.2751V20.2786V20.282V20.2855V20.2889V20.2923V20.2956V20.299V20.3023V20.3056V20.3089V20.3121V20.3153V20.3185V20.3217V20.3249V20.328V20.3311V20.3342V20.3372V20.3402V20.3432V20.3462V20.3492V20.3521V20.355V20.3579V20.3607V20.3635V20.3663V20.3691V20.3718V20.3745V20.3772V20.3799V20.3825V20.3851V20.3877V20.3903V20.3928V20.3953V20.3978V20.4002V20.4026V20.405V20.4074V20.4097V20.412V20.4143V20.4166V20.4188V20.421V20.4232V20.4253V20.4274V20.4295V20.4316V20.4336V20.4356V20.4376V20.4395V20.4414V20.4433V20.4452V20.447V20.4488V20.4506V20.4523V20.454V20.4557V20.4573V20.4589V20.4605V20.4621V20.4636V20.4651V20.4666V20.468V20.4694V20.4708V20.4722V20.4735V20.4748V20.476V20.4773V20.4784V20.4796V20.4807V20.4818V20.4829V20.4839V20.485V20.4859V20.4869V20.4878V20.4887V20.4895V20.4903V20.4911V20.4919V20.4926V20.4933V20.4939V20.4945V20.4951V20.4957V20.4962V20.4967V20.4971V20.4976V20.4979V20.4983V20.4986V20.4989V20.4992V20.4994V20.4996V20.4997V20.4998V20.4999V20.5L8.5 20.5H9.5C9.5 21.9477 10.5523 23 12 23C13.4477 23 14.5 21.9477 14.5 20.5V20.4883V20.4767V20.4653V20.4539V20.4425V20.4313V20.4202V20.4091V20.3982V20.3873V20.3765V20.3659V20.3553V20.3447V20.3343V20.324V20.3137V20.3035V20.2934V20.2834V20.2735V20.2637V20.2539V20.2442V20.2347V20.2251V20.2157V20.2064V20.1971V20.1879V20.1788V20.1698V20.1609V20.152V20.1432V20.1345V20.1259V20.1173V20.1088V20.1004V20.0921V20.0839V20.0757V20.0676V20.0596V20.0516V20.0438V20.036V20.0282V20.0206V20.013V20.0055V19.9981V19.9907V19.9834V19.9762V19.969V19.9619V19.9549V19.948V19.9411V19.9343V19.9276V19.9209V19.9143V19.9078V19.9013V19.8949V19.8885V19.8823V19.8761V19.8699V19.8638V19.8578V19.8519V19.846V19.8402V19.8344V19.8287V19.823V19.8175V19.8119V19.8065V19.8011V19.7957V19.7905V19.7852V19.7801V19.775V19.7699V19.7649V19.76V19.7551V19.7503V19.7456V19.7408V19.7362V19.7316V19.727V19.7226V19.7181V19.7137V19.7094V19.7051V19.7009V19.6967V19.6926V19.6885V19.6845V19.6805V19.6766V19.6727V19.6689V19.6651V19.6614V19.6577V19.6541V19.6505V19.647V19.6435V19.6401V19.6367V19.6333V19.63V19.6267V19.6235V19.6203V19.6172V19.6141V19.611V19.608V19.6051V19.6022V19.5993V19.5964V19.5936V19.5909V19.5881V19.5855V19.5828V19.5802V19.5776V19.5751V19.5726V19.5702V19.5677V19.5654V19.563V19.5607V19.5584V19.5562V19.554V19.5518V19.5496V19.5475V19.5455V19.5434V19.5414V19.5394V19.5375V19.5356V19.5337V19.5318V19.53V19.5282V19.5264V19.5247V19.523V19.5213V19.5196V19.518V19.5164V19.5148V19.5132V19.5117V19.5102V19.5087V19.5073V19.5058V19.5044V19.5031V19.5017V19.5004V19.499V19.4977V19.4965V19.4952V19.494V19.4928V19.4916V19.4904V19.4893V19.4881V19.487V19.4859V19.4848V19.4838V19.4827V19.4817V19.4807V19.4797V19.4787V19.4777V19.4768V19.4758V19.4749V19.474V19.4731V19.4722V19.4713V19.4704V19.4696V19.4687V19.4679V19.4671V19.4663V19.4655V19.4647V19.4639V19.4631V19.4623V19.4616V19.4608V19.4601V19.4593V19.4586V19.4579V19.4572V19.4564V19.4557V19.455V19.4543V19.4536V19.4529V19.4522V19.4515V19.4508V19.4501V19.4494V19.4487V19.4481V19.4474V19.4467V19.446V19.4453V19.4446V19.4439V19.4432V19.4425V19.4418V19.4411V19.4404V19.4397V19.439V19.4382V19.4375V19.4368V19.436V19.4353V19.4345V19.4338V19.433V19.4322V19.4314V19.4306V19.4298V19.429V19.4282V19.4274V19.4265V19.4257V19.4248V19.4239V19.423V19.4221V19.4212V19.4203V19.4193V19.4184V19.4174V19.4164V19.4154V19.4144V19.4134V19.4123V19.4112V19.4102V19.4091V19.4079V19.4068V19.4056V19.4045V19.4033V19.4021V19.4008V19.3996V19.3983V19.397V19.3957V19.3943V19.393V19.3916V19.3902V19.3887V19.3873V19.3858V19.3843V19.3828V19.3812V19.3796V19.378V19.3764V19.3747V19.373V19.3713V19.3696V19.3678V19.366V19.3642V19.3623V19.3604V19.3585V19.3565V19.3546V19.3525V19.3505V19.3484V19.3463V19.3442V19.342V19.3398V19.3375V19.3352V19.3329V19.3306V19.3282V19.3257V19.3233V19.3208V19.3183V19.3157V19.3131V19.3104V19.3077V19.305V19.3022V19.2994V19.2966V19.2937V19.2908V19.2878V19.2848V19.2817V19.2786V19.2755V19.2723V19.2691V19.2658V19.2625V19.2591V19.2557V19.2523V19.2488V19.2452V19.2417V19.238V19.2343V19.2306V19.2268V19.223V19.2191V19.2152V19.2112V19.2072V19.2031V19.199V19.1948V19.1906V19.1863V19.1819V19.1776V19.1731V19.1686V19.1641V19.1595V19.1548V19.1501V19.1453V19.1405V19.1356V19.1307V19.1257V19.1206V19.1155V19.1103V19.1051V19.0998V19.0945V19.0891V19.0836V19.0781V19.0725V19.0668V19.0611V19.0554V19.0495V19.0436V19.0377V19.0316V19.0256V19.0194V19.0132V19.0069V19.0006V18.9941V18.9877V18.9811V18.9745V18.9678V18.9611V18.9543V18.9474V18.9404V18.9334V18.9263V18.9192V18.9119V18.9046V18.8973V18.8898V18.8823V18.8747V18.867V18.8593V18.8515V18.8436V18.8357V18.8276V18.8195V18.8114V18.8031V18.7948V18.7864V18.7779V18.7693V18.7607V18.752V18.7432V18.7343V18.7253V18.7163V18.7072V18.698V18.6887V18.6794V18.6699V18.6604V18.6508V18.6411V18.6314V18.6215V18.6116V18.6016V18.5915V18.5813V18.571V18.5607V18.5502V18.5397V18.5291V18.5184V18.5076V18.4967V18.4858V18.4747V18.4636V18.4523V18.441V18.4296V18.4181V18.4065V18.3948V18.383V18.3712V18.3592V18.3472V18.335V18.3228V18.3104V18.298V18.2855V18.2729V18.2602V18.2474V18.2345V18.2215V18.2084V18.1952V18.1819V18.1685V18.155V18.1414V18.1277V18.1139V18.1V18.0861V18.072V18.0578V18.0435V18.0291V18.0146V18C14.5 17.5789 14.7185 17.2545 14.9809 17.0633C15.1943 16.9078 15.4229 16.8467 15.5566 16.8176C15.8313 16.7579 16.1732 16.7433 16.4543 16.7322C16.507 16.7301 16.5604 16.7281 16.6145 16.7261C17.2088 16.7037 17.8908 16.6779 18.614 16.5282C19.3923 16.3671 20.1694 16.0701 20.8438 15.512C21.5101 14.9606 22.1354 14.1056 22.5407 12.7284C22.8234 11.7678 23 10.5482 23 9C23 5.87054 22.6027 4.11828 21.6743 3.04824C20.7618 1.99663 19.1226 1.36697 15.9239 1.123C14.7922 1.03668 13.4929 1 12 1C10.5071 1 9.20782 1.03668 8.07606 1.123C4.87742 1.36697 3.23821 1.99663 2.32574 3.04824C1.39728 4.11828 1 5.87054 1 9Z" stroke="#ABAFD1" stroke-width="2" stroke-linecap="round" stroke-linejoin="round"/>
</svg>
