<svg width="24" height="21" viewBox="0 0 24 21" fill="none" xmlns="http://www.w3.org/2000/svg">
<path fill-rule="evenodd" clip-rule="evenodd" d="M13 4.84937C13 5.40165 12.5523 5.84937 12 5.84937C11.4477 5.84937 11 5.40165 11 4.84937C11 4.29708 11.4477 3.84937 12 3.84937C12.5523 3.84937 13 4.29708 13 4.84937ZM9 7C9 7.55228 8.55228 8 8 8C7.44772 8 7 7.55228 7 7C7 6.44772 7.44772 6 8 6C8.55228 6 9 6.44772 9 7ZM16 8C16.5523 8 17 7.55228 17 7C17 6.44772 16.5523 6 16 6C15.4477 6 15 6.44772 15 7C15 7.55228 15.4477 8 16 8Z" fill="#ABAFD1"/>
<path fill-rule="evenodd" clip-rule="evenodd" d="M2.01605 10.047C2.11039 7.33746 2.63782 4.91526 4.04763 3.11147C5.66456 1.04267 8.26464 0 12 0C15.7354 0 18.3354 1.04267 19.9524 3.11147C21.3629 4.91621 21.8902 7.34 21.9841 10.0512C23.0192 10.2687 24 11.1656 24 12.5C24 13.8262 23.0313 14.72 22.0035 14.9446C21.9784 15.9247 21.7979 17.251 20.8225 18.3979C19.465 19.994 16.828 21 12 21C7.172 21 4.53504 19.994 3.17753 18.3979C2.20396 17.2531 2.0223 15.9296 1.99661 14.9501C0.846439 14.7181 -5.45321e-05 13.7054 2.63487e-09 12.4999C5.49588e-05 11.2842 0.869503 10.2726 2.01605 10.047ZM3.00485 13C3.00323 13 3.00161 13 3 13C2.99838 13 2.99677 13 2.99516 13L2.50007 13C2.21703 13 1.99999 12.7813 2 12.5C2.00001 12.225 2.22551 12 2.49993 12L5.13392 12C5.15708 12.0482 5.1834 12.0959 5.213 12.1428L5.7533 13L5.348 13L3.00485 13ZM4.0049 15C4.03224 15.7523 4.15941 16.4653 4.70105 17.1021C5.46974 18.006 7.33279 19 12 19C16.6672 19 18.5303 18.006 19.299 17.1021C19.8406 16.4653 19.9678 15.7523 19.9951 15H15.7578H15.5101H15.4792H15.4483H15.4174H15.3866H15.2634H15.2326H15.2019H15.1405H15.1099H15.0792H15.0486H15.0181H14.957H14.9265H14.8961H14.7746H13.8288H13.7147H13.6016H13.4897H13.379H13.2695H13.1614H13.0546H12.9493H12.8454H12.7431H12.6424H12.5434H12.446H12.3504H12.3033H12.28H12.2567H12.1648H11.1325L10.3936 16.2751C10.0961 16.7886 9.56815 16.9932 9.12949 16.9998C8.69059 17.0064 8.15988 16.8181 7.84569 16.3196L7.01392 15L6.89236 15L5.34801 15L4.0049 15ZM21.0034 13C21.0023 13 21.0011 13 21 13C20.9989 13 20.9977 13 20.9966 13H15.7578H15.2634H15.2326H15.2019H15.1712H15.1405H15.0181H14.8961H14.7746H14.6538H14.5336H14.414H14.3546H14.3249H14.2953H14.2657H14.2362H14.2067H14.1773H14.148H14.1186H14.0894H14.0602H14.0311H14.002H13.973H13.944H13.8288H13.7147H13.658H13.6298H13.6016H13.4897H13.4342H13.4065H13.379H13.3515H13.3241H13.2968H13.2695H13.2424H13.2153H13.1883H13.1614H13.1346H13.1078H13.0812H13.0546H12.9493H12.8454H12.7941H12.7685H12.7431H12.6424H12.5927H12.568H12.5434H12.5189H12.4945H12.4702H12.446H12.422H12.398H12.3742H12.3504H12.3268H12.3033H12.2915L12.8139 12.0984C12.8328 12.0658 12.8501 12.033 12.866 12L21 12H21.5001C21.5986 12 21.7353 12.0455 21.8445 12.1457C21.9411 12.2343 22 12.3491 22 12.5C22 12.6509 21.9411 12.7657 21.8445 12.8543C21.7353 12.9544 21.5986 13 21.5 13H21.0034ZM19.9807 10C19.8815 7.52916 19.394 5.64479 18.3766 4.34308C17.2698 2.92703 15.3699 2 12 2C8.6301 2 6.73018 2.92703 5.62343 4.34308C4.60604 5.64479 4.11851 7.52916 4.01931 10H6.47352L11.5265 10L19.9807 10ZM7.48712 12L10.5594 12L9.69101 13.4986L9.08783 14.5395L8.41165 13.4668L7.48712 12Z" fill="#ABAFD1"/>
</svg>
