<svg width="24" height="26" viewBox="0 0 24 26" fill="none" xmlns="http://www.w3.org/2000/svg">
<path d="M6 16L9 16" stroke="#ABAFD1" stroke-width="2" stroke-linecap="round" stroke-linejoin="round"/>
<path d="M6 20L9 20" stroke="#ABAFD1" stroke-width="2" stroke-linecap="round" stroke-linejoin="round"/>
<path fill-rule="evenodd" clip-rule="evenodd" d="M8 0C8.55229 0 9 0.447715 9 1V2.08526C9.91022 2.02588 10.9077 2 12 2C13.0923 2 14.0898 2.02588 15 2.08526V1C15 0.447715 15.4477 0 16 0C16.5523 0 17 0.447715 17 1V2.29284C21.5655 2.98124 23.3272 5.03464 23.8321 10C23.8648 10.321 23.8922 10.6542 23.9147 11C23.9357 11.3219 23.9525 11.6547 23.9655 11.9987C23.9892 12.6276 24 13.294 24 14C24 14.7056 23.9892 15.3716 23.9655 16.0001C23.9526 16.3446 23.9358 16.6778 23.9147 17C23.8923 17.3446 23.865 17.6766 23.8325 17.9966C23.2926 23.3131 21.3131 25.2926 15.9966 25.8325C15.6766 25.865 15.3446 25.8923 15 25.9147C14.6778 25.9358 14.3446 25.9526 14.0001 25.9655C13.3716 25.9892 12.7056 26 12 26C2.118 26 0 23.882 0 14C0 13.294 0.0108119 12.6276 0.0344942 11.9987C0.0474512 11.6547 0.0642606 11.3219 0.0852604 11C0.107819 10.6542 0.135213 10.321 0.16786 10C0.672822 5.03464 2.43455 2.98124 7 2.29284V1C7 0.447715 7.44772 0 8 0ZM7 4.31862C5.65606 4.54689 4.74838 4.897 4.10819 5.36634C3.1636 6.05884 2.48259 7.275 2.17921 10H21.8208C21.5174 7.275 20.8364 6.05884 19.8918 5.36634C19.2516 4.897 18.3439 4.54689 17 4.31862V5C17 5.55228 16.5523 6 16 6C15.4477 6 15 5.55228 15 5V4.09118C14.1318 4.0305 13.1387 4 12 4C10.8613 4 9.86819 4.0305 9 4.09118V5C9 5.55228 8.55229 6 8 6C7.44772 6 7 5.55228 7 5V4.31862ZM21.5261 18.0538C21.6253 18.0407 21.7229 18.0293 21.8185 18.0193C21.5563 20.3506 21.0166 21.5664 20.2915 22.2915C19.5664 23.0166 18.3506 23.5563 16.0193 23.8185C16.0293 23.7229 16.0407 23.6253 16.0538 23.5261C16.2289 22.2038 16.6825 20.7317 17.7071 19.7071C18.7317 18.6825 20.2038 18.2289 21.5261 18.0538ZM14.0712 23.2636C14.0389 23.507 14.0152 23.7416 13.9982 23.9641C13.3793 23.9886 12.7146 24 12 24C9.57515 24 7.76307 23.8675 6.38993 23.5623C5.03949 23.2622 4.23924 22.8223 3.70846 22.2915C3.17768 21.7608 2.73783 20.9605 2.43771 19.6101C2.13254 18.2369 2 16.4249 2 14C2 13.2846 2.01144 12.6193 2.03593 12H21.9641C21.9886 12.6193 22 13.2846 22 14C22 14.7146 21.9886 15.3793 21.9641 15.9982C21.7416 16.0152 21.507 16.0389 21.2636 16.0712C19.7536 16.2711 17.7683 16.8175 16.2929 18.2929C14.8175 19.7683 14.2711 21.7536 14.0712 23.2636Z" fill="#ABAFD1"/>
</svg>
