<svg width="24" height="24" viewBox="0 0 24 24" fill="none" xmlns="http://www.w3.org/2000/svg">
<path d="M15 1.00006L15 1.00006L9 1.00003C8.63601 1.00002 8.43784 1.04572 8.33984 1.08276C8.29412 1.10004 8.2738 1.11406 8.268 1.11839C8.26325 1.12192 8.26225 1.1233 8.26122 1.12472L8.26107 1.12494C8.25635 1.1314 8.22994 1.17114 8.20042 1.30312C8.17656 1.40977 8.16279 1.51039 8.14338 1.65214C8.13514 1.71236 8.12588 1.77999 8.1144 1.85867C8.04947 2.30367 7.92277 3.05963 7.27581 3.63826C6.64302 4.2042 5.71466 4.42859 4.49975 4.42859C3.54556 4.42859 2.93925 4.66177 2.52342 4.99477C2.09747 5.33588 1.76273 5.8688 1.51802 6.66188C1.01036 8.30719 1 10.659 1 13.5501L1 13.551C1 17.9288 1.5627 20.0879 2.9478 21.2839C3.64831 21.8888 4.65027 22.3281 6.14123 22.6091C7.6363 22.8909 9.54706 23 12 23C14.4509 23 16.3604 22.8846 17.854 22.5956C19.3431 22.3074 20.3465 21.8598 21.0491 21.2481C22.4389 20.0379 23 17.873 23 13.551C23 10.7174 22.9899 8.36284 22.4813 6.70191C22.2356 5.89931 21.8988 5.35459 21.47 5.00528C21.0532 4.66574 20.4486 4.42859 19.5 4.42859C18.2851 4.42859 17.3567 4.2042 16.724 3.63824C16.077 3.0596 15.9504 2.30362 15.8855 1.85862C15.874 1.77995 15.8647 1.71232 15.8565 1.65211C15.8371 1.51035 15.8233 1.40974 15.7995 1.30308C15.77 1.17111 15.7436 1.13138 15.7389 1.12493L15.7387 1.12471C15.7377 1.12331 15.7367 1.12193 15.732 1.11841C15.7262 1.11409 15.7059 1.10007 15.6601 1.08279C15.5622 1.04576 15.364 1.00006 15 1.00006Z" stroke="#ABAFD1" stroke-width="2" stroke-linecap="round" stroke-linejoin="round"/>
<circle r="1" transform="matrix(-1 0 0 1 18 8)" fill="#ABAFD1"/>
<circle r="4" transform="matrix(-4.37114e-08 -1 -1 4.37114e-08 12 13)" stroke="#ABAFD1" stroke-width="2"/>
</svg>
