<svg width="24" height="24" viewBox="0 0 24 24" fill="none" xmlns="http://www.w3.org/2000/svg">
<path d="M7 6C7 12.6667 17 12.6667 17 6" stroke="#ABAFD1" stroke-width="2" stroke-linecap="round" stroke-linejoin="round"/>
<path d="M1.67687 11.0867C1.60557 11.4413 1.53183 11.8079 1.45488 12.1874C0.499665 17.5341 1.1258 19.9984 2.60654 21.2669C3.38023 21.9296 4.50292 22.3777 6.09219 22.6491C7.67994 22.9203 9.63627 23 12 23C14.3637 23 16.32 22.9203 17.9078 22.6491C19.4971 22.3777 20.6198 21.9296 21.3935 21.2669C22.8742 19.9984 23.5003 17.5341 22.5451 12.1874C22.4682 11.808 22.3944 11.4414 22.3231 11.0869C21.9457 9.21013 21.6369 7.6746 21.2861 6.39209C20.869 4.86703 20.422 3.82051 19.8227 3.07271C18.6889 1.65784 16.7471 1 12 1C7.25288 1 5.31108 1.65784 4.17727 3.07271C3.57801 3.82051 3.13097 4.86703 2.71388 6.39209C2.36313 7.67456 2.05432 9.21003 1.67687 11.0867Z" stroke="#ABAFD1" stroke-width="2" stroke-linecap="round" stroke-linejoin="round"/>
</svg>
