<svg width="22" height="22" viewBox="0 0 22 22" fill="none" xmlns="http://www.w3.org/2000/svg">
<path d="M9 11C9 11.5948 9.03318 12.0045 9.09752 12.294C9.15934 12.5722 9.23587 12.6745 9.28067 12.7193C9.32547 12.7641 9.42779 12.8407 9.70596 12.9025C9.99547 12.9668 10.4052 13 11 13C11.5948 13 12.0045 12.9668 12.294 12.9025C12.5722 12.8407 12.6745 12.7641 12.7193 12.7193C12.7641 12.6745 12.8407 12.5722 12.9025 12.294C12.9668 12.0045 13 11.5948 13 11C13 10.4052 12.9668 9.99547 12.9025 9.70596C12.8407 9.42779 12.7641 9.32547 12.7193 9.28067C12.6745 9.23587 12.5722 9.15934 12.294 9.09752C12.0045 9.03318 11.5948 9 11 9C10.4052 9 9.99547 9.03318 9.70596 9.09752C9.42779 9.15934 9.32547 9.23587 9.28067 9.28067C9.23587 9.32547 9.15934 9.42779 9.09752 9.70596C9.03318 9.99547 9 10.4052 9 11Z" stroke="#ABAFD1" stroke-width="2" stroke-linecap="round" stroke-linejoin="round"/>
<path fill-rule="evenodd" clip-rule="evenodd" d="M9 0C9.55229 0 10 0.447715 10 1V3L9.99993 3.01234C10.3192 3.00393 10.6524 3 11 3C11.3476 3 11.6808 3.00393 12.0001 3.01234L12 3V1C12 0.447715 12.4477 0 13 0C13.5523 0 14 0.447715 14 1V3C14 3.05033 13.9963 3.0998 13.9891 3.14814C17.1839 3.54286 18.4571 4.81613 18.8519 8.0109C18.9002 8.00372 18.9497 8 19 8H21C21.5523 8 22 8.44771 22 9C22 9.55229 21.5523 10 21 10H19L18.9877 9.99992C18.9961 10.3192 19 10.6524 19 11C19 11.3476 18.9961 11.6808 18.9877 12.0001L19 12H21C21.5523 12 22 12.4477 22 13C22 13.5523 21.5523 14 21 14H19C18.9497 14 18.9002 13.9963 18.8519 13.9891C18.4571 17.1839 17.1839 18.4571 13.9891 18.8519C13.9963 18.9002 14 18.9497 14 19V21C14 21.5523 13.5523 22 13 22C12.4477 22 12 21.5523 12 21V19L12.0001 18.9877C11.6808 18.9961 11.3476 19 11 19C10.6524 19 10.3192 18.9961 9.99992 18.9877L10 19V21C10 21.5523 9.55229 22 9 22C8.44771 22 8 21.5523 8 21V19C8 18.9497 8.00372 18.9002 8.0109 18.8519C4.81613 18.4571 3.54286 17.1839 3.14813 13.9891C3.0998 13.9963 3.05033 14 3 14H1C0.447715 14 0 13.5523 0 13C0 12.4477 0.447715 12 1 12H3C3.00412 12 3.00824 12 3.01234 12.0001C3.00393 11.6808 3 11.3476 3 11C3 10.6524 3.00393 10.3192 3.01234 9.99992C3.00824 9.99997 3.00412 10 3 10H1C0.447715 10 0 9.55228 0 9C0 8.44771 0.447715 8 1 8H3C3.05033 8 3.0998 8.00372 3.14813 8.0109C3.54286 4.81613 4.81612 3.54286 8.0109 3.14814C8.00372 3.0998 8 3.05033 8 3V1C8 0.447715 8.44771 0 9 0ZM5.27593 14.5954C5.08841 13.7517 5 12.6014 5 11C5 9.39865 5.08841 8.24832 5.27593 7.40458C5.4584 6.58356 5.70706 6.18037 5.94371 5.94371C6.18037 5.70706 6.58356 5.4584 7.40459 5.27593C8.24833 5.08841 9.39865 5 11 5C12.6014 5 13.7517 5.08841 14.5954 5.27593C15.4164 5.4584 15.8196 5.70706 16.0563 5.94371C16.2929 6.18037 16.5416 6.58356 16.7241 7.40458C16.9116 8.24832 17 9.39865 17 11C17 12.6014 16.9116 13.7517 16.7241 14.5954C16.5416 15.4164 16.2929 15.8196 16.0563 16.0563C15.8196 16.2929 15.4164 16.5416 14.5954 16.7241C13.7517 16.9116 12.6014 17 11 17C9.39865 17 8.24833 16.9116 7.40459 16.7241C6.58356 16.5416 6.18037 16.2929 5.94371 16.0563C5.70706 15.8196 5.4584 15.4164 5.27593 14.5954Z" fill="#ABAFD1"/>
</svg>
