<svg width="24" height="24" viewBox="0 0 24 24" fill="none" xmlns="http://www.w3.org/2000/svg">
<path d="M1 12C1 16.6045 2.05668 19.3968 4.11622 21.0083C5.79512 22.3219 8.3195 23 12 23C16.1443 23 18.8191 22.1416 20.4804 20.4804C22.1416 18.8191 23 16.1443 23 12C23 10.9545 22.9453 9.99797 22.8354 9.12492C22.4581 6.1283 21.4413 4.16767 19.7945 2.92304C18.1159 1.65444 15.6155 1 12 1C7.72427 1 5.01282 1.91306 3.36266 3.68211C1.80513 5.35185 1 7.98742 1 12Z" stroke="#ABAFD1" stroke-width="2" stroke-linecap="round" stroke-linejoin="round"/>
<circle r="3" transform="matrix(-1 0 0 1 12 12)" stroke="#ABAFD1" stroke-width="2"/>
</svg>
