<svg width="18" height="24" viewBox="0 0 18 24" fill="none" xmlns="http://www.w3.org/2000/svg">
<path fill-rule="evenodd" clip-rule="evenodd" d="M5.98914 7.41354L3.69635 6.07534C3.60209 6.02032 3.51695 5.9117 3.49526 5.75033C3.46301 5.51035 3.56158 5.29672 3.75827 5.15716C3.95123 5.02025 4.1159 5.03193 4.24816 5.10913L4.41944 5.2091C6.6535 6.51301 9.42253 5.63309 10.6617 3.46338L10.6621 3.46271L10.6625 3.46204L10.6628 3.46137L10.6632 3.4607L10.6636 3.46003L10.664 3.45937L10.6644 3.4587L10.6647 3.45803L10.6651 3.45736L10.6655 3.45669L10.6659 3.45602L10.6663 3.45535L10.6667 3.45468L10.667 3.45401L10.6674 3.45334L10.6678 3.45267L10.6682 3.452L10.6686 3.45133L10.669 3.45065L10.6693 3.44998L10.6697 3.44931L10.6701 3.44864L10.6705 3.44797L10.6709 3.4473L10.6713 3.44663L10.6716 3.44596L10.672 3.44528L10.6724 3.44461L10.6728 3.44394L10.6732 3.44327L10.6736 3.4426L10.6739 3.44192L10.6743 3.44125L10.6747 3.44058L10.6751 3.4399L10.6755 3.43923L10.6759 3.43856L10.6763 3.43789L10.6766 3.43721L10.677 3.43654L10.6774 3.43587L10.6778 3.43519L10.6782 3.43452L10.6786 3.43384L10.6789 3.43317L10.6793 3.4325L10.6797 3.43182L10.6801 3.43115L10.6805 3.43047L10.6809 3.4298L10.6813 3.42912L10.6816 3.42845L10.682 3.42777L10.6824 3.4271L10.6828 3.42642L10.6832 3.42575L10.6836 3.42507L10.684 3.4244L10.6843 3.42372L10.6847 3.42304L10.6851 3.42237L10.6855 3.42169L10.6859 3.42102L10.6863 3.42034L10.6867 3.41966L10.687 3.41899L10.6874 3.41831L10.6878 3.41763L10.6882 3.41696L10.6886 3.41628L10.689 3.4156L10.6894 3.41492L10.6898 3.41425L10.6901 3.41357L10.6905 3.41289L10.6909 3.41221L10.6913 3.41154L10.6917 3.41086L10.6921 3.41018L10.6925 3.4095L10.6929 3.40882L10.6932 3.40814L10.6936 3.40746L10.694 3.40679L10.6944 3.40611L10.6948 3.40543L10.6952 3.40475L10.6956 3.40407L10.696 3.40339L10.6963 3.40271L10.6967 3.40203L10.6971 3.40135L10.6975 3.40067L10.6979 3.39999L10.6983 3.39931L10.6987 3.39863L10.6991 3.39795L10.6994 3.39727L10.6998 3.39659L10.7002 3.39591L10.7006 3.39523L10.701 3.39454L10.7014 3.39386L10.7018 3.39318L10.7022 3.3925L10.7026 3.39182L10.703 3.39114L10.7033 3.39046L10.7037 3.38977L10.7041 3.38909L10.7045 3.38841L10.7049 3.38773L10.7053 3.38704L10.7057 3.38636L10.7061 3.38568L10.7065 3.385L10.7068 3.38431L10.7072 3.38363L10.7076 3.38295L10.708 3.38226L10.7084 3.38158L10.7088 3.3809L10.7092 3.38021L10.7096 3.37953L10.71 3.37884L10.7104 3.37816L10.7108 3.37748L10.7111 3.37679L10.7115 3.37611L10.7119 3.37542L10.7123 3.37474L10.7127 3.37405L10.7131 3.37337L10.7135 3.37268L10.7139 3.372L10.7143 3.37131L10.7147 3.37063L10.7151 3.36994L10.7154 3.36925L10.7158 3.36857L10.7162 3.36788L10.7166 3.3672L10.717 3.36651L10.7174 3.36582L10.7178 3.36514L10.7182 3.36445L10.7186 3.36376L10.719 3.36308L10.7194 3.36239L10.7198 3.3617L10.7202 3.36102L10.7205 3.36033L10.7209 3.35964L10.7213 3.35895L10.7217 3.35827L10.7221 3.35758L10.7225 3.35689L10.7229 3.3562L10.7233 3.35551L10.7237 3.35483L10.7241 3.35414L10.7245 3.35345L10.7249 3.35276L10.7253 3.35207L10.7257 3.35138L10.726 3.35069L10.7264 3.35L10.7268 3.34931L10.7272 3.34862L10.7276 3.34793L10.728 3.34724L10.7284 3.34655L10.7288 3.34586L10.7292 3.34517L10.7296 3.34448L10.73 3.34379L10.7304 3.3431L10.7308 3.34241L10.7312 3.34172L10.7316 3.34103L10.732 3.34034L10.7324 3.33965L10.7328 3.33896L10.7331 3.33827L10.7335 3.33757L10.7339 3.33688L10.7343 3.33619L10.7347 3.3355L10.7351 3.33481L10.7355 3.33412L10.7359 3.33342L10.7363 3.33273L10.7367 3.33204L10.7371 3.33135L10.7375 3.33065L10.7379 3.32996L10.7383 3.32927L10.7387 3.32857L10.7391 3.32788L10.7395 3.32719L10.7399 3.32649L10.7403 3.3258L10.7407 3.32511L10.7411 3.32441L10.7415 3.32372L10.7419 3.32302L10.7422 3.32233L10.7426 3.32163L10.743 3.32094L10.7434 3.32025L10.7438 3.31955L10.7442 3.31886L10.7446 3.31816L10.745 3.31747L10.7454 3.31677L10.7458 3.31608L10.7462 3.31538L10.7466 3.31468L10.747 3.31399L10.7474 3.31329L10.7478 3.3126L10.7482 3.3119L10.7486 3.3112L10.749 3.31051L10.7494 3.30981L10.7498 3.30911L10.7502 3.30842L10.7506 3.30772L10.751 3.30702L10.7514 3.30633L10.7518 3.30563L10.7522 3.30493L10.7526 3.30423L10.753 3.30354L10.7534 3.30284L10.7538 3.30214L10.7542 3.30144L10.7546 3.30074L10.755 3.30005L10.7554 3.29935L10.7558 3.29865L10.7562 3.29795L10.7566 3.29725L10.757 3.29655L10.7574 3.29585L10.7578 3.29515L10.7582 3.29445L10.7586 3.29375L10.759 3.29306L10.7594 3.29236L10.7598 3.29166L10.7602 3.29096L10.7606 3.29026L10.761 3.28956L10.7614 3.28886L10.7618 3.28815L10.7622 3.28745L10.7626 3.28675L10.763 3.28605L10.7634 3.28535L10.7638 3.28465L10.7642 3.28395L10.7646 3.28325L10.765 3.28255L10.7654 3.28184L10.7658 3.28114L10.7662 3.28044L10.7666 3.27974L10.767 3.27904L10.7674 3.27833L10.7678 3.27763L10.7682 3.27693L10.7686 3.27623L10.769 3.27552L10.7694 3.27482L10.7698 3.27412L10.7702 3.27342L10.7706 3.27271L10.771 3.27201L10.7714 3.27131L10.7718 3.2706L10.7722 3.2699L10.7726 3.26919L10.773 3.26849L10.7734 3.26779L10.7738 3.26708L10.7742 3.26638L10.7746 3.26567L10.775 3.26497L10.7754 3.26426L10.7758 3.26356L10.7762 3.26285L10.7766 3.26215L10.777 3.26144L10.7774 3.26074L10.7778 3.26003L10.7782 3.25933L10.7786 3.25862L10.779 3.25791L10.7794 3.25721L10.7798 3.2565L10.7802 3.2558L10.7807 3.25509L10.7811 3.25438L10.7815 3.25368L10.7819 3.25297L10.7823 3.25226L10.7827 3.25156L10.7831 3.25085L10.7835 3.25014L10.7839 3.24943L10.7843 3.24873L10.7847 3.24802L10.7851 3.24731L10.7855 3.2466L10.7859 3.24589L10.7863 3.24519L10.7867 3.24448L10.7871 3.24377L10.7875 3.24306L10.7879 3.24235L10.7883 3.24164L10.7887 3.24093L10.7891 3.24023L10.7895 3.23952L10.7899 3.23881L10.7904 3.2381L10.7908 3.23739L10.7912 3.23668L10.7916 3.23597L10.792 3.23526L10.7924 3.23455L10.7928 3.23384L10.7932 3.23313L10.7936 3.23242L10.794 3.23171L10.7944 3.231L10.7948 3.23028L10.7952 3.22957L10.7956 3.22886L10.796 3.22815L10.7964 3.22744L10.7968 3.22673L10.7973 3.22602L10.7977 3.2253L10.7981 3.22459L10.7985 3.22388L10.7989 3.22317L10.7993 3.22246L10.7997 3.22174L10.8001 3.22103L10.8005 3.22032L10.8009 3.21961L10.8013 3.21889L10.8017 3.21818L10.8021 3.21747L10.8025 3.21675L10.803 3.21604L10.8034 3.21533L10.8038 3.21461L10.8042 3.2139L10.8046 3.21318L10.805 3.21247L10.8054 3.21176L10.8058 3.21104L10.8062 3.21033L10.8066 3.20961L10.807 3.2089L10.8074 3.20818L10.8078 3.20747L10.8083 3.20675L10.8087 3.20604L10.8091 3.20532L10.8095 3.20461L10.8099 3.20389L10.8103 3.20318L10.8107 3.20246L10.8111 3.20174L10.8115 3.20103L10.8119 3.20031L10.8123 3.1996L10.8128 3.19888L10.8132 3.19816L10.8136 3.19745L10.814 3.19673L10.8144 3.19601L10.8148 3.1953L10.8152 3.19458L10.8156 3.19386L10.816 3.19314L10.8164 3.19243L10.8168 3.19171L10.8173 3.19099L10.8177 3.19027L10.8181 3.18955L10.8185 3.18884L10.8189 3.18812L10.8193 3.1874L10.8197 3.18668L10.8201 3.18596L10.8205 3.18524L10.821 3.18452L10.8214 3.1838L10.8218 3.18308L10.8222 3.18236L10.8226 3.18165L10.823 3.18093L10.8234 3.18021L10.8238 3.17949L10.8242 3.17877L10.8247 3.17805L10.8251 3.17733L10.8255 3.1766L10.8259 3.17588L10.8263 3.17516L10.8267 3.17444L10.8271 3.17372L10.8275 3.173L10.8279 3.17228L10.8284 3.17156L10.8288 3.17084L10.8292 3.17011L10.8296 3.16939L10.83 3.16867L10.8304 3.16795L10.8308 3.16723L10.8312 3.16651L10.8317 3.16578L10.8321 3.16506L10.8325 3.16434L10.8329 3.16361L10.8333 3.16289L10.8337 3.16217L10.8341 3.16145L10.8345 3.16072L10.835 3.16L10.8354 3.15928L10.8358 3.15855L10.8362 3.15783L10.8366 3.1571L10.837 3.15638L10.8374 3.15566L10.8379 3.15493L10.8383 3.15421L10.8387 3.15348L10.8391 3.15276L10.8395 3.15203L10.8399 3.15131L10.8403 3.15058L10.8407 3.14986L10.8412 3.14913L10.8416 3.14841L10.842 3.14768L10.8424 3.14696L10.8428 3.14623L10.8432 3.1455L10.8437 3.14478L10.8441 3.14405L10.8445 3.14333L10.8449 3.1426L10.8453 3.14187L10.8457 3.14115L10.8461 3.14042L10.8466 3.13969L10.847 3.13896L10.8474 3.13824L10.8478 3.13751L10.8482 3.13678L10.8486 3.13605L10.849 3.13533L10.8495 3.1346L10.8499 3.13387L10.8503 3.13314L10.8507 3.13241L10.8511 3.13169L10.8515 3.13096L10.852 3.13023L10.8524 3.1295L10.8528 3.12877L10.8532 3.12804L10.8536 3.12731L10.854 3.12658L10.8545 3.12585L10.8549 3.12512L10.8553 3.12439L10.8557 3.12366L10.8561 3.12293L10.8565 3.1222L10.857 3.12147L10.8574 3.12074L10.8578 3.12001L10.8582 3.11928L10.8586 3.11855L10.859 3.11782L10.8595 3.11709L10.8599 3.11636L10.8603 3.11563L10.8607 3.1149L10.8611 3.11417L10.8616 3.11343L10.862 3.1127L10.8624 3.11197L10.8628 3.11124L10.8632 3.11051L10.8636 3.10977L10.8641 3.10904L10.8645 3.10831L10.8649 3.10758L10.8653 3.10684L10.8657 3.10611L10.8662 3.10538L10.8666 3.10464C11.5418 1.92233 12.7494 1.78357 13.5747 2.26526C14.4 2.74695 14.8849 3.87356 14.2097 5.05587L14.2093 5.0566L14.2089 5.05732L14.2085 5.05805L14.208 5.05877L14.2076 5.0595L14.2072 5.06022L14.2068 5.06095L14.2064 5.06167L14.206 5.0624L14.2056 5.06312L14.2052 5.06384L14.2047 5.06457L14.2043 5.06529L14.2039 5.06602L14.2035 5.06674L14.2031 5.06746L14.2027 5.06819L14.2023 5.06891L14.2018 5.06963L14.2014 5.07036L14.201 5.07108L14.2006 5.0718L14.2002 5.07253L14.1998 5.07325L14.1994 5.07397L14.199 5.0747L14.1985 5.07542L14.1981 5.07614L14.1977 5.07686L14.1973 5.07759L14.1969 5.07831L14.1965 5.07903L14.1961 5.07975L14.1957 5.08047L14.1952 5.0812L14.1948 5.08192L14.1944 5.08264L14.194 5.08336L14.1936 5.08408L14.1932 5.0848L14.1928 5.08553L14.1924 5.08625L14.1919 5.08697L14.1915 5.08769L14.1911 5.08841L14.1907 5.08913L14.1903 5.08985L14.1899 5.09057L14.1895 5.09129L14.1891 5.09201L14.1887 5.09273L14.1882 5.09345L14.1878 5.09417L14.1874 5.09489L14.187 5.09561L14.1866 5.09633L14.1862 5.09705L14.1858 5.09777L14.1854 5.09849L14.185 5.09921L14.1845 5.09993L14.1841 5.10065L14.1837 5.10137L14.1833 5.10209L14.1829 5.10281L14.1825 5.10353L14.1821 5.10424L14.1817 5.10496L14.1813 5.10568L14.1808 5.1064L14.1804 5.10712L14.18 5.10784L14.1796 5.10855L14.1792 5.10927L14.1788 5.10999L14.1784 5.11071L14.178 5.11143L14.1776 5.11214L14.1772 5.11286L14.1767 5.11358L14.1763 5.1143L14.1759 5.11501L14.1755 5.11573L14.1751 5.11645L14.1747 5.11716L14.1743 5.11788L14.1739 5.1186L14.1735 5.11931L14.1731 5.12003L14.1727 5.12075L14.1722 5.12146L14.1718 5.12218L14.1714 5.1229L14.171 5.12361L14.1706 5.12433L14.1702 5.12504L14.1698 5.12576L14.1694 5.12648L14.169 5.12719L14.1686 5.12791L14.1682 5.12862L14.1677 5.12934L14.1673 5.13005L14.1669 5.13077L14.1665 5.13148L14.1661 5.1322L14.1657 5.13291L14.1653 5.13363L14.1649 5.13434L14.1645 5.13506L14.1641 5.13577L14.1637 5.13648L14.1633 5.1372L14.1628 5.13791L14.1624 5.13863L14.162 5.13934L14.1616 5.14005L14.1612 5.14077L14.1608 5.14148L14.1604 5.1422L14.16 5.14291L14.1596 5.14362L14.1592 5.14434L14.1588 5.14505L14.1584 5.14576L14.158 5.14647L14.1576 5.14719L14.1571 5.1479L14.1567 5.14861L14.1563 5.14932L14.1559 5.15004L14.1555 5.15075L14.1551 5.15146L14.1547 5.15217L14.1543 5.15289L14.1539 5.1536L14.1535 5.15431L14.1531 5.15502L14.1527 5.15573L14.1523 5.15644L14.1519 5.15716L14.1515 5.15787L14.151 5.15858L14.1506 5.15929L14.1502 5.16L14.1498 5.16071L14.1494 5.16142L14.149 5.16213L14.1486 5.16284L14.1482 5.16355L14.1478 5.16426L14.1474 5.16498L14.147 5.16569L14.1466 5.1664L14.1462 5.16711L14.1458 5.16782L14.1454 5.16853L14.145 5.16923L14.1446 5.16994L14.1441 5.17065L14.1437 5.17136L14.1433 5.17207L14.1429 5.17278L14.1425 5.17349L14.1421 5.1742L14.1417 5.17491L14.1413 5.17562L14.1409 5.17633L14.1405 5.17704L14.1401 5.17774L14.1397 5.17845L14.1393 5.17916L14.1389 5.17987L14.1385 5.18058L14.1381 5.18129L14.1377 5.18199L14.1373 5.1827L14.1369 5.18341L14.1365 5.18412L14.1361 5.18482L14.1357 5.18553L14.1352 5.18624L14.1348 5.18695L14.1344 5.18765L14.134 5.18836L14.1336 5.18907L14.1332 5.18977L14.1328 5.19048L14.1324 5.19119L14.132 5.19189L14.1316 5.1926L14.1312 5.19331L14.1308 5.19401L14.1304 5.19472L14.13 5.19543L14.1296 5.19613L14.1292 5.19684L14.1288 5.19754L14.1284 5.19825L14.128 5.19896L14.1276 5.19966L14.1272 5.20037L14.1268 5.20107L14.1264 5.20178L14.126 5.20248L14.1256 5.20319L14.1252 5.20389L14.1248 5.2046L14.1244 5.2053L14.124 5.20601L14.1236 5.20671L14.1232 5.20741L14.1228 5.20812L14.1224 5.20882L14.1219 5.20953L14.1215 5.21023L14.1211 5.21093L14.1207 5.21164L14.1203 5.21234L14.1199 5.21305L14.1195 5.21375L14.1191 5.21445L14.1187 5.21516L14.1183 5.21586L14.1179 5.21656L14.1175 5.21727L14.1171 5.21797L14.1167 5.21867L14.1163 5.21937L14.1159 5.22008L14.1155 5.22078L14.1151 5.22148L14.1147 5.22218L14.1143 5.22289L14.1139 5.22359L14.1135 5.22429L14.1131 5.22499L14.1127 5.22569L14.1123 5.2264L14.1119 5.2271L14.1115 5.2278L14.1111 5.2285L14.1107 5.2292L14.1103 5.2299L14.1099 5.2306L14.1095 5.23131L14.1091 5.23201L14.1087 5.23271L14.1083 5.23341L14.1079 5.23411L14.1075 5.23481L14.1071 5.23551L14.1067 5.23621L14.1063 5.23691L14.1059 5.23761L14.1055 5.23831L14.1051 5.23901L14.1047 5.23971L14.1043 5.24041L14.1039 5.24111L14.1035 5.24181L14.1031 5.24251L14.1027 5.24321L14.1023 5.24391L14.1019 5.24461L14.1015 5.24531L14.1011 5.246L14.1007 5.2467L14.1003 5.2474L14.0999 5.2481L14.0995 5.2488L14.0991 5.2495L14.0987 5.2502L14.0983 5.25089L14.0979 5.25159L14.0975 5.25229L14.0971 5.25299L14.0967 5.25369L14.0963 5.25438L14.0959 5.25508L14.0955 5.25578L14.0951 5.25648L14.0947 5.25717L14.0943 5.25787L14.0939 5.25857L14.0935 5.25927L14.0931 5.25996L14.0927 5.26066L14.0923 5.26136L14.0919 5.26205L14.0916 5.26275L14.0912 5.26345L14.0908 5.26414L14.0904 5.26484L14.09 5.26554L14.0896 5.26623L14.0892 5.26693L14.0888 5.26762L14.0884 5.26832L14.088 5.26902L14.0876 5.26971L14.0872 5.27041L14.0868 5.2711L14.0864 5.2718L14.086 5.27249L14.0856 5.27319L14.0852 5.27388L14.0848 5.27458L14.0844 5.27527L14.084 5.27597L14.0836 5.27666L14.0832 5.27736L14.0828 5.27805L14.0824 5.27875L14.082 5.27944L14.0816 5.28013L14.0812 5.28083L14.0808 5.28152L14.0804 5.28222L14.08 5.28291L14.0796 5.2836L14.0792 5.2843L14.0789 5.28499L14.0785 5.28568L14.0781 5.28638L14.0777 5.28707L14.0773 5.28776L14.0769 5.28846L14.0765 5.28915L14.0761 5.28984L14.0757 5.29053L14.0753 5.29123L14.0749 5.29192L14.0745 5.29261L14.0741 5.2933L14.0737 5.294L14.0733 5.29469L14.0729 5.29538L14.0725 5.29607L14.0721 5.29676L14.0717 5.29746L14.0713 5.29815L14.0709 5.29884L14.0705 5.29953L14.0702 5.30022L14.0698 5.30091L14.0694 5.3016L14.069 5.30229L14.0686 5.30298L14.0682 5.30368L14.0678 5.30437L14.0674 5.30506L14.067 5.30575L14.0666 5.30644L14.0662 5.30713L14.0658 5.30782L14.0654 5.30851L14.065 5.3092L14.0646 5.30989L14.0642 5.31058L14.0638 5.31127L14.0634 5.31196L14.0631 5.31265L14.0627 5.31334L14.0623 5.31403L14.0619 5.31471L14.0615 5.3154L14.0611 5.31609L14.0607 5.31678L14.0603 5.31747L14.0599 5.31816L14.0595 5.31885L14.0591 5.31954L14.0587 5.32022L14.0583 5.32091L14.0579 5.3216L14.0575 5.32229L14.0572 5.32298L14.0568 5.32367L14.0564 5.32435L14.056 5.32504L14.0556 5.32573L14.0552 5.32642L14.0548 5.3271L14.0544 5.32779L14.054 5.32848L14.0536 5.32916L14.0532 5.32985L14.0528 5.33054L14.0524 5.33123L14.0521 5.33191L14.0517 5.3326L14.0513 5.33329L14.0509 5.33397L14.0505 5.33466L14.0501 5.33534L14.0497 5.33603L14.0493 5.33672L14.0489 5.3374L14.0485 5.33809L14.0481 5.33877L14.0477 5.33946L14.0473 5.34015L14.047 5.34083L14.0466 5.34152L14.0462 5.3422L14.0458 5.34289L14.0454 5.34357L14.045 5.34426L14.0446 5.34494L14.0442 5.34563L14.0438 5.34631L14.0434 5.347L14.043 5.34768L14.0427 5.34836L14.0423 5.34905L14.0419 5.34973L14.0415 5.35042L14.0411 5.3511L14.0407 5.35178L14.0403 5.35247L14.0399 5.35315L14.0395 5.35384L14.0391 5.35452L14.0388 5.3552L14.0384 5.35589L14.038 5.35657L14.0376 5.35725L14.0372 5.35794L14.0368 5.35862L14.0364 5.3593L14.036 5.35998L14.0356 5.36067L14.0352 5.36135L14.0349 5.36203L14.0345 5.36271L14.0341 5.3634L14.0337 5.36408L14.0333 5.36476L14.0329 5.36544L14.0325 5.36612L14.0321 5.36681L14.0317 5.36749L14.0313 5.36817L14.031 5.36885L14.0306 5.36953L14.0302 5.37021L14.0298 5.37089L14.0294 5.37157L14.029 5.37225L14.0286 5.37294L14.0282 5.37362L14.0278 5.3743L14.0275 5.37498L14.0271 5.37566L14.0267 5.37634L14.0263 5.37702L14.0259 5.3777L14.0255 5.37838L14.0251 5.37906L14.0247 5.37974L14.0244 5.38042L14.024 5.3811L14.0236 5.38178L14.0232 5.38246L14.0228 5.38314L14.0224 5.38382L14.022 5.38449L14.0216 5.38517L14.0212 5.38585L14.0209 5.38653L14.0205 5.38721L14.0201 5.38789L14.0197 5.38857L14.0193 5.38925L14.0189 5.38992L14.0185 5.3906L14.0181 5.39128L14.0178 5.39196L14.0174 5.39264L14.017 5.39331L14.0166 5.39399L14.0162 5.39467L14.0158 5.39535L14.0154 5.39602L14.015 5.3967L14.0147 5.39738L14.0143 5.39806L14.0139 5.39873L14.0135 5.39941L14.0131 5.40009L14.0127 5.40076L14.0123 5.40144L14.012 5.40212L14.0116 5.40279L14.0112 5.40347L14.0108 5.40415L14.0104 5.40482L14.01 5.4055L14.0096 5.40617L14.0093 5.40685L14.0089 5.40753L14.0085 5.4082L14.0081 5.40888L14.0077 5.40955L14.0073 5.41023L14.0069 5.4109L14.0066 5.41158L14.0062 5.41225L14.0058 5.41293L14.0054 5.4136L14.005 5.41428C12.766 7.58367 13.3961 10.4483 15.6304 11.7524L15.8017 11.8524C15.934 11.9296 16.0263 12.0679 16.0055 12.3053C15.9843 12.5473 15.8506 12.7404 15.6289 12.8321C15.4798 12.8938 15.3442 12.8736 15.2499 12.8186L12.9571 11.4804L11.2298 10.4723L7.71645 8.42169L5.98914 7.41354ZM4.99727 9.15025L2.70448 7.81206C2.05915 7.43541 1.62388 6.77265 1.52148 6.01078C1.23884 3.90788 3.45879 2.33279 5.24003 3.37241L5.4113 3.47238C6.62999 4.18366 8.20707 3.72871 8.93437 2.45522L9.13925 2.09649C10.407 -0.123331 12.8671 -0.46334 14.5666 0.528543C16.266 1.52043 17.2048 3.8442 15.937 6.06402L15.7323 6.42243C15.005 7.69591 15.4036 9.30442 16.6223 10.0157L16.7936 10.1157C18.5748 11.1553 18.3355 13.8864 16.3926 14.6904C15.6888 14.9817 14.9034 14.932 14.258 14.5553L11.9652 13.2171L11.9652 13.2171L8.95113 18.4947C8.5289 19.234 8.00574 19.9094 7.39681 20.5015L6.23681 19.2894L7.39681 20.5015L4.63656 23.1855C2.6857 25.0825 -0.527757 23.2069 0.121894 20.5505L1.0411 16.792C1.24388 15.9628 1.56093 15.1671 1.98315 14.4278L1.98316 14.4278L4.99727 9.15025ZM6.72459 10.1584L3.71047 15.4359C3.38094 16.0129 3.13346 16.634 2.97515 17.2814L2.35693 19.8092L2.31013 20.0006L2.16326 20.6011L2.05595 21.0399C1.88459 21.7406 2.73575 22.2373 3.25031 21.737L3.57256 21.4236L4.01359 20.9948L4.15413 20.8581L6.01056 19.053C6.48594 18.5907 6.89428 18.0635 7.22381 17.4865L9.24605 13.9457L10.2379 12.209L8.51061 11.2008L6.72459 10.1584Z" fill="#ABAFD1"/>
</svg>
