<svg width="26" height="24" viewBox="0 0 26 24" fill="none" xmlns="http://www.w3.org/2000/svg">
<circle cx="6" cy="18" r="1" fill="#ABAFD1"/>
<path fill-rule="evenodd" clip-rule="evenodd" d="M2.23044 17.8231C2.06632 16.3462 2 14.4487 2 12C2 9.55133 2.06632 7.6538 2.23044 6.17691C2.39657 4.68189 2.64923 3.76218 2.93598 3.18868C3.18721 2.68622 3.45451 2.46222 3.79035 2.31294C4.20686 2.12781 4.87032 2 6 2C7.12968 2 7.79314 2.12781 8.20965 2.31294C8.54549 2.46222 8.81279 2.68622 9.06402 3.18868C9.35077 3.76218 9.60343 4.68189 9.76956 6.17691C9.93368 7.6538 10 9.55133 10 12C10 14.4487 9.93368 16.3462 9.76956 17.8231C9.60343 19.3181 9.35077 20.2378 9.06402 20.8113C8.81279 21.3138 8.54549 21.5378 8.20965 21.6871C7.79314 21.8722 7.12968 22 6 22C4.87032 22 4.20686 21.8722 3.79035 21.6871C3.45451 21.5378 3.18721 21.3138 2.93598 20.8113C2.64923 20.2378 2.39657 19.3181 2.23044 17.8231ZM6 24C1.059 24 0 21.882 0 12C0 2.118 1.059 0 6 0C9.31139 0 10.8792 0.951299 11.5531 4.55342C16.2385 0.366177 18.2887 0.319076 21.2122 3.24259C24.0052 6.03564 24.0869 8.03153 20.4373 12.2898C24.8747 12.8595 26 14.3985 26 18.0001C26 22.9411 23.882 24.0001 14 24.0001C11.6612 24.0001 9.75734 23.9408 8.21348 23.7847C7.5803 23.9377 6.84722 24 6 24ZM10.7243 21.9464C11.6894 21.9835 12.7758 22.0001 14 22.0001C16.4487 22.0001 18.3462 21.9338 19.8231 21.7697C21.3181 21.6035 22.2378 21.3509 22.8113 21.0641C23.3138 20.8129 23.5378 20.5456 23.6871 20.2098C23.8722 19.7932 24 19.1298 24 18.0001C24 16.8704 23.8722 16.207 23.6871 15.7905C23.5378 15.4546 23.3138 15.1873 22.8113 14.9361C22.2378 14.6493 21.3181 14.3967 19.8231 14.2305C19.4915 14.1937 19.1387 14.1618 18.7633 14.1344C18.2186 14.7085 17.6212 15.3189 16.9695 15.9705C14.5208 18.4193 12.6543 20.1018 11.1123 21.1041C10.9969 21.4146 10.868 21.6945 10.7243 21.9464ZM12 12C12 10.0411 11.9584 8.38726 11.8532 6.99454C12.7244 6.17301 13.4917 5.49463 14.179 4.94484C15.3536 4.00517 16.1826 3.5335 16.7909 3.33073C17.3238 3.15309 17.6712 3.1837 18.0142 3.31563C18.4397 3.47924 18.9992 3.85799 19.798 4.6568C20.5968 5.45561 20.9755 6.01511 21.1391 6.44054C21.2711 6.78357 21.3017 7.13098 21.124 7.66391C20.9213 8.2722 20.4496 9.1012 19.5099 10.2758C18.5817 11.4362 17.2868 12.8248 15.5553 14.5563C14.0533 16.0583 12.8093 17.2317 11.7485 18.1223C11.9316 16.5212 12 14.5113 12 12Z" fill="#ABAFD1"/>
</svg>
