<svg width="24" height="22" viewBox="0 0 24 22" fill="none" xmlns="http://www.w3.org/2000/svg">
<path fill-rule="evenodd" clip-rule="evenodd" d="M4 11C4 10.4477 4.44772 10 5 10H19C19.5523 10 20 10.4477 20 11C20 11.5523 19.5523 12 19 12H5C4.44772 12 4 11.5523 4 11ZM9 15C9 14.4477 8.55228 14 8 14C7.44772 14 7 14.4477 7 15C7 15.4978 6.98518 16.2559 6.83856 16.9045C6.76485 17.2305 6.60258 17.6155 6.43699 17.9479C6.35745 18.1075 6.28339 18.2427 6.22978 18.337C6.20309 18.3839 6.18177 18.4202 6.16775 18.4438L6.15253 18.4691L6.14989 18.4734L7 19C6.14989 18.4734 6.14983 18.4735 6.14977 18.4736L6.14966 18.4738L6.14934 18.4743C5.85924 18.9437 6.00419 19.5595 6.47339 19.8501C6.94289 20.1409 7.55927 19.9961 7.85011 19.5266L7.03991 19.0247C7.85011 19.5266 7.85017 19.5265 7.85024 19.5264L7.85039 19.5261L7.85074 19.5256L7.8516 19.5242L7.85399 19.5203L7.86136 19.5082L7.88581 19.4676C7.90616 19.4334 7.93438 19.3854 7.96839 19.3256C8.03618 19.2063 8.12814 19.0384 8.22712 18.8398C8.41855 18.4555 8.66325 17.9031 8.78932 17.3455C8.98982 16.4587 9 15.5022 9 15ZM15 15C15 14.4477 15.4477 14 16 14C16.5523 14 17 14.4477 17 15C17 15.4978 17.0148 16.2559 17.1614 16.9045C17.2352 17.2305 17.3974 17.6155 17.563 17.9479C17.6425 18.1075 17.7166 18.2427 17.7702 18.337C17.7969 18.3839 17.8182 18.4202 17.8323 18.4438L17.8475 18.4691L17.8501 18.4734L17 19C17.8501 18.4734 17.8502 18.4735 17.8502 18.4736L17.8503 18.4738L17.8507 18.4743C18.1408 18.9437 17.9958 19.5595 17.5266 19.8501C17.0571 20.1409 16.4407 19.9961 16.1499 19.5266L16.9601 19.0247C16.1499 19.5266 16.1498 19.5265 16.1498 19.5264L16.1496 19.5261L16.1493 19.5256L16.1484 19.5242L16.146 19.5203L16.1386 19.5082L16.1142 19.4676C16.0938 19.4334 16.0656 19.3854 16.0316 19.3256C15.9638 19.2063 15.8719 19.0384 15.7729 18.8398C15.5815 18.4555 15.3367 17.9031 15.2107 17.3455C15.0102 16.4587 15 15.5022 15 15ZM13 15C13 14.4477 12.5523 14 12 14C11.4477 14 11 14.4477 11 15V21C11 21.5523 11.4477 22 12 22C12.5523 22 13 21.5523 13 21V15Z" fill="#ABAFD1"/>
<path fill-rule="evenodd" clip-rule="evenodd" d="M2 10C2 14.1423 2.58927 15.7306 3.57462 16.5517C3.82275 16.7585 4 17.049 4 17.372V17.4704C4 18.2372 3.21909 18.7664 2.59528 18.3205C0.589057 16.8864 0 14.3429 0 10C0 1.765 2.118 0 12 0C21.882 0 24 1.765 24 10C24 14.3429 23.4109 16.8864 21.4047 18.3205C20.7809 18.7664 20 18.2372 20 17.4704V17.372C20 17.049 20.1772 16.7585 20.4254 16.5517C21.4107 15.7306 22 14.1423 22 10C22 5.85772 21.4107 4.26945 20.4254 3.44832C19.9032 3.01317 19.0811 2.63054 17.6798 2.37101C16.2733 2.11053 14.4331 2 12 2C9.56687 2 7.7267 2.11053 6.32024 2.37101C4.91889 2.63054 4.0968 3.01317 3.57462 3.44832C2.58927 4.26945 2 5.85772 2 10Z" fill="#ABAFD1"/>
</svg>
