<svg width="24" height="24" viewBox="0 0 24 24" fill="none" xmlns="http://www.w3.org/2000/svg">
<path d="M2.53226 9.81714C1.99621 9.81714 1.88312 9.81162 1.80519 9.7949L1.59548 10.7727L1.80518 9.7949C1.42451 9.71326 1.10117 9.3799 1.03118 8.99691C1.01667 8.91751 1.01446 8.81602 1.02975 8.31505C1.07994 6.67112 1.21244 5.68251 1.50847 4.88721C2.06444 3.39359 2.82688 2.52367 3.98895 1.87231C4.99755 1.30697 6.57368 1 9.7782 1H14.2218C17.4263 1 19.0025 1.30697 20.0111 1.87231C21.1731 2.52367 21.9356 3.39359 22.4915 4.88721C22.7876 5.68251 22.9201 6.67111 22.9702 8.31504C22.9855 8.81602 22.9833 8.91751 22.9688 8.99691L23.9525 9.17669L22.9688 8.99691C22.8988 9.3799 22.5755 9.71325 22.1948 9.7949C22.1169 9.81162 22.0038 9.81714 21.4677 9.81714C20.0787 9.81714 19.2814 11.1177 19.2814 12.2729C19.2814 13.4282 20.0787 14.7287 21.4677 14.7287C21.9927 14.7287 22.1024 14.7341 22.1802 14.7507C22.5602 14.8318 22.8946 15.182 22.9581 15.5654C22.9713 15.6454 22.9721 15.7386 22.9503 16.2127C22.8885 17.5507 22.7531 18.41 22.4915 19.1128C21.9356 20.6064 21.1731 21.4763 20.0111 22.1277C19.0025 22.693 17.4263 23 14.2218 23H9.7782C6.57368 23 4.99755 22.693 3.98895 22.1277C2.82688 21.4763 2.06444 20.6064 1.50847 19.1128C1.24688 18.41 1.11151 17.5507 1.04974 16.2127C1.02786 15.7386 1.02865 15.6454 1.0419 15.5654C1.10537 15.182 1.43977 14.8318 1.81982 14.7507C1.8976 14.7341 2.00728 14.7287 2.53226 14.7287C3.92132 14.7287 4.7186 13.4282 4.7186 12.2729C4.7186 11.1177 3.92132 9.81714 2.53226 9.81714Z" stroke="#ABAFD1" stroke-width="2"/>
<path d="M10.8244 14.2918L11.4122 15.1008L10.8244 14.2918L9.78761 15.0451L10.1836 13.8262C10.4514 13.0022 10.1581 12.0995 9.4571 11.5902L8.42029 10.8369L9.70186 10.8369C10.5683 10.8369 11.3362 10.279 11.604 9.45492L12 8.23607L12.396 9.45491C12.6638 10.279 13.4317 10.8369 14.2981 10.8369L15.5797 10.8369L14.5429 11.5902L15.1307 12.3992L14.5429 11.5902C13.8419 12.0995 13.5486 13.0022 13.8164 13.8262L14.2124 15.0451L13.1756 14.2918C12.4746 13.7825 11.5254 13.7825 10.8244 14.2918Z" stroke="#ABAFD1" stroke-width="2" stroke-linecap="round" stroke-linejoin="round"/>
</svg>
