<svg width="24" height="24" viewBox="0 0 24 24" fill="none" xmlns="http://www.w3.org/2000/svg">
<path d="M12 15C11.9831 15 11.9662 15 11.9494 15C11.4931 15.0001 11.0705 15.0001 10.7333 14.9626C10.391 14.9246 9.91572 14.8299 9.54289 14.4571C9.17007 14.0843 9.0754 13.609 9.03737 13.2667C8.9999 12.9295 8.99995 12.5069 9 12.0506C9 12.0338 9 12.0169 9 12C9 11.9831 9 11.9662 9 11.9494C8.99995 11.4931 8.9999 11.0705 9.03737 10.7333C9.0754 10.391 9.17007 9.91572 9.54289 9.54289C9.91572 9.17007 10.391 9.0754 10.7333 9.03737C11.0705 8.9999 11.4931 8.99995 11.9494 9C11.9662 9 11.9831 9 12 9C12.0169 9 12.0338 9 12.0506 9C12.5069 8.99995 12.9295 8.9999 13.2667 9.03737C13.609 9.0754 14.0843 9.17007 14.4571 9.54289C14.8299 9.91572 14.9246 10.391 14.9626 10.7333C15.0001 11.0705 15.0001 11.4931 15 11.9494C15 11.9662 15 11.9831 15 12C15 12.0169 15 12.0338 15 12.0506C15.0001 12.5069 15.0001 12.9295 14.9626 13.2667C14.9246 13.609 14.8299 14.0843 14.4571 14.4571C14.0843 14.8299 13.609 14.9246 13.2667 14.9626C12.9295 15.0001 12.5069 15.0001 12.0506 15C12.0338 15 12.0169 15 12 15Z" stroke="#ABAFD1" stroke-width="2" stroke-linecap="round" stroke-linejoin="round"/>
<path fill-rule="evenodd" clip-rule="evenodd" d="M12 19C10.0861 19 8.75129 18.9979 7.74416 18.8625C6.76579 18.7309 6.2477 18.4903 5.87868 18.1213C5.50966 17.7523 5.26907 17.2342 5.13753 16.2558C5.00212 15.2487 5 13.9139 5 12V5H12C13.9139 5 15.2487 5.00212 16.2558 5.13753C17.2342 5.26907 17.7523 5.50966 18.1213 5.87868C18.4903 6.2477 18.7309 6.76579 18.8625 7.74416C18.9979 8.7513 19 10.0861 19 12V19H12ZM21 19V12V11.9269C21 10.1034 21 8.63363 20.8446 7.47766C20.6833 6.27752 20.3381 5.26702 19.5355 4.46447C18.733 3.66191 17.7225 3.31672 16.5223 3.15536C15.3664 2.99995 13.8966 2.99997 12.0732 3H12.0732L12 3H5V1C5 0.447716 4.55228 0 4 0C3.44772 0 3 0.447716 3 1V3H1C0.447715 3 0 3.44772 0 4C0 4.55228 0.447715 5 1 5H3V12V12.0731C2.99997 13.8966 2.99995 15.3664 3.15536 16.5223C3.31672 17.7225 3.66191 18.733 4.46447 19.5355C5.26702 20.3381 6.27752 20.6833 7.47766 20.8446C8.63362 21 10.1034 21 11.9268 21H12H19V23C19 23.5523 19.4477 24 20 24C20.5523 24 21 23.5523 21 23V21H23C23.5523 21 24 20.5523 24 20C24 19.4477 23.5523 19 23 19H21Z" fill="#ABAFD1"/>
</svg>
