<svg width="20" height="24" viewBox="0 0 20 24" fill="none" xmlns="http://www.w3.org/2000/svg">
<path d="M1.36994 14.7829C1.42994 15.0528 1.48752 15.3135 1.54318 15.5655C1.86438 17.02 2.12207 18.1869 2.41484 19.154C2.7566 20.2829 3.11326 21.018 3.57471 21.5318C4.45896 22.5162 6.01646 23 10 23C13.9835 23 15.541 22.5162 16.4253 21.5318C16.8867 21.018 17.2434 20.2829 17.5851 19.154C17.8779 18.1869 18.1356 17.0201 18.4568 15.5657C18.5125 15.3135 18.5701 15.0528 18.6301 14.7829C19.4079 11.285 18.8946 9.54317 17.7282 8.56682C17.0968 8.03836 16.172 7.63709 14.866 7.37407C13.5628 7.1116 11.9483 7 10 7C8.05169 7 6.4372 7.1116 5.13399 7.37407C3.82802 7.63709 2.9032 8.03836 2.27185 8.56682C1.10542 9.54317 0.592125 11.285 1.36994 14.7829Z" stroke="#ABAFD1" stroke-width="2" stroke-linecap="round" stroke-linejoin="round"/>
<path d="M10 12V18M6 12V18M14 12V18" stroke="#ABAFD1" stroke-width="2" stroke-linecap="round" stroke-linejoin="round"/>
<path fill-rule="evenodd" clip-rule="evenodd" d="M12.0001 2.07058C15.6539 2.33516 18.1084 3.29618 19.5158 4.14321C19.989 4.428 20.1417 5.04247 19.8569 5.51566C19.5721 5.98886 18.9577 6.14158 18.4845 5.85679C17.1809 5.07224 14.4556 4 10.0001 4C5.52988 4 2.72875 5.0786 1.54035 5.84152C1.0756 6.13988 0.456969 6.00499 0.158607 5.54023C-0.139756 5.07548 -0.00486638 4.45685 0.45989 4.15848C1.8081 3.29297 4.33316 2.3338 8.00012 2.07024V1C8.00012 0.447715 8.44784 0 9.00012 0H11.0001C11.5524 0 12.0001 0.447715 12.0001 1V2.07058Z" fill="#ABAFD1"/>
</svg>
