<svg width="24" height="20" viewBox="0 0 24 20" fill="none" xmlns="http://www.w3.org/2000/svg">
<path fill-rule="evenodd" clip-rule="evenodd" d="M13 3C13 3.55228 12.5523 4 12 4C11.4477 4 11 3.55228 11 3C11 2.44772 11.4477 2 12 2C12.5523 2 13 2.44772 13 3ZM14.7356 4.23324C14.9055 3.85705 15 3.43957 15 3C15 1.34315 13.6569 0 12 0C10.3431 0 9 1.34315 9 3C9 3.43957 9.09454 3.85705 9.26439 4.23324C7.34244 4.59095 5.73432 5.376 4.5152 6.69672C2.77147 8.58575 2 11.3828 2 15C2 15.0167 2.00041 15.0333 2.00122 15.0498C0.859489 15.2809 0 16.2901 0 17.5C0 18.8807 1.11929 20 2.5 20H21.5C22.8807 20 24 18.8807 24 17.5C24 16.2901 23.1405 15.2809 21.9988 15.0498C21.9996 15.0333 22 15.0167 22 15C22 11.3828 21.2285 8.58575 19.4848 6.69672C18.2657 5.376 16.6576 4.59095 14.7356 4.23324ZM12 6C9.15474 6 7.22503 6.7097 5.9848 8.05328C4.72853 9.41425 4 11.6172 4 15H20C20 11.6172 19.2715 9.41425 18.0152 8.05328C16.775 6.7097 14.8453 6 12 6ZM21.5 17C21.7761 17 22 17.2239 22 17.5C22 17.7761 21.7761 18 21.5 18H2.5C2.22386 18 2 17.7761 2 17.5C2 17.2239 2.22386 17 2.5 17H21.5Z" fill="#ABAFD1"/>
</svg>
