<svg width="24" height="24" viewBox="0 0 24 24" fill="none" xmlns="http://www.w3.org/2000/svg">
<path d="M1 10C1 14.1299 1.55938 16.174 2.93443 17.3199C3.63671 17.9051 4.64335 18.3354 6.13814 18.6123C7.63548 18.8896 9.54819 19 12 19C14.4518 19 16.3645 18.8896 17.8619 18.6123C19.3566 18.3354 20.3633 17.9051 21.0656 17.3199C22.4406 16.174 23 14.1299 23 10C23 5.87011 22.4406 3.82597 21.0656 2.6801C20.3633 2.09486 19.3566 1.66457 17.8619 1.38773C16.3645 1.11042 14.4518 1 12 1C9.54819 1 7.63548 1.11042 6.13814 1.38773C4.64335 1.66457 3.63671 2.09486 2.93443 2.6801C1.55938 3.82597 1 5.87011 1 10Z" stroke="#ABAFD1" stroke-width="2" stroke-linecap="round" stroke-linejoin="round"/>
<path d="M12 20V23H8H16" stroke="#ABAFD1" stroke-width="2" stroke-linecap="round" stroke-linejoin="round"/>
</svg>
