<svg width="24" height="24" viewBox="0 0 24 24" fill="none" xmlns="http://www.w3.org/2000/svg">
<path d="M12 23C9.55232 23 7.65366 22.8675 6.17298 22.5385C4.70365 22.2119 3.70794 21.7052 3.00136 20.9986C2.29478 20.2921 1.78807 19.2963 1.46153 17.827C1.13246 16.3463 1 14.4477 1 12C1 9.55232 1.13246 7.65366 1.46153 6.17298C1.78807 4.70365 2.29478 3.70794 3.00136 3.00136C3.70794 2.29478 4.70365 1.78807 6.17298 1.46153C7.65366 1.13246 9.55232 1 12 1C14.4477 1 16.3463 1.13246 17.827 1.46153C19.2963 1.78807 20.2921 2.29478 20.9986 3.00136C21.7052 3.70794 22.2119 4.70365 22.5385 6.17298C22.8675 7.65366 23 9.55232 23 12C23 14.4477 22.8675 16.3463 22.5385 17.827C22.2119 19.2963 21.7052 20.2921 20.9986 20.9986C20.2921 21.7052 19.2963 22.2119 17.827 22.5385C16.3463 22.8675 14.4477 23 12 23Z" stroke="#ABAFD1" stroke-width="2" stroke-linecap="round" stroke-linejoin="round"/>
<path d="M7 7H10" stroke="#ABAFD1" stroke-width="2" stroke-linecap="round" stroke-linejoin="round"/>
<path d="M7 12H17" stroke="#ABAFD1" stroke-width="2" stroke-linecap="round" stroke-linejoin="round"/>
<path d="M14 17L17 17" stroke="#ABAFD1" stroke-width="2" stroke-linecap="round" stroke-linejoin="round"/>
</svg>
