<svg width="29" height="28" viewBox="0 0 29 28" fill="none" xmlns="http://www.w3.org/2000/svg">
<path d="M18.5 23.5L14.5 27M14.5 27L10.5 23.5M14.5 27L14.5 17" stroke="#ABAFD1" stroke-width="2" stroke-linecap="round" stroke-linejoin="round"/>
<path d="M8.73216 7.99794C8.73216 7.99794 8.33387 9.20243 8.33463 9.99937C8.33539 10.7961 8.42927 11.2643 8.73575 11.9999" stroke="#ABAFD1" stroke-width="2" stroke-linecap="round" stroke-linejoin="round"/>
<path fill-rule="evenodd" clip-rule="evenodd" d="M18 0C13.594 0 9.93803 2.62781 8.23155 6.35395C8.14559 6.54164 7.95644 6.66094 7.75 6.66094C3.45041 6.66094 0 10.277 0 14.4884C0 18.4604 3.22474 21.481 7.00214 21.9396C7.5504 22.0061 8 21.5523 8 21C8 20.4477 7.54928 20.0081 7.00369 19.9224C4.19589 19.4814 2 17.2128 2 14.4884C2 11.3424 4.59375 8.66094 7.75 8.66094C8.04252 8.66094 8.32981 8.68246 8.61035 8.72391C9.08754 8.79441 9.54705 8.51422 9.70289 8.05772C10.9087 4.52542 14.1102 2 18 2C22.9391 2 27 6.05451 27 10.9914C27 14.598 24.7932 17.8013 21.6754 19.2225C21.609 19.2527 21.5758 19.2678 21.5665 19.2723C21.2007 19.4483 21.0086 19.747 21.0002 20.1528C21 20.1632 21 20.1842 21 20.2262C21 20.248 21 20.1935 21.0006 20.2114C21.0234 20.8473 21.7687 21.3382 22.3619 21.1079C22.3785 21.1014 22.2342 21.1635 22.2919 21.1387C26.2256 19.4475 29 15.4673 29 10.9914C29 4.9477 24.0414 0 18 0ZM18.2297 22H17.9943C18.073 22.0009 18.1514 22.0009 18.2297 22Z" fill="#ABAFD1"/>
</svg>
