<svg width="12" height="25" viewBox="0 0 12 25" fill="none" xmlns="http://www.w3.org/2000/svg">
<path fill-rule="evenodd" clip-rule="evenodd" d="M5 17C5.55228 17 6 16.5523 6 16C6 15.4477 5.55228 15 5 15C4.44772 15 4 15.4477 4 16C4 16.5523 4.44772 17 5 17ZM7 20C7.55228 20 8 19.5523 8 19C8 18.4477 7.55228 18 7 18C6.44772 18 6 18.4477 6 19C6 19.5523 6.44772 20 7 20Z" fill="#ABAFD1"/>
<path fill-rule="evenodd" clip-rule="evenodd" d="M7.75281 1.01887C7.24337 0.914937 6.73928 1.21873 6.5932 1.71772L5.1398 6.6822C-0.682564 6.7789 -0.483176 8.00707 0.600033 14.6793L0.600151 14.68C0.632828 14.8813 0.666309 15.0875 0.700454 15.2988C1.01312 17.2338 1.11893 18.8143 1.20466 20.0949C1.45324 23.8081 1.53303 24.9999 5.99676 24.9999C10.4633 24.9999 10.5438 23.8065 10.7946 20.0879L10.7946 20.0879C10.8809 18.8085 10.9873 17.2302 11.2994 15.2988C11.3336 15.0876 11.3671 14.8814 11.3997 14.6801C12.4604 8.14831 12.6739 6.8333 7.22149 6.68989L8.25421 3.16236L9.80011 3.47773C10.3412 3.58813 10.8694 3.23895 10.9798 2.69781C11.0902 2.15667 10.741 1.62849 10.1999 1.5181L7.75281 1.01887ZM3.19368 19.864C3.1084 18.592 2.99546 16.964 2.67484 14.9798L2.57617 14.3707L2.57608 14.3701C2.50845 13.9532 2.44532 13.564 2.38749 13.1998C2.53657 13.2287 2.69589 13.2557 2.86352 13.2788C3.82792 13.4116 5.18071 13.4317 6.43435 12.8272C7.1807 12.4673 8.07791 12.4472 8.86351 12.5555C9.1845 12.5997 9.46794 12.6627 9.68761 12.7207C9.61073 13.2182 9.52194 13.7655 9.42361 14.3716L9.32507 14.9797C9.00444 16.9636 8.89106 18.5914 8.8052 19.8631C8.7135 21.2212 8.65807 21.9419 8.51876 22.4302C8.44222 22.6985 8.40127 22.7121 8.35859 22.7263L8.35857 22.7263C8.35186 22.7285 8.34511 22.7307 8.33817 22.734C8.08163 22.8541 7.45978 22.9999 5.99676 22.9999C4.53354 22.9999 3.91251 22.8541 3.65691 22.7343C3.65009 22.7311 3.64344 22.7289 3.63682 22.7268C3.59521 22.7133 3.55457 22.7001 3.4784 22.4321C3.3395 21.9434 3.28475 21.2227 3.19368 19.864ZM2.19476 11.1001C2.15472 11.0887 2.11779 11.0778 2.08422 11.0676C2.066 10.9047 2.05043 10.7486 2.03769 10.5988C1.94758 9.53895 2.0448 9.1715 2.08543 9.07647C2.12493 9.0506 2.25419 8.97972 2.55801 8.90703C3.21911 8.74887 4.27396 8.67561 5.99994 8.67561C7.72591 8.67561 8.78078 8.74887 9.44191 8.90704C9.7458 8.97974 9.87507 9.05064 9.91457 9.07651C9.95519 9.1715 10.0524 9.53893 9.96231 10.5988C9.95876 10.6406 9.95499 10.6828 9.95101 10.7255C9.71413 10.6701 9.43881 10.6158 9.13649 10.5742C8.17209 10.4413 6.8193 10.4212 5.56565 11.0257C4.81929 11.3856 3.92208 11.4057 3.13648 11.2975C2.75477 11.2449 2.42618 11.1657 2.19476 11.1001Z" fill="#ABAFD1"/>
</svg>
