<svg width="24" height="24" viewBox="0 0 24 24" fill="none" xmlns="http://www.w3.org/2000/svg">
<path d="M1 12C1 14.4477 1.13246 16.3463 1.46153 17.827C1.78807 19.2963 2.29478 20.2921 3.00136 20.9986C3.70794 21.7052 4.70365 22.2119 6.17298 22.5385C7.65366 22.8675 9.55232 23 12 23C14.4477 23 16.3463 22.8675 17.827 22.5385C19.2963 22.2119 20.2921 21.7052 20.9986 20.9986C21.7052 20.2921 22.2119 19.2963 22.5385 17.827C22.8675 16.3463 23 14.4477 23 12C23 9.55232 22.8675 7.65366 22.5385 6.17298C22.2119 4.70365 21.7052 3.70794 20.9986 3.00136C20.2921 2.29478 19.2963 1.78807 17.827 1.46153C16.3463 1.13246 14.4477 1 12 1C9.55232 1 7.65366 1.13246 6.17298 1.46153C4.70365 1.78807 3.70794 2.29478 3.00136 3.00136C2.29478 3.70794 1.78807 4.70365 1.46153 6.17298C1.13246 7.65366 1 9.55232 1 12Z" stroke="#ABAFD1" stroke-width="2" stroke-linecap="round" stroke-linejoin="round"/>
<path d="M11.1577 8.18182L12.9195 6.33429C13.3244 5.90978 14.0046 5.88646 14.4388 6.2822L17.658 9.21592C18.0923 9.61167 18.1161 10.2766 17.7113 10.7011L15.8182 12.6864M11.1577 8.18182L6.28868 13.2877C6.08633 13.4999 5.98271 13.7844 6.00236 14.0738L6.20234 17.0187C6.23993 17.5724 6.71141 18.0021 7.27903 18L10.2983 17.9888C10.595 17.9877 10.8781 17.8667 11.0805 17.6545L15.8182 12.6864M11.1577 8.18182L15.8182 12.6864" stroke="#ABAFD1" stroke-width="2" stroke-linejoin="round"/>
</svg>
