<svg width="24" height="24" viewBox="0 0 24 24" fill="none" xmlns="http://www.w3.org/2000/svg">
<path fill-rule="evenodd" clip-rule="evenodd" d="M12 6C11.062 6 10.285 6.3617 9.75259 6.96064C9.23656 7.54117 9 8.28693 9 9C9 10.254 9.73406 11.1201 10.2114 11.6833L10.2369 11.7134C10.8008 12.3793 11 12.6599 11 13C11 13.5523 11.4477 14 12 14C12.5523 14 13 13.5523 13 13C13 11.8664 12.2959 11.0438 11.8487 10.5211C11.8189 10.4864 11.7903 10.4529 11.7631 10.4208C11.2392 9.80231 11 9.45141 11 9C11 8.71307 11.0968 8.45883 11.2474 8.28936C11.3817 8.1383 11.6047 8 12 8C12.3953 8 12.6183 8.1383 12.7526 8.28936C12.9032 8.45883 13 8.71307 13 9C13 9.55228 13.4477 10 14 10C14.5523 10 15 9.55228 15 9C15 8.28693 14.7634 7.54117 14.2474 6.96064C13.715 6.3617 12.938 6 12 6ZM12 15C11.4477 15 11 15.4477 11 16C11 16.5523 11.4477 17 12 17C12.5523 17 13 16.5523 13 16C13 15.4477 12.5523 15 12 15Z" fill="#ABAFD1"/>
<path d="M1 12C1 14.4477 1.13246 16.3463 1.46153 17.827C1.78807 19.2963 2.29478 20.2921 3.00136 20.9986C3.70794 21.7052 4.70365 22.2119 6.17298 22.5385C7.65366 22.8675 9.55232 23 12 23C14.4477 23 16.3463 22.8675 17.827 22.5385C19.2963 22.2119 20.2921 21.7052 20.9986 20.9986C21.7052 20.2921 22.2119 19.2963 22.5385 17.827C22.8675 16.3463 23 14.4477 23 12C23 9.55232 22.8675 7.65366 22.5385 6.17298C22.2119 4.70365 21.7052 3.70794 20.9986 3.00136C20.2921 2.29478 19.2963 1.78807 17.827 1.46153C16.3463 1.13246 14.4477 1 12 1C9.55232 1 7.65366 1.13246 6.17298 1.46153C4.70365 1.78807 3.70794 2.29478 3.00136 3.00136C2.29478 3.70794 1.78807 4.70365 1.46153 6.17298C1.13246 7.65366 1 9.55232 1 12Z" stroke="#ABAFD1" stroke-width="2" stroke-linecap="round" stroke-linejoin="round"/>
</svg>
