<svg width="24" height="24" viewBox="0 0 24 24" fill="none" xmlns="http://www.w3.org/2000/svg">
<path d="M17 5.5C16.75 2.83334 15 1 12 1C9 1 7.25 2.83335 7 5.5" stroke="#ABAFD1" stroke-width="2" stroke-linecap="round" stroke-linejoin="round"/>
<path d="M1 14.5C1 18.4145 1.55668 20.3244 2.91495 21.3997C3.61756 21.9559 4.62823 22.3668 6.12931 22.6309C7.63092 22.8951 9.54718 23 12 23C14.4528 23 16.3691 22.8951 17.8707 22.6309C19.3718 22.3668 20.3824 21.9559 21.085 21.3997C22.4433 20.3244 23 18.4145 23 14.5C23 10.5855 22.4433 8.67562 21.085 7.60033C20.3824 7.0441 19.3718 6.63321 17.8707 6.3691C16.3691 6.10491 14.4528 6 12 6C9.54718 6 7.63092 6.10491 6.12931 6.3691C4.62823 6.63321 3.61756 7.0441 2.91495 7.60033C1.55668 8.67562 1 10.5855 1 14.5Z" stroke="#ABAFD1" stroke-width="2" stroke-linecap="round" stroke-linejoin="round"/>
<path fill-rule="evenodd" clip-rule="evenodd" d="M13 12C13 11.4477 12.5523 11 12 11C11.4477 11 11 11.4477 11 12V14H9C8.44772 14 8 14.4477 8 15C8 15.5523 8.44772 16 9 16H11V18C11 18.5523 11.4477 19 12 19C12.5523 19 13 18.5523 13 18V16H15C15.5523 16 16 15.5523 16 15C16 14.4477 15.5523 14 15 14H13V12Z" fill="#ABAFD1"/>
</svg>
