<svg width="17" height="24" viewBox="0 0 17 24" fill="none" xmlns="http://www.w3.org/2000/svg">
<path d="M5.74675 6.16322L6.59929 6.53857L5.74675 6.16322ZM2.83247 10.9281L1.97992 10.5528H1.97992L2.83247 10.9281ZM9.75817 1.02869L10.1374 0.0653454L10.1374 0.0653453L9.75817 1.02869ZM9.45149 6.91694L10.4518 6.91503L10.4518 6.91503L9.45149 6.91694ZM10.6843 9.96201L10.497 10.9443H10.4978L10.6843 9.96201ZM15.0809 10.399L14.1457 10.9454L14.1457 10.9454L15.0809 10.399ZM14.1674 12.6803L15.0199 13.0556L14.1674 12.6803ZM11.2531 17.4452L12.1056 17.8205H12.1056L11.2531 17.4452ZM7.24166 22.5797L6.86245 23.5431L7.24166 22.5797ZM7.54835 16.6915L8.54871 16.6896L7.54835 16.6915ZM6.37776 13.6463L6.56507 12.664L6.56334 12.664L6.37776 13.6463ZM1.91889 13.2094L2.85409 12.663L2.85409 12.663L1.91889 13.2094ZM7.93796 14.6267L6.9376 14.6286L7.93796 14.6267ZM7.94977 13.7898L8.78876 13.0946L7.94977 13.7898ZM9.06189 8.98163L8.06153 8.98354L9.06189 8.98163ZM9.05008 9.8185L8.21109 10.5138L9.05008 9.8185ZM4.8942 5.78787L1.97992 10.5528L3.68501 11.3035L6.59929 6.53857L4.8942 5.78787ZM10.1374 0.0653453C9.50638 -0.0630312 8.93021 0.250827 8.54176 0.566852C8.16645 0.872177 7.81356 1.29536 7.47902 1.74874C6.80214 2.66607 5.95897 4.04698 4.8942 5.78787L6.59929 6.53857C7.69238 4.75138 8.46759 3.48622 9.06329 2.6789C9.36504 2.26996 9.56199 2.06117 9.67429 1.96981C9.77344 1.88915 9.62264 2.0416 9.37896 1.99203L10.1374 0.0653453ZM10.4518 6.91503C10.8076 5.02981 11.0909 3.53516 11.1796 2.49834C11.2235 1.98583 11.2297 1.49264 11.1315 1.09162C11.03 0.677066 10.7676 0.193563 10.1374 0.0653454L9.37896 1.99203C9.13606 1.94261 9.11909 1.75699 9.14536 1.86431C9.17495 1.98517 9.19126 2.23786 9.15171 2.70016C9.07363 3.61296 8.81629 4.98364 8.45112 6.91885L10.4518 6.91503ZM10.0623 8.97971L10.4518 6.91503L8.45112 6.91885L8.06153 8.98354L10.0623 8.97971ZM9.68765 10.9443H10.497L10.8716 8.97971H10.0623L9.68765 10.9443ZM11.0055 8.97968C10.9598 8.97968 10.9148 8.97968 10.8709 8.97971L10.4978 10.9443C10.5409 10.9443 10.5851 10.9443 10.6309 10.9443L11.0055 8.97968ZM13.0206 8.97968H11.0055L10.6309 10.9443H12.646L13.0206 8.97968ZM16.0161 9.85256C15.742 9.2939 15.1894 9.1155 14.7166 9.04487C14.2629 8.9771 13.6654 8.97968 13.0206 8.97968L12.646 10.9443C13.3567 10.9443 13.7758 10.9469 14.0534 10.9883C14.312 11.027 14.2055 11.0671 14.1457 10.9454L16.0161 9.85256ZM15.0199 13.0556C15.3776 12.4708 15.7112 11.9301 15.9113 11.4808C16.1199 11.0123 16.2904 10.4115 16.0161 9.85256L14.1457 10.9454C14.0859 10.8235 14.1757 10.7486 14.0619 11.0041C13.9396 11.2788 13.7092 11.6602 13.3148 12.3049L15.0199 13.0556ZM12.1056 17.8205L15.0199 13.0556L13.3148 12.3049L10.4005 17.0698L12.1056 17.8205ZM6.86245 23.5431C7.49346 23.6714 8.06962 23.3576 8.45808 23.0415C8.83338 22.7362 9.18628 22.313 9.52082 21.8597C10.1977 20.9423 11.0409 19.5614 12.1056 17.8205L10.4005 17.0698C9.30746 18.857 8.53225 20.1222 7.93654 20.9295C7.63479 21.3384 7.43784 21.5472 7.32554 21.6386C7.22639 21.7193 7.3772 21.5668 7.62088 21.6164L6.86245 23.5431ZM6.54799 16.6934C6.19226 18.5786 5.90892 20.0732 5.82022 21.1101C5.77638 21.6226 5.77015 22.1158 5.86832 22.5168C5.96981 22.9313 6.23222 23.4148 6.86245 23.5431L7.62088 21.6164C7.86378 21.6658 7.88075 21.8514 7.85447 21.7441C7.82489 21.6232 7.80858 21.3705 7.84812 20.9082C7.92621 19.9954 8.18355 18.6248 8.54871 16.6896L6.54799 16.6934ZM6.9376 14.6286L6.54799 16.6934L8.54871 16.6896L8.93832 14.6248L6.9376 14.6286ZM7.3122 12.664H6.56507L6.19046 14.6286H6.9376L7.3122 12.664ZM5.99436 14.6287C6.06194 14.6287 6.12815 14.6287 6.19218 14.6286L6.56334 12.664C6.50134 12.6641 6.4369 12.6641 6.36897 12.6641L5.99436 14.6287ZM3.97919 14.6287H5.99436L6.36897 12.6641H4.3538L3.97919 14.6287ZM0.983694 13.7558C1.25786 14.3145 1.81046 14.4929 2.28327 14.5635C2.73691 14.6313 3.33442 14.6287 3.97919 14.6287L4.3538 12.6641C3.64314 12.6641 3.22407 12.6615 2.94639 12.6201C2.68787 12.5814 2.79438 12.5413 2.85409 12.663L0.983694 13.7558ZM1.97992 10.5528C1.62223 11.1376 1.28864 11.6783 1.08858 12.1276C0.879964 12.5961 0.709411 13.1969 0.983694 13.7558L2.85409 12.663C2.91392 12.7849 2.82415 12.8598 2.93793 12.6043C3.06026 12.3296 3.29068 11.9482 3.68501 11.3035L1.97992 10.5528ZM8.93832 14.6248C8.9767 14.4214 9.02623 14.1701 9.03734 13.9561C9.04992 13.7137 9.02442 13.3787 8.78876 13.0946L7.11078 14.4851C7.05877 14.4224 7.02873 14.3524 7.01467 14.2913C7.00241 14.238 7.00585 14.2065 7.00507 14.2214C7.00426 14.237 7.00076 14.2733 6.98862 14.3478C6.97656 14.4218 6.96009 14.5094 6.9376 14.6286L8.93832 14.6248ZM6.9376 14.6286C7.05895 14.6286 7.14815 14.6287 7.22311 14.6305C7.29858 14.6324 7.33492 14.6357 7.35038 14.6378C7.36521 14.6398 7.33365 14.6374 7.2835 14.6154C7.22601 14.5903 7.16279 14.5478 7.11078 14.4851L8.78876 13.0946C8.55311 12.8104 8.2285 12.7233 7.98795 12.6907C7.77544 12.6619 7.51925 12.664 7.3122 12.664L6.9376 14.6286ZM8.06153 8.98354C8.02315 9.18692 7.97362 9.43818 7.96251 9.65227C7.94993 9.8946 7.97544 10.2296 8.21109 10.5138L9.88907 9.12323C9.94108 9.18594 9.97112 9.25591 9.98518 9.31705C9.99745 9.37037 9.994 9.40183 9.99478 9.38689C9.99559 9.37132 9.99909 9.33501 10.0112 9.26053C10.0233 9.18655 10.0398 9.09892 10.0623 8.97971L8.06153 8.98354ZM10.0623 8.97971C9.9409 8.97971 9.8517 8.97965 9.77674 8.97778C9.70128 8.9759 9.66493 8.97261 9.64947 8.97052C9.63464 8.96851 9.66621 8.97096 9.71635 8.99289C9.77385 9.01804 9.83706 9.06052 9.88907 9.12323L8.21109 10.5138C8.44674 10.7979 8.77135 10.8851 9.0119 10.9176C9.22442 10.9464 9.4806 10.9443 9.68765 10.9443L10.0623 8.97971Z" fill="#ABAFD1"/>
</svg>
