<svg width="24" height="24" viewBox="0 0 24 24" fill="none" xmlns="http://www.w3.org/2000/svg">
<path fill-rule="evenodd" clip-rule="evenodd" d="M6 8C6 6.22557 6.00148 4.97953 6.10326 4.06356C6.20585 3.14021 6.39243 2.77178 6.58211 2.58211C6.77178 2.39243 7.14021 2.20585 8.06356 2.10326C8.97953 2.00148 10.2256 2 12 2C13.7744 2 15.0205 2.00148 15.9364 2.10326C16.8598 2.20585 17.2282 2.39243 17.4179 2.58211C17.6076 2.77178 17.7941 3.14021 17.8967 4.06356C17.9985 4.97953 18 6.22557 18 8C18 8.00065 18 8.00131 18 8.00196C17.1964 7.99606 16.2852 8.00448 15.252 8.01403C14.28 8.02301 13.2 8.03299 12 8.03299C10.8 8.03299 9.72 8.02301 8.748 8.01403C7.71477 8.00448 6.80357 7.99606 6 8.00196C6 8.00131 6 8.00065 6 8ZM4.00226 8.06783C4.00076 8.04541 4 8.0228 4 8L4 7.93597C3.99998 6.24029 3.99997 4.88241 4.11549 3.84269C4.23165 2.79729 4.48257 1.85322 5.16789 1.16789C5.85322 0.482567 6.79729 0.231648 7.84269 0.115492C8.88241 -3.17767e-05 10.2403 -1.76431e-05 11.9359 0H11.936H12H12.064H12.0641C13.7597 -1.76431e-05 15.1176 -3.17712e-05 16.1573 0.115492C17.2027 0.231648 18.1468 0.482567 18.8321 1.16789C19.5174 1.85322 19.7684 2.79729 19.8845 3.84269C20 4.88241 20 6.24028 20 7.93596V8C20 8.0228 19.9992 8.04541 19.9977 8.06783C21.4712 8.17494 22.4022 8.43633 22.9904 9.03468C24 10.0616 24 12.081 24 16.0165C24 22 21 24 12 24C3 24 0 22 0 16.0165C0 12.081 0 10.0616 1.00957 9.03468C1.59781 8.43633 2.5288 8.17494 4.00226 8.06783ZM2 16.0165C2 18.6788 2.64861 19.8653 3.73313 20.5871C5.06594 21.4742 7.51789 22 12 22C16.4821 22 18.9341 21.4742 20.2669 20.5871C21.3514 19.8653 22 18.6788 22 16.0165C22 13.6957 21.9937 12.2695 21.8377 11.2966C21.7046 10.4662 21.5299 10.3992 21.498 10.3869C21.4961 10.3862 21.4947 10.3857 21.4938 10.3852C21.237 10.2357 20.5998 10.0642 18.8821 10.0166C17.8995 9.98939 16.7489 10.0002 15.3312 10.0135H15.3311H15.3311C14.3574 10.0227 13.2578 10.033 12 10.033C10.7422 10.033 9.64257 10.0227 8.66889 10.0135H8.66887H8.66879C7.25111 10.0002 6.10053 9.98939 5.11792 10.0166C3.40019 10.0642 2.76299 10.2357 2.50619 10.3852C2.50535 10.3857 2.50395 10.3862 2.50204 10.3869L2.50203 10.3869C2.47012 10.3992 2.29543 10.4662 2.16228 11.2966C2.00629 12.2695 2 13.6957 2 16.0165Z" fill="#ABAFD1"/>
<path d="M10 4V6M14 4V6" stroke="#ABAFD1" stroke-width="2" stroke-linecap="round" stroke-linejoin="round"/>
</svg>
