<svg width="24" height="24" viewBox="0 0 24 24" fill="none" xmlns="http://www.w3.org/2000/svg">
<path fill-rule="evenodd" clip-rule="evenodd" d="M12.0128 12C11.4605 12 11.0128 12.4477 11.0128 13C11.0128 13.5523 11.4605 14 12.0128 14L16.0256 14C16.5779 14 17.0256 13.5523 17.0256 13C17.0256 12.4477 16.5779 12 16.0256 12H12.0128ZM8 16.0136C7.44772 16.0136 7 16.4613 7 17.0136C7 17.5659 7.44772 18.0136 8 18.0136L16.0256 18.0136C16.5779 18.0136 17.0256 17.5659 17.0256 17.0136C17.0256 16.4613 16.5779 16.0136 16.0256 16.0136L8 16.0136Z" fill="#ABAFD1"/>
<path d="M17 5.22825C15.9259 5.12747 14.683 5.08602 13.2522 5.08602C4.41574 5.08602 2.30081 6.66693 1.26962 14.043C1.11233 15.1681 1.01796 16.1583 1.00232 17.0287M17 5.22825C22.5595 5.7499 23.5946 7.86123 22.7304 14.043C21.6992 21.4191 19.5843 23 10.7478 23C3.25913 23 0.91541 21.8646 1.00232 17.0287M17 5.22825C17 5.22825 17.1522 4.30766 17 3.09558C16.625 0.109886 4.30292 0.499858 3.00005 3.09558C1.00195 7.07641 1.00232 17.0287 1.00232 17.0287" stroke="#ABAFD1" stroke-width="2" stroke-linecap="round" stroke-linejoin="round"/>
</svg>
