<svg width="24" height="24" viewBox="0 0 24 24" fill="none" xmlns="http://www.w3.org/2000/svg">
<path d="M7 5.22825C8.07408 5.12747 9.31703 5.08602 10.7478 5.08602C19.5843 5.08602 21.6992 6.66693 22.7304 14.043C22.8877 15.1681 22.982 16.1583 22.9977 17.0287M7 5.22825C1.44048 5.7499 0.405389 7.86123 1.26962 14.043C2.30081 21.4191 4.41574 23 13.2522 23C20.7409 23 23.0846 21.8646 22.9977 17.0287M7 5.22825C7 5.22825 6.84778 4.30766 7 3.09558C7.37497 0.109886 19.6971 0.499858 20.9999 3.09558C22.9981 7.07641 22.9977 17.0287 22.9977 17.0287" stroke="#ABAFD1" stroke-width="2" stroke-linecap="round" stroke-linejoin="round"/>
<path fill-rule="evenodd" clip-rule="evenodd" d="M11.9872 12C12.5395 12 12.9872 12.4477 12.9872 13C12.9872 13.5523 12.5395 14 11.9872 14L7.97438 14C7.4221 14 6.97438 13.5523 6.97438 13C6.97438 12.4477 7.42209 12 7.97438 12H11.9872ZM16 16.0136C16.5523 16.0136 17 16.4613 17 17.0136C17 17.5659 16.5523 18.0136 16 18.0136L7.97439 18.0136C7.42211 18.0136 6.97439 17.5659 6.97439 17.0136C6.97439 16.4613 7.42211 16.0136 7.97439 16.0136L16 16.0136Z" fill="#ABAFD1"/>
</svg>
