<svg width="24" height="24" viewBox="0 0 24 24" fill="none" xmlns="http://www.w3.org/2000/svg">
<path d="M1 12C1 16.4446 1.75367 19.0895 3.33211 20.6679C4.91055 22.2463 7.5554 23 12 23C16.4446 23 19.0895 22.2463 20.6679 20.6679C22.2463 19.0895 23 16.4446 23 12C23 7.5554 22.2463 4.91055 20.6679 3.33211C19.0895 1.75367 16.4446 1 12 1C7.5554 1 4.91055 1.75367 3.33211 3.33211C1.75367 4.91055 1 7.5554 1 12Z" stroke="#ABAFD1" stroke-width="2" stroke-linecap="round" stroke-linejoin="round"/>
<path d="M12 16C9.79086 16 8 14.2091 8 12C8 9.79086 9.79086 8 12 8C14.2091 8 16 9.79086 16 12C16 14.2091 14.2091 16 12 16Z" stroke="#ABAFD1" stroke-width="2"/>
<path fill-rule="evenodd" clip-rule="evenodd" d="M6.18559 0.64917C7.2782 1.36324 8.00018 2.59728 8.00018 3.99994C8.00018 6.20908 6.20932 7.99994 4.00018 7.99994C2.59752 7.99994 1.36348 7.27796 0.649414 6.18535C1.01118 4.9199 1.535 3.87892 2.24755 3.03571C2.08989 3.32166 2.00018 3.65032 2.00018 3.99994C2.00018 5.10451 2.89562 5.99994 4.00018 5.99994C5.10475 5.99994 6.00018 5.10451 6.00018 3.99994C6.00018 2.89537 5.10475 1.99994 4.00018 1.99994C3.65057 1.99994 3.3219 2.08965 3.03595 2.2473C3.87917 1.53475 4.92015 1.01094 6.18559 0.64917Z" fill="#ABAFD1"/>
<path fill-rule="evenodd" clip-rule="evenodd" d="M6.18559 23.3508C7.2782 22.6368 8.00018 21.4027 8.00018 20.0001C8.00018 17.7909 6.20932 16.0001 4.00018 16.0001C2.59752 16.0001 1.36348 16.722 0.649414 17.8147C1.01118 19.0801 1.535 20.1211 2.24755 20.9643C2.08989 20.6783 2.00018 20.3497 2.00018 20.0001C2.00018 18.8955 2.89562 18.0001 4.00018 18.0001C5.10475 18.0001 6.00018 18.8955 6.00018 20.0001C6.00018 21.1046 5.10475 22.0001 4.00018 22.0001C3.65057 22.0001 3.3219 21.9104 3.03595 21.7527C3.87917 22.4652 4.92015 22.9891 6.18559 23.3508Z" fill="#ABAFD1"/>
<path fill-rule="evenodd" clip-rule="evenodd" d="M17.8144 0.64917C16.7218 1.36324 15.9998 2.59728 15.9998 3.99994C15.9998 6.20908 17.7907 7.99994 19.9998 7.99994C21.4025 7.99994 22.6365 7.27796 23.3506 6.18535C22.9888 4.9199 22.465 3.87892 21.7525 3.03571C21.9101 3.32166 21.9998 3.65032 21.9998 3.99994C21.9998 5.10451 21.1044 5.99994 19.9998 5.99994C18.8952 5.99994 17.9998 5.10451 17.9998 3.99994C17.9998 2.89537 18.8952 1.99994 19.9998 1.99994C20.3494 1.99994 20.6781 2.08965 20.964 2.2473C20.1208 1.53475 19.0799 1.01094 17.8144 0.64917Z" fill="#ABAFD1"/>
<path fill-rule="evenodd" clip-rule="evenodd" d="M17.8144 23.3508C16.7218 22.6368 15.9998 21.4027 15.9998 20.0001C15.9998 17.7909 17.7907 16.0001 19.9998 16.0001C21.4025 16.0001 22.6365 16.722 23.3506 17.8147C22.9888 19.0801 22.465 20.1211 21.7525 20.9643C21.9101 20.6783 21.9998 20.3497 21.9998 20.0001C21.9998 18.8955 21.1044 18.0001 19.9998 18.0001C18.8952 18.0001 17.9998 18.8955 17.9998 20.0001C17.9998 21.1046 18.8952 22.0001 19.9998 22.0001C20.3494 22.0001 20.6781 21.9104 20.964 21.7527C20.1208 22.4652 19.0799 22.9891 17.8144 23.3508Z" fill="#ABAFD1"/>
</svg>
