<svg width="24" height="24" viewBox="0 0 24 24" fill="none" xmlns="http://www.w3.org/2000/svg">
<path d="M3 11C3 21.2222 3 23 12 23C21 23 21 21.2222 21 11" stroke="#ABAFD1" stroke-width="2" stroke-linecap="round" stroke-linejoin="round"/>
<path d="M12.0001 3.5C12.0001 2.12109 10.8808 1 9.50009 1C8.11938 1 7.00009 2.11929 7.00009 3.5C7.00009 4.88071 8.11938 6 9.50009 6H12.0001M12.0001 3.5C12.0001 4.47631 12.0001 6 12.0001 6M12.0001 3.5C12.0001 2.12109 13.1194 1 14.5001 1C15.8808 1 17.0001 2.11929 17.0001 3.5C17.0001 4.88071 15.8148 6 14.5001 6C13.2501 6 12.0001 6 12.0001 6M12.0001 6V23M12.0001 6C12.0001 6 18 6 20 6C22 6 23 6.5 23 8.5C23 10.5 22 11 20 11C18 11 5 11 3.5 11C2 11 1 10.5 1 8.5C1 6.5 1.88228 6 3.5 6C5.11772 6 12.0001 6 12.0001 6Z" stroke="#ABAFD1" stroke-width="2" stroke-linecap="round" stroke-linejoin="round"/>
</svg>
