<svg width="28" height="24" viewBox="0 0 28 24" fill="none" xmlns="http://www.w3.org/2000/svg">
<path d="M1 19C1 19.9834 1.09792 20.6606 1.29247 21.1469C1.47095 21.593 1.74358 21.9128 2.20633 22.1699C2.70523 22.4471 3.45205 22.6649 4.58956 22.8053C5.71904 22.9448 7.1593 23 9 23C10.8407 23 12.281 22.9448 13.4104 22.8053C14.5479 22.6649 15.2948 22.4471 15.7937 22.1699C16.2564 21.9128 16.5291 21.593 16.7075 21.1469C16.9021 20.6606 17 19.9834 17 19C17 18.0166 16.9021 17.3394 16.7075 16.8531C16.5291 16.407 16.2564 16.0872 15.7937 15.8301C15.2948 15.5529 14.5479 15.3351 13.4104 15.1947C12.281 15.0552 10.8407 15 9 15C7.1593 15 5.71904 15.0552 4.58956 15.1947C3.45205 15.3351 2.70523 15.5529 2.20633 15.8301C1.74358 16.0872 1.47095 16.407 1.29247 16.8531C1.09792 17.3394 1 18.0166 1 19Z" stroke="#ABAFD1" stroke-width="2" stroke-linecap="round" stroke-linejoin="round"/>
<circle r="5" transform="matrix(-1 0 0 1 9 6)" stroke="#ABAFD1" stroke-width="2"/>
<path d="M17 3C19.4 3 21 5 21 7C21 9 19.4 11 17 11" stroke="#ABAFD1" stroke-width="2" stroke-linecap="round" stroke-linejoin="round"/>
<path d="M21.1333 21C24.8667 21 27 20.5 27 17.5C27 14.5 24.8667 14 19 14" stroke="#ABAFD1" stroke-width="2" stroke-linecap="round" stroke-linejoin="round"/>
</svg>
