<svg width="24" height="22" viewBox="0 0 24 22" fill="none" xmlns="http://www.w3.org/2000/svg">
<path fill-rule="evenodd" clip-rule="evenodd" d="M5 7.00001L4.99998 7.00595C8.27815 7.08936 9 8.07459 9 11.9999C9 16.1174 8.20575 16.9999 4.5 16.9999C0.79425 16.9999 0 16.1174 0 11.9999C0 8.50934 0.570808 7.34366 3.00239 7.06962C3.0008 7.04662 3 7.02341 3 7.00001C3 4.33194 4.15833 2.50726 5.94565 1.40392C7.6608 0.345133 9.86857 -3.8147e-06 11.9668 0C14.0625 3.8147e-06 16.2849 0.337951 18.0156 1.39083C19.8199 2.48848 21 4.31338 21 7.00001C21 7.02341 20.9992 7.04662 20.9976 7.06962C23.4292 7.34366 24 8.50934 24 11.9999C24 16.1174 23.2057 16.9999 19.5 16.9999C15.7943 16.9999 15 16.1174 15 11.9999C15 8.07459 15.7219 7.08936 19 7.00595C19 7.00397 19 7.00199 19 7.00001C19 5.00705 18.1801 3.83195 16.9761 3.09949C15.6985 2.32227 13.9043 2 11.9668 2C10.0318 2 8.25617 2.32799 6.99623 3.10577C5.80846 3.839 5 5.01433 5 7.00001ZM2.14316 14.126C2.04985 13.6595 2 12.9887 2 11.9999C2 11.0112 2.04985 10.3404 2.14316 9.87389C2.23408 9.41935 2.33887 9.30277 2.34693 9.29381L2.34708 9.29365C2.35708 9.28244 2.60909 8.99995 4.5 8.99995C6.39091 8.99995 6.64292 9.28244 6.65292 9.29365L6.65307 9.29381C6.66113 9.30277 6.76592 9.41935 6.85684 9.87389C6.95015 10.3404 7 11.0112 7 11.9999C7 12.9887 6.95015 13.6595 6.85684 14.126C6.76592 14.5805 6.66113 14.6971 6.65307 14.7061L6.65292 14.7062C6.64292 14.7174 6.39092 14.9999 4.5 14.9999C2.60909 14.9999 2.35708 14.7175 2.34708 14.7062L2.34693 14.7061C2.33887 14.6971 2.23408 14.5805 2.14316 14.126ZM17 11.9999C17 12.9887 17.0499 13.6595 17.1432 14.126C17.2341 14.5805 17.3389 14.6971 17.3469 14.7061L17.3471 14.7062C17.3571 14.7174 17.6091 14.9999 19.5 14.9999C21.3909 14.9999 21.6429 14.7175 21.6529 14.7062L21.6531 14.7061C21.6611 14.6971 21.7659 14.5805 21.8568 14.126C21.9501 13.6595 22 12.9887 22 11.9999C22 11.0112 21.9501 10.3404 21.8568 9.87389C21.7659 9.41935 21.6611 9.30277 21.6531 9.29381L21.6529 9.29365C21.6429 9.28244 21.3909 8.99995 19.5 8.99995C17.6091 8.99995 17.3571 9.28245 17.3471 9.29365L17.3469 9.29381C17.3389 9.30277 17.2341 9.41935 17.1432 9.87389C17.0499 10.3404 17 11.0112 17 11.9999Z" fill="#ABAFD1"/>
<path d="M9 21C8.68891 21 8.35002 21 8.0001 21C5.79096 21 4 19.2091 4 17V17" stroke="#ABAFD1" stroke-width="2" stroke-linecap="round" stroke-linejoin="round"/>
</svg>
