<svg width="24" height="24" viewBox="0 0 24 24" fill="none" xmlns="http://www.w3.org/2000/svg">
<path d="M1.71205 19.2165C0.731983 14.7378 0.979718 10.7505 1.19878 9.21903C1.22156 9.18083 1.26188 9.12096 1.3271 9.03762C1.47501 8.84861 1.70084 8.60214 2.00458 8.30278C2.60899 7.7071 3.44945 6.97258 4.4089 6.17899C6.32335 4.59548 8.64444 2.83178 10.3366 1.57188C11.3568 0.812318 12.7404 0.80911 13.7633 1.5639C15.4695 2.82291 17.8111 4.58864 19.7304 6.17389C20.6926 6.96861 21.53 7.70271 22.1245 8.29655C22.4236 8.59528 22.6406 8.8382 22.778 9.02132C22.8258 9.08503 22.8572 9.13255 22.8767 9.16498C22.9852 10.7948 23.2496 14.7791 22.3719 19.2371C22.1475 20.3774 21.7303 21.0875 21.1279 21.5714C20.5005 22.0755 19.5539 22.4301 18.0887 22.6131C17.3588 22.7043 16.6359 22.7793 15.9182 22.8382C13.272 23.0553 10.6918 23.0539 8.08393 22.8342C7.39282 22.776 6.69945 22.7024 6.00208 22.6135C4.54036 22.427 3.60663 22.0692 2.98443 21.5644C2.38303 21.0765 1.96249 20.361 1.71205 19.2165ZM1.18016 9.25341C1.18007 9.25344 1.18083 9.25163 1.1827 9.2479C1.18118 9.25152 1.18025 9.25338 1.18016 9.25341ZM22.9016 9.2113C22.9014 9.21126 22.9003 9.20897 22.8986 9.20457C22.9008 9.20914 22.9017 9.21135 22.9016 9.2113Z" stroke="#ABAFD1" stroke-width="2" stroke-linecap="round" stroke-linejoin="round"/>
</svg>
