<svg width="16" height="24" viewBox="0 0 16 24" fill="none" xmlns="http://www.w3.org/2000/svg">
<path d="M11.921 4.20403C12.1138 5.16013 12.8688 5.83724 13.6547 6.10934C14.4391 6.3809 15 7.12624 15 8C15 9.10457 14.1046 10 13 10H3C1.89543 10 1 9.10457 1 8C1 7.12624 1.56091 6.3809 2.34527 6.10934L2.01811 5.16437L2.34527 6.10934C3.1312 5.83724 3.88622 5.16013 4.079 4.20403C4.44755 2.37613 6.06419 1 8 1C9.93581 1 11.5524 2.37613 11.921 4.20403Z" stroke="#ABAFD1" stroke-width="2"/>
<path d="M4 11C4.92025 21.1111 5.99518 23 7.99759 23C10 23 11.0796 21.1111 12 11" stroke="#ABAFD1" stroke-width="2" stroke-linecap="round" stroke-linejoin="round"/>
</svg>
