<svg width="24" height="24" viewBox="0 0 24 24" fill="none" xmlns="http://www.w3.org/2000/svg">
<path d="M8.96908 17.617C10.1112 15.5966 10.6823 14.5865 11.4825 14.3675C11.8216 14.2747 12.1787 14.2747 12.5178 14.3675C13.318 14.5865 13.8891 15.5966 15.0313 17.617C16.1734 19.6374 16.7445 20.6476 16.5301 21.4648C16.4392 21.8112 16.2607 22.127 16.0125 22.3805C15.4267 22.9787 14.2845 22.9787 12.0002 22.9787C9.71583 22.9787 8.57366 22.9787 7.98788 22.3805C7.73963 22.127 7.5611 21.8112 7.47024 21.4648C7.25582 20.6476 7.82691 19.6374 8.96908 17.617Z" stroke="#ABAFD1" stroke-width="2"/>
<path fill-rule="evenodd" clip-rule="evenodd" d="M2 10.2128C2 14.4498 2.59105 16.0993 3.59049 16.9499C4.11278 17.3944 4.93177 17.7833 6.32772 18.0473C7.06944 18.1876 7.93256 18.2853 8.94085 18.3462C8.41613 19.2151 8.09349 19.809 8.01744 20.2842C1.5239 19.7262 0 17.3466 0 10.2128C0 1.80256 2.118 5.72205e-06 12 5.72205e-06C21.882 5.72205e-06 24 1.80256 24 10.2128C24 17.3466 22.4761 19.7262 15.9826 20.2842C15.9065 19.809 15.5839 19.2151 15.0591 18.3462C16.0674 18.2853 16.9306 18.1876 17.6723 18.0473C19.0682 17.7833 19.8872 17.3944 20.4095 16.9499C21.409 16.0993 22 14.4498 22 10.2128C22 5.97575 21.409 4.32623 20.4095 3.47564C19.8872 3.03114 19.0682 2.64226 17.6723 2.37822C16.2694 2.11288 14.4323 2.00001 12 2.00001C9.56774 2.00001 7.73057 2.11288 6.32772 2.37822C4.93177 2.64226 4.11278 3.03114 3.59049 3.47564C2.59105 4.32623 2 5.97575 2 10.2128Z" fill="#ABAFD1"/>
</svg>
