<svg width="24" height="24" viewBox="0 0 24 24" fill="none" xmlns="http://www.w3.org/2000/svg">
<path d="M0.999994 12C0.999994 13.0774 1.02555 14.0522 1.08313 14.9349C1.31784 18.5326 2.07368 20.3821 3.51693 21.4401C5.04404 22.5597 7.58753 23 12 23C16.4125 23 18.9559 22.5597 20.4831 21.4401C21.9263 20.3821 22.6821 18.5326 22.9169 14.9349C22.9744 14.0522 23 13.0774 23 12C23 9.55232 22.8675 7.65366 22.5385 6.17298C22.2119 4.70365 21.7052 3.70794 20.9986 3.00136C20.2921 2.29478 19.2963 1.78807 17.827 1.46153C16.3463 1.13246 14.4477 1 12 1C9.55232 1 7.65366 1.13246 6.17297 1.46153C4.70365 1.78807 3.70793 2.29478 3.00135 3.00136C2.29477 3.70794 1.78807 4.70365 1.46152 6.17298C1.13245 7.65366 0.999994 9.55232 0.999994 12Z" stroke="#ABAFD1" stroke-width="2" stroke-linecap="round" stroke-linejoin="round"/>
</svg>
