<svg width="24" height="24" viewBox="0 0 24 24" fill="none" xmlns="http://www.w3.org/2000/svg">
<path fill-rule="evenodd" clip-rule="evenodd" d="M6 12C6 13.1046 6.89543 14 8 14C9.10457 14 10 13.1046 10 12C10 10.8954 9.10457 10 8 10C6.89543 10 6 10.8954 6 12ZM4 12C4 14.2091 5.79086 16 8 16C9.86658 16 11.4345 14.7215 11.8759 12.9924C11.9166 12.9974 11.958 13 12 13H14V14C14 14.5523 14.4477 15 15 15C15.5523 15 16 14.5523 16 14V13H18V15C18 15.5523 18.4477 16 19 16C19.5523 16 20 15.5523 20 15V12C20 11.4477 19.5523 11 19 11H15H12C11.958 11 11.9166 11.0026 11.8759 11.0076C11.4345 9.27853 9.86658 8 8 8C5.79086 8 4 9.79086 4 12Z" fill="#ABAFD1"/>
<path d="M1 12C1 14.4477 1.13246 16.3463 1.46153 17.827C1.78807 19.2963 2.29478 20.2921 3.00136 20.9986C3.70794 21.7052 4.70365 22.2119 6.17298 22.5385C7.65366 22.8675 9.55232 23 12 23C14.4477 23 16.3463 22.8675 17.827 22.5385C19.2963 22.2119 20.2921 21.7052 20.9986 20.9986C21.7052 20.2921 22.2119 19.2963 22.5385 17.827C22.8675 16.3463 23 14.4477 23 12C23 9.55232 22.8675 7.65366 22.5385 6.17298C22.2119 4.70365 21.7052 3.70794 20.9986 3.00136C20.2921 2.29478 19.2963 1.78807 17.827 1.46153C16.3463 1.13246 14.4477 1 12 1C9.55232 1 7.65366 1.13246 6.17298 1.46153C4.70365 1.78807 3.70794 2.29478 3.00136 3.00136C2.29478 3.70794 1.78807 4.70365 1.46153 6.17298C1.13246 7.65366 1 9.55232 1 12Z" stroke="#ABAFD1" stroke-width="2" stroke-linecap="round" stroke-linejoin="round"/>
</svg>
