<svg width="24" height="16" viewBox="0 0 24 16" fill="none" xmlns="http://www.w3.org/2000/svg">
<path d="M1 8C1 9.76712 1.06569 11.039 1.29923 11.9893C1.52156 12.894 1.87816 13.4355 2.44169 13.8231C3.05394 14.2442 4.01666 14.5577 5.60451 14.7499C7.18007 14.9405 9.2524 15 12 15C14.7476 15 16.8199 14.9405 18.3955 14.7499C19.9833 14.5577 20.9461 14.2442 21.5583 13.8231C22.1218 13.4355 22.4784 12.894 22.7008 11.9893C22.9343 11.039 23 9.76712 23 8C23 6.23288 22.9343 4.96103 22.7008 4.01071C22.4784 3.106 22.1218 2.56446 21.5583 2.17687C20.9461 1.75578 19.9833 1.44225 18.3955 1.25011C16.8199 1.05945 14.7476 1 12 1C9.2524 1 7.18007 1.05945 5.60451 1.25011C4.01666 1.44225 3.05394 1.75578 2.44169 2.17687C1.87816 2.56446 1.52156 3.106 1.29923 4.01071C1.06569 4.96103 1 6.23288 1 8Z" stroke="#ABAFD1" stroke-width="2" stroke-linecap="round" stroke-linejoin="round"/>
<path d="M17 6H19M8 10H16" stroke="#ABAFD1" stroke-width="2" stroke-linecap="round" stroke-linejoin="round"/>
<path fill-rule="evenodd" clip-rule="evenodd" d="M5 7C5.55228 7 6 6.55228 6 6C6 5.44772 5.55228 5 5 5C4.44772 5 4 5.44772 4 6C4 6.55228 4.44772 7 5 7ZM5 11C5.55228 11 6 10.5523 6 10C6 9.44772 5.55228 9 5 9C4.44772 9 4 9.44772 4 10C4 10.5523 4.44772 11 5 11ZM9 6C9 6.55228 8.55228 7 8 7C7.44772 7 7 6.55228 7 6C7 5.44772 7.44772 5 8 5C8.55228 5 9 5.44772 9 6ZM11 7C11.5523 7 12 6.55228 12 6C12 5.44772 11.5523 5 11 5C10.4477 5 10 5.44772 10 6C10 6.55228 10.4477 7 11 7ZM15 6C15 6.55228 14.5523 7 14 7C13.4477 7 13 6.55228 13 6C13 5.44772 13.4477 5 14 5C14.5523 5 15 5.44772 15 6ZM19 11C19.5523 11 20 10.5523 20 10C20 9.44772 19.5523 9 19 9C18.4477 9 18 9.44772 18 10C18 10.5523 18.4477 11 19 11Z" fill="#ABAFD1"/>
</svg>
