<svg width="24" height="12" viewBox="0 0 24 12" fill="none" xmlns="http://www.w3.org/2000/svg">
<path fill-rule="evenodd" clip-rule="evenodd" d="M9 0.992195C9 0.428951 8.53256 -0.0246016 7.9699 0.00103596C2.07952 0.269431 0 1.4517 0 6C0 10.5483 2.07952 11.7306 7.9699 11.999C8.53256 12.0246 9 11.571 9 11.0078C9 10.4663 8.56897 10.0246 8.02803 9.99955C7.48396 9.97438 6.97948 9.94121 6.51129 9.89815C5.04605 9.7634 4.08107 9.54253 3.43832 9.25642C2.85776 8.998 2.57538 8.705 2.39012 8.34265C2.17191 7.91586 2 7.21286 2 6C2 4.78714 2.17191 4.08413 2.39012 3.65734C2.57538 3.29499 2.85776 3.002 3.43832 2.74357C4.08107 2.45746 5.04605 2.2366 6.51129 2.10184C6.97948 2.05878 7.48396 2.02562 8.02803 2.00044C8.56897 1.97541 9 1.53371 9 0.992195ZM15 11.0078C15 10.4663 15.431 10.0246 15.972 9.99955C16.516 9.97438 17.0205 9.94121 17.4887 9.89815C18.954 9.7634 19.9189 9.54253 20.5617 9.25642C21.1422 8.998 21.4246 8.705 21.6099 8.34265C21.8281 7.91586 22 7.21286 22 6C22 4.78714 21.8281 4.08413 21.6099 3.65734C21.4246 3.29499 21.1422 3.002 20.5617 2.74357C19.9189 2.45746 18.954 2.2366 17.4887 2.10184C17.0205 2.05878 16.516 2.02562 15.972 2.00044C15.431 1.97541 15 1.53371 15 0.992195C15 0.428951 15.4674 -0.0246016 16.0301 0.00103593C21.9205 0.26943 24 1.4517 24 6C24 10.5483 21.9205 11.7306 16.0301 11.999C15.4674 12.0246 15 11.571 15 11.0078Z" fill="#ABAFD1"/>
<path d="M7 6H17" stroke="#ABAFD1" stroke-width="2" stroke-linecap="round" stroke-linejoin="round"/>
</svg>
