<svg width="24" height="24" viewBox="0 0 24 24" fill="none" xmlns="http://www.w3.org/2000/svg">
<path d="M1.15619 11.8066C1.69002 14.5151 3.3918 16.797 5.38916 18.6148C7.38064 20.4272 9.59112 21.7094 10.995 22.4252C11.6337 22.7509 12.3663 22.7509 13.005 22.4252C14.4089 21.7094 16.6194 20.4272 18.6109 18.6148C20.6082 16.797 22.31 14.5151 22.8438 11.8066C23.2851 9.56748 22.8144 6.86895 21.1467 4.74202C19.5028 2.64529 16.6113 1 12 1C7.38872 1 4.49725 2.6453 2.85325 4.74203C1.18557 6.86895 0.714877 9.56748 1.15619 11.8066Z" stroke="#ABAFD1" stroke-width="2" stroke-linecap="round" stroke-linejoin="round"/>
<circle r="3" transform="matrix(-1 0 0 1 12 10)" stroke="#ABAFD1" stroke-width="2"/>
</svg>
