<svg width="24" height="27" viewBox="0 0 24 27" fill="none" xmlns="http://www.w3.org/2000/svg">
<path d="M1 15C1 17.4477 1.13246 19.3463 1.46153 20.827C1.78807 22.2963 2.29478 23.2921 3.00136 23.9986C3.70794 24.7052 4.70365 25.2119 6.17298 25.5385C7.65366 25.8675 9.55232 26 12 26C14.4477 26 16.3463 25.8675 17.827 25.5385C19.2963 25.2119 20.2921 24.7052 20.9986 23.9986C21.7052 23.2921 22.2119 22.2963 22.5385 20.827C22.8675 19.3463 23 17.4477 23 15C23 12.5523 22.8675 10.6537 22.5385 9.17298C22.2119 7.70365 21.7052 6.70794 20.9986 6.00136C20.2921 5.29478 19.2963 4.78807 17.827 4.46153C16.3463 4.13246 14.4477 4 12 4C9.55232 4 7.65366 4.13246 6.17298 4.46153C4.70365 4.78807 3.70794 5.29478 3.00136 6.00136C2.29478 6.70794 1.78807 7.70365 1.46153 9.17298C1.13246 10.6537 1 12.5523 1 15Z" stroke="#ABAFD1" stroke-width="2" stroke-linecap="round" stroke-linejoin="round"/>
<path fill-rule="evenodd" clip-rule="evenodd" d="M10 0C10.5523 0 11 0.447715 11 1V2H13V1C13 0.447715 13.4477 0 14 0C14.5523 0 15 0.447715 15 1V2H16C17.1046 2 18 2.89543 18 4C18 5.10457 17.1046 6 16 6H8C6.89543 6 6 5.10457 6 4C6 2.89543 6.89543 2 8 2H9V1C9 0.447715 9.44772 0 10 0Z" fill="#ABAFD1"/>
<path d="M7 21H17" stroke="#ABAFD1" stroke-width="2" stroke-linecap="round" stroke-linejoin="round"/>
</svg>
