<svg width="28" height="16" viewBox="0 0 28 16" fill="none" xmlns="http://www.w3.org/2000/svg">
<path fill-rule="evenodd" clip-rule="evenodd" d="M0.649148 8.43636C0.132028 8.24244 -0.129978 7.66602 0.0639418 7.1489C0.257862 6.63178 0.834274 6.36978 1.35139 6.5637L5.35139 8.0637C5.86852 8.25762 6.13052 8.83403 5.9366 9.35115C5.74268 9.86827 5.16627 10.1303 4.64915 9.93636L0.649148 8.43636ZM27.3514 8.43636C27.8685 8.24244 28.1305 7.66602 27.9366 7.1489C27.7427 6.63178 27.1663 6.36978 26.6491 6.5637L22.6491 8.0637C22.132 8.25762 21.87 8.83403 22.0639 9.35115C22.2579 9.86827 22.8343 10.1303 23.3514 9.93636L27.3514 8.43636Z" fill="#ABAFD1"/>
<path d="M19.1985 7C19.1985 7 18.2831 7.38906 17.5318 7.57143C16.3972 7.84687 15.5888 8 14.1985 8C12.8082 8 11.9998 7.84687 10.8652 7.57143C10.1139 7.38906 9.19849 7 9.19849 7" stroke="#ABAFD1" stroke-width="2" stroke-linecap="round" stroke-linejoin="round"/>
<path d="M19.1985 10C19.1985 10 18.2831 10.3891 17.5318 10.5714C16.3972 10.8469 15.5888 11 14.1985 11C12.8082 11 11.9998 10.8469 10.8652 10.5714C10.1139 10.3891 9.19849 10 9.19849 10" stroke="#ABAFD1" stroke-width="2" stroke-linecap="round" stroke-linejoin="round"/>
<path fill-rule="evenodd" clip-rule="evenodd" d="M27.0002 0.999982L27.4405 1.89783C27.9364 1.65466 28.1412 1.05555 27.8981 0.559683C27.6549 0.0638448 27.0559 -0.141014 26.56 0.102084L26.56 0.102103L26.5599 0.102131L26.5592 0.102496L26.555 0.104522L26.5368 0.11339L26.4623 0.14924C26.3965 0.180761 26.2993 0.226893 26.1761 0.284174C25.9296 0.398837 25.5803 0.557627 25.1716 0.733032C24.3464 1.08722 23.3104 1.49553 22.3972 1.75133C19.5009 2.56258 17.4941 2.99998 14.0002 2.99998C10.5063 2.99998 8.49957 2.56258 5.60328 1.75133C4.69005 1.49553 3.65407 1.08722 2.82885 0.733031C2.42018 0.557626 2.07089 0.398836 1.82435 0.284173C1.70119 0.226892 1.60396 0.18076 1.53812 0.149239L1.46367 0.113389L1.44542 0.104521L1.44127 0.102495L1.44053 0.10213L1.44043 0.102083L1.44041 0.102072C0.944559 -0.141008 0.345526 0.0638513 0.102373 0.559681C-0.140796 1.05555 0.0640566 1.65466 0.559925 1.89783L1.00023 0.999981C0.559925 1.89783 0.559996 1.89787 0.560076 1.8979L0.56028 1.898L0.56085 1.89828L0.562643 1.89916L0.568804 1.90217L0.591198 1.91306L0.674498 1.95317C0.746449 1.98761 0.850432 2.03694 0.980925 2.09763C1.2417 2.21891 1.60951 2.38612 2.04002 2.5709C2.34605 2.70225 2.6878 2.84423 3.04826 2.98577C3.31032 5.31816 3.56978 7.27493 3.92768 8.88841C4.30391 10.5845 4.8064 11.9886 5.60386 13.0874C7.27272 15.3867 9.95899 16 14.0003 16C18.0417 16 20.7249 15.3867 22.392 13.0869C23.1883 11.9883 23.6903 10.5844 24.0671 8.88877C24.4256 7.27542 24.6867 5.31852 24.9518 2.98593C25.3124 2.84434 25.6543 2.7023 25.9604 2.5709C26.3909 2.38612 26.7588 2.21892 27.0195 2.09763C27.15 2.03694 27.254 1.98761 27.326 1.95317L27.4093 1.91306L27.4316 1.90217L27.4378 1.89916L27.4396 1.89829L27.4402 1.89801L27.4404 1.89791C27.4405 1.89787 27.4405 1.89783 27.0002 0.999982ZM22.8552 3.69997C19.8928 4.52728 17.7019 4.99998 14.0002 4.99998C10.2979 4.99998 8.10686 4.5271 5.14359 3.69951C5.36775 5.59656 5.59293 7.16015 5.88022 8.4553C6.23184 10.0404 6.65904 11.1363 7.22246 11.9126C8.27534 13.3632 10.0356 14 14.0003 14C17.9649 14 19.7214 13.3633 20.7727 11.9131C21.3355 11.1366 21.7624 10.0405 22.1147 8.45494C22.4025 7.15982 22.6288 5.59653 22.8552 3.69997Z" fill="#ABAFD1"/>
</svg>
