<svg width="25" height="22" viewBox="0 0 25 22" fill="none" xmlns="http://www.w3.org/2000/svg">
<path d="M5.08823 13.5487C2.83036 13.5487 1 11.7229 1 9.47068C1 7.21846 2.83036 5.39267 5.08823 5.39267H6.437M5.08823 13.5487C5.08823 13.5487 6.5 18.4396 7 19.9345C7.5 21.4293 10 21.4293 10 19.4362C10 17.4431 10 16.349 10 13.8088M5.08823 13.5487H6.437M10 13.8088C12.8477 14.4575 15.4867 16.1862 18.0258 17.4526C23.1139 19.9902 22.9998 11.9421 22.9998 9.47068C22.9998 6.99924 23.1139 -1.04887 18.0258 1.48881C14.8411 3.07716 11.4994 5.39267 7.78577 5.39267H6.437M10 13.8088C9.27601 13.6438 8.53853 13.5487 7.78577 13.5487H6.437M6.437 13.5487V5.39267" stroke="#ABAFD1" stroke-width="2"/>
<path d="M24 7V12" stroke="#ABAFD1" stroke-width="2" stroke-linecap="round" stroke-linejoin="round"/>
</svg>
