<svg width="24" height="22" viewBox="0 0 24 22" fill="none" xmlns="http://www.w3.org/2000/svg">
<path d="M8 16H16" stroke="#ABAFD1" stroke-width="2" stroke-linecap="round" stroke-linejoin="round"/>
<path d="M1 11C1 15.5563 1.56251 17.8696 2.96997 19.1598C3.67341 19.8046 4.67359 20.2733 6.15565 20.5752C7.64457 20.8786 9.55023 21 12 21C14.4498 21 16.3554 20.8786 17.8443 20.5752C19.3264 20.2733 20.3266 19.8046 21.03 19.1598C22.4375 17.8696 23 15.5563 23 11C23 6.44371 22.4375 4.13039 21.03 2.84022C20.3266 2.1954 19.3264 1.7267 17.8443 1.42477C16.3554 1.12145 14.4498 1 12 1C8.76038 1 6.49183 1.21386 4.88769 1.76179C3.35463 2.28545 2.4532 3.10344 1.88302 4.40203C1.25285 5.83723 1 7.91967 1 11Z" stroke="#ABAFD1" stroke-width="2" stroke-linecap="round" stroke-linejoin="round"/>
</svg>
