<svg width="24" height="24" viewBox="0 0 24 24" fill="none" xmlns="http://www.w3.org/2000/svg">
<path d="M12 1C14.4525 1 16.3618 1.11137 17.855 1.39866C19.3432 1.68498 20.3438 2.13251 21.0445 2.75018C22.4367 3.97734 23 6.19513 23 10.6667C23 13.5482 22.7413 15.6685 22.0447 17.0498C21.7104 17.7127 21.2871 18.1797 20.7543 18.4903C20.2159 18.8042 19.494 19 18.5002 19C17.2191 19 16.2575 19.2877 15.5056 19.7971C14.7717 20.2944 14.329 20.9455 13.9997 21.4637C13.9499 21.542 13.9032 21.6161 13.8591 21.6862C13.583 22.1245 13.4043 22.4082 13.1562 22.6307C12.9352 22.8291 12.6262 23 12.0003 23C11.3744 23 11.0654 22.8291 10.8443 22.6307C10.5963 22.4081 10.4176 22.1245 10.1415 21.6862C10.0974 21.6161 10.0507 21.542 10.0009 21.4636C9.67154 20.9454 9.22884 20.2944 8.4949 19.7971C7.74298 19.2877 6.7814 19 5.50024 19C4.51174 19 3.79218 18.7993 3.25388 18.4789C2.71963 18.1609 2.29353 17.6832 1.95707 17.0102C1.25807 15.612 1 13.488 1 10.6667C1 6.25195 1.56175 4.02841 2.95861 2.78674C3.66142 2.16203 4.66352 1.70608 6.14984 1.41246C7.64154 1.11777 9.54955 1 12 1Z" stroke="#ABAFD1" stroke-width="2" stroke-linecap="round" stroke-linejoin="round"/>
<path d="M7 9H11" stroke="#ABAFD1" stroke-width="2" stroke-linecap="round" stroke-linejoin="round"/>
<path d="M7 13H17" stroke="#ABAFD1" stroke-width="2" stroke-linecap="round" stroke-linejoin="round"/>
</svg>
