<svg width="18" height="22" viewBox="0 0 18 22" fill="none" xmlns="http://www.w3.org/2000/svg">
<path fill-rule="evenodd" clip-rule="evenodd" d="M13.6023 5.8517C13.7791 5.65334 13.8648 5.38882 13.8275 5.12576C13.4501 2.46092 12.3017 0 9 0C4.5 0 4 4.57143 4 8C4 9.91265 4.1556 12.181 5.07444 13.8129C5.36361 14.3265 6.05526 14.3212 6.44738 13.8811L6.50931 13.8116C6.82696 13.4551 6.83619 12.9215 6.64481 12.4841C6.13728 11.324 6 9.69112 6 8C6 6.30888 6.13728 4.676 6.64481 3.51592C6.88293 2.97167 7.16585 2.62016 7.47746 2.39912C7.77401 2.18876 8.23085 2 9 2C9.76915 2 10.226 2.18876 10.5225 2.39912C10.8341 2.62016 11.1171 2.97167 11.3552 3.51592C11.5742 4.01659 11.7243 4.60531 11.8241 5.24878C11.955 6.09241 13.0343 6.48909 13.6023 5.8517ZM7.8928 14.3631C8.13008 14.0968 8.49161 13.9853 8.84807 13.9975C8.89731 13.9991 8.94794 14 9 14C9.76915 14 10.226 13.8112 10.5225 13.6009C10.8341 13.3798 11.1171 13.0283 11.3552 12.4841C11.6395 11.8343 11.8076 11.0362 11.9005 10.1626C11.9234 9.94714 12.0099 9.74277 12.154 9.58102L13.6727 7.87673C13.7877 7.74771 14 7.82719 14 8C14 11.4286 13.5 16 9 16C8.67674 16 8.37413 15.9764 8.09086 15.9313C7.43845 15.8276 7.27579 15.0555 7.71528 14.5623L7.8928 14.3631ZM4.27329 16.3209C4.64294 15.9061 4.59345 15.2751 4.24384 14.8432C3.35151 13.7409 3 12.4335 3 11C3 10.4477 2.55228 10 2 10C1.44772 10 1 10.4477 1 11C1 12.917 1.5213 14.7992 2.91055 16.3632C3.27488 16.7734 3.90831 16.7305 4.27329 16.3209ZM5.82611 18.4285C5.24439 18.1963 5.13286 17.4604 5.54955 16.9927L5.59668 16.9399C5.89935 16.6002 6.39065 16.5169 6.8209 16.6648C7.53498 16.9102 8.26816 17 9 17C10.4581 17 11.6509 16.7103 12.8708 15.7228C14.4186 14.4698 15 12.7547 15 11C15 10.4477 15.4477 10 16 10C16.5523 10 17 10.4477 17 11C17 13.2119 16.249 15.5612 14.1292 17.2772C12.9381 18.2415 11.7396 18.709 10.4941 18.8961C10.2152 18.9381 10 19.1717 10 19.4537C10 19.7554 10.2446 20 10.5463 20H12C12.5523 20 13 20.4477 13 21C13 21.5523 12.5523 22 12 22H9H6C5.44772 22 5 21.5523 5 21C5 20.4477 5.44772 20 6 20H7.44878C7.75321 20 8 19.7532 8 19.4488C8 19.1659 7.78553 18.931 7.5062 18.8866C6.95074 18.7982 6.38698 18.6523 5.82611 18.4285Z" fill="#ABAFD1"/>
<path d="M1 19L17 1" stroke="#ABAFD1" stroke-width="2" stroke-linecap="round" stroke-linejoin="round"/>
</svg>
