<svg width="16" height="22" viewBox="0 0 16 22" fill="none" xmlns="http://www.w3.org/2000/svg">
<path d="M1 11C1 13.0721 1.6662 15.0155 3.5 16.5C4.93978 17.6655 6.5154 18 8 18M8 18L8 21L11 21L5 21M8 18C9.62678 18 11.0602 17.6655 12.5 16.5C14.3338 15.0155 15 12.9833 15 11" stroke="#ABAFD1" stroke-width="2" stroke-linecap="round" stroke-linejoin="round"/>
<path d="M8 1C7.05292 1 6.38701 1.23723 5.89889 1.58349C5.40324 1.93508 5.01959 2.45012 4.72866 3.1151C4.13114 4.48086 4 6.2973 4 8C4 9.7027 4.13114 11.5191 4.72866 12.8849C5.01959 13.5499 5.40324 14.0649 5.89889 14.4165C6.38701 14.7628 7.05292 15 8 15C8.94708 15 9.61299 14.7628 10.1011 14.4165C10.5968 14.0649 10.9804 13.5499 11.2713 12.8849C11.8689 11.5191 12 9.7027 12 8C12 6.2973 11.8689 4.48086 11.2713 3.1151C10.9804 2.45012 10.5968 1.93508 10.1011 1.58349C9.61299 1.23723 8.94708 1 8 1Z" stroke="#ABAFD1" stroke-width="2" stroke-linecap="round" stroke-linejoin="round"/>
</svg>
