<svg width="24" height="24" viewBox="0 0 24 24" fill="none" xmlns="http://www.w3.org/2000/svg">
<path d="M4 5C4 5 4.54926 4.61094 5 4.42857C5.68079 4.15313 6.16584 4 7 4C7.83416 4 8.31921 4.15313 9 4.42857C9.45074 4.61094 10 5 10 5" stroke="#ABAFD1" stroke-width="2" stroke-linecap="round" stroke-linejoin="round"/>
<path d="M1 3C1 3 2.17444 2.21447 3 1.85714C4.46612 1.22256 5.33168 1 7 1C8.66832 1 9.53388 1.22256 11 1.85714C11.8256 2.21447 13 3 13 3" stroke="#ABAFD1" stroke-width="2" stroke-linecap="round" stroke-linejoin="round"/>
<path fill-rule="evenodd" clip-rule="evenodd" d="M7 6C7.55228 6 8 6.44772 8 7V13L7.99985 13.0177C9.16595 13 10.4927 13 12 13C13.5074 13 14.8341 13 16.0002 13.0177L16 13V11C16 10.4477 16.4477 10 17 10C17.5523 10 18 10.4477 18 11V13C18 13.0255 17.999 13.0508 17.9972 13.0759C22.8008 13.3064 24 14.2378 24 18C24 21.1724 23.1474 22.332 20 22.7558V23C20 23.5523 19.5523 24 19 24C18.4477 24 18 23.5523 18 23V22.924C16.4192 23 14.4478 23 12 23C9.55225 23 7.58085 23 6 22.924V23C6 23.5523 5.55228 24 5 24C4.44772 24 4 23.5523 4 23V22.7558C0.852633 22.332 0 21.1724 0 18C0 14.2378 1.19917 13.3064 6.00283 13.0759C6.00096 13.0508 6 13.0255 6 13V7C6 6.44772 6.44772 6 7 6ZM2.27277 19.9933C2.13513 19.7192 2 19.1678 2 18C2 16.8322 2.13513 16.2808 2.27277 16.0067C2.34938 15.854 2.46368 15.6867 2.96193 15.5103C3.55418 15.3005 4.49968 15.1522 6.05429 15.0757C7.58218 15.0006 9.51071 15 12 15C14.4893 15 16.4178 15.0006 17.9457 15.0757C19.5003 15.1522 20.4458 15.3005 21.0381 15.5103C21.5363 15.6867 21.6506 15.854 21.7272 16.0067C21.8649 16.2808 22 16.8322 22 18C22 19.1678 21.8649 19.7192 21.7272 19.9933C21.6506 20.146 21.5363 20.3133 21.0381 20.4897C20.4458 20.6995 19.5003 20.8478 17.9457 20.9243C16.4178 20.9994 14.4893 21 12 21C9.51071 21 7.58218 20.9994 6.05429 20.9243C4.49968 20.8478 3.55418 20.6995 2.96193 20.4897C2.46368 20.3133 2.34938 20.146 2.27277 19.9933Z" fill="#ABAFD1"/>
<path fill-rule="evenodd" clip-rule="evenodd" d="M6 17C5.44772 17 5 17.4477 5 18C5 18.5523 5.44772 19 6 19H7C7.55228 19 8 18.5523 8 18C8 17.4477 7.55228 17 7 17H6ZM10 17C9.44772 17 9 17.4477 9 18C9 18.5523 9.44772 19 10 19H18C18.5523 19 19 18.5523 19 18C19 17.4477 18.5523 17 18 17H10Z" fill="#ABAFD1"/>
</svg>
