<svg width="24" height="25" viewBox="0 0 24 25" fill="none" xmlns="http://www.w3.org/2000/svg">
<path d="M23 16.8507L23.9248 17.2311C24.0834 16.8454 23.9861 16.4017 23.6805 16.1179C23.3749 15.8341 22.9253 15.7698 22.5523 15.9565L23 16.8507ZM10.0156 0.999983L10.8225 1.59056C11.0681 1.25499 11.0804 0.802458 10.8534 0.454057C10.6264 0.105656 10.2074 -0.0658964 9.80127 0.0232134L10.0156 0.999983ZM18.395 16.9366C13.1984 16.9366 8.95779 12.6496 8.95779 7.32663L6.95779 7.32663C6.95779 13.7231 12.063 18.9366 18.395 18.9366L18.395 16.9366ZM22.5523 15.9565C21.2988 16.584 19.8885 16.9366 18.395 16.9366L18.395 18.9366C20.2072 18.9366 21.9232 18.508 23.4476 17.7449L22.5523 15.9565ZM22.0751 16.4703C20.4946 20.3132 16.769 22.9976 12.4404 22.9976L12.4404 24.9976C17.6227 24.9976 22.0525 21.7832 23.9248 17.2311L22.0751 16.4703ZM12.4404 22.9976C6.6898 22.9976 2.00008 18.254 2.00008 12.3679L8.31893e-05 12.3679C8.28851e-05 19.3275 5.55442 24.9976 12.4404 24.9976L12.4404 22.9976ZM2.00008 12.3679C2.00008 7.2595 5.53602 3.00652 10.2298 1.97675L9.80127 0.0232134C4.18786 1.25472 8.34536e-05 6.3221 8.31893e-05 12.3679L2.00008 12.3679ZM8.95779 7.32663C8.95779 5.17392 9.6517 3.19043 10.8225 1.59056L9.20858 0.409406C7.79388 2.34248 6.95779 4.73753 6.95779 7.32663L8.95779 7.32663Z" fill="#ABAFD1"/>
</svg>
