<svg width="24" height="25" viewBox="0 0 24 25" fill="none" xmlns="http://www.w3.org/2000/svg">
<path d="M23 16.8507L23.9248 17.231C24.0834 16.8453 23.9861 16.4017 23.6805 16.1179C23.3749 15.8341 22.9253 15.7698 22.5523 15.9564L23 16.8507ZM10.0154 0.999976L10.8224 1.59055C11.068 1.25498 11.0803 0.802451 10.8533 0.45405C10.6263 0.105648 10.2073 -0.0659041 9.80115 0.0232065L10.0154 0.999976ZM18.3949 16.9365C13.1983 16.9365 8.95767 12.6496 8.95767 7.32661L6.95767 7.32661C6.95767 13.7231 12.0629 18.9365 18.3949 18.9365L18.3949 16.9365ZM22.5523 15.9564C21.2988 16.584 19.8885 16.9365 18.3949 16.9365L18.3949 18.9365C20.2072 18.9365 21.9232 18.508 23.4476 17.7449L22.5523 15.9564ZM22.0751 16.4703C20.4946 20.3131 16.7689 22.9976 12.4404 22.9976L12.4404 24.9976C17.6227 24.9976 22.0525 21.7831 23.9248 17.231L22.0751 16.4703ZM12.4404 22.9976C6.6897 22.9976 1.99995 18.254 1.99995 12.3679L-4.68744e-05 12.3679C-4.71786e-05 19.3275 5.55432 24.9976 12.4404 24.9976L12.4404 22.9976ZM1.99995 12.3679C1.99995 7.2595 5.53589 3.00653 10.2297 1.97675L9.80115 0.0232065C4.18774 1.25473 -4.66102e-05 6.3221 -4.68744e-05 12.3679L1.99995 12.3679ZM8.95767 7.32661C8.95767 5.17391 9.65158 3.19043 10.8224 1.59055L9.20846 0.409398C7.79376 2.34247 6.95767 4.73752 6.95767 7.32661L8.95767 7.32661Z" fill="#ABAFD1"/>
<path d="M17.3435 2.77415C17.569 2.16472 18.431 2.16472 18.6565 2.77415L19.5088 5.07759C19.5797 5.26919 19.7308 5.42026 19.9224 5.49116L22.2258 6.3435C22.8353 6.56901 22.8353 7.43099 22.2258 7.6565L19.9224 8.50884C19.7308 8.57974 19.5797 8.73081 19.5088 8.92241L18.6565 11.2258C18.431 11.8353 17.569 11.8353 17.3435 11.2258L16.4912 8.92241C16.4203 8.73081 16.2692 8.57974 16.0776 8.50884L13.7742 7.6565C13.1647 7.43099 13.1647 6.56901 13.7742 6.3435L16.0776 5.49116C16.2692 5.42026 16.4203 5.26919 16.4912 5.07759L17.3435 2.77415Z" stroke="#ABAFD1" stroke-width="2" stroke-linecap="round"/>
</svg>
