<svg width="22" height="21" viewBox="0 0 22 21" fill="none" xmlns="http://www.w3.org/2000/svg">
<path fill-rule="evenodd" clip-rule="evenodd" d="M7.2073 14.4994C4.61511 14.4994 3.43156 13.9384 2.8732 13.4044C2.34219 12.8965 2 12.0503 2 10.5015C2 9.08921 2.39838 8.20014 3.0249 7.63318C3.68521 7.03564 4.9266 6.49769 7.20732 6.49769C8.7995 6.49769 10.0735 6.14231 11.1181 5.49484C12.1325 4.8661 12.7806 4.04922 13.2325 3.43876C13.3427 3.28993 13.4377 3.15975 13.5216 3.04478L13.5219 3.04446C13.834 2.6169 13.9925 2.39971 14.2048 2.21634C14.3415 2.09829 14.4893 2 14.8902 2C15.3275 2 15.5967 2.122 15.8201 2.31385C16.0827 2.53938 16.3883 2.95964 16.6674 3.7026C16.9336 4.41139 17.8638 4.69037 18.3869 4.14301L18.4064 4.12264C18.6384 3.87984 18.7271 3.5301 18.6168 3.21287C17.9207 1.21012 16.75 0 14.8902 0C13.257 0 12.5803 0.933317 11.8435 1.94964C10.9627 3.16437 9.99605 4.49769 7.20732 4.49769C2.08537 4.49769 0 6.90323 0 10.5015C0 13.8528 1.36468 16.1644 6.10406 16.4659C6.41097 16.4854 6.70858 16.3621 6.92106 16.1398L7.58242 15.4478C7.92849 15.0857 7.70817 14.4994 7.2073 14.4994ZM11.2523 15.4537C10.9167 15.2575 10.4962 15.3446 10.2276 15.6257C9.74845 16.127 9.98655 16.9762 10.5506 17.3796C11.2476 17.8783 11.6706 18.5219 12.0689 19.1279C12.7168 20.1138 13.2993 21 14.8902 21C18.4756 21 19.5 16.5053 19.5 10.5015C19.5 9.76184 19.4845 9.04507 19.4505 8.35675C19.4071 7.47766 18.3561 7.12079 17.7479 7.75707C17.5468 7.96754 17.4433 8.25226 17.4569 8.54307C17.4859 9.16037 17.5 9.81391 17.5 10.5015C17.5 13.453 17.2394 15.7767 16.6675 17.2986C16.3884 18.0411 16.083 18.461 15.8205 18.6863C15.5971 18.878 15.3278 19 14.8902 19C14.509 19 14.4185 18.9144 14.3469 18.8466L14.3405 18.8406C14.1754 18.6852 14.0689 18.5237 13.8469 18.187L13.8468 18.187C13.7485 18.0378 13.6275 17.8544 13.4688 17.6219C13.0269 16.9747 12.3821 16.1302 11.3084 15.4869C11.2897 15.4758 11.2711 15.4647 11.2523 15.4537Z" fill="#ABAFD1"/>
<path d="M3 20L21 1" stroke="#ABAFD1" stroke-width="2" stroke-linecap="round" stroke-linejoin="round"/>
</svg>
