<svg width="28" height="20" viewBox="0 0 28 20" fill="none" xmlns="http://www.w3.org/2000/svg">
<path d="M7.39211 14.7137C4.60049 14.7137 3.04962 14.1556 2.19311 13.3949C1.36802 12.6622 1 11.5707 1 10.0014C1 8.50481 1.45804 7.38878 2.36941 6.62296C3.31091 5.83182 4.89008 5.28351 7.39212 5.28351C8.84836 5.28351 9.94623 4.98458 10.8213 4.4809C11.686 3.98319 12.2571 3.32706 12.705 2.76509C12.7977 2.64889 12.8828 2.54018 12.9628 2.43815C13.2979 2.01053 13.5408 1.70045 13.8539 1.44939C14.1769 1.19033 14.5799 1 15.272 1C15.9814 1 16.5127 1.20077 16.9387 1.54048C17.3802 1.89258 17.7692 2.44351 18.088 3.2315C18.735 4.83104 19 7.17061 19 10.0014C19 12.8322 18.735 15.171 18.088 16.7698C17.7693 17.5574 17.3804 18.1079 16.9389 18.4598C16.5129 18.7993 15.9815 19 15.272 19C14.5829 19 14.2289 18.8123 13.9602 18.5774C13.7007 18.3505 13.5126 18.0855 13.2436 17.7064C13.1497 17.5741 13.0459 17.4278 12.9257 17.2644C12.4984 16.6833 11.9368 16.0138 11.0302 15.5095C10.1242 15.0055 8.96173 14.7137 7.39211 14.7137Z" stroke="#ABAFD1" stroke-width="2"/>
<path d="M23 8L25 10M25 10L27 12M25 10L27 8M25 10L23 12" stroke="#ABAFD1" stroke-width="2" stroke-linecap="round" stroke-linejoin="round"/>
</svg>
