<svg width="28" height="26" viewBox="0 0 28 26" fill="none" xmlns="http://www.w3.org/2000/svg">
<path d="M9 24.3191C11.0359 25.6304 14.0359 24.9708 15 23" stroke="#ABAFD1" stroke-width="2" stroke-linecap="round" stroke-linejoin="round"/>
<path d="M22.5132 11C22.5132 7.5 20.0132 5 16.5132 5" stroke="#ABAFD1" stroke-width="2" stroke-linecap="round" stroke-linejoin="round"/>
<path d="M26.5132 11C26.5132 5 22.5132 1 16.5132 1" stroke="#ABAFD1" stroke-width="2" stroke-linecap="round" stroke-linejoin="round"/>
<path fill-rule="evenodd" clip-rule="evenodd" d="M7.63727 4.16762C7.63367 4.15073 7.6296 4.13385 7.62508 4.11698C7.48214 3.58351 6.93381 3.26693 6.40034 3.40987C5.86687 3.55281 5.55029 4.10115 5.69323 4.63462C5.69775 4.65149 5.70268 4.66815 5.708 4.68458C2.59927 6.01706 0.531 10.4689 2.09763 14.3979C2.67863 15.5729 2.07302 16.4402 1.44267 17.3429C0.847034 18.1959 0.22931 19.0806 0.569838 20.2864C1.02432 21.9825 2.23629 22.6429 3.77669 22.7188C3.77669 22.7188 6.64024 23.0158 11.318 21.7624C15.9957 20.509 18.3271 18.82 18.3271 18.82C19.6231 17.9841 20.3303 16.7594 19.8881 15.1101C19.5609 13.8895 18.584 13.4319 17.6468 12.9928C16.6537 12.5276 15.7051 12.0832 15.6207 10.7744C15.013 6.58843 10.9958 3.76711 7.63727 4.16762ZM4.14648 16.5282C4.42851 15.6233 4.41325 14.6232 3.93242 13.5985C3.34713 12.0801 3.48722 10.4221 4.1274 9.02924C4.78934 7.58908 5.87303 6.65697 6.90543 6.38034L7.44829 6.23488C8.48069 5.95825 9.88525 6.22364 11.1786 7.13988C12.4294 8.02599 13.3797 9.39183 13.6321 10.9994C13.7274 12.1211 14.2072 12.9937 14.9019 13.6381C15.5048 14.1972 16.2333 14.5389 16.6795 14.7482L16.7133 14.7641C17.8348 15.2906 17.896 15.4028 17.9563 15.628C18.0693 16.0492 18.0114 16.2842 17.9422 16.4348C17.8589 16.6161 17.6657 16.8667 17.2431 17.1392L17.1976 17.1686L17.1602 17.1957L17.1574 17.1976C17.1497 17.203 17.1331 17.2144 17.1077 17.2314C17.0567 17.2654 16.9702 17.3216 16.8481 17.3961C16.6038 17.5452 16.2173 17.767 15.6882 18.0294C14.6303 18.5539 13.0019 19.2407 10.8003 19.8306C8.59872 20.4205 6.84511 20.6399 5.66671 20.7146C5.07735 20.752 4.63164 20.7531 4.3456 20.7462C4.20258 20.7427 4.09951 20.7372 4.0384 20.7333C4.00785 20.7313 3.98779 20.7297 3.97848 20.7289L3.97516 20.7286L3.92915 20.7238L3.87501 20.7212C3.3491 20.6953 3.06364 20.5772 2.91286 20.4717C2.79493 20.3891 2.62365 20.2239 2.50169 19.7688L2.49821 19.7558L2.49456 19.7429C2.44046 19.5513 2.41664 19.4432 3.13535 18.4122L3.15694 18.3812L3.15695 18.3812C3.44028 17.9751 3.90166 17.3137 4.14648 16.5282Z" fill="#ABAFD1"/>
</svg>
