<svg width="24" height="24" viewBox="0 0 24 24" fill="none" xmlns="http://www.w3.org/2000/svg">
<rect x="13" width="10" height="2" rx="1" transform="rotate(90 13 0)" fill="#ABAFD1"/>
<path fill-rule="evenodd" clip-rule="evenodd" d="M6 2.80106C6 2.0671 5.23624 1.59062 4.6279 2.00125C1.65406 4.00863 0 7.45298 0 12C0 19.5 4.5 24 12 24C19.5 24 24 19.5 24 12C24 7.45298 22.3459 4.00863 19.3721 2.00126C18.7638 1.59062 18 2.0671 18 2.80106V2.93987C18 3.28543 18.1813 3.60265 18.4614 3.80495C18.8005 4.04984 19.1127 4.31617 19.3983 4.60175C21.0032 6.20663 22 8.65105 22 12C22 15.349 21.0032 17.7934 19.3983 19.3983C17.7934 21.0032 15.349 22 12 22C8.65102 22 6.20659 21.0032 4.60171 19.3983C2.99683 17.7934 2 15.349 2 12C2 8.65105 2.99683 6.20663 4.60171 4.60175C4.8873 4.31617 5.19946 4.04984 5.53858 3.80495C5.81873 3.60265 6 3.28543 6 2.93987V2.80106Z" fill="#ABAFD1"/>
</svg>
