<svg width="24" height="24" viewBox="0 0 24 24" fill="none" xmlns="http://www.w3.org/2000/svg">
<path d="M17 5.5C16.75 2.83334 15 1 12 1C9 1 7.25 2.83335 7 5.5" stroke="#ABAFD1" stroke-width="2" stroke-linecap="round" stroke-linejoin="round"/>
<path d="M1 14.5C1 18.4145 1.55668 20.3244 2.91495 21.3997C3.61756 21.9559 4.62823 22.3668 6.12931 22.6309C7.63092 22.8951 9.54718 23 12 23C14.4528 23 16.3691 22.8951 17.8707 22.6309C19.3718 22.3668 20.3824 21.9559 21.085 21.3997C22.4433 20.3244 23 18.4145 23 14.5C23 12.1811 22.8073 10.5441 22.3454 9.36469C21.8422 8.08005 20.9968 7.27531 19.4483 6.75641C17.8174 6.20988 15.4535 6 12 6C8.54648 6 6.18261 6.20988 4.55167 6.75641C3.00322 7.27531 2.15777 8.08005 1.65463 9.36469C1.19269 10.5441 1 12.1811 1 14.5Z" stroke="#ABAFD1" stroke-width="2" stroke-linecap="round" stroke-linejoin="round"/>
</svg>
