<svg width="20" height="24" viewBox="0 0 20 24" fill="none" xmlns="http://www.w3.org/2000/svg">
<path d="M6.66675 19.6364C6.66675 23.2298 7.05897 24 8.88897 24C10.719 24 11.1112 23.2298 11.1112 19.6364C11.1112 16.0429 10.719 15.2727 8.88897 15.2727C7.05897 15.2727 6.66675 16.0429 6.66675 19.6364Z" fill="#ABAFD1"/>
<path fill-rule="evenodd" clip-rule="evenodd" d="M8.88889 6.72727C10.6975 6.72727 12.0819 6.679 13.149 6.56258C14.2345 6.44415 14.8491 6.26844 15.197 6.09766C15.4746 5.96139 15.5441 5.8518 15.5963 5.7366C15.6847 5.54129 15.7778 5.15382 15.7778 4.36364C15.7778 3.57345 15.6847 3.18598 15.5963 2.99067C15.5441 2.87548 15.4746 2.76588 15.197 2.62961C14.8491 2.45884 14.2345 2.28312 13.149 2.16469C12.0819 2.04827 10.6975 2 8.88889 2C7.08031 2 5.69589 2.04827 4.62879 2.16469C3.54329 2.28312 2.92866 2.45884 2.58079 2.62961C2.3032 2.76588 2.23365 2.87548 2.1815 2.99067C2.09308 3.18598 2 3.57345 2 4.36364C2 5.15382 2.09308 5.54129 2.1815 5.7366C2.23365 5.8518 2.3032 5.96139 2.58079 6.09766C2.92866 6.26844 3.54329 6.44415 4.62879 6.56258C5.69589 6.679 7.08031 6.72727 8.88889 6.72727ZM17.7014 5.54821C17.3136 8.13228 15.3227 8.72727 8.88889 8.72727C1.56889 8.72727 0 7.95709 0 4.36364C0 0.770181 1.56889 0 8.88889 0C15.5975 0 17.4756 0.64689 17.7425 3.52106C18.0309 3.55619 18.3645 3.63348 18.6751 3.79747C19.5377 4.25277 20 5.17285 20 6.50001V6.51274V6.52537V6.53789V6.55032V6.56264V6.57485V6.58697V6.59899V6.6109V6.62271V6.63443V6.64604V6.65756V6.66897V6.68029V6.69151V6.70264V6.71366V6.72459V6.73542V6.74616V6.7568V6.76735V6.7778V6.78816V6.79842V6.80859V6.81867V6.82865V6.83854V6.84834V6.85805V6.86767V6.87719V6.88663V6.89598V6.90524V6.9144V6.92348V6.93248V6.94138V6.9502V6.95893V6.96757V6.97613V6.9846V6.99298V7.00128V7.0095V7.01763V7.02568V7.03365V7.04153V7.04933V7.05704V7.06468V7.07224V7.07971V7.0871V7.09442V7.10165V7.1088V7.11588V7.12288V7.1298V7.13664V7.1434V7.15009V7.1567V7.16323V7.16969V7.17608V7.18239V7.18862V7.19478V7.20087V7.20689V7.21283V7.2187V7.22449V7.23022V7.23588V7.24146V7.24697V7.25242V7.25779V7.2631V7.26833V7.2735V7.2786V7.28363V7.2886V7.2935V7.29833V7.3031V7.3078V7.31244V7.31701V7.32152V7.32596V7.33034V7.33466V7.33892V7.34311V7.34724V7.35131V7.35532V7.35927V7.36316V7.36698V7.37075V7.37446V7.37812V7.38171V7.38524V7.38872V7.39214V7.39551V7.39882V7.40207V7.40527V7.40841V7.4115V7.41454V7.41752V7.42045V7.42332V7.42614V7.42891V7.43163V7.4343V7.43692V7.43948V7.442V7.44447V7.44689V7.44925V7.45158V7.45385V7.45607V7.45825V7.46038V7.46247V7.46451V7.4665V7.46845V7.47035V7.47221V7.47403V7.4758V7.47753V7.47922V7.48086V7.48183V7.48186V7.48188V7.48191V7.48193V7.48198V7.482V7.48207V7.4821V7.48219V7.48221V7.48233V7.48246V7.48249V7.48265V7.48268V7.48284V7.48289V7.48304V7.48312V7.48325V7.48339V7.48348V7.48367V7.48373V7.48398V7.48402V7.48427V7.48432V7.48456V7.48469V7.48486V7.48508V7.48518V7.4855V7.48554V7.48586V7.48595V7.48621V7.48643V7.48658V7.48694V7.48696V7.48702V7.48735V7.48747V7.48775V7.48804V7.48816V7.48846V7.48858V7.48863V7.48901V7.48926V7.48945V7.48986V7.4899V7.48991V7.49035V7.4906V7.49081V7.49122V7.49128V7.49132V7.49176V7.49207V7.49225V7.49254V7.49274V7.49286V7.49323V7.49367V7.49373V7.49382V7.49424V7.49452V7.49475V7.49506V7.49526V7.49541V7.49578V7.49627V7.4963V7.49633V7.49683V7.49728V7.49735V7.49744V7.49788V7.49827V7.49841V7.49857V7.49894V7.49929V7.49947V7.49967V7.50001V7.50035V7.50054V7.50072V7.50107V7.50144V7.5016V7.50175V7.50213V7.50258V7.50266V7.50274V7.50319V7.50369V7.50371V7.50374V7.50423V7.50461V7.50475V7.50495V7.50527V7.50549V7.50578V7.50619V7.50628V7.50634V7.50678V7.50716V7.50728V7.50748V7.50777V7.50794V7.50825V7.50869V7.50873V7.5088V7.5092V7.50941V7.50966V7.5101V7.51012V7.51016V7.51057V7.51076V7.511V7.51138V7.51143V7.51156V7.51186V7.51198V7.51227V7.51254V7.51267V7.51299V7.51306V7.51308V7.51344V7.51358V7.5138V7.51406V7.51416V7.51447V7.5145V7.51483V7.51493V7.51515V7.51532V7.51546V7.51569V7.51575V7.51599V7.51602V7.51628V7.51634V7.51653V7.51663V7.51676V7.51689V7.51698V7.51713V7.51718V7.51734V7.51736V7.51753V7.51755V7.51768V7.51781V7.51783V7.51792V7.51794V7.51801V7.51803V7.51808V7.51811V7.51814V7.51816V7.51817V7.51819V7.51916V7.5208V7.52249V7.52421V7.52599V7.5278V7.52966V7.53157V7.53351V7.53551V7.53755V7.53963V7.54176V7.54394V7.54617V7.54844V7.55076V7.55313V7.55555V7.55801V7.56053V7.5631V7.56571V7.56838V7.5711V7.57387V7.57669V7.57957V7.5825V7.58548V7.58851V7.5916V7.59474V7.59794V7.6012V7.60451V7.60787V7.61129V7.61477V7.61831V7.6219V7.62555V7.62926V7.63303V7.63686V7.64075V7.6447V7.6487V7.65277V7.65691V7.6611V7.66535V7.66967V7.67405V7.6785V7.683V7.68758V7.69221V7.69691V7.70168V7.70651V7.71141V7.71638V7.72141V7.72651V7.73168V7.73692V7.74222V7.7476V7.75304V7.75856V7.76414V7.76979V7.77552V7.78132V7.78719V7.79313V7.79914V7.80523V7.81139V7.81763V7.82394V7.83032V7.83678V7.84332V7.84993V7.85661V7.86338V7.87022V7.87714V7.88414V7.89121V7.89837V7.9056V7.91291V7.92031V7.92778V7.93533V7.94297V7.95069V7.95849V7.96637V7.97433V7.98238V7.99052V7.99873V8.00703V8.01542V8.02389V8.03245V8.04109V8.04982V8.05863V8.06754V8.07653V8.08561V8.09478V8.10404V8.11338V8.12282V8.13235V8.14196V8.15167V8.16147V8.17136V8.18135V8.19143V8.2016V8.21186V8.22222V8.23267V8.24321V8.25385V8.26459V8.27542V8.28635V8.29738V8.3085V8.31972V8.33104V8.34246V8.35397V8.36559V8.3773V8.38911V8.40103V8.41304V8.42516V8.43738V8.4497V8.46212V8.47465V8.48728V8.50001C20 9.77303 19.6423 10.8956 18.9413 11.7173C18.23 12.5509 17.2256 13 16.1111 13H16.1013H16.0916H16.0818H16.0719H16.0621H16.0523H16.0424H16.0326H16.0227H16.0128H16.0029H15.993H15.9831H15.9732H15.9632H15.9533H15.9433H15.9333H15.9234H15.9134H15.9033H15.8933H15.8833H15.8732H15.8632H15.8531H15.8431H15.833H15.8229H15.8128H15.8026H15.7925H15.7824H15.7722H15.7621H15.7519H15.7417H15.7315H15.7213H15.7111H15.7009H15.6907H15.6804H15.6702H15.6599H15.6496H15.6394H15.6291H15.6188H15.6085H15.5982H15.5879H15.5775H15.5672H15.5568H15.5465H15.5361H15.5257H15.5154H15.505H15.4946H15.4842H15.4737H15.4633H15.4529H15.4425H15.432H15.4216H15.4111H15.4006H15.3901H15.3797H15.3692H15.3587H15.3482H15.3377H15.3271H15.3166H15.3061H15.2955H15.285H15.2744H15.2639H15.2533H15.2427H15.2321H15.2216H15.211H15.2004H15.1898H15.1791H15.1685H15.1579H15.1473H15.1366H15.126H15.1154H15.1047H15.0941H15.0834H15.0727H15.062H15.0514H15.0407H15.03H15.0193H15.0086H14.9979H14.9872H14.9765H14.9658H14.9551H14.9443H14.9336H14.9229H14.9121H14.9014H14.8906H14.8799H14.8691H14.8584H14.8476H14.8369H14.8261H14.8153H14.8045H14.7938H14.783H14.7722H14.7614H14.7506H14.7398H14.729H14.7182H14.7074H14.6966H14.6858H14.675H14.6642H14.6534H14.6426H14.6318H14.6209H14.6101H14.5993H14.5885H14.5776H14.5668H14.556H14.5451H14.5343H14.5235H14.5126H14.5018H14.4909H14.4801H14.4693H14.4584H14.4476H14.4367H14.4259H14.415H14.4042H14.3933H14.3825H14.3716H14.3608H14.3499H14.3391H14.3282H14.3174H14.3065H14.2957H14.2848H14.274H14.2631H14.2523H14.2414H14.2306H14.2197H14.2089H14.198H14.1872H14.1763H14.1655H14.1547H14.1438H14.133H14.1221H14.1113H14.1005H14.0896H14.0788H14.068H14.0571H14.0463H14.0355H14.0247H14.0138H14.003H13.9922H13.9814H13.9706H13.9598H13.949H13.9381H13.9273H13.9165H13.9057H13.895H13.8842H13.8734H13.8626H13.8518H13.841H13.8303H13.8195H13.8087H13.7979H13.7872H13.7764H13.7657H13.7549H13.7442H13.7334H13.7227H13.712H13.7012H13.6905H13.6798H13.6691H13.6583H13.6476H13.6369H13.6262H13.6155H13.6049H13.5942H13.5835H13.5728H13.5621H13.5515H13.5408H13.5302H13.5195H13.5089H13.4982H13.4876H13.477H13.4664H13.4558H13.4452H13.4346H13.424H13.4134H13.4028H13.3922H13.3816H13.3711H13.3605H13.35H13.3394H13.3289H13.3184H13.3078H13.2973H13.2868H13.2763H13.2658H13.2553H13.2449H13.2344H13.2239H13.2135H13.203H13.1926H13.1821H13.1717H13.1613H13.1509H13.1405H13.1301H13.1197H13.1093H13.099H13.0886H13.0782H13.0679H13.0576H13.0472H13.0369H13.0266H13.0163H13.006H12.9958H12.9855H12.9752H12.965H12.9547H12.9445H12.9343H12.9241H12.9139H12.9037H12.8935H12.8833H12.8731H12.863H12.8529H12.8427H12.8326H12.8225H12.8124H12.8023H12.7922H12.7821H12.7721H12.762H12.752H12.742H12.732H12.722H12.712H12.702H12.692H12.6821H12.6721H12.6622H12.6523H12.6423H12.6324H12.6226H12.6127H12.6028H12.593H12.5831H12.5733H12.5635H12.5537H12.5439H12.5341H12.5244H12.5146H12.5049H12.4951H12.4854H12.4757H12.4661H12.4564H12.4467H12.4371H12.4274H12.4178H12.4082H12.3986H12.389H12.3795H12.3699H12.3604H12.3509H12.3414H12.3319H12.3224H12.3129H12.3035H12.294H12.2846H12.2752H12.2658H12.2564H12.2471H12.2377H12.2284H12.2191H12.2098H12.2005H12.1912H12.182H12.1727H12.1635H12.1543H12.1451H12.1359H12.1267H12.1176H12.1085H12.0993H12.0903H12.0812H12.0721H12.063H12.054H12.045H12.036H12.027H12.018H12.0091H12.0002H11.9912H11.9823H11.9735H11.9646H11.9557H11.9469H11.9381H11.9293H11.9205H11.9118H11.903H11.8943H11.8856H11.8769H11.8682H11.8596H11.8509H11.8423H11.8337H11.8251H11.8166H11.808H11.7995H11.791H11.7825H11.774H11.7656H11.7572H11.7487H11.7404H11.732H11.7236H11.7153H11.707H11.6987H11.6904H11.6821H11.6739H11.6657H11.6575H11.6493H11.6411H11.633H11.6249H11.6168H11.6087H11.6007H11.5926H11.5846H11.5766H11.5686H11.5607H11.5527H11.5448H11.5369H11.5291H11.5212H11.5134H11.5056H11.4978H11.49H11.4823H11.4746H11.4669H11.4592H11.4515H11.4439H11.4363H11.4287H11.4211H11.4136H11.4061H11.3986H11.3911H11.3836H11.3762H11.3688H11.3614H11.354H11.3467H11.3394H11.3321H11.3248H11.3175H11.3103H11.3031H11.2959H11.2888H11.2816H11.2745H11.2674H11.2604H11.2533H11.2463H11.2393H11.2323H11.2254H11.2185H11.2116H11.2047H11.1979H11.191H11.1842H11.1775H11.1707H11.164H11.1573H11.1506H11.144H11.1374H11.1308H11.1242H11.1176H11.1111C10.7002 13 10.3977 13.1031 10.2166 13.2512C10.0702 13.371 9.88888 13.6106 9.88889 14.1818L9.8889 15.8864L9.88889 16.2529L9.88889 16.337L9.88889 16.3571V16.362V16.3633V16.3636V16.3636V16.3637C9.88888 16.9159 9.44115 17.3637 8.88886 17.3636C8.33658 17.3636 7.88887 16.9159 7.88889 16.3636V16.3636V16.3635V16.3632V16.362V16.3571L7.88889 16.337L7.88889 16.2528L7.88889 15.8864L7.88889 14.1818C7.88888 13.1167 8.26315 12.2654 8.95009 11.7033C9.60232 11.1697 10.4109 11 11.1111 11H11.1176H11.1242H11.1308H11.1374H11.144H11.1506H11.1573H11.164H11.1707H11.1775H11.1842H11.191H11.1979H11.2047H11.2116H11.2185H11.2254H11.2323H11.2393H11.2463H11.2533H11.2604H11.2674H11.2745H11.2816H11.2888H11.2959H11.3031H11.3103H11.3175H11.3248H11.3321H11.3394H11.3467H11.354H11.3614H11.3688H11.3762H11.3836H11.3911H11.3986H11.4061H11.4136H11.4211H11.4287H11.4363H11.4439H11.4515H11.4592H11.4669H11.4746H11.4823H11.49H11.4978H11.5056H11.5134H11.5212H11.5291H11.5369H11.5448H11.5527H11.5607H11.5686H11.5766H11.5846H11.5926H11.6007H11.6087H11.6168H11.6249H11.633H11.6411H11.6493H11.6575H11.6657H11.6739H11.6821H11.6904H11.6987H11.707H11.7153H11.7236H11.732H11.7404H11.7487H11.7572H11.7656H11.774H11.7825H11.791H11.7995H11.808H11.8166H11.8251H11.8337H11.8423H11.8509H11.8596H11.8682H11.8769H11.8856H11.8943H11.903H11.9118H11.9205H11.9293H11.9381H11.9469H11.9557H11.9646H11.9735H11.9823H11.9912H12.0002H12.0091H12.018H12.027H12.036H12.045H12.054H12.063H12.0721H12.0812H12.0903H12.0993H12.1085H12.1176H12.1267H12.1359H12.1451H12.1543H12.1635H12.1727H12.182H12.1912H12.2005H12.2098H12.2191H12.2284H12.2377H12.2471H12.2564H12.2658H12.2752H12.2846H12.294H12.3035H12.3129H12.3224H12.3319H12.3414H12.3509H12.3604H12.3699H12.3795H12.389H12.3986H12.4082H12.4178H12.4274H12.4371H12.4467H12.4564H12.4661H12.4757H12.4854H12.4951H12.5049H12.5146H12.5244H12.5341H12.5439H12.5537H12.5635H12.5733H12.5831H12.593H12.6028H12.6127H12.6226H12.6324H12.6423H12.6523H12.6622H12.6721H12.6821H12.692H12.702H12.712H12.722H12.732H12.742H12.752H12.762H12.7721H12.7821H12.7922H12.8023H12.8124H12.8225H12.8326H12.8427H12.8529H12.863H12.8731H12.8833H12.8935H12.9037H12.9139H12.9241H12.9343H12.9445H12.9547H12.965H12.9752H12.9855H12.9958H13.006H13.0163H13.0266H13.0369H13.0472H13.0576H13.0679H13.0782H13.0886H13.099H13.1093H13.1197H13.1301H13.1405H13.1509H13.1613H13.1717H13.1821H13.1926H13.203H13.2135H13.2239H13.2344H13.2449H13.2553H13.2658H13.2763H13.2868H13.2973H13.3078H13.3184H13.3289H13.3394H13.35H13.3605H13.3711H13.3816H13.3922H13.4028H13.4134H13.424H13.4346H13.4452H13.4558H13.4664H13.477H13.4876H13.4982H13.5089H13.5195H13.5302H13.5408H13.5515H13.5621H13.5728H13.5835H13.5942H13.6049H13.6155H13.6262H13.6369H13.6476H13.6583H13.6691H13.6798H13.6905H13.7012H13.712H13.7227H13.7334H13.7442H13.7549H13.7657H13.7764H13.7872H13.7979H13.8087H13.8195H13.8303H13.841H13.8518H13.8626H13.8734H13.8842H13.895H13.9057H13.9165H13.9273H13.9381H13.949H13.9598H13.9706H13.9814H13.9922H14.003H14.0138H14.0247H14.0355H14.0463H14.0571H14.068H14.0788H14.0896H14.1005H14.1113H14.1221H14.133H14.1438H14.1547H14.1655H14.1763H14.1872H14.198H14.2089H14.2197H14.2306H14.2414H14.2523H14.2631H14.274H14.2848H14.2957H14.3065H14.3174H14.3282H14.3391H14.3499H14.3608H14.3716H14.3825H14.3933H14.4042H14.415H14.4259H14.4367H14.4476H14.4584H14.4693H14.4801H14.4909H14.5018H14.5126H14.5235H14.5343H14.5451H14.556H14.5668H14.5776H14.5885H14.5993H14.6101H14.6209H14.6318H14.6426H14.6534H14.6642H14.675H14.6858H14.6966H14.7074H14.7182H14.729H14.7398H14.7506H14.7614H14.7722H14.783H14.7938H14.8045H14.8153H14.8261H14.8369H14.8476H14.8584H14.8691H14.8799H14.8906H14.9014H14.9121H14.9229H14.9336H14.9443H14.9551H14.9658H14.9765H14.9872H14.9979H15.0086H15.0193H15.03H15.0407H15.0514H15.062H15.0727H15.0834H15.0941H15.1047H15.1154H15.126H15.1366H15.1473H15.1579H15.1685H15.1791H15.1898H15.2004H15.211H15.2216H15.2321H15.2427H15.2533H15.2639H15.2744H15.285H15.2955H15.3061H15.3166H15.3271H15.3377H15.3482H15.3587H15.3692H15.3797H15.3901H15.4006H15.4111H15.4216H15.432H15.4425H15.4529H15.4633H15.4737H15.4842H15.4946H15.505H15.5154H15.5257H15.5361H15.5465H15.5568H15.5672H15.5775H15.5879H15.5982H15.6085H15.6188H15.6291H15.6394H15.6496H15.6599H15.6702H15.6804H15.6907H15.7009H15.7111H15.7213H15.7315H15.7417H15.7519H15.7621H15.7722H15.7824H15.7925H15.8026H15.8128H15.8229H15.833H15.8431H15.8531H15.8632H15.8732H15.8833H15.8933H15.9033H15.9134H15.9234H15.9333H15.9433H15.9533H15.9632H15.9732H15.9831H15.993H16.0029H16.0128H16.0227H16.0326H16.0424H16.0523H16.0621H16.0719H16.0818H16.0916H16.1013H16.1111C16.6633 11 17.1033 10.79 17.4198 10.4191C17.7465 10.0362 18 9.4088 18 8.50001V8.48728V8.47465V8.46212V8.4497V8.43738V8.42516V8.41304V8.40103V8.38911V8.3773V8.36559V8.35397V8.34246V8.33104V8.31972V8.3085V8.29738V8.28635V8.27542V8.26459V8.25385V8.24321V8.23267V8.22222V8.21186V8.2016V8.19143V8.18135V8.17136V8.16147V8.15167V8.14196V8.13235V8.12282V8.11338V8.10404V8.09478V8.08561V8.07653V8.06754V8.05863V8.04982V8.04109V8.03245V8.02389V8.01542V8.00703V7.99873V7.99052V7.98238V7.97433V7.96637V7.95849V7.95069V7.94297V7.93533V7.92778V7.92031V7.91291V7.9056V7.89837V7.89121V7.88414V7.87714V7.87022V7.86338V7.85661V7.84993V7.84332V7.83678V7.83032V7.82394V7.81763V7.81139V7.80523V7.79914V7.79313V7.78719V7.78132V7.77552V7.76979V7.76414V7.75856V7.75304V7.7476V7.74222V7.73692V7.73168V7.72651V7.72141V7.71638V7.71141V7.70651V7.70168V7.69691V7.69221V7.68758V7.683V7.6785V7.67405V7.66967V7.66535V7.6611V7.65691V7.65277V7.6487V7.6447V7.64075V7.63686V7.63303V7.62926V7.62555V7.6219V7.61831V7.61477V7.61129V7.60787V7.60451V7.6012V7.59794V7.59474V7.5916V7.58851V7.58548V7.5825V7.57957V7.57669V7.57387V7.5711V7.56838V7.56571V7.5631V7.56053V7.55801V7.55555V7.55313V7.55076V7.54844V7.54617V7.54394V7.54176V7.53963V7.53755V7.53551V7.53351V7.53157V7.52966V7.5278V7.52599V7.52421V7.52249V7.5208V7.51916V7.51819V7.51817V7.51816V7.51814V7.51811V7.51808V7.51803V7.51801V7.51794V7.51792V7.51783V7.51781V7.51769V7.51755V7.51753V7.51736V7.51734V7.51718V7.51713V7.51698V7.51689V7.51676V7.51663V7.51653V7.51634V7.51628V7.51602V7.51599V7.51575V7.51569V7.51546V7.51532V7.51515V7.51493V7.51483V7.51451V7.51447V7.51416V7.51406V7.5138V7.51358V7.51344V7.51308V7.51306V7.51299V7.51267V7.51254V7.51227V7.51198V7.51186V7.51156V7.51143V7.51138V7.511V7.51076V7.51057V7.51016V7.51012V7.5101V7.50966V7.50941V7.5092V7.5088V7.50873V7.50869V7.50825V7.50794V7.50777V7.50748V7.50728V7.50716V7.50678V7.50634V7.50628V7.50619V7.50578V7.50549V7.50527V7.50495V7.50475V7.50461V7.50423V7.50374V7.50371V7.50369V7.50319V7.50274V7.50266V7.50258V7.50213V7.50175V7.5016V7.50144V7.50107V7.50072V7.50054V7.50035V7.50001V7.49967V7.49947V7.49929V7.49894V7.49857V7.49841V7.49827V7.49788V7.49744V7.49735V7.49728V7.49683V7.49633V7.4963V7.49627V7.49578V7.49541V7.49526V7.49506V7.49475V7.49452V7.49424V7.49382V7.49373V7.49367V7.49323V7.49286V7.49274V7.49254V7.49225V7.49207V7.49176V7.49132V7.49128V7.49122V7.49081V7.4906V7.49035V7.48991V7.4899V7.48986V7.48945V7.48926V7.48901V7.48863V7.48858V7.48846V7.48816V7.48804V7.48775V7.48747V7.48735V7.48702V7.48696V7.48694V7.48658V7.48643V7.48621V7.48595V7.48586V7.48554V7.48551V7.48518V7.48508V7.48486V7.48469V7.48456V7.48432V7.48427V7.48402V7.48399V7.48373V7.48367V7.48348V7.48339V7.48325V7.48312V7.48304V7.48289V7.48284V7.48268V7.48265V7.48249V7.48246V7.48234V7.48221V7.48219V7.4821V7.48207V7.482V7.48198V7.48193V7.48191V7.48188V7.48186V7.48184V7.48183V7.48086V7.47922V7.47753V7.4758V7.47403V7.47221V7.47035V7.46845V7.4665V7.46451V7.46247V7.46038V7.45825V7.45607V7.45385V7.45158V7.44925V7.44689V7.44447V7.442V7.43948V7.43692V7.4343V7.43163V7.42891V7.42614V7.42332V7.42045V7.41752V7.41454V7.4115V7.40841V7.40527V7.40207V7.39882V7.39551V7.39214V7.38872V7.38524V7.38171V7.37812V7.37446V7.37075V7.36698V7.36316V7.35927V7.35532V7.35131V7.34724V7.34311V7.33892V7.33466V7.33034V7.32596V7.32152V7.31701V7.31244V7.3078V7.3031V7.29833V7.2935V7.2886V7.28363V7.2786V7.2735V7.26833V7.2631V7.25779V7.25242V7.24697V7.24146V7.23588V7.23022V7.22449V7.2187V7.21283V7.20689V7.20087V7.19478V7.18862V7.18239V7.17608V7.16969V7.16323V7.1567V7.15009V7.1434V7.13664V7.1298V7.12288V7.11588V7.1088V7.10165V7.09442V7.0871V7.07971V7.07224V7.06468V7.05704V7.04933V7.04153V7.03365V7.02568V7.01763V7.0095V7.00128V6.99298V6.9846V6.97613V6.96757V6.95893V6.9502V6.94138V6.93248V6.92348V6.9144V6.90524V6.89598V6.88663V6.87719V6.86767V6.85805V6.84834V6.83854V6.82865V6.81867V6.80859V6.79842V6.78816V6.7778V6.76735V6.7568V6.74616V6.73542V6.72459V6.71366V6.70264V6.69151V6.68029V6.66897V6.65756V6.64604V6.63443V6.62271V6.6109V6.59899V6.58697V6.57485V6.56264V6.55032V6.53789V6.52537V6.51274V6.50001C18 6.0588 17.9262 5.82485 17.8702 5.71231C17.8221 5.6156 17.7768 5.58483 17.7415 5.56618C17.7298 5.56003 17.7166 5.554 17.7014 5.54821Z" fill="#ABAFD1"/>
</svg>
