<svg width="24" height="24" viewBox="0 0 24 24" fill="none" xmlns="http://www.w3.org/2000/svg">
<path fill-rule="evenodd" clip-rule="evenodd" d="M5.86908 1.01691C5.47929 0.625653 4.84613 0.624462 4.45487 1.01425C4.06361 1.40404 4.06242 2.03721 4.45221 2.42846L11.8872 9.89144C11.8752 9.9725 11.8691 10.0554 11.8691 10.1398C11.8691 11.0696 12.6199 11.8232 13.5462 11.8232C14.4724 11.8232 15.2233 11.0696 15.2233 10.1398C15.2233 9.2101 14.4724 8.4564 13.5462 8.4564C13.4621 8.4564 13.3795 8.46261 13.2988 8.47459L5.86908 1.01691Z" fill="#ABAFD1"/>
<path fill-rule="evenodd" clip-rule="evenodd" d="M11.0163 3.09706C9.89844 4.01858 8.471 5.42553 6.39817 7.47355C4.85086 9.02702 3.75862 10.2651 3.03816 11.317C2.31977 12.3659 2.05782 13.1061 2.00633 13.6745C1.91031 14.7348 2.48218 16.0719 5.12735 18.727C7.77253 21.3821 9.10459 21.9562 10.1608 21.8598C10.7271 21.8081 11.4646 21.5452 12.5095 20.8241C13.5575 20.1009 14.791 19.0045 16.3386 17.4513C18.3788 15.3708 19.7823 13.9362 20.7026 12.8118C21.6599 11.6422 21.7869 11.1584 21.7973 10.9863C21.8015 10.9167 21.8159 10.6311 21.1004 9.76555C20.5325 9.07852 19.7367 8.28909 18.6279 7.18904L18.6268 7.18798C18.3174 6.88096 17.9835 6.54974 17.6234 6.18981C17.2415 5.80808 16.8921 5.45578 16.5696 5.13068L16.5689 5.12999L16.5688 5.12993C15.4962 4.04862 14.7221 3.26827 14.0461 2.70678C13.1795 1.98706 12.8945 2.0004 12.8254 2.00448C12.6573 2.01442 12.1791 2.13852 11.0163 3.09706ZM3.7158 20.1439C8.97117 25.419 11.4492 25.1929 17.7557 18.8627C25.39 11.0776 25.3868 11.0744 19.9823 5.715C19.6821 5.41727 19.3652 5.10301 19.032 4.76996C18.6803 4.41844 18.3497 4.08497 18.0374 3.77001L18.0373 3.76992C12.7275 -1.58498 12.7241 -1.58834 4.99215 6.05112C-1.31429 12.3813 -1.53957 14.8687 3.7158 20.1439ZM20.9015 20.3382C21.0541 20.0763 21.2274 19.8429 21.3725 19.6708C21.5176 19.8429 21.6909 20.0763 21.8435 20.3383C22.0764 20.7379 22.1996 21.0995 22.1996 21.3591C22.1996 21.826 21.8246 22.1961 21.3725 22.1961C20.9204 22.1961 20.5454 21.826 20.5454 21.3591C20.5454 21.0995 20.6687 20.7379 20.9015 20.3382ZM22.3916 18.2679L22.3729 18.2492C22.2856 18.1621 22.1762 18.0531 22.0726 17.9705C21.966 17.8856 21.7217 17.707 21.3726 17.7069C21.0234 17.7069 20.7791 17.8855 20.6725 17.9704C20.5688 18.0531 20.4595 18.1621 20.3721 18.2492L20.3534 18.2679C20.0925 18.5277 19.7325 18.9678 19.4327 19.4824C19.1414 19.9823 18.8454 20.6564 18.8454 21.3591C18.8454 22.7555 19.9722 23.8961 21.3725 23.8961C22.7729 23.8961 23.8996 22.7555 23.8996 21.3591C23.8996 20.6564 23.6036 19.9823 23.3124 19.4824C23.0125 18.9678 22.6525 18.5277 22.3916 18.2679Z" fill="#ABAFD1"/>
</svg>
