<svg width="24" height="24" viewBox="0 0 24 24" fill="none" xmlns="http://www.w3.org/2000/svg">
<path d="M1 12C1 15.6474 1.74581 18.4725 3.63664 20.3634C5.52748 22.2542 8.35263 23 12 23C13.1371 23 13.6722 21.8518 13.3767 21.0062C13.132 20.3056 13 19.4031 13 18.25C13 16.1422 13.4391 14.9048 14.172 14.172C14.9048 13.4391 16.1422 13 18.25 13C19.4031 13 20.3056 13.132 21.0062 13.3767C21.8518 13.6722 23 13.1371 23 12C23 8.35263 22.2542 5.52748 20.3634 3.63664C18.4725 1.74581 15.6474 1 12 1C8.35263 1 5.52748 1.74581 3.63664 3.63664C1.74581 5.52748 1 8.35263 1 12Z" stroke="#ABAFD1" stroke-width="2" stroke-linecap="round" stroke-linejoin="round"/>
<path fill-rule="evenodd" clip-rule="evenodd" d="M10.5 7C11.3284 7 12 6.32843 12 5.5C12 4.67157 11.3284 4 10.5 4C9.67157 4 9 4.67157 9 5.5C9 6.32843 9.67157 7 10.5 7ZM15.5 9C16.3284 9 17 8.32843 17 7.5C17 6.67157 16.3284 6 15.5 6C14.6716 6 14 6.67157 14 7.5C14 8.32843 14.6716 9 15.5 9ZM8 9.5C8 10.3284 7.32843 11 6.5 11C5.67157 11 5 10.3284 5 9.5C5 8.67157 5.67157 8 6.5 8C7.32843 8 8 8.67157 8 9.5ZM7.5 16C8.32843 16 9 15.3284 9 14.5C9 13.6716 8.32843 13 7.5 13C6.67157 13 6 13.6716 6 14.5C6 15.3284 6.67157 16 7.5 16Z" fill="#ABAFD1"/>
</svg>
