<svg width="24" height="24" viewBox="0 0 24 24" fill="none" xmlns="http://www.w3.org/2000/svg">
<path fill-rule="evenodd" clip-rule="evenodd" d="M10.5034 8.72842L3.51845 2.06811L12.0731 3.33899C13.9409 3.61647 15.549 4.83218 16.3287 6.55826L18.8537 12.485L15.8089 15.5271L12.4738 18.8026L6.57999 16.2967C4.85162 15.5175 3.63518 13.9109 3.35748 12.0459L2.07886 3.45891L9.12317 10.1759C9.52287 10.557 10.1559 10.5419 10.537 10.1422C10.9181 9.74254 10.9031 9.10955 10.5034 8.72842ZM11.9007 20.7321L5.78792 18.1332L5.76974 18.1253C3.41749 17.0696 1.75828 14.8857 1.37928 12.3404L0.0818114 3.62679C-0.0711746 2.59936 0.285846 1.6386 0.937862 0.971805C1.60665 0.287857 2.59066 -0.0916741 3.64528 0.0650009L12.367 1.3607C14.9136 1.73902 17.0996 3.39605 18.1567 5.74669L18.1647 5.76489L20.9585 12.3228C20.9739 12.359 20.9871 12.3957 20.998 12.4328L21.5587 12.9835L21.6062 13.0302C22.264 13.6762 22.8284 14.2303 23.2192 14.7334C23.6367 15.2708 23.9533 15.8688 23.9533 16.6072C23.9533 17.3455 23.6367 17.9435 23.2192 18.481C22.8284 18.984 22.2641 19.5381 21.6063 20.1841L21.6063 20.1841L21.5587 20.2308L20.1384 21.6257L20.0913 21.672C19.4332 22.3184 18.8691 22.8725 18.3574 23.2559C17.8098 23.6663 17.2095 23.9701 16.4745 23.9701C15.7395 23.9701 15.1392 23.6663 14.5916 23.2559C14.0799 22.8725 13.5158 22.3184 12.8576 21.672L12.8106 21.6257L11.9314 20.7623L11.9007 20.7321ZM14.0863 20.0755L14.2119 20.1988C14.9304 20.9044 15.3993 21.362 15.7909 21.6554C16.1587 21.931 16.3416 21.9701 16.4745 21.9701C16.6074 21.9701 16.7903 21.931 17.1581 21.6554C17.5497 21.362 18.0185 20.9044 18.737 20.1988L20.1573 18.8039C20.876 18.0981 21.3415 17.6379 21.6398 17.254C21.9207 16.8924 21.9533 16.7212 21.9533 16.6072C21.9533 16.4931 21.9207 16.322 21.6398 15.9604C21.3415 15.5764 20.876 15.1163 20.1573 14.4104L19.9788 14.2351L17.2165 16.948L14.0863 20.0755Z" fill="#ABAFD1"/>
<ellipse rx="2.11246" ry="2.10983" transform="matrix(1 0 0.015878 0.999874 9.53146 9.15958)" fill="#ABAFD1"/>
</svg>
