<svg width="22" height="22" viewBox="0 0 22 22" fill="none" xmlns="http://www.w3.org/2000/svg">
<path d="M19.2149 5.20344L18.9204 6.15909C20.5516 6.66173 21.2818 8.02131 20.8867 9.0787C20.2262 10.8465 19.2995 12.8805 16.09 16.09C12.8805 19.2995 10.8465 20.2262 9.0787 20.8867C8.02131 21.2818 6.66173 20.5516 6.15909 18.9204L5.20344 19.2149L6.15909 18.9204L6.15909 18.9204L6.15906 18.9203L6.15897 18.92L6.1586 18.9188L6.15714 18.9141L6.15136 18.8953L6.12873 18.8219L6.04234 18.5416L5.7297 17.527L3.60966 10.647L1.96159 5.29873L1.31857 3.212L1.12894 2.59662L1.07793 2.43106L1.06472 2.3882L1.06136 2.37731L1.06052 2.37456L1.0603 2.37387L1.06025 2.3737L0.104611 2.66811L1.06023 2.37364C0.788583 1.49208 1.49209 0.788585 2.37363 1.06023L11.6776 3.92724L17.4124 5.6944L18.5002 6.0296L18.81 6.12505L18.8921 6.15038L18.9133 6.15689L18.9186 6.15854L18.92 6.15895L18.9203 6.15906L18.9204 6.15908L18.9204 6.15909L19.2149 5.20344Z" stroke="#ABAFD1" stroke-width="2"/>
</svg>
