<svg width="24" height="24" viewBox="0 0 24 24" fill="none" xmlns="http://www.w3.org/2000/svg">
<path d="M1 12C1 14.4477 1.13246 16.3463 1.46153 17.827C1.78807 19.2963 2.29478 20.2921 3.00136 20.9986C3.70794 21.7052 4.70365 22.2119 6.17298 22.5385C7.65366 22.8675 9.55232 23 12 23C14.4477 23 16.3463 22.8675 17.827 22.5385C19.2963 22.2119 20.2921 21.7052 20.9986 20.9986C21.7052 20.2921 22.2119 19.2963 22.5385 17.827C22.8675 16.3463 23 14.4477 23 12C23 9.55232 22.8675 7.65366 22.5385 6.17298C22.2119 4.70365 21.7052 3.70794 20.9986 3.00136C20.2921 2.29478 19.2963 1.78807 17.827 1.46153C16.3463 1.13246 14.4477 1 12 1C9.55232 1 7.65366 1.13246 6.17298 1.46153C4.70365 1.78807 3.70794 2.29478 3.00136 3.00136C2.29478 3.70794 1.78807 4.70365 1.46153 6.17298C1.13246 7.65366 1 9.55232 1 12Z" stroke="#ABAFD1" stroke-width="2" stroke-linecap="round" stroke-linejoin="round"/>
<path d="M16.8936 12C16.8936 11.2308 16.4368 10.7055 15.993 10.3379C15.5755 9.99207 14.9826 9.63499 14.3194 9.23562C14.2982 9.22288 14.277 9.21009 14.2557 9.19725L12.6403 8.22418C12.6186 8.21106 12.5969 8.19799 12.5752 8.18496C11.9134 7.78619 11.3201 7.42868 10.8227 7.22369C10.2997 7.00815 9.59778 6.84042 8.91602 7.2511C8.25018 7.65219 8.05056 8.33908 7.97083 8.89935C7.89342 9.4434 7.89348 10.1518 7.89355 10.9545C7.89355 10.9785 7.89355 11.0027 7.89355 11.0269L7.89355 12.9731C7.89355 12.9973 7.89355 13.0215 7.89355 13.0455C7.89348 13.8482 7.89342 14.5566 7.97083 15.1006C8.05056 15.6609 8.25018 16.3478 8.91602 16.7489C9.59778 17.1596 10.2997 16.9918 10.8227 16.7763C11.32 16.5713 11.9134 16.2138 12.5752 15.815C12.5968 15.802 12.6185 15.7889 12.6403 15.7758L14.2557 14.8027C14.277 14.7899 14.2982 14.7771 14.3194 14.7644C14.9825 14.365 15.5755 14.0079 15.993 13.6621C16.4368 13.2945 16.8936 12.7692 16.8936 12Z" stroke="#ABAFD1" stroke-width="2" stroke-linecap="round" stroke-linejoin="round"/>
</svg>
