<svg width="24" height="24" viewBox="0 0 24 24" fill="none" xmlns="http://www.w3.org/2000/svg">
<path d="M1 12C1 14.4477 1.13246 16.3463 1.46153 17.827C1.78807 19.2963 2.29478 20.2921 3.00136 20.9986C3.70794 21.7052 4.70365 22.2119 6.17298 22.5385C7.65366 22.8675 9.55232 23 12 23C14.4477 23 16.3463 22.8675 17.827 22.5385C19.2963 22.2119 20.2921 21.7052 20.9986 20.9986C21.7052 20.2921 22.2119 19.2963 22.5385 17.827C22.8675 16.3463 23 14.4477 23 12C23 9.55232 22.8675 7.65366 22.5385 6.17298C22.2119 4.70365 21.7052 3.70794 20.9986 3.00136C20.2921 2.29478 19.2963 1.78807 17.827 1.46153C16.3463 1.13246 14.4477 1 12 1C9.55232 1 7.65366 1.13246 6.17298 1.46153C4.70365 1.78807 3.70794 2.29478 3.00136 3.00136C2.29478 3.70794 1.78807 4.70365 1.46153 6.17298C1.13246 7.65366 1 9.55232 1 12Z" stroke="#ABAFD1" stroke-width="2" stroke-linecap="round" stroke-linejoin="round"/>
<path fill-rule="evenodd" clip-rule="evenodd" d="M8.62322 16.2798L7.46938 15.55L7.38521 15.4968C6.94865 15.221 6.44706 14.9042 6.07217 14.5782C5.6355 14.1984 5.00002 13.4922 5.00002 12.4001C5.00002 11.3079 5.6355 10.6017 6.07217 10.222C6.44707 9.89593 6.94866 9.57911 7.38522 9.30337L7.46938 9.25019L8.62323 8.52038L8.70996 8.46547L8.70997 8.46546C9.14315 8.19105 9.64751 7.87155 10.0999 7.67577C10.6038 7.45771 11.641 7.13056 12.6845 7.79058C13.1278 8.07099 13.4125 8.43222 13.5974 8.78984C13.8984 8.60113 14.2448 8.39329 14.5661 8.25423C15.0091 8.06253 16.0014 7.73943 17.0065 8.37512C17.9407 8.96603 18.1301 9.92573 18.1885 10.3564C18.2457 10.7784 18.2454 11.2905 18.2451 11.7294L18.2451 11.817V12.9847L18.2451 13.0723C18.2454 13.5112 18.2457 14.0234 18.1885 14.4454C18.1301 14.876 17.9407 15.8357 17.0065 16.4266C16.0014 17.0623 15.0091 16.7392 14.5661 16.5475C14.2445 16.4084 13.8979 16.2003 13.5968 16.0115C13.4118 16.3687 13.1273 16.7295 12.6845 17.0096C11.641 17.6696 10.6038 17.3424 10.0999 17.1244C9.64751 16.9286 9.14314 16.6091 8.70996 16.3347L8.62322 16.2798ZM13.9963 13.8979C14.0002 13.6741 14.0001 13.4478 14 13.2287V13.2287L14 13.1299V11.6703L14 11.5715V11.5715C14.0001 11.3529 14.0002 11.1271 13.9964 10.9038L14.3988 10.6493C15.2194 10.1303 15.6297 9.87078 15.9374 10.0654C16.2451 10.26 16.2451 10.779 16.2451 11.817V12.9847C16.2451 14.0227 16.2451 14.5417 15.9374 14.7364C15.6297 14.931 15.2194 14.6715 14.3988 14.1525L13.9963 13.8979ZM8.53848 10.9405C7.51284 11.5892 7.00002 11.9135 7.00002 12.4001C7.00002 12.8866 7.51284 13.211 8.53848 13.8597L9.69232 14.5895C10.718 15.2382 11.2308 15.5626 11.6154 15.3193C12 15.076 12 14.4273 12 13.1299V11.6703C12 10.3728 12 9.72412 11.6154 9.48085C11.2308 9.23758 10.718 9.56194 9.69232 10.2107L8.53848 10.9405Z" fill="#ABAFD1"/>
</svg>
