<svg width="24" height="26" viewBox="0 0 24 26" fill="none" xmlns="http://www.w3.org/2000/svg">
<circle cx="19" cy="11" r="1" fill="#ABAFD1"/>
<path fill-rule="evenodd" clip-rule="evenodd" d="M17.965 6.40841C18.7076 6.49081 19.3644 6.59743 19.9444 6.73278C19.9831 6.327 20 5.8828 20 5.39684C20 0.952542 18.588 0 12 0C5.412 0 4 0.952542 4 5.39684C4 5.8828 4.01688 6.327 4.05557 6.73278C4.63556 6.59743 5.29244 6.49081 6.03502 6.40841C6.01267 6.12419 6 5.79023 6 5.39684C6 3.24504 6.37903 2.87125 6.648 2.68981C6.88639 2.52899 7.34831 2.33394 8.26722 2.19617C9.17726 2.05973 10.3828 2 12 2C13.6172 2 14.8227 2.05973 15.7328 2.19617C16.6517 2.33394 17.1136 2.52899 17.352 2.68981C17.621 2.87125 18 3.24504 18 5.39684C18 5.79023 17.9873 6.12419 17.965 6.40841Z" fill="#ABAFD1"/>
<path d="M5 20C5 22.4969 5.37712 23.5178 6.12165 24.0738C6.52707 24.3765 7.14058 24.6197 8.1155 24.7786C9.0888 24.9373 10.3423 25 11.9677 25C13.5928 25 14.8509 24.9373 15.8308 24.7785C16.8125 24.6194 17.4364 24.3755 17.8513 24.0698C18.6103 23.5108 19 22.4873 19 20C19 18.4675 18.9974 17.4313 18.8854 16.6784C18.7777 15.9546 18.5962 15.6996 18.3975 15.5512C18.1369 15.3565 17.6325 15.1819 16.5286 15.0903C15.4504 15.0008 13.9941 15 11.9677 15C9.95728 15 8.51346 15.0008 7.44474 15.0903C6.3507 15.1818 5.85357 15.356 5.59751 15.5488C5.40169 15.6963 5.22087 15.9514 5.11378 16.6772C5.00259 17.4308 5 18.4678 5 20Z" stroke="#ABAFD1" stroke-width="2" stroke-linecap="round" stroke-linejoin="round"/>
<path fill-rule="evenodd" clip-rule="evenodd" d="M2 13.4871C2 15.1286 2.0696 16.1799 2.26223 16.9116C2.42747 17.5393 2.64748 17.8048 2.96252 18.0089C3.19569 18.16 3.53989 18.3123 4.06143 18.4485C4.01858 18.9174 4 19.4332 4 20C4 20.1678 4.00163 20.3311 4.00503 20.49C0.444864 19.7281 0 17.8566 0 13.4871C0 6.93589 2 6 12 6C23 6 24 6.93589 24 13.4871C24 17.8566 23.5551 19.7281 19.995 20.49C19.9984 20.3311 20 20.1678 20 20C20 19.4332 19.9814 18.9174 19.9386 18.4485C20.4601 18.3123 20.8043 18.16 21.0375 18.0089C21.3525 17.8048 21.5725 17.5393 21.7378 16.9116C21.9304 16.1799 22 15.1286 22 13.4871C22 11.8457 21.9304 10.7943 21.7378 10.0626C21.5725 9.43494 21.3525 9.16945 21.0375 8.96533C20.6153 8.6918 19.8291 8.41418 18.2854 8.2353C16.7687 8.05956 14.7436 8 12 8C9.51158 8 7.61167 8.05935 6.14313 8.23452C4.65748 8.41173 3.79905 8.68894 3.28106 9.00059C2.53805 9.44762 2 10.2523 2 13.4871Z" fill="#ABAFD1"/>
</svg>
