<svg width="28" height="27" viewBox="0 0 28 27" fill="none" xmlns="http://www.w3.org/2000/svg">
<path fill-rule="evenodd" clip-rule="evenodd" d="M21 14C21.5523 14 22 13.5523 22 13C22 12.4477 21.5523 12 21 12C20.4477 12 20 12.4477 20 13C20 13.5523 20.4477 14 21 14ZM23 16C23.5523 16 24 15.5523 24 15C24 14.4477 23.5523 14 23 14C22.4477 14 22 14.4477 22 15C22 15.5523 22.4477 16 23 16ZM22 17C22 17.5523 21.5523 18 21 18C20.4477 18 20 17.5523 20 17C20 16.4477 20.4477 16 21 16C21.5523 16 22 16.4477 22 17ZM19 16C19.5523 16 20 15.5523 20 15C20 14.4477 19.5523 14 19 14C18.4477 14 18 14.4477 18 15C18 15.5523 18.4477 16 19 16Z" fill="#ABAFD1"/>
<path d="M7 13V15M7 17V15M7 15H9H5" stroke="#ABAFD1" stroke-width="2" stroke-linecap="round" stroke-linejoin="round"/>
<path fill-rule="evenodd" clip-rule="evenodd" d="M20.0249 1C20.0249 0.447715 20.4726 0 21.0249 0C21.5772 0 22.0249 0.447715 22.0249 1L22.025 1.08256C22.0262 1.76052 22.0282 2.83496 21.3602 3.6818C20.6232 4.61624 19.3364 5 17.5002 5C16.7991 5 16.3545 5.17224 16.058 5.38406C15.7553 5.60025 15.5288 5.91379 15.3623 6.31829C15.1542 6.82362 15.0655 7.39961 15.0278 7.94695C15.946 7.85414 16.7612 7.64122 17.4194 7.35804C18.5285 6.88084 19.593 6.50005 21 6.50005C23.4081 6.50005 25.2309 7.9489 26.3529 9.8735C27.4575 11.7684 28 14.2685 28 16.9894C28 20.4144 27.5934 23.4035 25.4651 25.3915C24.6614 26.1422 23.6885 26.5153 22.6636 26.4995C21.704 26.4848 20.8533 26.1335 20.1794 25.7321C18.8535 24.9424 17.7162 23.6599 16.9432 22.6115C16.1598 21.5489 15.0909 20.9869 14 20.9869C12.9091 20.9869 11.8402 21.5489 11.0568 22.6115C10.2838 23.6599 9.14646 24.9424 7.82063 25.7321C7.14671 26.1335 6.29597 26.4848 5.33641 26.4995C4.31145 26.5153 3.33864 26.1422 2.5349 25.3915C0.406596 23.4035 0 20.4144 0 16.9894C0 14.2685 0.5425 11.7684 1.64715 9.87348C2.76907 7.94887 4.59193 6.5 7 6.5C8.40708 6.5 9.47155 6.88088 10.5806 7.35804C11.2508 7.64639 12.0838 7.8619 13.0227 7.95191C13.0642 7.23517 13.1817 6.36116 13.5129 5.55671C13.7839 4.89871 14.2138 4.2435 14.8955 3.75657C15.5834 3.26526 16.4513 3 17.5002 3C19.164 3 19.6396 2.63376 19.7899 2.4432C19.9815 2.2003 20.0249 1.82933 20.0249 1ZM13.936 9.99799C12.3804 9.99004 10.9459 9.69248 9.79013 9.19521C8.76592 8.75454 8 8.5 7 8.5C4 8.5 2 12.0188 2 16.9894C2 20.3991 2.44942 22.5749 3.90012 23.9299C5.65139 25.5657 8.02522 23.353 9.44704 21.4246C10.5474 19.9322 12.179 18.9869 14 18.9869C15.821 18.9869 17.4526 19.9322 18.553 21.4246C19.9748 23.353 22.3486 25.5657 24.0999 23.9299C25.5506 22.5749 26 20.3991 26 16.9894C26 12.0188 24 8.50005 21 8.50005C20 8.50005 19.2341 8.75454 18.2099 9.19521C17.0541 9.69248 15.6196 9.99004 14.064 9.99799C14.0428 9.99932 14.0215 10 14 10C13.9785 10 13.9572 9.99932 13.936 9.99799Z" fill="#ABAFD1"/>
</svg>
