<svg width="28" height="21" viewBox="0 0 28 21" fill="none" xmlns="http://www.w3.org/2000/svg">
<path fill-rule="evenodd" clip-rule="evenodd" d="M21 8C21.5523 8 22 7.55228 22 7C22 6.44772 21.5523 6 21 6C20.4477 6 20 6.44772 20 7C20 7.55228 20.4477 8 21 8ZM23 10C23.5523 10 24 9.55228 24 9C24 8.44772 23.5523 8 23 8C22.4477 8 22 8.44772 22 9C22 9.55228 22.4477 10 23 10ZM22 11C22 11.5523 21.5523 12 21 12C20.4477 12 20 11.5523 20 11C20 10.4477 20.4477 10 21 10C21.5523 10 22 10.4477 22 11ZM19 10C19.5523 10 20 9.55228 20 9C20 8.44772 19.5523 8 19 8C18.4477 8 18 8.44772 18 9C18 9.55228 18.4477 10 19 10Z" fill="#ABAFD1"/>
<path d="M7 1.5C5.04597 1.5 3.50953 2.66428 2.51107 4.37709C1.52125 6.07508 1 8.38629 1 10.9894C1 14.4067 1.42801 16.9892 3.21751 18.6607C3.83829 19.2406 4.56306 19.5113 5.32105 19.4996C6.04635 19.4885 6.72439 19.2211 7.30888 18.873C8.46684 18.1832 9.50995 17.0244 10.2519 16.018C11.1938 14.7406 12.544 13.9869 14 13.9869C15.456 13.9869 16.8062 14.7406 17.7481 16.018C18.4901 17.0244 19.5332 18.1832 20.6911 18.873C21.2756 19.2211 21.9536 19.4885 22.6789 19.4996C23.4369 19.5113 24.1617 19.2406 24.7825 18.6607C26.572 16.9892 27 14.4067 27 10.9894C27 8.38629 26.4788 6.07509 25.4889 4.37712C24.4905 2.66432 22.954 1.50005 21 1.50005C19.7965 1.50005 18.8813 1.81769 17.8146 2.27662C16.7814 2.72116 15.46 2.99815 14 2.99815C12.54 2.99815 11.2186 2.72116 10.1854 2.27662C9.11873 1.81771 8.20354 1.5 7 1.5Z" stroke="#ABAFD1" stroke-width="2" stroke-linecap="round" stroke-linejoin="round"/>
<path d="M7 7V9M7 11V9M7 9H9H5" stroke="#ABAFD1" stroke-width="2" stroke-linecap="round" stroke-linejoin="round"/>
</svg>
