<svg width="25" height="24" viewBox="0 0 25 24" fill="none" xmlns="http://www.w3.org/2000/svg">
<path fill-rule="evenodd" clip-rule="evenodd" d="M23 12C23 15.6913 22.0778 18.0925 20.5838 19.5852C19.0895 21.0782 16.6852 22 12.9895 22C9.29391 22 6.88962 21.0782 5.3953 19.5852C4.04067 18.2317 3.15613 16.1314 3.00288 12.9997C2.97589 12.4481 2.53137 12 1.97909 12C1.4268 12 0.976343 12.4506 1.00096 13.0023C1.32806 20.3341 5.32426 24 12.9895 24C20.9965 24 25 20 25 12C25 4 20.9965 0 12.9895 0C6.97533 0 3.21982 2.25674 1.72301 6.77022C1.51726 7.39066 2.00486 8 2.65852 8C3.12059 8 3.51933 7.68706 3.67212 7.25097C4.08734 6.06579 4.67483 5.13467 5.3953 4.41483C6.88962 2.92181 9.29391 2 12.9895 2C16.6852 2 19.0895 2.92181 20.5838 4.41483C22.0778 5.90753 23 8.30873 23 12Z" fill="#ABAFD1"/>
<path d="M1.98 1V7H7.98523" stroke="#ABAFD1" stroke-width="2" stroke-linecap="round" stroke-linejoin="round"/>
</svg>
