<svg width="24" height="24" viewBox="0 0 24 24" fill="none" xmlns="http://www.w3.org/2000/svg">
<path d="M8.30602 15.694C7.89799 15.286 7.89799 14.6244 8.30602 14.2164L14.2164 8.30602C14.6244 7.89799 15.286 7.89799 15.694 8.30602C16.102 8.71405 16.102 9.37559 15.694 9.78361L9.78361 15.694C9.37559 16.102 8.71405 16.102 8.30602 15.694Z" fill="#ABAFD1"/>
<path d="M15 9L9 15M9 9V10M15 14V15" stroke="#ABAFD1" stroke-width="2" stroke-linecap="round" stroke-linejoin="round"/>
<path d="M10.1909 1.89863C11.0994 0.700456 12.9006 0.700456 13.8091 1.89863L14.9438 3.39506C15.1917 3.72195 15.5966 3.88968 16.003 3.8338L17.8635 3.578C19.3531 3.37318 20.6268 4.64685 20.422 6.13651L20.1662 7.99698C20.1103 8.40339 20.2781 8.80832 20.6049 9.05618L22.1014 10.1909C23.2995 11.0994 23.2995 12.9006 22.1014 13.8091L20.6049 14.9438C20.2781 15.1917 20.1103 15.5966 20.1662 16.003L20.422 17.8635C20.6268 19.3531 19.3531 20.6268 17.8635 20.422L16.003 20.1662C15.5966 20.1103 15.1917 20.2781 14.9438 20.6049L13.8091 22.1014C12.9006 23.2995 11.0994 23.2995 10.1909 22.1014L9.05618 20.6049C8.80832 20.2781 8.40339 20.1103 7.99698 20.1662L6.13651 20.422C4.64685 20.6268 3.37318 19.3531 3.578 17.8635L3.8338 16.003C3.88968 15.5966 3.72195 15.1917 3.39506 14.9438L1.89863 13.8091C0.700456 12.9006 0.700456 11.0994 1.89863 10.1909L3.39506 9.05618C3.72195 8.80832 3.88968 8.40339 3.8338 7.99698L3.578 6.13651C3.37318 4.64685 4.64685 3.37318 6.13651 3.578L7.99698 3.8338C8.40339 3.88968 8.80832 3.72195 9.05618 3.39506L10.1909 1.89863Z" stroke="#ABAFD1" stroke-width="2"/>
</svg>
