<svg width="24" height="25" viewBox="0 0 24 25" fill="none" xmlns="http://www.w3.org/2000/svg">
<path d="M17.9995 13.043C17.9995 13.043 16.901 13.4335 15.9996 13.6165C14.638 13.8929 13.6679 14.0466 11.9996 14.0466C10.3314 14.0466 9.36129 13.8929 7.99973 13.6165C7.09827 13.4335 5.99978 13.043 5.99978 13.043" stroke="#ABAFD1" stroke-width="2" stroke-linecap="round" stroke-linejoin="round"/>
<path fill-rule="evenodd" clip-rule="evenodd" d="M2.00102 15.9755C1.96469 15.4392 1.52537 15.0144 0.987871 15.0144C0.420337 15.0144 -0.0355166 15.4897 0.00190698 16.056C0.4262 22.4764 2.51233 24.5713 8.90801 24.9978C9.4744 25.0356 9.94986 24.5797 9.94986 24.012C9.94986 23.4746 9.52518 23.0354 8.98904 22.9987C7.95317 22.9279 7.07507 22.8123 6.32682 22.6454C4.97179 22.3431 4.16758 21.9 3.63329 21.3638C3.09843 20.827 2.65568 20.0179 2.35386 18.655C2.18706 17.9018 2.07163 17.0179 2.00102 15.9755ZM21.9131 15.9755C21.9494 15.4392 22.3887 15.0144 22.9262 15.0144C23.4937 15.0144 23.9496 15.4897 23.9122 16.056C23.4879 22.4765 21.4017 24.5713 15.006 24.9978C14.4396 25.0356 13.9642 24.5797 13.9642 24.012C13.9642 23.4746 14.3889 23.0354 14.925 22.9987C15.9609 22.9279 16.839 22.8123 17.5873 22.6454C18.9423 22.3431 19.7465 21.9 20.2808 21.3638C20.8156 20.827 21.2584 20.0179 21.5602 18.655C21.727 17.9018 21.8424 17.0179 21.9131 15.9755ZM24 13.0489C24 13.0326 24 13.0163 24 13C24 12.9837 24 12.9674 24 12.9511V13.0489ZM23.9122 9.94407C23.9496 10.5104 23.4937 10.9857 22.9262 10.9857C22.3887 10.9857 21.9494 10.5608 21.9131 10.0246C21.8424 8.98213 21.727 8.0983 21.5602 7.34505C21.2584 5.98212 20.8156 5.17301 20.2808 4.63623C19.7465 4.10002 18.9423 3.65691 17.5873 3.35468C16.839 3.18779 15.9609 3.07216 14.925 3.00133C14.3889 2.96467 13.9642 2.52542 13.9642 1.98803C13.9642 1.42038 14.4396 0.964448 15.006 1.00222C21.4017 1.42873 23.4879 3.5236 23.9122 9.94407ZM2.00102 10.0246C1.96469 10.5608 1.52537 10.9857 0.987871 10.9857C0.420337 10.9857 -0.0355169 10.5104 0.00190657 9.94407C0.426199 3.52361 2.51233 1.42873 8.90801 1.00222C9.47441 0.96445 9.94986 1.42038 9.94986 1.98803C9.94986 2.52542 9.52518 2.96467 8.98904 3.00133C7.95317 3.07216 7.07507 3.18779 6.32682 3.35468C4.97179 3.65691 4.16758 4.10002 3.63329 4.63623C3.09843 5.17301 2.65568 5.98212 2.35386 7.34505C2.18706 8.0983 2.07163 8.98213 2.00102 10.0246ZM11.957 0.913818L11.9777 0.913821H11.9363L11.957 0.913818Z" fill="#ABAFD1"/>
</svg>
