<svg width="22" height="24" viewBox="0 0 22 24" fill="none" xmlns="http://www.w3.org/2000/svg">
<path d="M1 12C1 14.4498 1.12145 16.3554 1.42477 17.8443C1.7267 19.3264 2.1954 20.3266 2.84022 21.03C4.13039 22.4375 6.44371 23 11 23C15.5563 23 17.8696 22.4375 19.1598 21.03C19.8046 20.3266 20.2733 19.3264 20.5752 17.8443C20.8786 16.3554 21 14.4498 21 12C21 9.55023 20.8786 7.64457 20.5752 6.15565C20.2733 4.67359 19.8046 3.67341 19.1598 2.96997C17.8696 1.56251 15.5563 1 11 1C6.44371 1 4.13039 1.56251 2.84022 2.96997C2.1954 3.67341 1.7267 4.67359 1.42477 6.15565C1.12145 7.64457 1 9.55023 1 12Z" stroke="#ABAFD1" stroke-width="2" stroke-linecap="round" stroke-linejoin="round"/>
<circle cx="11" cy="7" r="2" stroke="#ABAFD1" stroke-width="2"/>
<circle cx="11" cy="16" r="3" stroke="#ABAFD1" stroke-width="2"/>
</svg>
