<svg width="24" height="24" viewBox="0 0 24 24" fill="none" xmlns="http://www.w3.org/2000/svg">
<path d="M1 12C1 14.4477 1.13246 16.3463 1.46153 17.827C1.78807 19.2963 2.29478 20.2921 3.00136 20.9986C3.70794 21.7052 4.70365 22.2119 6.17298 22.5385C7.65366 22.8675 9.55232 23 12 23C14.4477 23 16.3463 22.8675 17.827 22.5385C19.2963 22.2119 20.2921 21.7052 20.9986 20.9986C21.7052 20.2921 22.2119 19.2963 22.5385 17.827C22.8675 16.3463 23 14.4477 23 12C23 9.55232 22.8675 7.65366 22.5385 6.17298C22.2119 4.70365 21.7052 3.70794 20.9986 3.00136C20.2921 2.29478 19.2963 1.78807 17.827 1.46153C16.3463 1.13246 14.4477 1 12 1C9.55232 1 7.65366 1.13246 6.17298 1.46153C4.70365 1.78807 3.70794 2.29478 3.00136 3.00136C2.29478 3.70794 1.78807 4.70365 1.46153 6.17298C1.13246 7.65366 1 9.55232 1 12Z" stroke="#ABAFD1" stroke-width="2" stroke-linecap="round" stroke-linejoin="round"/>
<path d="M8 12C8 13.0066 8.05524 13.7472 8.17841 14.3014C8.29906 14.8442 8.47118 15.1451 8.66304 15.337C8.8549 15.5288 9.15576 15.7009 9.69863 15.8216C10.2528 15.9448 10.9934 16 12 16C13.0066 16 13.7471 15.9448 14.3014 15.8216C14.8442 15.7009 15.1451 15.5288 15.337 15.337C15.5288 15.1451 15.7009 14.8442 15.8216 14.3014C15.9448 13.7472 16 13.0066 16 12C16 10.9934 15.9448 10.2529 15.8216 9.69863C15.7009 9.15576 15.5288 8.8549 15.337 8.66304C15.1451 8.47118 14.8442 8.29906 14.3014 8.17841C13.7471 8.05524 13.0066 8 12 8C10.9934 8 10.2528 8.05524 9.69863 8.17841C9.15576 8.29906 8.8549 8.47118 8.66304 8.66304C8.47118 8.8549 8.29906 9.15576 8.17841 9.69863C8.05524 10.2529 8 10.9934 8 12Z" stroke="#ABAFD1" stroke-width="2" stroke-linecap="round" stroke-linejoin="round"/>
</svg>
