<svg width="28" height="28" viewBox="0 0 28 28" fill="none" xmlns="http://www.w3.org/2000/svg">
<path d="M7 14.0108C6.96813 16.9553 7.45958 18.594 8.40846 19.5429C9.36051 20.4949 11.0193 21 14.0001 21C16.9805 21 18.6213 20.495 19.565 19.5452C20.5102 18.5938 21.0001 16.9513 21.0001 14C21.0001 11.0487 20.5102 9.40618 19.565 8.4548C18.6213 7.50496 16.9805 7 14.0001 7C11.02 7 9.39707 7.50486 8.46177 8.45247C7.52024 9.40639 7.03202 11.0528 7 14.0108Z" stroke="#ABAFD1" stroke-width="2" stroke-linecap="round" stroke-linejoin="round"/>
<path d="M15 1C15 0.447715 14.5523 0 14 0C13.4477 0 13 0.447715 13 1H15ZM13 3C13 3.55228 13.4477 4 14 4C14.5523 4 15 3.55228 15 3H13ZM13 1V3H15V1H13Z" fill="#ABAFD1"/>
<path d="M15 25C15 24.4477 14.5523 24 14 24C13.4477 24 13 24.4477 13 25H15ZM13 27C13 27.5523 13.4477 28 14 28C14.5523 28 15 27.5523 15 27H13ZM13 25V27H15V25H13Z" fill="#ABAFD1"/>
<path d="M27 15C27.5523 15 28 14.5523 28 14C28 13.4477 27.5523 13 27 13L27 15ZM25 13C24.4477 13 24 13.4477 24 14C24 14.5523 24.4477 15 25 15L25 13ZM27 13L25 13L25 15L27 15L27 13Z" fill="#ABAFD1"/>
<path d="M3 15C3.55228 15 4 14.5523 4 14C4 13.4477 3.55228 13 3 13L3 15ZM1 13C0.447715 13 2.41411e-08 13.4477 0 14C-2.41411e-08 14.5523 0.447715 15 1 15L1 13ZM3 13L1 13L1 15L3 15L3 13Z" fill="#ABAFD1"/>
<path d="M4.70711 3.29289C4.31658 2.90237 3.68342 2.90237 3.29289 3.29289C2.90237 3.68342 2.90237 4.31658 3.29289 4.70711L4.70711 3.29289ZM4.70711 6.12132C5.09763 6.51184 5.7308 6.51184 6.12132 6.12132C6.51184 5.7308 6.51184 5.09763 6.12132 4.70711L4.70711 6.12132ZM3.29289 4.70711L4.70711 6.12132L6.12132 4.70711L4.70711 3.29289L3.29289 4.70711Z" fill="#ABAFD1"/>
<path d="M4.70711 25.1212C4.31658 25.5117 3.68342 25.5117 3.29289 25.1212C2.90237 24.7306 2.90237 24.0975 3.29289 23.707L4.70711 25.1212ZM4.70711 22.2927C5.09763 21.9022 5.7308 21.9022 6.12132 22.2927C6.51184 22.6833 6.51184 23.3164 6.12132 23.707L4.70711 22.2927ZM3.29289 23.707L4.70711 22.2927L6.12132 23.707L4.70711 25.1212L3.29289 23.707Z" fill="#ABAFD1"/>
<path d="M23.707 3.29289C24.0975 2.90237 24.7306 2.90237 25.1212 3.29289C25.5117 3.68342 25.5117 4.31658 25.1212 4.70711L23.707 3.29289ZM23.707 6.12132C23.3164 6.51184 22.6833 6.51184 22.2927 6.12132C21.9022 5.7308 21.9022 5.09763 22.2927 4.70711L23.707 6.12132ZM25.1212 4.70711L23.707 6.12132L22.2927 4.70711L23.707 3.29289L25.1212 4.70711Z" fill="#ABAFD1"/>
<path d="M23.707 25.1212C24.0975 25.5117 24.7306 25.5117 25.1212 25.1212C25.5117 24.7306 25.5117 24.0975 25.1212 23.707L23.707 25.1212ZM23.707 22.2927C23.3164 21.9022 22.6833 21.9022 22.2927 22.2927C21.9022 22.6833 21.9022 23.3164 22.2927 23.707L23.707 22.2927ZM25.1212 23.707L23.707 22.2927L22.2927 23.707L23.707 25.1212L25.1212 23.707Z" fill="#ABAFD1"/>
</svg>
