<svg width="20" height="24" viewBox="0 0 20 24" fill="none" xmlns="http://www.w3.org/2000/svg">
<path d="M1 14C1 16.0359 1.11039 17.6037 1.38064 18.8197C1.64835 20.0243 2.05947 20.8215 2.61898 21.381C3.1785 21.9405 3.97568 22.3516 5.18031 22.6194C6.39629 22.8896 7.96407 23 10 23C12.0359 23 13.6037 22.8896 14.8197 22.6194C16.0243 22.3516 16.8215 21.9405 17.381 21.381C17.9405 20.8215 18.3516 20.0243 18.6194 18.8197C18.8896 17.6037 19 16.0359 19 14C19 11.9641 18.8896 10.3963 18.6194 9.18031C18.3516 7.97569 17.9405 7.1785 17.381 6.61898C16.8215 6.05947 16.0243 5.64835 14.8197 5.38064C13.6037 5.1104 12.0359 5 10 5C7.96407 5 6.39629 5.1104 5.18031 5.38064C3.97568 5.64835 3.1785 6.05947 2.61898 6.61898C2.05947 7.1785 1.64835 7.97569 1.38064 9.18031C1.11039 10.3963 1 11.9641 1 14Z" stroke="#ABAFD1" stroke-width="2" stroke-linecap="round" stroke-linejoin="round"/>
<path d="M3 1H10M17 1H10M10 1V4" stroke="#ABAFD1" stroke-width="2" stroke-linecap="round" stroke-linejoin="round"/>
<path d="M6 13H7M8 13H7M7 13V15M9 15V13L11 15V13M12 13H13M14 13H13M13 13V15" stroke="#ABAFD1" stroke-linecap="round" stroke-linejoin="round"/>
</svg>
