<svg width="24" height="24" viewBox="0 0 24 24" fill="none" xmlns="http://www.w3.org/2000/svg">
<path d="M1 14C1 18.1299 1.55938 20.174 2.93443 21.3199C3.63671 21.9051 4.64335 22.3354 6.13814 22.6123C7.63548 22.8896 9.54819 23 12 23C14.4518 23 16.3645 22.8896 17.8619 22.6123C19.3566 22.3354 20.3633 21.9051 21.0656 21.3199C22.4406 20.174 23 18.1299 23 14C23 9.87011 22.4406 7.82597 21.0656 6.6801C20.3633 6.09486 19.3566 5.66457 17.8619 5.38773C16.3645 5.11042 14.4518 5 12 5C9.54819 5 7.63548 5.11042 6.13814 5.38773C4.64335 5.66457 3.63671 6.09486 2.93443 6.6801C1.55938 7.82597 1 9.87011 1 14Z" stroke="#ABAFD1" stroke-width="2" stroke-linecap="round" stroke-linejoin="round"/>
<path d="M6 1L12 4L18 1" stroke="#ABAFD1" stroke-width="2" stroke-linecap="round" stroke-linejoin="round"/>
</svg>
