<svg width="24" height="24" viewBox="0 0 24 24" fill="none" xmlns="http://www.w3.org/2000/svg">
<path fill-rule="evenodd" clip-rule="evenodd" d="M8.09625 6.11874C8.29826 4.80118 8.73593 3.90108 9.25475 3.29586C9.88415 2.56165 10.706 2.17554 11.6049 2.04789C12.5167 1.9184 13.4941 2.05953 14.3528 2.37839C15.225 2.7023 15.8764 3.1719 16.2043 3.6026C16.5389 4.04204 17.1663 4.12707 17.6057 3.79253C18.0452 3.45799 18.1302 2.83056 17.7957 2.39112C17.1712 1.57084 16.1559 0.914546 15.049 0.503492C13.9285 0.0873952 12.6142 -0.115502 11.3237 0.0677581C10.0202 0.25286 8.72894 0.836265 7.73632 1.99418C6.84072 3.03892 6.24904 4.47992 6.05055 6.34856C1.2071 7.12832 0 9.40484 0 15C0 22.4115 2.118 24 12 24C21.882 24 24 22.4115 24 15C24 7.58854 21.882 6.00004 12 6.00004C10.534 6.00004 9.23893 6.035 8.09625 6.11874ZM2 15C2 18.6887 2.57639 19.991 3.49425 20.6794C4.01913 21.073 4.85848 21.4255 6.28486 21.6632C7.70849 21.9005 9.56287 22 12 22C14.4371 22 16.2915 21.9005 17.7151 21.6632C19.1415 21.4255 19.9809 21.073 20.5058 20.6794C21.4236 19.991 22 18.6887 22 15C22 11.3114 21.4236 10.0091 20.5058 9.32073C19.9809 8.92707 19.1415 8.57458 17.7151 8.33683C16.2915 8.09954 14.4371 8.00004 12 8.00004C9.56287 8.00004 7.70849 8.09954 6.28486 8.33683C4.85848 8.57458 4.01913 8.92707 3.49425 9.32073C2.57639 10.0091 2 11.3114 2 15Z" fill="#ABAFD1"/>
<circle r="2" transform="matrix(-1 0 0 1 12 15.0001)" stroke="#ABAFD1" stroke-width="2"/>
</svg>
