<svg width="24" height="25" viewBox="0 0 24 25" fill="none" xmlns="http://www.w3.org/2000/svg">
<path d="M1 12.3311C1 14.7788 1.13246 16.6775 1.46153 18.1581C1.78807 19.6275 2.29478 20.6232 3.00136 21.3298C3.70794 22.0363 4.70365 22.543 6.17298 22.8696C7.65366 23.1987 9.55232 23.3311 12 23.3311C14.4477 23.3311 16.3463 23.1987 17.827 22.8696C19.2963 22.543 20.2921 22.0363 20.9986 21.3298C21.7052 20.6232 22.2119 19.6275 22.5385 18.1581C22.8675 16.6775 23 14.7788 23 12.3311C23 9.88344 22.8675 7.98478 22.5385 6.5041C22.2119 5.03477 21.7052 4.03905 20.9986 3.33247C20.2921 2.62589 19.2963 2.11919 17.827 1.79264C16.3463 1.46357 14.4477 1.33112 12 1.33112C9.55232 1.33112 7.65366 1.46357 6.17298 1.79264C4.70365 2.11919 3.70794 2.62589 3.00136 3.33247C2.29478 4.03905 1.78807 5.03477 1.46153 6.5041C1.13246 7.98478 1 9.88344 1 12.3311Z" stroke="#ABAFD1" stroke-width="2" stroke-linecap="round" stroke-linejoin="round"/>
<path d="M8 14.3311L12 10.3311L16 14.3311" stroke="#ABAFD1" stroke-width="2" stroke-linecap="round" stroke-linejoin="round"/>
</svg>
