<svg width="24" height="26" viewBox="0 0 24 26" fill="none" xmlns="http://www.w3.org/2000/svg">
<path d="M17 6L12 1M12 1L7 6M12 1L12 15" stroke="#ABAFD1" stroke-width="2" stroke-linecap="round" stroke-linejoin="round"/>
<path fill-rule="evenodd" clip-rule="evenodd" d="M5 9.296C5 8.62866 4.36871 8.13099 3.74865 8.37771C0.806956 9.54824 0 11.9815 0 16.7058C0 24.3595 2.118 25.9999 12 25.9999C21.882 25.9999 24 24.3595 24 16.7058C24 11.9815 23.193 9.54824 20.2514 8.37771C19.6313 8.13099 19 8.62866 19 9.296C19 9.74846 19.3009 10.1366 19.714 10.3212C20.0273 10.4612 20.2776 10.6121 20.4811 10.7697C21.4189 11.4961 22 12.8821 22 16.7058C22 20.5294 21.4189 21.9154 20.4811 22.6418C19.9576 23.0473 19.1238 23.4088 17.7047 23.653C16.2861 23.8972 14.436 23.9999 12 23.9999C9.56404 23.9999 7.71385 23.8972 6.2953 23.653C4.87622 23.4088 4.04242 23.0473 3.51891 22.6418C2.58107 21.9154 2 20.5294 2 16.7058C2 12.8821 2.58107 11.4961 3.51891 10.7697C3.72237 10.6121 3.97269 10.4612 4.28602 10.3212C4.69912 10.1366 5 9.74846 5 9.296Z" fill="#ABAFD1"/>
</svg>
