<svg width="25" height="24" viewBox="0 0 25 24" fill="none" xmlns="http://www.w3.org/2000/svg">
<path d="M1 19C1 19.9693 1.11783 20.618 1.34327 21.0791C1.5502 21.5023 1.88679 21.8473 2.51687 22.1337C3.17962 22.4349 4.14546 22.6599 5.5602 22.8028C6.96536 22.9448 8.74527 23 11 23C13.2547 23 15.0346 22.9448 16.4398 22.8028C17.8545 22.6599 18.8204 22.4349 19.4831 22.1337C20.1132 21.8473 20.4498 21.5023 20.6567 21.0791C20.8822 20.618 21 19.9693 21 19C21 18.0307 20.8822 17.382 20.6567 16.9209C20.4498 16.4977 20.1132 16.1527 19.4831 15.8663C18.8204 15.5651 17.8545 15.3401 16.4398 15.1972C15.0346 15.0552 13.2547 15 11 15C8.74527 15 6.96536 15.0552 5.5602 15.1972C4.14546 15.3401 3.17962 15.5651 2.51687 15.8663C1.88679 16.1527 1.5502 16.4977 1.34327 16.9209C1.11783 17.382 1 18.0307 1 19Z" stroke="#ABAFD1" stroke-width="2" stroke-linecap="round" stroke-linejoin="round"/>
<circle r="5" transform="matrix(-1 0 0 1 11 6)" stroke="#ABAFD1" stroke-width="2"/>
<path fill-rule="evenodd" clip-rule="evenodd" d="M19.2932 11.2926C18.9027 11.6831 18.9026 12.3164 19.2929 12.7071C19.6832 13.0978 20.3163 13.0979 20.7068 12.7074L22 11.4142L23.2929 12.7071C23.6834 13.0976 24.3166 13.0976 24.7071 12.7071C25.0976 12.3166 25.0976 11.6834 24.7071 11.2929L23.4142 9.99999L24.7068 8.70741C25.0973 8.31688 25.0975 7.68358 24.7071 7.29288C24.3168 6.90217 23.6837 6.90203 23.2932 7.29256L22 8.58578L20.7071 7.29288C20.3166 6.90236 19.6834 6.90236 19.2929 7.29288C18.9024 7.68341 18.9024 8.31657 19.2929 8.7071L20.5858 9.99999L19.2932 11.2926Z" fill="#ABAFD1"/>
</svg>
