<svg width="29" height="20" viewBox="0 0 29 20" fill="none" xmlns="http://www.w3.org/2000/svg">
<path d="M1 10C1 14.1434 1.5182 16.205 2.77574 17.3482C3.40544 17.9206 4.30686 18.3424 5.65773 18.6154C7.01506 18.8896 8.75592 19 11 19C13.2441 19 14.9849 18.8896 16.3423 18.6154C17.6931 18.3424 18.5946 17.9206 19.2243 17.3482C20.4818 16.205 21 14.1434 21 10C21 5.85659 20.4818 3.79503 19.2243 2.65182C18.5946 2.07936 17.6931 1.65758 16.3423 1.38465C14.9849 1.11042 13.2441 1 11 1C8.75592 1 7.01506 1.11042 5.65773 1.38465C4.30686 1.65758 3.40544 2.07936 2.77574 2.65182C1.5182 3.79503 1 5.85659 1 10Z" stroke="#ABAFD1" stroke-width="2" stroke-linecap="round" stroke-linejoin="round"/>
<path d="M21 5.23677C24.8309 1.86258 27.2222 2.6737 27.6667 5.23676C28.1111 7.79982 28.1111 11.8749 27.6667 14.4219C27.2836 17.7961 24.8309 17.89 21 14.5159" stroke="#ABAFD1" stroke-width="2"/>
</svg>
