<svg width="24" height="24" viewBox="0 0 24 24" fill="none" xmlns="http://www.w3.org/2000/svg">
<path d="M1.01272 11.9195L0.0190286 12.0317L1.01272 11.9195C1.02538 12.0317 1.04017 12.0984 1.10073 12.3524C2.75599 19.294 8.63623 21.9135 11.1562 22.7299C11.5879 22.8698 11.6901 22.9009 12 22.9009C12.3099 22.9009 12.4121 22.8698 12.8438 22.7299C15.3638 21.9135 21.244 19.294 22.8993 12.3524C22.9598 12.0984 22.9746 12.0317 22.9873 11.9195C22.9997 11.8098 23.0002 11.7239 22.9973 11.4102C22.9533 6.70449 22.3475 4.2723 20.9089 2.9142C19.4531 1.5397 16.8733 0.999999 12 0.999999C7.1267 0.999999 4.54693 1.53969 3.09106 2.9142C1.65255 4.2723 1.04666 6.70448 1.00268 11.4102C0.999753 11.7239 1.00034 11.8098 1.01272 11.9195Z" stroke="#ABAFD1" stroke-width="2" stroke-linecap="round" stroke-linejoin="round"/>
<path fill-rule="evenodd" clip-rule="evenodd" d="M16.7071 9.7071C17.0977 9.31657 17.0977 8.68341 16.7071 8.29289C16.3166 7.90236 15.6834 7.90236 15.2929 8.29289L11 12.5858L9.70714 11.2929C9.31661 10.9024 8.68345 10.9024 8.29292 11.2929C7.9024 11.6834 7.9024 12.3166 8.29292 12.7071L10.2929 14.7071C10.6834 15.0976 11.3166 15.0976 11.7071 14.7071L16.7071 9.7071Z" fill="#ABAFD1"/>
</svg>
