<svg width="24" height="24" viewBox="0 0 24 24" fill="none" xmlns="http://www.w3.org/2000/svg">
<path d="M5.36364 12.013C5.32952 14.6406 5.84757 16.2137 6.79043 17.1565C7.73653 18.1026 9.33158 18.6364 12.0001 18.6364C14.6679 18.6364 16.2436 18.1029 17.1806 17.1591C18.1192 16.2137 18.6365 14.636 18.6365 12C18.6365 9.36395 18.1192 7.78629 17.1806 6.84089C16.2436 5.89704 14.6679 5.36362 12.0001 5.36362C9.33307 5.36362 7.77667 5.89672 6.84868 6.8383C5.91436 7.7863 5.39799 9.36852 5.36364 12.013Z" stroke="#ABAFD1" stroke-width="2" stroke-linecap="round" stroke-linejoin="round"/>
<path fill-rule="evenodd" clip-rule="evenodd" d="M9.81812 0.0908813C9.26583 0.0908813 8.81812 0.538597 8.81812 1.09088C8.81812 1.64317 9.26583 2.09088 9.81812 2.09088H10.9999V4.36361C10.9999 4.91589 11.4476 5.36361 11.9999 5.36361C12.5522 5.36361 12.9999 4.91589 12.9999 4.36361V2.09088H14.1818C14.734 2.09088 15.1818 1.64317 15.1818 1.09088C15.1818 0.538597 14.734 0.0908813 14.1818 0.0908813H11.9999H9.81812ZM23.9091 9.81818C23.9091 9.26589 23.4613 8.81818 22.9091 8.81818C22.3568 8.81818 21.9091 9.26589 21.9091 9.81818V11H19.6363C19.084 11 18.6363 11.4477 18.6363 12C18.6363 12.5523 19.084 13 19.6363 13H21.9091V14.1818C21.9091 14.7341 22.3568 15.1818 22.9091 15.1818C23.4613 15.1818 23.9091 14.7341 23.9091 14.1818V12V9.81818ZM17.9706 1.47472C18.3612 1.08419 18.9943 1.08419 19.3848 1.47472L20.9276 3.0175L22.4704 4.56027C22.8609 4.9508 22.8609 5.58396 22.4704 5.97449C22.0799 6.36501 21.4467 6.36501 21.0562 5.97449L20.2205 5.13882L18.6135 6.74588C18.2229 7.1364 17.5898 7.1364 17.1992 6.74588C16.8087 6.35535 16.8087 5.72219 17.1992 5.33166L18.8063 3.7246L17.9706 2.88893C17.5801 2.49841 17.5801 1.86524 17.9706 1.47472ZM22.4704 19.3849C22.8609 18.9944 22.8609 18.3612 22.4704 17.9707C22.0799 17.5802 21.4467 17.5802 21.0562 17.9707L20.2205 18.8064L18.6135 17.1993C18.2229 16.8088 17.5898 16.8088 17.1993 17.1993C16.8087 17.5898 16.8087 18.223 17.1993 18.6135L18.8063 20.2206L17.9706 21.0562C17.5801 21.4468 17.5801 22.0799 17.9706 22.4705C18.3612 22.861 18.9943 22.861 19.3849 22.4705L20.9276 20.9277L22.4704 19.3849ZM1.47466 5.9745C1.08413 5.58398 1.08413 4.95081 1.47466 4.56029L3.01743 3.01751L4.56021 1.47473C4.95074 1.08421 5.5839 1.08421 5.97443 1.47473C6.36495 1.86525 6.36495 2.49842 5.97443 2.88894L5.13875 3.72462L6.74582 5.33168C7.13634 5.7222 7.13634 6.35537 6.74582 6.74589C6.35529 7.13642 5.72213 7.13642 5.3316 6.74589L3.72454 5.13883L2.88887 5.9745C2.49835 6.36503 1.86518 6.36503 1.47466 5.9745ZM4.56023 22.4705C4.95075 22.861 5.58392 22.861 5.97444 22.4705C6.36496 22.0799 6.36496 21.4468 5.97444 21.0563L5.13877 20.2206L6.74583 18.6135C7.13635 18.223 7.13635 17.5898 6.74583 17.1993C6.35531 16.8088 5.72214 16.8088 5.33162 17.1993L3.72456 18.8064L2.88888 17.9707C2.49836 17.5802 1.86519 17.5802 1.47467 17.9707C1.08415 18.3612 1.08415 18.9944 1.47467 19.3849L3.01745 20.9277L4.56023 22.4705ZM1.09082 8.81818C0.538536 8.81818 0.0908203 9.26589 0.0908203 9.81818V12V14.1818C0.0908203 14.7341 0.538536 15.1818 1.09082 15.1818C1.64311 15.1818 2.09082 14.7341 2.09082 14.1818V13H4.36355C4.91583 13 5.36355 12.5523 5.36355 12C5.36355 11.4477 4.91583 11 4.36355 11H2.09082V9.81818C2.09082 9.26589 1.64311 8.81818 1.09082 8.81818ZM9.81812 23.9091C9.26583 23.9091 8.81812 23.4614 8.81812 22.9091C8.81812 22.3568 9.26583 21.9091 9.81812 21.9091H10.9999V19.6364C10.9999 19.0841 11.4476 18.6364 11.9999 18.6364C12.5522 18.6364 12.9999 19.0841 12.9999 19.6364V21.9091H14.1818C14.734 21.9091 15.1818 22.3568 15.1818 22.9091C15.1818 23.4614 14.734 23.9091 14.1818 23.9091H11.9999H9.81812Z" fill="#ABAFD1"/>
</svg>
