<svg width="25" height="21" viewBox="0 0 25 21" fill="none" xmlns="http://www.w3.org/2000/svg">
<path d="M7.20731 15.4994C4.50268 15.4994 3.00999 14.9189 2.18203 14.1271C1.36774 13.3483 1 12.1755 1 10.5015C1 8.89578 1.45986 7.70077 2.35391 6.89171C3.26486 6.06735 4.78647 5.49768 7.20732 5.49768C8.64365 5.49768 9.72884 5.17945 10.5913 4.64488C11.4386 4.11968 11.9947 3.43014 12.4288 2.8438C12.5188 2.72217 12.6017 2.60823 12.6796 2.50118C13.0066 2.05167 13.2452 1.72381 13.5511 1.45955C13.8636 1.1897 14.2416 0.999998 14.8902 0.999998C15.557 0.999998 16.0598 1.20155 16.4716 1.55521C16.903 1.92571 17.2879 2.51075 17.6035 3.35096C18.2416 5.04982 18.5 7.52477 18.5 10.5015C18.5 13.4782 18.2416 15.9523 17.6035 17.6504C17.288 18.4902 16.9031 19.0748 16.4718 19.4451C16.06 19.7985 15.5572 20 14.8902 20C14.2457 20 13.9155 19.8139 13.655 19.5687C13.4003 19.3289 13.2145 19.0469 12.9513 18.6476C12.8599 18.5089 12.7591 18.356 12.6429 18.1858C12.2299 17.5809 11.6834 16.8774 10.7944 16.3447C9.90069 15.8093 8.75238 15.4994 7.20731 15.4994Z" stroke="#ABAFD1" stroke-width="2"/>
<path d="M22.5 7C22.5 7 22.8891 7.6408 23.0714 8.16667C23.3469 8.96092 23.5 9.52681 23.5 10.5C23.5 11.4732 23.3469 12.0391 23.0714 12.8333C22.8891 13.3592 22.5 14 22.5 14" stroke="#ABAFD1" stroke-width="2" stroke-linecap="round" stroke-linejoin="round"/>
</svg>
