<svg width="24" height="24" viewBox="0 0 24 24" fill="none" xmlns="http://www.w3.org/2000/svg">
<path d="M1 12C1 14.4477 1.13246 16.3463 1.46153 17.827C1.78807 19.2963 2.29478 20.2921 3.00136 20.9986C3.70794 21.7052 4.70365 22.2119 6.17298 22.5385C7.65366 22.8675 9.55232 23 12 23C16.1976 23 18.7101 22.6027 20.2641 21.5914C21.7138 20.648 22.5191 19.0273 22.8373 15.8988C22.9512 14.7783 23 13.4881 23 12C23 10.5119 22.9512 9.22172 22.8373 8.10118C22.5191 4.97271 21.7138 3.35199 20.2641 2.40859C18.7101 1.39733 16.1976 1 12 1C9.55232 1 7.65366 1.13246 6.17298 1.46153C4.70365 1.78807 3.70794 2.29478 3.00136 3.00136C2.29478 3.70794 1.78807 4.70365 1.46153 6.17298C1.13246 7.65366 1 9.55232 1 12Z" stroke="#ABAFD1" stroke-width="2" stroke-linecap="round" stroke-linejoin="round"/>
</svg>
