<svg width="20" height="26" viewBox="0 0 20 26" fill="none" xmlns="http://www.w3.org/2000/svg">
<path fill-rule="evenodd" clip-rule="evenodd" d="M5.6446 3.14461C5.28932 3.49988 5.12131 3.91625 5.04875 4.34725C6.35783 4.09508 7.98529 4 10 4C12.0147 4 13.6422 4.09508 14.9512 4.34725C14.8787 3.91624 14.7107 3.49988 14.3554 3.14461C13.8107 2.59995 12.6254 2 10 2C7.37456 2 6.18925 2.59995 5.6446 3.14461ZM4.23038 1.73039C3.14089 2.81988 3.00058 4.14576 3 4.99463C0.649723 6.15005 0 8.50326 0 13C0 17.4967 0.649723 19.8499 3 21.0054C3.00058 21.8542 3.14089 23.1801 4.23038 24.2696C5.31072 25.3499 7.12542 26 10 26C12.8746 26 14.6893 25.3499 15.7696 24.2696C16.8591 23.1801 16.9994 21.8542 17 21.0054C19.3503 19.8499 20 17.4967 20 13C20 8.50326 19.3503 6.15006 17 4.99463C16.9994 4.14578 16.8591 2.81989 15.7696 1.73039C14.6893 0.650052 12.8746 0 10 0C7.12542 0 5.31072 0.650052 4.23038 1.73039ZM14.9512 21.6528C13.6422 21.9049 12.0147 22 10 22C7.98529 22 6.35784 21.9049 5.04875 21.6528C5.12132 22.0838 5.28932 22.5001 5.6446 22.8554C6.18925 23.4001 7.37456 24 10 24C12.6254 24 13.8107 23.4001 14.3554 22.8554C14.7107 22.5001 14.8787 22.0838 14.9512 21.6528ZM3.2498 18.7927C2.50641 18.1237 2 16.7548 2 13C2 9.24522 2.50641 7.87633 3.2498 7.20728C3.62642 6.86832 4.23932 6.54844 5.35563 6.32516C6.48388 6.09949 7.98189 6 10 6C12.0181 6 13.5161 6.09949 14.6444 6.32516C15.7607 6.54844 16.3736 6.86832 16.7502 7.20728C17.4936 7.87633 18 9.24522 18 13C18 16.7548 17.4936 18.1237 16.7502 18.7927C16.3736 19.1317 15.7607 19.4516 14.6444 19.6748C13.5161 19.9005 12.0181 20 10 20C7.98189 20 6.48388 19.9005 5.35563 19.6748C4.23932 19.4516 3.62642 19.1317 3.2498 18.7927Z" fill="#ABAFD1"/>
<path d="M10 9C10 9 10 11 10 12C10 13 9.99999 13 11 13C12 13 15 13 15 13" stroke="#ABAFD1" stroke-width="2" stroke-linecap="round" stroke-linejoin="round"/>
</svg>
