<svg width="24" height="24" viewBox="0 0 24 24" fill="none" xmlns="http://www.w3.org/2000/svg">
<path d="M1 12C1 13.0276 1.06887 13.976 1.20364 14.8471C1.63778 17.6535 2.75038 19.6461 4.46465 20.9553C6.19653 22.2779 8.66913 23 12 23C15.3309 23 17.8035 22.2779 19.5354 20.9553C21.2496 19.6461 22.3622 17.6535 22.7964 14.8471C22.9311 13.976 23 13.0276 23 12C23 10.9724 22.9311 10.024 22.7964 9.15288C22.3622 6.34653 21.2496 4.35394 19.5354 3.04474C17.8035 1.72209 15.3309 1 12 1C8.66912 1 6.19653 1.72209 4.46464 3.04474C2.75038 4.35394 1.63778 6.34653 1.20363 9.15288C1.06887 10.024 1 10.9724 1 12Z" stroke="#ABAFD1" stroke-width="2" stroke-linecap="round" stroke-linejoin="round"/>
<path d="M15 12C15 14.9524 14.5632 17.8462 13.8769 19.9708C13.5319 21.0387 13.1413 21.8569 12.7515 22.3867C12.3423 22.9429 12.0761 23 12 23C11.9239 23 11.6577 22.9429 11.2485 22.3867C10.8587 21.8569 10.4681 21.0387 10.1231 19.9708C9.43679 17.8462 9 14.9524 9 12C9 9.0476 9.43679 6.15378 10.1231 4.02924C10.4681 2.96134 10.8587 2.1431 11.2485 1.61334C11.6577 1.05712 11.9239 1 12 1C12.0761 1 12.3423 1.05712 12.7515 1.61334C13.1413 2.1431 13.5319 2.96134 13.8769 4.02924C14.5632 6.15378 15 9.0476 15 12Z" stroke="#ABAFD1" stroke-width="2"/>
</svg>
