<svg width="68" height="68" viewBox="0 0 68 68" fill="none" xmlns="http://www.w3.org/2000/svg">
<path d="M34.0002 67.3337C52.4013 67.3135 67.3133 52.4015 67.3335 34.0004V33.3337C66.9671 15.0155 51.8849 0.426907 33.5646 0.669986C15.2443 0.913066 0.554497 15.8967 0.67421 34.2182C0.793915 52.5397 15.6783 67.33 34.0002 67.3337ZM34.0002 7.33372C48.7278 7.33372 60.6668 19.2728 60.6668 34.0004C60.6668 48.728 48.7278 60.667 34.0002 60.667C19.2726 60.667 7.33349 48.728 7.33349 34.0004C7.35003 19.2796 19.2794 7.35025 34.0002 7.33372ZM38.8335 50.667L43.5468 45.9504L31.7635 34.167L43.5468 22.3837L38.8335 17.6671L22.3335 34.167L38.8302 50.667H38.8335Z" fill="#E5F4FF"/>
</svg>
