<svg width="60" height="40" viewBox="0 0 60 40" fill="none" xmlns="http://www.w3.org/2000/svg">
<path d="M47.5 40.0003H15C7.18596 40.0049 0.677266 34.0099 0.040941 26.2218C-0.595384 18.4336 4.85384 11.4616 12.565 10.1978C16.1143 3.90498 22.7753 0.00904491 30 0.00013239C34.5042 -0.016336 38.8793 1.50406 42.4025 4.31027C45.8623 7.05427 48.3223 10.8611 49.4025 15.1428C55.8694 16.1276 60.4833 21.9318 59.9841 28.4542C59.4849 34.9766 54.0415 40.011 47.5 40.0003ZM30 5.00024C24.5793 5.00665 19.5817 7.93051 16.92 12.6528L15.75 14.7503L13.3775 15.1378C8.25324 15.9963 4.64006 20.636 5.06307 25.8145C5.48608 30.9929 9.80435 34.9848 15 35.0003H47.5C51.4215 35.0043 54.684 31.9868 54.9856 28.0769C55.2871 24.1671 52.5257 20.685 48.65 20.0878L45.36 19.5878L44.555 16.3578C42.8932 9.67479 36.8865 4.98766 30 5.00024Z" fill="#757575"/>
</svg>
