<svg width="46" height="46" viewBox="0 0 46 46" fill="none" xmlns="http://www.w3.org/2000/svg">
<path d="M23.0049 45.6027C16.8549 45.6027 16.1299 45.5702 13.7299 45.4652C11.8583 45.4036 10.011 45.0232 8.26738 44.3402C5.25066 43.1662 2.86523 40.7799 1.69238 37.7627C1.03565 36.0128 0.681427 34.1639 0.644883 32.2952C0.504883 29.9002 0.504883 29.1152 0.504883 23.0127C0.504883 16.8452 0.537383 16.1252 0.644883 13.7377C0.682227 11.8715 1.03644 10.0252 1.69238 8.2777C2.86396 5.25652 5.25326 2.86813 8.27488 1.6977C10.0215 1.0382 11.8682 0.683056 13.7349 0.647695C16.1224 0.512695 16.9074 0.512695 23.0049 0.512695C29.2049 0.512695 29.9174 0.545195 32.2799 0.647695C34.1514 0.683362 36.003 1.03847 37.7549 1.6977C40.7756 2.86945 43.1645 5.25738 44.3374 8.2777C45.0052 10.0507 45.3613 11.9258 45.3899 13.8202C45.5299 16.2152 45.5299 16.9977 45.5299 23.0977C45.5299 29.1977 45.4949 29.9977 45.3899 32.3652C45.3527 34.2357 44.9976 36.0863 44.3399 37.8377C43.164 40.857 40.775 43.2441 37.7549 44.4177C36.0055 45.0732 34.1577 45.4274 32.2899 45.4652C29.9024 45.6027 29.1199 45.6027 23.0049 45.6027ZM22.9199 4.4702C16.8049 4.4702 16.1699 4.5002 13.7824 4.6077C12.3573 4.62657 10.9461 4.88955 9.60988 5.3852C7.63677 6.14022 6.07545 7.69517 5.31238 9.6652C4.81292 11.0159 4.5499 12.4426 4.53488 13.8827C4.40238 16.3052 4.40238 16.9402 4.40238 23.0127C4.40238 29.0127 4.42488 29.7402 4.53488 32.1477C4.55726 33.5732 4.82012 34.9847 5.31238 36.3227C6.07657 38.2914 7.63762 39.8452 9.60988 40.6002C10.9452 41.0991 12.357 41.3622 13.7824 41.3777C16.2024 41.5177 16.8399 41.5177 22.9199 41.5177C29.0524 41.5177 29.6874 41.4877 32.0549 41.3777C33.4809 41.3603 34.8932 41.0973 36.2299 40.6002C38.1911 39.8387 39.7422 38.2884 40.5049 36.3277C41.0034 34.9758 41.2664 33.5485 41.2824 32.1077H41.3099C41.4174 29.7177 41.4174 29.0802 41.4174 22.9727C41.4174 16.8652 41.3899 16.2227 41.2824 13.8352C41.26 12.4113 40.9971 11.0015 40.5049 9.6652C39.7439 7.70163 38.1926 6.14843 36.2299 5.3852C34.8935 4.88705 33.481 4.624 32.0549 4.6077C29.6374 4.4702 29.0049 4.4702 22.9199 4.4702ZM23.0049 34.5602C18.3299 34.5632 14.1134 31.7495 12.322 27.4313C10.5306 23.1131 11.5171 18.141 14.8215 14.8338C18.1258 11.5267 23.097 10.5359 27.4168 12.3235C31.7365 14.1112 34.5539 18.3252 34.5549 23.0002C34.548 29.3779 29.3825 34.5478 23.0049 34.5602ZM23.0049 15.4952C18.8627 15.4952 15.5049 18.8531 15.5049 22.9952C15.5049 27.1373 18.8627 30.4952 23.0049 30.4952C27.147 30.4952 30.5049 27.1373 30.5049 22.9952C30.4953 18.8571 27.143 15.5048 23.0049 15.4952ZM35.0049 13.7127C33.5184 13.7072 32.3171 12.4992 32.3199 11.0127C32.3226 9.52627 33.5284 8.32271 35.0149 8.32271C36.5013 8.32271 37.7071 9.52625 37.7099 11.0127C37.7106 11.7299 37.4256 12.4178 36.918 12.9244C36.4105 13.431 35.722 13.7147 35.0049 13.7127Z" fill="#757575"/>
</svg>
