<svg width="1118" height="894" viewBox="0 0 1118 894" fill="none" xmlns="http://www.w3.org/2000/svg">
<path d="M10.4302 429.962L1214.97 1.13125C1224.74 -2.34563 1235 4.89584 1235 15.2625V878.642C1235 889.036 1224.69 896.279 1214.91 892.752L10.3708 458.203C-2.8717 453.426 -2.8324 434.684 10.4302 429.962Z" fill="#0094FF"/>
<path d="M10.4302 429.962L1214.97 1.13125C1224.74 -2.34563 1235 4.89584 1235 15.2625V878.642C1235 889.036 1224.69 896.279 1214.91 892.752L10.3708 458.203C-2.8717 453.426 -2.8324 434.684 10.4302 429.962Z" fill="#0094FF"/>
<path d="M10.4302 429.962L1214.97 1.13125C1224.74 -2.34563 1235 4.89584 1235 15.2625V878.642C1235 889.036 1224.69 896.279 1214.91 892.752L10.3708 458.203C-2.8717 453.426 -2.8324 434.684 10.4302 429.962Z" fill="#FF006B"/>
</svg>
