<svg width="1069" height="892" viewBox="0 0 1069 892" fill="none" xmlns="http://www.w3.org/2000/svg">
<path d="M1058.99 429.145L-22.4799 1.1214C-32.3255 -2.77526 -43 4.48018 -43 15.0688V876.823C-43 887.441 -32.2712 894.697 -22.4164 890.745L1059.06 457.014C1071.64 451.967 1071.6 434.135 1058.99 429.145Z" fill="#0094FF"/>
<path d="M1058.99 429.145L-22.4799 1.1214C-32.3255 -2.77526 -43 4.48018 -43 15.0688V876.823C-43 887.441 -32.2712 894.697 -22.4164 890.745L1059.06 457.014C1071.64 451.967 1071.6 434.135 1058.99 429.145Z" fill="#0094FF"/>
<path d="M1058.99 429.145L-22.4799 1.1214C-32.3255 -2.77526 -43 4.48018 -43 15.0688V876.823C-43 887.441 -32.2712 894.697 -22.4164 890.745L1059.06 457.014C1071.64 451.967 1071.6 434.135 1058.99 429.145Z" fill="#2C99E8"/>
</svg>
